<?xml version="1.0" encoding="utf-8"?>
<!-- Generator: Adobe Illustrator 16.0.0, SVG Export Plug-In . SVG Version: 6.00 Build 0)  -->
<!DOCTYPE svg PUBLIC "-//W3C//DTD SVG 1.1//EN" "http://www.w3.org/Graphics/SVG/1.1/DTD/svg11.dtd">
<svg version="1.1" id="Layer_1" xmlns="http://www.w3.org/2000/svg" xmlns:xlink="http://www.w3.org/1999/xlink" x="0px" y="0px"
  width="951px" height="1024px" viewBox="0 0 951 1024" enable-background="new 0 0 951 1024" xml:space="preserve">
<g id="icomoon-ignore">
</g>
<path d="M951.449,563.869v-108.3l-15.303-4.993l-115.953-37.861L789.303,338l59.484-125.83l-76.654-76.619l-14.368,7.292
  L649.068,198.09l-74.715-30.964L527.371,36.051H419.068l-4.992,15.339l-37.859,115.952l-74.682,30.928L175.636,138.82
  l-76.584,76.583l7.292,14.332l55.208,108.804l-30.891,74.644L-0.449,460.13v108.336l15.303,4.957l115.987,37.861L161.77,686
  l-59.448,125.865l76.545,76.583l14.368-7.257l108.769-55.245l74.679,30.965l46.947,131.038h108.339l5.027-15.303l37.859-115.952
  l74.643-30.964l125.866,59.484l76.656-76.581l-7.329-14.369l-55.244-108.769l30.963-74.715L951.449,563.869z M475.5,663.656
  c-83.766,0-151.656-67.89-151.656-151.656c0-83.767,67.891-151.656,151.656-151.656c83.838,0,151.729,67.889,151.729,151.656
  C627.229,595.767,559.338,663.656,475.5,663.656z"/>
</svg>
