<?xml version="1.0" encoding="utf-8"?>
<!-- Generator: Adobe Illustrator 16.0.0, SVG Export Plug-In . SVG Version: 6.00 Build 0)  -->
<!DOCTYPE svg PUBLIC "-//W3C//DTD SVG 1.1//EN" "http://www.w3.org/Graphics/SVG/1.1/DTD/svg11.dtd">
<svg version="1.1" id="Layer_1" xmlns="http://www.w3.org/2000/svg" xmlns:xlink="http://www.w3.org/1999/xlink" x="0px" y="0px"
   width="951px" height="1024px" viewBox="0 0 951 1024" enable-background="new 0 0 951 1024" xml:space="preserve">
<g>
  <g>
    <path d="M70.001,420.714c4.56,15.639,10.893,30.723,18.899,44.877l-22.809,28.769c-7.452,9.406-6.611,22.814,1.768,31.288
      l39.289,39.289c8.474,8.474,21.882,9.22,31.288,1.768l28.582-22.621c14.712,8.469,30.351,15.08,46.645,19.735l4.283,36.78
      c1.4,11.915,11.457,20.856,23.373,20.856h55.587c11.916,0,21.972-8.941,23.368-20.856l4.097-35.476
      c17.503-4.56,34.265-11.357,49.999-20.203l27.651,21.88c9.406,7.448,22.813,6.61,31.288-1.768l39.289-39.294
      c8.474-8.475,9.22-21.882,1.769-31.284l-21.504-27.282c8.938-15.457,15.921-31.934,20.577-49.158l33.143-3.82
      c11.92-1.395,20.858-11.451,20.858-23.367V335.24c0-11.917-8.938-21.973-20.858-23.369l-32.679-3.818
      c-4.469-17.039-11.175-33.333-19.74-48.605l20.113-25.417c7.447-9.403,6.61-22.81-1.769-31.283l-39.198-39.198
      c-8.475-8.475-21.882-9.221-31.288-1.77l-24.672,19.554c-16.012-9.406-33.146-16.575-51.114-21.417l-3.723-31.934
      c-1.4-11.92-11.457-20.857-23.373-20.857h-55.587c-11.916,0-21.973,8.938-23.368,20.857l-3.724,31.934
      c-18.435,4.938-36.034,12.385-52.418,22.158l-25.605-20.295c-9.406-7.451-22.814-6.609-31.288,1.77L67.86,202.838
      c-8.474,8.474-9.22,21.882-1.768,31.288l21.413,27.091c-8.564,15.457-15.084,31.937-19.368,49.067l-34.26,3.914
      c-11.92,1.397-20.858,11.453-20.858,23.369v55.587c0,11.917,8.938,21.972,20.858,23.367L70.001,420.714z M271.394,270.342
      c50.651,0,91.899,41.248,91.899,91.898c0,50.649-41.248,91.898-91.899,91.898s-91.899-41.249-91.899-91.898
      C179.495,311.59,220.743,270.342,271.394,270.342L271.394,270.342z M271.394,270.342"/>
    <path d="M877.947,308.703l-29.328-24.765c-9.033-7.638-22.346-7.265-30.915,0.837l-16.198,15.176
      c-13.689-6.61-28.215-11.266-43.203-13.967l-4.561-22.345c-2.327-11.548-13.039-19.554-24.768-18.622l-38.267,3.261
      c-11.734,1.022-20.949,10.61-21.322,22.436l-0.745,22.718c-14.712,5.31-28.583,12.569-41.249,21.694l-19.367-12.848
      c-9.865-6.519-22.995-4.655-30.628,4.378l-24.769,29.515c-7.638,9.029-7.265,22.346,0.837,30.91l16.948,18.062
      c-5.869,13.222-10.057,27.097-12.479,41.34l-24.209,4.936c-11.543,2.328-19.549,13.034-18.622,24.768l3.26,38.266
      c1.023,11.729,10.616,20.949,22.44,21.323l26.164,0.836c4.746,12.476,10.984,24.3,18.526,35.38l-14.616,22.068
      c-6.52,9.868-4.655,22.998,4.373,30.633l29.333,24.768c9.029,7.634,22.345,7.261,30.91-0.841l19.181-17.968
      c12.57,5.865,25.791,10.244,39.385,12.848l5.306,26.256c2.327,11.548,13.039,19.554,24.769,18.622l38.266-3.255
      c11.734-1.029,20.949-10.616,21.322-22.44l0.841-25.7c13.967-4.935,27.187-11.639,39.385-19.924l21.136,13.967
      c9.865,6.515,22.994,4.655,30.627-4.377l24.77-29.328c7.633-9.034,7.264-22.347-0.836-30.911l-17.041-18.063
      c6.238-13.224,10.803-27.19,13.408-41.529l23.277-4.746c11.547-2.328,19.553-13.036,18.621-24.77l-3.26-38.265
      c-1.023-11.73-10.611-20.949-22.436-21.322l-23.373-0.745c-4.842-13.595-11.357-26.441-19.459-38.362l12.758-19.177
      C888.84,329.562,886.98,316.34,877.947,308.703L877.947,308.703z M733.721,529.931c-41.34,3.537-77.837-27.284-81.283-68.623
      c-3.537-41.34,27.282-77.837,68.621-81.284c41.34-3.537,77.838,27.282,81.283,68.623
      C805.879,489.985,775.064,526.484,733.721,529.931L733.721,529.931z M733.721,529.931"/>
  </g>
  <path d="M308.417,685.548c-11.77-0.729-22.297,7.53-24.329,19.179l-4.131,23.19c-2.12,11.634,4.865,22.989,16.197,26.381
    l16.717,5.039c1.125,10.851,3.519,21.443,7.196,31.682l-13.276,11.764c-8.861,7.875-10.475,21.007-3.687,30.725l13.498,19.322
    c6.789,9.717,19.677,12.802,30.143,7.175l15.441-8.289c8.696,7.297,18.143,13.491,28.282,18.382l-1.09,17.941
    c-0.729,11.769,7.529,22.296,19.179,24.327l23.19,4.132c11.635,2.121,22.989-4.865,26.382-16.197l4.888-16.363
    c12.043-0.927,23.784-3.411,35.202-7.369l11.136,12.515c7.87,8.855,21.004,10.473,30.721,3.685l19.324-13.496
    c9.718-6.788,12.798-19.678,7.177-30.146l-7.707-14.397c7.736-9.097,14.208-19.065,19.299-29.829l15.504,0.971
    c11.773,0.725,22.298-7.533,24.328-19.18l4.133-23.195c2.12-11.633-4.865-22.988-16.193-26.375l-14.562-4.4
    c-0.986-11.679-3.411-23.222-7.246-34.237l11.171-9.85c8.856-7.876,10.471-21.01,3.682-30.722l-13.497-19.326
    c-6.784-9.717-19.673-12.802-30.143-7.175l-12.531,6.692c-9.42-8.074-19.814-14.802-31.026-20.06l0.929-14.666
    c0.723-11.77-7.534-22.298-19.18-24.324l-23.194-4.136c-11.635-2.121-22.989,4.864-26.376,16.196l-4.219,14.024
    c-12.642,1.108-25.1,3.948-36.977,8.396l-9.925-11.274c-7.871-8.861-21.008-10.475-30.722-3.687l-19.434,13.57
    c-9.713,6.788-12.797,19.68-7.176,30.147l7.726,14.307c-7.374,9.159-13.66,19.157-18.473,29.967L308.417,685.548z M462.772,684.18
    c33.281,5.904,55.45,37.808,49.546,71.088s-37.808,55.449-71.087,49.546c-33.28-5.904-55.45-37.804-49.546-71.089
    C397.589,700.446,429.493,678.276,462.772,684.18L462.772,684.18z M462.772,684.18"/>
</g>
</svg>
