<svg id="svg" xmlns="http://www.w3.org/2000/svg" xmlns:xlink="http://www.w3.org/1999/xlink" width="400" height="400" viewBox="0, 0, 400,400"><g id="svgg"><path id="path0" d="M42.945 80.600 C 42.818 80.930,42.541 81.200,42.329 81.200 C 41.810 81.200,40.800 82.238,40.800 82.771 C 40.800 83.007,40.620 83.200,40.400 83.200 C 40.180 83.200,40.000 83.541,40.000 83.957 C 40.000 84.374,39.730 84.818,39.400 84.945 C 38.869 85.149,38.800 97.568,38.800 193.387 L 38.800 301.600 20.600 301.600 L 2.400 301.600 2.400 307.800 C 2.400 313.044,2.492 314.000,3.000 314.000 C 3.419 314.000,3.600 314.422,3.600 315.400 C 3.600 316.170,3.780 316.800,4.000 316.800 C 4.220 316.800,4.400 316.993,4.400 317.229 C 4.400 317.782,5.418 318.800,5.971 318.800 C 6.207 318.800,6.400 319.070,6.400 319.400 C 6.400 319.819,6.822 320.000,7.800 320.000 C 8.570 320.000,9.200 320.180,9.200 320.400 C 9.200 320.666,73.400 320.800,201.000 320.800 C 328.600 320.800,392.800 320.666,392.800 320.400 C 392.800 320.180,393.346 320.000,394.013 320.000 C 394.721 320.000,395.321 319.751,395.455 319.400 C 395.582 319.070,395.859 318.800,396.071 318.800 C 396.740 318.800,397.600 317.691,397.600 316.829 C 397.600 316.373,397.780 316.000,398.000 316.000 C 398.220 316.000,398.400 315.370,398.400 314.600 C 398.400 313.622,398.581 313.200,399.000 313.200 C 399.506 313.200,399.600 312.289,399.600 307.400 L 399.600 301.600 381.400 301.600 L 363.200 301.600 363.200 193.387 C 363.200 97.568,363.131 85.149,362.600 84.945 C 362.270 84.818,362.000 84.374,362.000 83.957 C 362.000 83.541,361.820 83.200,361.600 83.200 C 361.380 83.200,361.200 82.930,361.200 82.600 C 361.200 82.270,361.012 82.000,360.782 82.000 C 360.552 82.000,359.914 81.550,359.364 81.000 L 358.364 80.000 200.769 80.000 C 61.054 80.000,43.149 80.068,42.945 80.600 M202.000 87.576 C 202.000 88.003,202.180 88.464,202.400 88.600 C 203.685 89.394,202.791 90.800,201.000 90.800 C 199.076 90.800,198.358 88.922,199.700 87.398 C 200.469 86.524,202.000 86.643,202.000 87.576 M198.145 93.000 C 198.317 93.449,199.036 93.600,201.000 93.600 C 202.964 93.600,203.683 93.449,203.855 93.000 C 204.059 92.470,212.761 92.400,278.843 92.400 L 353.600 92.400 353.600 192.200 L 353.600 292.000 333.800 292.000 C 320.867 292.000,314.000 291.861,314.000 291.600 C 314.000 291.335,284.533 291.200,226.400 291.200 C 168.267 291.200,138.800 291.065,138.800 290.800 C 138.800 290.536,123.333 290.400,93.200 290.400 L 47.600 290.400 47.600 269.600 C 47.600 256.000,47.738 248.800,48.000 248.800 C 48.265 248.800,48.400 222.467,48.400 170.600 L 48.400 92.400 123.157 92.400 C 189.239 92.400,197.941 92.470,198.145 93.000 M194.400 108.311 L 193.400 109.374 193.400 146.387 L 193.400 183.400 199.100 183.511 L 204.800 183.622 204.800 153.011 L 204.800 122.400 248.400 122.400 L 292.000 122.400 292.000 192.000 L 292.000 261.600 248.400 261.600 L 204.800 261.600 204.800 231.400 L 204.800 201.200 199.000 201.200 L 193.200 201.200 193.200 238.213 C 193.200 270.744,193.273 275.253,193.800 275.455 C 194.130 275.582,194.400 275.859,194.400 276.071 C 194.400 276.726,195.502 277.600,196.329 277.600 C 196.761 277.600,197.218 277.870,197.345 278.200 C 197.548 278.729,203.568 278.800,248.187 278.800 C 292.910 278.800,298.800 278.730,298.800 278.200 C 298.800 277.781,299.222 277.600,300.200 277.600 C 301.427 277.600,301.600 277.476,301.600 276.600 C 301.600 275.978,301.827 275.600,302.200 275.600 C 302.731 275.600,302.800 266.105,302.800 192.543 L 302.800 109.487 301.604 108.343 L 300.407 107.200 247.904 107.224 L 195.400 107.249 194.400 108.311 M103.467 139.867 C 103.320 140.013,103.200 140.463,103.200 140.867 C 103.200 141.270,103.020 141.600,102.800 141.600 C 102.535 141.600,102.400 158.933,102.400 192.800 C 102.400 226.667,102.535 244.000,102.800 244.000 C 103.020 244.000,103.200 244.450,103.200 245.000 C 103.200 245.800,103.400 246.000,104.200 246.000 C 104.822 246.000,105.200 246.227,105.200 246.600 C 105.200 247.509,153.634 247.509,154.543 246.600 C 154.873 246.270,155.259 246.000,155.400 246.000 C 156.750 246.000,156.800 245.195,156.800 223.429 L 156.800 202.000 154.400 202.000 L 152.000 202.000 152.000 215.400 L 152.000 228.800 130.000 228.800 L 108.000 228.800 108.000 191.400 L 108.000 154.000 130.000 154.000 L 152.000 154.000 152.000 168.800 L 152.000 183.600 154.400 183.600 L 156.800 183.600 156.787 162.300 C 156.777 145.222,156.669 140.861,156.243 140.300 C 155.697 139.580,104.176 139.157,103.467 139.867 M206.800 180.400 L 206.800 185.600 173.787 185.600 C 144.812 185.600,140.747 185.673,140.545 186.200 C 140.418 186.530,139.974 186.800,139.557 186.800 C 139.141 186.800,138.800 186.980,138.800 187.200 C 138.800 187.420,138.530 187.600,138.200 187.600 C 137.827 187.600,137.600 187.978,137.600 188.600 C 137.600 189.150,137.420 189.600,137.200 189.600 C 136.971 189.600,136.800 190.800,136.800 192.400 C 136.800 193.940,136.967 195.200,137.172 195.200 C 137.377 195.200,137.602 195.605,137.672 196.100 C 137.754 196.678,138.122 197.046,138.700 197.128 C 139.195 197.198,139.600 197.423,139.600 197.628 C 139.600 197.854,152.741 198.000,173.200 198.000 L 206.800 198.000 206.800 203.400 L 206.800 208.800 208.413 208.800 C 209.477 208.800,210.103 208.596,210.255 208.200 C 210.382 207.870,210.736 207.600,211.043 207.600 C 211.349 207.600,211.600 207.420,211.600 207.200 C 211.600 206.980,211.966 206.800,212.413 206.800 C 212.859 206.800,213.329 206.530,213.455 206.200 C 213.582 205.870,214.026 205.600,214.443 205.600 C 214.859 205.600,215.200 205.420,215.200 205.200 C 215.200 204.980,215.470 204.800,215.800 204.800 C 216.130 204.800,216.400 204.620,216.400 204.400 C 216.400 204.180,216.735 204.000,217.144 204.000 C 217.553 204.000,218.226 203.550,218.639 203.000 C 219.053 202.449,219.796 202.000,220.295 202.000 C 220.833 202.000,221.200 201.757,221.200 201.400 C 221.200 201.067,221.556 200.800,222.000 200.800 C 222.440 200.800,222.800 200.620,222.800 200.400 C 222.800 200.180,223.070 200.000,223.400 200.000 C 223.730 200.000,224.000 199.820,224.000 199.600 C 224.000 199.380,224.366 199.200,224.813 199.200 C 225.259 199.200,225.729 198.930,225.855 198.600 C 225.982 198.270,226.426 198.000,226.843 198.000 C 227.259 198.000,227.600 197.820,227.600 197.600 C 227.600 197.380,227.870 197.200,228.200 197.200 C 228.530 197.200,228.800 196.930,228.800 196.600 C 228.800 196.242,229.168 196.000,229.712 196.000 C 230.213 196.000,230.883 195.640,231.200 195.200 C 231.517 194.760,232.057 194.400,232.399 194.400 C 233.352 194.400,234.400 192.930,234.400 191.595 C 234.400 190.679,234.219 190.400,233.624 190.400 C 233.197 190.400,232.736 190.220,232.600 190.000 C 232.464 189.780,232.085 189.600,231.757 189.600 C 231.430 189.600,230.745 189.150,230.235 188.600 C 229.725 188.050,229.014 187.600,228.654 187.600 C 228.294 187.600,228.000 187.420,228.000 187.200 C 228.000 186.980,227.550 186.800,227.000 186.800 C 226.378 186.800,226.000 186.573,226.000 186.200 C 226.000 185.870,225.730 185.600,225.400 185.600 C 225.070 185.600,224.800 185.420,224.800 185.200 C 224.800 184.980,224.521 184.800,224.181 184.800 C 223.840 184.800,223.145 184.350,222.635 183.800 C 222.125 183.250,221.324 182.800,220.854 182.800 C 220.384 182.800,220.000 182.620,220.000 182.400 C 220.000 182.180,219.640 182.000,219.200 182.000 C 218.756 182.000,218.400 181.733,218.400 181.400 C 218.400 181.070,218.130 180.800,217.800 180.800 C 217.470 180.800,217.200 180.620,217.200 180.400 C 217.200 180.180,216.750 180.000,216.200 180.000 C 215.650 180.000,215.200 179.807,215.200 179.571 C 215.200 178.866,214.114 178.000,213.229 178.000 C 212.773 178.000,212.400 177.820,212.400 177.600 C 212.400 177.380,211.950 177.200,211.400 177.200 C 210.850 177.200,210.400 177.007,210.400 176.771 C 210.400 175.959,209.254 175.200,208.029 175.200 L 206.800 175.200 206.800 180.400 M130.145 235.000 C 130.271 235.330,130.741 235.600,131.187 235.600 C 132.336 235.600,132.345 238.455,131.200 239.600 C 130.124 240.676,128.000 240.692,128.000 239.624 C 128.000 239.197,127.820 238.736,127.600 238.600 C 126.867 238.147,127.188 236.781,128.300 235.624 C 129.592 234.279,129.836 234.196,130.145 235.000 M250.813 268.414 C 252.029 269.657,252.403 271.200,251.488 271.200 C 251.207 271.200,250.717 271.560,250.400 272.000 C 249.657 273.031,249.372 273.008,248.182 271.818 C 246.969 270.605,246.949 269.719,248.105 268.308 C 249.232 266.932,249.370 266.937,250.813 268.414 M220.629 306.171 C 220.943 306.486,221.200 306.921,221.200 307.138 C 221.200 307.355,221.425 307.638,221.700 307.767 C 222.100 307.953,222.100 308.047,221.700 308.233 C 221.425 308.362,221.200 308.645,221.200 308.862 C 221.200 310.361,220.668 310.400,200.429 310.400 C 183.169 310.400,180.800 310.327,180.800 309.795 C 180.800 309.462,180.575 308.808,180.300 308.342 C 179.900 307.665,179.900 307.459,180.300 307.314 C 180.575 307.215,180.800 306.788,180.800 306.367 C 180.800 305.337,219.603 305.146,220.629 306.171 " stroke="none" fill="#040404" fill-rule="evenodd"></path><path id="path1" d="" stroke="none" fill="#080404" fill-rule="evenodd"></path><path id="path2" d="" stroke="none" fill="#080404" fill-rule="evenodd"></path><path id="path3" d="" stroke="none" fill="#080404" fill-rule="evenodd"></path><path id="path4" d="" stroke="none" fill="#080404" fill-rule="evenodd"></path></g></svg>