<?xml version="1.0" encoding="UTF-8" standalone="no"?>
<svg
   xmlns:dc="http://purl.org/dc/elements/1.1/"
   xmlns:cc="http://creativecommons.org/ns#"
   xmlns:rdf="http://www.w3.org/1999/02/22-rdf-syntax-ns#"
   xmlns:svg="http://www.w3.org/2000/svg"
   xmlns="http://www.w3.org/2000/svg"
   xmlns:sodipodi="http://sodipodi.sourceforge.net/DTD/sodipodi-0.dtd"
   xmlns:inkscape="http://www.inkscape.org/namespaces/inkscape"
   id="svg2"
   enable-background="new 0 0 90 90"
   xml:space="preserve"
   height="100%"
   width="100%"
   version="1.1"
   y="0px"
   x="0px"
   viewBox="0 0 100 100"
   inkscape:version="0.48.4 r9939"
   sodipodi:docname="cross-device-h.svg"><defs
     id="defs14" /><sodipodi:namedview
     pagecolor="#ffffff"
     bordercolor="#666666"
     borderopacity="1"
     objecttolerance="10"
     gridtolerance="10"
     guidetolerance="10"
     inkscape:pageopacity="0"
     inkscape:pageshadow="2"
     inkscape:window-width="1301"
     inkscape:window-height="744"
     id="namedview12"
     showgrid="false"
     inkscape:zoom="9.44"
     inkscape:cx="50.367193"
     inkscape:cy="52.235039"
     inkscape:window-x="65"
     inkscape:window-y="24"
     inkscape:window-maximized="1"
     inkscape:current-layer="svg2" /><metadata
     id="metadata18"><rdf:RDF><cc:Work
         rdf:about=""><dc:format>image/svg+xml</dc:format><dc:type
           rdf:resource="http://purl.org/dc/dcmitype/StillImage" /><dc:title /></cc:Work></rdf:RDF></metadata><path
     id="path8"
     d="m 38.157,50.701 0,6.655 -11.492,0 0,-19.075 11.492,0 0,7.4865 0.8227,4.978814 0,-14.865614 c 0,-0.45879 -0.3482,-0.83263 -0.77668,-0.83263 l -11.584,0 c -0.42899,0 -0.77668,0.37383 -0.77668,0.83263 l 0,24.707 c 0,0.45934 0.34769,0.83317 0.77668,0.83317 l 11.584,0 c 0.42848,0 0.77668,-0.37383 0.77668,-0.83317 l 0,-9.8868 -0.82321,-4.978814 z m -6.2017,-14.253 0.91268,0 c 0.10073,0 0.18254,0.08771 0.18254,0.19569 0,0.10744 -0.08181,0.19514 -0.18254,0.19514 l -0.91268,0 c -0.10073,0 -0.18254,-0.0877 -0.18254,-0.19514 -5.11e-4,-0.10853 0.08129,-0.19569 0.18254,-0.19569 z m 0.45558,23.919 c -0.50364,0 -0.91218,-0.43796 -0.91218,-0.97843 0,-0.53937 0.40802,-0.97734 0.91218,-0.97734 0.50415,0 0.91218,0.43796 0.91218,0.97734 0,0.54047 -0.40802,0.97843 -0.91218,0.97843 z"
     inkscape:connector-curvature="0"
     sodipodi:nodetypes="cccccccsssssssscccssssscssssss" /><circle
     id="circle4260"
     d="m 50.321998,28.438 c 0,0.375553 -0.304446,0.68 -0.68,0.68 -0.375553,0 -0.68,-0.304447 -0.68,-0.68 0,-0.375554 0.304447,-0.68 0.68,-0.68 0.375554,0 0.68,0.304446 0.68,0.68 z"
     transform="matrix(1.0965 0 0 1.2974 -2.767 -14.577)"
     cy="28.438"
     cx="49.642"
     r="0.68"
     fill="none" /><path
     id="path4262"
     d="m90.377 75.608c0.12062-0.2958 0.19519-0.62144 0.19519-0.97043v-52.225c0-1.2364-0.84652-2.2393-1.8937-2.2393h-76.933c-1.045 0-1.8904 1.0029-1.8904 2.2393v52.224c0 0.35029 0.073465 0.67593 0.19299 0.97043h-9.1802v2.0502c0 1.2364 0.84762 2.2393 1.8926 2.2393h94.905c1.0439 0 1.8926-1.0003 1.8926-2.2393v-2.0502h-9.1813zm-40.164-54.173c0.4112 0 0.74565 0.3957 0.74565 0.88221 0 0.48781-0.33444 0.8835-0.74565 0.8835-0.4123 0-0.74674-0.3957-0.74674-0.8835 0-0.48651 0.33444-0.88221 0.74674-0.88221zm-38.308 1.5778 76.613-0.21088 0.19671 50.397-77.006-0.42176zm43.024 54.841h-9.4368c-0.4112 0-0.74565-0.3957-0.74565-0.88221 0-0.48911 0.33444-0.88351 0.74565-0.88351h9.4368c0.41339 0 0.74674 0.3944 0.74674 0.88351 0 0.48781-0.33335 0.88221-0.74674 0.88221z" /><g
     id="g4355"
     transform="translate(1206.6 5.8495)"><g
       id="g4339"><circle
         id="circle4341"
         d="m 50.321998,28.438 c 0,0.375553 -0.304446,0.68 -0.68,0.68 -0.375553,0 -0.68,-0.304447 -0.68,-0.68 0,-0.375554 0.304447,-0.68 0.68,-0.68 0.375554,0 0.68,0.304446 0.68,0.68 z"
         cy="28.438"
         cx="49.642"
         r="0.68"
         fill="none" /></g></g></svg>