<?xml version="1.0" encoding="UTF-8" standalone="no"?>
<svg
   xmlns:dc="http://purl.org/dc/elements/1.1/"
   xmlns:cc="http://creativecommons.org/ns#"
   xmlns:rdf="http://www.w3.org/1999/02/22-rdf-syntax-ns#"
   xmlns:svg="http://www.w3.org/2000/svg"
   xmlns="http://www.w3.org/2000/svg"
   xmlns:sodipodi="http://sodipodi.sourceforge.net/DTD/sodipodi-0.dtd"
   xmlns:inkscape="http://www.inkscape.org/namespaces/inkscape"
   version="1.1"
   x="0px"
   y="0px"
   viewBox="0 0 100 100"
   enable-background="new 0 0 90 90"
   xml:space="preserve"
   id="svg2"
   inkscape:version="0.48.4 r9939"
   sodipodi:docname="kx-cross-device.svg"
   width="100%"
   height="100%"><metadata
     id="metadata18"><rdf:RDF><cc:Work
         rdf:about=""><dc:format>image/svg+xml</dc:format><dc:type
           rdf:resource="http://purl.org/dc/dcmitype/StillImage" /><dc:title /></cc:Work></rdf:RDF></metadata><defs
     id="defs16" /><sodipodi:namedview
     pagecolor="#ffffff"
     bordercolor="#666666"
     borderopacity="1"
     objecttolerance="10"
     gridtolerance="10"
     guidetolerance="10"
     inkscape:pageopacity="0"
     inkscape:pageshadow="2"
     inkscape:window-width="1855"
     inkscape:window-height="1056"
     id="namedview14"
     showgrid="true"
     inkscape:zoom="3.6965971"
     inkscape:cx="111.69563"
     inkscape:cy="39.21012"
     inkscape:window-x="65"
     inkscape:window-y="24"
     inkscape:window-maximized="1"
     inkscape:current-layer="svg2"><inkscape:grid
       type="xygrid"
       id="grid2991"
       empspacing="5"
       visible="true"
       enabled="true"
       snapvisiblegridlinesonly="true" /></sodipodi:namedview><path
     d="m 63.315346,48.167862 -11.517511,-6.650667 0,4.427556 -29.260621,0 c -1.228048,0 -2.223112,0.995066 -2.223112,2.223111 0,1.228048 0.995064,2.223116 2.223112,2.223116 l 29.260621,0 0,4.427554 11.517511,-6.65067 z"
     id="path4"
     inkscape:connector-curvature="0" /><path
     d="m 91.964943,12.716976 -44.299678,0 c -1.136149,0 -2.060538,0.922546 -2.060538,2.060537 l 0,29.337316 4.121074,0 0,-25.434452 40.179532,0 0,58.935198 -40.179532,0 0,-25.214405 -4.121074,0 0,29.337318 c 0,1.136149 0.923469,2.059616 2.060538,2.059616 l 44.299678,0 c 1.13615,0 2.06054,-0.923467 2.06054,-2.059616 l 0,-66.960975 c 0,-1.13707 -0.92439,-2.060537 -2.06054,-2.060537 z m -20.603516,3.496836 -2.059615,0 c -0.286337,0 -0.515593,-0.231097 -0.515593,-0.514674 0,-0.284498 0.229256,-0.515594 0.515593,-0.515594 l 2.059615,0 c 0.284501,0 0.515595,0.231096 0.515595,0.515594 -9.2e-4,0.283577 -0.232016,0.514674 -0.515595,0.514674 z M 70.33116,82.253161 c -0.85165,0 -1.544941,-0.693291 -1.544941,-1.54494 0,-0.853495 0.693291,-1.545864 1.544941,-1.545864 0.852573,0 1.545862,0.692369 1.545862,1.545864 -9.2e-4,0.851649 -0.694209,1.54494 -1.545862,1.54494 z"
     id="path6"
     inkscape:connector-curvature="0" /><path
     d="m 26.949557,52.621308 0,11.142485 -20.6265881,0 0,-31.937022 20.6265881,0 0,12.534725 1.47667,0 0,-16.553583 c 0,-0.768161 -0.624991,-1.394073 -1.394072,-1.394073 l -20.7917841,0 c -0.769997,0 -1.3940723,0.625912 -1.3940723,1.394073 l 0,41.366977 c 0,0.769081 0.6240753,1.39499 1.3940723,1.39499 l 20.7927031,0 c 0.76908,0 1.394071,-0.625909 1.394071,-1.39499 l 0,-16.553582 -1.477588,0 z m -11.131474,-23.864435 1.638195,0 c 0.180793,0 0.32764,0.146847 0.32764,0.32764 0,0.179885 -0.146847,0.326721 -0.32764,0.326721 l -1.638195,0 c -0.180792,0 -0.327639,-0.146829 -0.327639,-0.326721 -9.17e-4,-0.181718 0.145923,-0.32764 0.327639,-0.32764 z m 0.817722,40.047242 c -0.903991,0 -1.637279,-0.733288 -1.637279,-1.638194 0,-0.903075 0.732371,-1.636362 1.637279,-1.636362 0.904907,0 1.637277,0.733287 1.637277,1.636362 0,0.904906 -0.73237,1.638194 -1.637277,1.638194 z"
     id="path8"
     inkscape:connector-curvature="0" /><g
     id="g4274"
     transform="matrix(1.9681899,0,0,2.1721876,-46.504654,-56.675181)"><g
       id="g4258"><circle
         id="circle4260"
         r="0.68000001"
         cy="28.438"
         cx="49.641998"
         style="fill:none"
         d="m 50.321998,28.438 c 0,0.375553 -0.304446,0.68 -0.68,0.68 -0.375553,0 -0.68,-0.304447 -0.68,-0.68 0,-0.375554 0.304447,-0.68 0.68,-0.68 0.375554,0 0.68,0.304446 0.68,0.68 z"
         sodipodi:cx="49.641998"
         sodipodi:cy="28.438"
         sodipodi:rx="0.68000001"
         sodipodi:ry="0.68000001" /><path
         id="path4262"
         d="m 84.943708,69.514 c 0.11,-0.228 0.178,-0.479 0.178,-0.748 l 0,-40.255 c 0,-0.953 -0.772,-1.726 -1.727,-1.726 l -70.16,0 c -0.953,0 -1.724,0.773 -1.724,1.726 l 0,40.254 c 0,0.27 0.067,0.521 0.176,0.748 l -8.3720004,0 0,1.580265 c 0,0.953 0.773,1.726 1.726,1.726 l 86.5500014,0 c 0.952,0 1.726,-0.771 1.726,-1.726 l 0,-1.580265 -8.373001,0 z m -36.628,-41.756 c 0.375,0 0.68,0.305 0.68,0.68 0,0.376 -0.305,0.681 -0.68,0.681 -0.376,0 -0.681,-0.305 -0.681,-0.681 0,-0.375 0.305,-0.68 0.681,-0.68 z M 13.380346,28.974177 83.24807,28.811631 83.427464,67.657277 13.200952,67.332185 z m 39.236362,42.271088 -8.606,0 c -0.375,0 -0.68,-0.305 -0.68,-0.68 0,-0.377 0.305,-0.681 0.68,-0.681 l 8.606,0 c 0.377,0 0.681,0.304 0.681,0.681 0,0.376 -0.304,0.68 -0.681,0.68 z"
         inkscape:connector-curvature="0"
         sodipodi:nodetypes="cssssssccsssscccssssscccccsssssss" /></g></g><g
     id="g4355"
     transform="translate(1206.5574,5.849474)"><g
       id="g4339"><circle
         id="circle4341"
         r="0.68000001"
         cy="28.438"
         cx="49.641998"
         style="fill:none"
         d="m 50.321998,28.438 c 0,0.375553 -0.304446,0.68 -0.68,0.68 -0.375553,0 -0.68,-0.304447 -0.68,-0.68 0,-0.375554 0.304447,-0.68 0.68,-0.68 0.375554,0 0.68,0.304446 0.68,0.68 z" /></g></g></svg>