<?xml version="1.0" encoding="UTF-8" standalone="no"?>
<svg id="svg2" xmlns:rdf="http://www.w3.org/1999/02/22-rdf-syntax-ns#" xmlns="http://www.w3.org/2000/svg" enable-background="new 0 0 90 90" xml:space="preserve" height="100%" width="100%" version="1.1" y="0px" x="0px" xmlns:cc="http://creativecommons.org/ns#" xmlns:dc="http://purl.org/dc/elements/1.1/" viewBox="0 0 100 100"><metadata id="metadata18"><rdf:RDF><cc:Work rdf:about=""><dc:format>image/svg+xml</dc:format><dc:type rdf:resource="http://purl.org/dc/dcmitype/StillImage"/><dc:title/></cc:Work></rdf:RDF></metadata><path id="path4" d="m58.417 48.042-6.4167-3.9722v2.6444h-16.302c-0.68418 0-1.2386 0.59432-1.2386 1.3278 0 0.73347 0.55438 1.3278 1.2386 1.3278h16.302v2.6444l6.4167-3.9722z"/><path id="path6" d="m74.379 26.868h-24.681c-0.63298 0-1.148 0.551-1.148 1.2307v17.522h2.296v-15.191h22.385v35.2h-22.385v-15.06h-2.296v17.522c0 0.67858 0.51449 1.2301 1.148 1.2301h24.681c0.63298 0 1.148-0.55155 1.148-1.2301v-39.993c0-0.67913-0.515-1.2307-1.148-1.2307zm-11.479 2.0885h-1.1475c-0.15953 0-0.28725-0.13802-0.28725-0.3074 0-0.16992 0.12773-0.30794 0.28725-0.30794h1.1475c0.1585 0 0.28725 0.13803 0.28725 0.30794-0.000512 0.16937-0.12926 0.3074-0.28725 0.3074zm-0.57399 39.443c-0.47448 0-0.86073-0.41408-0.86073-0.92273 0-0.50976 0.38625-0.92329 0.86073-0.92329 0.47499 0 0.86124 0.41352 0.86124 0.92329-0.000512 0.50866-0.38676 0.92273-0.86124 0.92273z"/><path id="path8" d="m38.157 50.701v6.655h-11.492v-19.075h11.492v7.4865h0.8227v-9.8868c0-0.45879-0.3482-0.83263-0.77668-0.83263h-11.584c-0.42899 0-0.77668 0.37383-0.77668 0.83263v24.707c0 0.45934 0.34769 0.83317 0.77668 0.83317h11.584c0.42848 0 0.77668-0.37383 0.77668-0.83317v-9.8868h-0.82321zm-6.2017-14.253h0.91268c0.10073 0 0.18254 0.08771 0.18254 0.19569 0 0.10744-0.08181 0.19514-0.18254 0.19514h-0.91268c-0.10073 0-0.18254-0.0877-0.18254-0.19514-0.000511-0.10853 0.08129-0.19569 0.18254-0.19569zm0.45558 23.919c-0.50364 0-0.91218-0.43796-0.91218-0.97843 0-0.53937 0.40802-0.97734 0.91218-0.97734 0.50415 0 0.91218 0.43796 0.91218 0.97734 0 0.54047-0.40802 0.97843-0.91218 0.97843z"/><circle id="circle4260" d="m 50.321998,28.438 c 0,0.375553 -0.304446,0.68 -0.68,0.68 -0.375553,0 -0.68,-0.304447 -0.68,-0.68 0,-0.375554 0.304447,-0.68 0.68,-0.68 0.375554,0 0.68,0.304446 0.68,0.68 z" transform="matrix(1.0965 0 0 1.2974 -2.767 -14.577)" cy="28.438" cx="49.642" r="0.68" fill="none"/><path id="path4262" d="m90.377 75.608c0.12062-0.2958 0.19519-0.62144 0.19519-0.97043v-52.225c0-1.2364-0.84652-2.2393-1.8937-2.2393h-76.933c-1.045 0-1.8904 1.0029-1.8904 2.2393v52.224c0 0.35029 0.073465 0.67593 0.19299 0.97043h-9.1802v2.0502c0 1.2364 0.84762 2.2393 1.8926 2.2393h94.905c1.0439 0 1.8926-1.0003 1.8926-2.2393v-2.0502h-9.1813zm-40.164-54.173c0.4112 0 0.74565 0.3957 0.74565 0.88221 0 0.48781-0.33444 0.8835-0.74565 0.8835-0.4123 0-0.74674-0.3957-0.74674-0.8835 0-0.48651 0.33444-0.88221 0.74674-0.88221zm-38.308 1.5778 76.613-0.21088 0.19671 50.397-77.006-0.42176zm43.024 54.841h-9.4368c-0.4112 0-0.74565-0.3957-0.74565-0.88221 0-0.48911 0.33444-0.88351 0.74565-0.88351h9.4368c0.41339 0 0.74674 0.3944 0.74674 0.88351 0 0.48781-0.33335 0.88221-0.74674 0.88221z"/><g id="g4355" transform="translate(1206.6 5.8495)"><g id="g4339"><circle id="circle4341" d="m 50.321998,28.438 c 0,0.375553 -0.304446,0.68 -0.68,0.68 -0.375553,0 -0.68,-0.304447 -0.68,-0.68 0,-0.375554 0.304447,-0.68 0.68,-0.68 0.375554,0 0.68,0.304446 0.68,0.68 z" cy="28.438" cx="49.642" r="0.68" fill="none"/></g></g></svg>
