<?xml version="1.0" encoding="UTF-8" standalone="no"?>
<!-- Created with Inkscape (http://www.inkscape.org/) -->

<svg
   xmlns:dc="http://purl.org/dc/elements/1.1/"
   xmlns:cc="http://creativecommons.org/ns#"
   xmlns:rdf="http://www.w3.org/1999/02/22-rdf-syntax-ns#"
   xmlns:svg="http://www.w3.org/2000/svg"
   xmlns="http://www.w3.org/2000/svg"
   xmlns:sodipodi="http://sodipodi.sourceforge.net/DTD/sodipodi-0.dtd"
   xmlns:inkscape="http://www.inkscape.org/namespaces/inkscape"
   id="svg2985"
   height="100%"
   width="100%"
   version="1.1"
   viewBox="0 0 100 100"
   inkscape:version="0.48.4 r9939"
   sodipodi:docname="icon-cross-device.svg">
  <defs
     id="defs11">
    <marker
       inkscape:stockid="Arrow1Mstart"
       orient="auto"
       refY="0.0"
       refX="0.0"
       id="Arrow1Mstart"
       style="overflow:visible">
      <path
         id="path3770"
         d="M 0.0,0.0 L 5.0,-5.0 L -12.5,0.0 L 5.0,5.0 L 0.0,0.0 z "
         style="fill-rule:evenodd;stroke:#000000;stroke-width:1.0pt"
         transform="scale(0.4) translate(10,0)" />
    </marker>
    <marker
       inkscape:stockid="Arrow2Lstart"
       orient="auto"
       refY="0.0"
       refX="0.0"
       id="Arrow2Lstart"
       style="overflow:visible">
      <path
         id="path3782"
         style="fill-rule:evenodd;stroke-width:0.62500000;stroke-linejoin:round"
         d="M 8.7185878,4.0337352 L -2.2072895,0.016013256 L 8.7185884,-4.0017078 C 6.9730900,-1.6296469 6.9831476,1.6157441 8.7185878,4.0337352 z "
         transform="scale(1.1) translate(1,0)" />
    </marker>
    <marker
       inkscape:stockid="Arrow2Lend"
       orient="auto"
       refY="0.0"
       refX="0.0"
       id="Arrow2Lend"
       style="overflow:visible;">
      <path
         id="path3785"
         style="fill-rule:evenodd;stroke-width:0.62500000;stroke-linejoin:round;"
         d="M 8.7185878,4.0337352 L -2.2072895,0.016013256 L 8.7185884,-4.0017078 C 6.9730900,-1.6296469 6.9831476,1.6157441 8.7185878,4.0337352 z "
         transform="scale(1.1) rotate(180) translate(1,0)" />
    </marker>
    <marker
       inkscape:stockid="Arrow2Mstart"
       orient="auto"
       refY="0.0"
       refX="0.0"
       id="Arrow2Mstart"
       style="overflow:visible">
      <path
         id="path3788"
         style="fill-rule:evenodd;stroke-width:0.62500000;stroke-linejoin:round"
         d="M 8.7185878,4.0337352 L -2.2072895,0.016013256 L 8.7185884,-4.0017078 C 6.9730900,-1.6296469 6.9831476,1.6157441 8.7185878,4.0337352 z "
         transform="scale(0.6) translate(0,0)" />
    </marker>
    <marker
       inkscape:stockid="Arrow1Mend"
       orient="auto"
       refY="0.0"
       refX="0.0"
       id="Arrow1Mend"
       style="overflow:visible;">
      <path
         id="path3773"
         d="M 0.0,0.0 L 5.0,-5.0 L -12.5,0.0 L 5.0,5.0 L 0.0,0.0 z "
         style="fill-rule:evenodd;stroke:#000000;stroke-width:1.0pt;"
         transform="scale(0.4) rotate(180) translate(10,0)" />
    </marker>
  </defs>
  <sodipodi:namedview
     pagecolor="#ffffff"
     bordercolor="#666666"
     borderopacity="1"
     objecttolerance="10"
     gridtolerance="10"
     guidetolerance="10"
     inkscape:pageopacity="0"
     inkscape:pageshadow="2"
     inkscape:window-width="1301"
     inkscape:window-height="744"
     id="namedview9"
     showgrid="true"
     inkscape:zoom="2.6025699"
     inkscape:cx="-5.6296141"
     inkscape:cy="54.255646"
     inkscape:window-x="65"
     inkscape:window-y="24"
     inkscape:window-maximized="1"
     inkscape:current-layer="svg2985"
     inkscape:snap-grids="true">
    <inkscape:grid
       type="xygrid"
       id="grid3834"
       empspacing="5"
       visible="true"
       enabled="true"
       snapvisiblegridlinesonly="true" />
  </sodipodi:namedview>
  <metadata
     id="metadata2990">
    <rdf:RDF>
      <cc:Work
         rdf:about="">
        <dc:format>image/svg+xml</dc:format>
        <dc:type
           rdf:resource="http://purl.org/dc/dcmitype/StillImage" />
        <dc:title />
      </cc:Work>
    </rdf:RDF>
  </metadata>
  <path
     style="font-size:medium;font-style:normal;font-variant:normal;font-weight:normal;font-stretch:normal;text-indent:0;text-align:start;text-decoration:none;line-height:normal;letter-spacing:normal;word-spacing:normal;text-transform:none;direction:ltr;block-progression:tb;writing-mode:lr-tb;text-anchor:start;baseline-shift:baseline;color:#000000;fill:#000000;fill-opacity:1;fill-rule:evenodd;stroke:#000000;stroke-width:0.88885206px;stroke-opacity:1;marker:none;visibility:visible;display:inline;overflow:visible;enable-background:accumulate;font-family:Sans;-inkscape-font-specification:Sans"
     d="m 56.390583,16.255429 c -0.460916,0 -0.86878,0.516768 -0.86878,1.143844 l 0,57.459037 c 0,0.627073 0.407864,1.143844 0.86878,1.143844 l 24.129685,0 c 0.460914,0 0.840754,-0.516771 0.840754,-1.143844 l 0,-57.459037 c 0,-0.627076 -0.37984,-1.143844 -0.840754,-1.143844 z m 0.02804,4.203138 24.045606,0 0,49.476058 -24.045606,0 z"
     id="rect4250"
     inkscape:connector-curvature="0"
     sodipodi:nodetypes="sssssssssccccc" />
  <path
     style="font-size:medium;font-style:normal;font-variant:normal;font-weight:normal;font-stretch:normal;text-indent:0;text-align:start;text-decoration:none;line-height:normal;letter-spacing:normal;word-spacing:normal;text-transform:none;direction:ltr;block-progression:tb;writing-mode:lr-tb;text-anchor:start;baseline-shift:baseline;color:#000000;fill:#000000;fill-opacity:1;fill-rule:evenodd;stroke:#000000;stroke-width:0.85748023px;stroke-opacity:1;marker:none;visibility:visible;display:inline;overflow:visible;enable-background:accumulate;font-family:Sans;-inkscape-font-specification:Sans"
     d="m 19.540671,25.570874 c -0.3115,0 -0.587148,0.365536 -0.587148,0.809093 l 0,40.643505 c 0,0.443557 0.275648,0.809094 0.587148,0.809094 l 16.307533,0 c 0.3115,0 0.568205,-0.365537 0.568205,-0.809094 l 0,-40.643505 c 0,-0.443557 -0.256705,-0.809093 -0.568205,-0.809093 z m 0.01893,2.973073 16.250712,0 0,34.996767 -16.250712,0 z"
     id="rect4250-0"
     inkscape:connector-curvature="0"
     sodipodi:nodetypes="sssssssssccccc" />
  <path
     style="font-size:medium;font-style:normal;font-variant:normal;font-weight:normal;font-stretch:normal;text-indent:0;text-align:start;text-decoration:none;line-height:normal;letter-spacing:normal;word-spacing:normal;text-transform:none;direction:ltr;block-progression:tb;writing-mode:lr-tb;text-anchor:start;baseline-shift:baseline;color:#000000;fill:#000000;fill-opacity:1;stroke:#000000;stroke-width:3.94088793;stroke-linejoin:round;stroke-miterlimit:4;stroke-opacity:1;stroke-dasharray:none;marker:none;visibility:visible;display:inline;overflow:visible;enable-background:accumulate;font-family:Sans;-inkscape-font-specification:Sans"
     d="m 1.970444,1.9680957 0,0.6128343 0,89.473795 0,0.612834 0.52384,0 95.339158,0 0.523835,0 0,-0.612834 0,-89.473795 0,-0.6128343 -0.523835,0 -95.339158,0 -0.52384,0 z m 1.047682,1.2256684 94.291462,0 0,88.2481269 -94.291462,0 0,-88.2481269 z"
     id="rect4337"
     inkscape:connector-curvature="0" />
  <path
     style="font-size:medium;font-style:normal;font-variant:normal;font-weight:normal;font-stretch:normal;text-indent:0;text-align:start;text-decoration:none;line-height:normal;letter-spacing:normal;word-spacing:normal;text-transform:none;direction:ltr;block-progression:tb;writing-mode:lr-tb;text-anchor:start;baseline-shift:baseline;color:#000000;fill:#000000;fill-opacity:1;fill-rule:evenodd;stroke:none;stroke-width:4;marker:none;visibility:visible;display:inline;overflow:visible;enable-background:accumulate;font-family:Sans;-inkscape-font-specification:Sans"
     d="m 23.141945,91.350007 c -1.20479,0 -2.293762,0.07667 -3.146962,0.207295 -0.426599,0.06531 -0.791841,0.145807 -1.153885,0.276399 -0.181023,0.06533 -0.339515,0.09522 -0.629393,0.31094 -0.144939,0.107861 -0.324936,0.263218 -0.587433,0.656433 -0.262496,0.393226 -0.692331,1.286066 -0.692331,2.522106 l 0,0.1382 c 0,1.23604 0.429835,2.12887 0.692331,2.52209 0.262497,0.39323 0.442495,0.51403 0.587433,0.62189 0.289877,0.21572 0.448371,0.2802 0.629393,0.3455 0.362043,0.13058 0.727286,0.17653 1.153885,0.24184 0.8532,0.13062 1.942171,0.2073 3.146962,0.2073 l 54.043826,0 c 1.204791,0 2.293763,-0.0766 3.146961,-0.2073 0.4266,-0.0653 0.791843,-0.11126 1.153887,-0.24184 0.181022,-0.0653 0.339514,-0.12978 0.629392,-0.3455 0.144939,-0.10786 0.324936,-0.22866 0.587433,-0.62189 0.262496,-0.39322 0.692332,-1.28605 0.692332,-2.52209 l 0,-0.1382 c 0,-1.23604 -0.429836,-2.12888 -0.692332,-2.522106 -0.262497,-0.393215 -0.442494,-0.548572 -0.587433,-0.656433 -0.289879,-0.215721 -0.44837,-0.245654 -0.629392,-0.31094 -0.362045,-0.130592 -0.727287,-0.211085 -1.153887,-0.276399 -0.853199,-0.130628 -1.942171,-0.207295 -3.146961,-0.207295 l -54.043826,0 z"
     id="rect4351"
     inkscape:connector-curvature="0" />
  <g
     id="g6844"
     transform="matrix(1.4124966,0,0,1,193.97219,74.15747)">
    <path
       style="font-size:medium;font-style:normal;font-variant:normal;font-weight:normal;font-stretch:normal;text-indent:0;text-align:start;text-decoration:none;line-height:normal;letter-spacing:normal;word-spacing:normal;text-transform:none;direction:ltr;block-progression:tb;writing-mode:lr-tb;text-anchor:start;baseline-shift:baseline;color:#000000;fill:#000000;fill-opacity:1;stroke:none;stroke-width:1px;marker:none;visibility:visible;display:inline;overflow:visible;enable-background:accumulate;font-family:Sans;-inkscape-font-specification:Sans"
       d="m -120,-30.5 0,1 35,0 0,-1 -35,0 z"
       id="path6652"
       inkscape:connector-curvature="0" />
    <path
       d="m -95.690447,-34.437109 12.018465,4.419494 -12.018465,4.419494 c 1.920048,-2.609267 1.908985,-6.179198 0,-8.838988 z"
       style="fill-rule:evenodd;stroke-width:0.625;stroke-linejoin:round"
       id="path6850"
       inkscape:connector-curvature="0" />
  </g>
</svg>
