<?xml version="1.0" encoding="UTF-8" standalone="no"?>
<svg
   xmlns:dc="http://purl.org/dc/elements/1.1/"
   xmlns:cc="http://creativecommons.org/ns#"
   xmlns:rdf="http://www.w3.org/1999/02/22-rdf-syntax-ns#"
   xmlns:svg="http://www.w3.org/2000/svg"
   xmlns="http://www.w3.org/2000/svg"
   xmlns:sodipodi="http://sodipodi.sourceforge.net/DTD/sodipodi-0.dtd"
   xmlns:inkscape="http://www.inkscape.org/namespaces/inkscape"
   x="0px"
   y="0px"
   viewBox="0 0 512 512"
   width="512"
   height="512"
   id="svg2"
   version="1.1"
   inkscape:version="0.48.4 r9939"
   sodipodi:docname="cross-device-w.svg">
  <defs
     id="defs4" />
  <sodipodi:namedview
     id="base"
     pagecolor="#ffffff"
     bordercolor="#666666"
     borderopacity="1.0"
     inkscape:pageopacity="0"
     inkscape:pageshadow="2"
     inkscape:zoom="1.4"
     inkscape:cx="60.208953"
     inkscape:cy="287.65198"
     inkscape:document-units="px"
     inkscape:current-layer="layer1"
     showgrid="true"
     inkscape:window-width="1855"
     inkscape:window-height="1056"
     inkscape:window-x="65"
     inkscape:window-y="24"
     inkscape:window-maximized="1"
     inkscape:snap-global="false">
    <inkscape:grid
       type="xygrid"
       id="grid3796"
       empspacing="5"
       visible="true"
       enabled="true"
       snapvisiblegridlinesonly="true" />
  </sodipodi:namedview>
  <metadata
     id="metadata7">
    <rdf:RDF>
      <cc:Work
         rdf:about="">
        <dc:format>image/svg+xml</dc:format>
        <dc:type
           rdf:resource="http://purl.org/dc/dcmitype/StillImage" />
      </cc:Work>
    </rdf:RDF>
  </metadata>
  <g
     inkscape:label="Layer 1"
     inkscape:groupmode="layer"
     id="layer1"
     transform="translate(0,-552.36218)">
    <path
       style="font-size:medium;font-style:normal;font-variant:normal;font-weight:normal;font-stretch:normal;text-indent:0;text-align:start;text-decoration:none;line-height:normal;letter-spacing:normal;word-spacing:normal;text-transform:none;direction:ltr;block-progression:tb;writing-mode:lr-tb;text-anchor:start;baseline-shift:baseline;color:#000000;fill:#000000;fill-opacity:1;stroke:none;stroke-width:5.09200001;marker:none;visibility:visible;display:inline;overflow:visible;enable-background:accumulate;font-family:Sans;-inkscape-font-specification:Sans"
       d="m 262.2934,669.5401 c -0.53191,1.13595 0,2.5565 0,3.83479 0,81.05707 0,162.11408 0,243.17116 0,1.28587 -0.53481,2.71502 0,3.85769 2.48697,5.31316 8.09398,8.57364 13.25983,10.39166 44.48398,15.65494 95.60069,15.65494 140.08468,0 5.16584,-1.81802 10.77291,-5.0785 13.25982,-10.39166 0.53489,-1.14267 0,-2.57182 0,-3.85769 0,-81.05708 0,-162.11409 0,-243.17116 0,-1.27829 0.53192,-2.69884 0,-3.83479 -2.48691,-5.31316 -8.09398,-8.57357 -13.25982,-10.39159 -44.48399,-15.65487 -95.6007,-15.65487 -140.08468,0 -5.16585,1.81802 -10.77286,5.07843 -13.25983,10.39159 z m 13.66154,45.48846 139.28132,0 0.67312,171.63667 -139.95442,0.0573 z m 68.6827,178.30255 c 4.89671,0 8.87163,4.14451 8.87163,9.25386 0,5.10934 -3.97492,9.23089 -8.87163,9.23089 -4.89682,0 -8.8509,-4.12155 -8.8509,-9.23089 0,-5.10935 3.95408,-9.25386 8.8509,-9.25386 z"
       id="rect3853"
       inkscape:connector-curvature="0"
       sodipodi:nodetypes="aaaaaaaaaaaaacccccsssss" />
    <path
       style="font-size:medium;font-style:normal;font-variant:normal;font-weight:normal;font-stretch:normal;text-indent:0;text-align:start;text-decoration:none;line-height:normal;letter-spacing:normal;word-spacing:normal;text-transform:none;direction:ltr;block-progression:tb;writing-mode:lr-tb;text-anchor:start;baseline-shift:baseline;color:#000000;fill:#000000;fill-opacity:1;stroke:none;stroke-width:5.09200001;marker:none;visibility:visible;display:inline;overflow:visible;enable-background:accumulate;font-family:Sans;-inkscape-font-specification:Sans"
       d="m 110.43156,723.48049 c -0.28131,0.5608 0,1.26225 0,1.89341 0,40.02087 0,80.04167 0,120.06254 0,0.63495 -0.28345,1.34058 0,1.90469 1.31728,2.62329 4.28716,4.23306 7.02334,5.13072 23.56182,7.7295 50.63677,7.7295 74.19844,0 2.73618,-0.89766 5.70611,-2.50743 7.02335,-5.13072 0.28344,-0.56388 0,-1.26982 0,-1.90469 0,-40.02087 0,-80.04167 0,-120.06254 0,-0.63108 0.28201,-1.33246 0,-1.89341 -1.31724,-2.62328 -4.28717,-4.23305 -7.02335,-5.1307 -23.56167,-7.72936 -50.63662,-7.72936 -74.19844,0 -2.73618,0.89765 -5.70606,2.50742 -7.02334,5.1307 z m 7.2361,11.9092 73.77299,0 0.35698,95.29352 -74.12954,0.0232 z m 36.3791,98.58474 c 2.5936,0 4.69899,2.04627 4.69899,4.5689 0,2.52273 -2.10539,4.55764 -4.69899,4.55764 -2.59367,0 -4.68806,-2.03491 -4.68806,-4.55764 0,-2.52263 2.09439,-4.5689 4.68806,-4.5689 z"
       id="rect3853-4"
       inkscape:connector-curvature="0"
       sodipodi:nodetypes="aaaaaaaaaaaaacccccsssss" />
    <path
       style="font-size:medium;font-style:normal;font-variant:normal;font-weight:normal;font-stretch:normal;text-indent:0;text-align:start;text-decoration:none;line-height:normal;letter-spacing:normal;word-spacing:normal;text-transform:none;direction:ltr;block-progression:tb;writing-mode:lr-tb;text-anchor:start;baseline-shift:baseline;color:#000000;fill:#000000;fill-opacity:1;stroke:none;stroke-width:1;marker:none;visibility:visible;display:inline;overflow:visible;enable-background:accumulate;font-family:Sans;-inkscape-font-specification:Sans"
       d="m 62.466313,624.21294 c -14.221899,0 -27.073456,4.24592 -36.383115,11.14073 C 16.773543,642.24862 11,651.81164 11,662.44784 l 0,266.44744 c 0,10.63627 5.773543,20.22584 15.083198,27.12079 9.309659,6.89474 22.161216,11.11411 36.383115,11.11411 l 387.067337,0 c 14.22197,0 27.0735,-4.21937 36.38314,-11.11411 C 495.22648,949.12112 501,939.53155 501,928.89528 l 0,-266.44744 c 0,-10.6362 -5.77352,-20.19922 -15.08321,-27.09417 -9.30964,-6.89481 -22.16117,-11.14073 -36.38314,-11.14073 z m 0.823571,14.60252 385.420246,0 c 14.06662,0 17.14722,1.44295 23.54521,6.68391 4.86693,3.98664 8.98691,6.63395 8.98691,16.94847 l 0,266.44744 c 0,10.31452 0.16275,10.19894 -8.98691,16.9751 -9.14931,6.77615 -9.47859,7.51677 -23.54521,7.51677 l -385.420246,0 c -14.066615,0 -14.395878,0.1188 -23.545233,-6.65721 -9.14936,-6.77616 -8.986876,-6.66058 -8.986876,-16.97517 l 0,-267.30693 c 0,-10.31452 4.119994,-12.96183 8.986876,-16.94847 6.39803,-5.24096 9.478618,-6.68391 23.545233,-6.68391 z"
       id="rect3892"
       inkscape:connector-curvature="0"
       sodipodi:nodetypes="sssssssssssssssassssssssas" />
  </g>
</svg>
