<?xml version="1.0" encoding="utf-8"?>
<!-- Generator: Adobe Illustrator 16.0.0, SVG Export Plug-In . SVG Version: 6.00 Build 0)  -->
<!DOCTYPE svg PUBLIC "-//W3C//DTD SVG 1.1//EN" "http://www.w3.org/Graphics/SVG/1.1/DTD/svg11.dtd">
<svg version="1.1" id="Layer_1" xmlns="http://www.w3.org/2000/svg" xmlns:xlink="http://www.w3.org/1999/xlink" x="0px" y="0px"
   width="951px" height="1024px" viewBox="0 0 951 1024" enable-background="new 0 0 951 1024" xml:space="preserve">
<path d="M900.732,152.604H50.268c-18.389,0-33.35,14.961-33.35,33.35v515.808c0,18.387,14.96,33.351,33.35,33.351h83.896v61.271
  c0,18.386,14.961,33.35,33.351,33.35h207.828v8.314c0,18.386,14.961,33.35,33.351,33.35h313.048
  c18.387,0,33.351-14.964,33.351-33.35V735.112h145.641c18.387,0,33.35-14.964,33.35-33.351V185.954
  C934.082,167.564,919.119,152.604,900.732,152.604z M176.61,713.889v-12.127v-355.08h284.382v291.381h-52.299
  c-18.39,0-33.351,14.964-33.351,33.351v42.475v73.398H176.61V713.889z M712.646,828.951H417.789V808.51v-12.127v-82.494V680.51
  h52.299h12.127h12.128h218.304v21.252v12.127V828.951z M891.637,692.666H755.092v-21.252c0-18.387-14.964-33.351-33.351-33.351
  H503.438V337.587c0-18.39-14.965-33.351-33.351-33.351H167.515c-18.39,0-33.351,14.961-33.351,33.351v355.079H59.363V195.049
  h832.273V692.666z"/>
</svg>
