<?xml version="1.0" encoding="utf-8"?>
<!-- Generator: Adobe Illustrator 16.0.0, SVG Export Plug-In . SVG Version: 6.00 Build 0)  -->
<!DOCTYPE svg PUBLIC "-//W3C//DTD SVG 1.1//EN" "http://www.w3.org/Graphics/SVG/1.1/DTD/svg11.dtd">
<svg version="1.1" id="Layer_1" xmlns="http://www.w3.org/2000/svg" xmlns:xlink="http://www.w3.org/1999/xlink" x="0px" y="0px"
	 width="951px" height="1024px" viewBox="0 0 951 1024" enable-background="new 0 0 951 1024" xml:space="preserve">
<g id="icomoon-ignore">
</g>
<g opacity="0.65">
	<path fill="#B8C3C9" d="M834.354,512.897c0,198.146-160.64,358.785-358.787,358.785c-198.185,0-358.834-160.639-358.834-358.785
		c0-198.136,160.65-358.848,358.834-358.848C673.715,154.051,834.354,314.762,834.354,512.897z"/>
</g>
<path fill="#FFFFFF" d="M475.567,863.379c-193.262,0-350.493-157.219-350.493-350.479c0-193.264,157.231-350.494,350.493-350.494
	c193.213,0,350.432,157.23,350.432,350.494C825.999,706.16,668.78,863.379,475.567,863.379z M475.567,187.419
	c-179.474,0-325.479,146.006-325.479,325.479c0,179.437,146.006,325.467,325.479,325.467c179.436,0,325.416-146.03,325.416-325.467
	C800.983,333.425,655.003,187.419,475.567,187.419z"/>
<path fill="#E6EDEF" d="M475.53,930.018c-230.515,0-418.048-187.509-418.048-417.999c0-230.502,187.533-418.037,418.048-418.037
	c230.479,0,417.986,187.534,417.986,418.037C893.519,742.509,706.009,930.018,475.53,930.018z M475.53,169.025
	c-189.133,0-343.005,153.873-343.005,342.994c0,189.108,153.872,342.956,343.005,342.956c189.098,0,342.945-153.848,342.945-342.956
	C818.476,322.897,664.628,169.025,475.53,169.025z"/>
<path fill="#5186A8" d="M475.665,913.016c-169.14,0-320.52-107.141-376.716-266.606c-3.444-9.771,1.686-20.471,11.469-23.939
	c9.734-3.42,20.482,1.711,23.927,11.482c50.908,144.467,188.071,241.543,341.32,241.543c199.418,0,361.669-162.25,361.669-361.668
	c0-75.312-22.914-147.473-66.249-208.701c-6.01-8.452-4.006-20.166,4.445-26.15c8.502-5.96,20.178-3.957,26.188,4.483
	c47.83,67.592,73.139,147.252,73.139,230.368C874.854,733.959,695.749,913.016,475.665,913.016z"/>
<g>
	<path fill="#FFFFFF" d="M691.788,343.438H259.205c-4.935,0-8.955,4.066-8.955,8.988v267.432c0,4.845,4.021,8.886,8.955,8.886
		h31.769V423.83c0-12.324,10.057-22.356,22.413-22.356h169.936c12.349,0,22.38,10.032,22.38,22.356v142.229h103.969
		c12.348,0,22.43,10.008,22.43,22.43v40.255h59.688c4.918,0,8.963-4.041,8.963-8.886V352.426
		C700.751,347.504,696.706,343.438,691.788,343.438z"/>
	<path fill="#FFFFFF" d="M602.044,592.651H487.775h-47.307c-2.446,0-4.445,1.999-4.445,4.531v74.936v4.408
		c0,2.483,1.999,4.458,4.445,4.458h161.575c2.463,0,4.479-1.975,4.479-4.458v-79.344
		C606.522,594.65,604.507,592.651,602.044,592.651z"/>
	<path fill="#FFFFFF" d="M479.97,566.059V430.408c0-2.39-2.022-4.433-4.47-4.433H320.883c-2.48,0-4.486,2.043-4.486,4.433v237.204
		c0,2.488,2.006,4.507,4.486,4.507h89.311v-83.63c0-12.422,10.064-22.43,22.405-22.43H479.97z"/>
</g>
</svg>
