<?xml version="1.0" encoding="utf-8"?>
<!-- Generator: Adobe Illustrator 16.0.0, SVG Export Plug-In . SVG Version: 6.00 Build 0)  -->
<!DOCTYPE svg PUBLIC "-//W3C//DTD SVG 1.1//EN" "http://www.w3.org/Graphics/SVG/1.1/DTD/svg11.dtd">
<svg version="1.1" id="Layer_1" xmlns="http://www.w3.org/2000/svg" xmlns:xlink="http://www.w3.org/1999/xlink" x="0px" y="0px"
	 width="951px" height="1024px" viewBox="0 0 951 1024" enable-background="new 0 0 951 1024" xml:space="preserve">
<g id="icomoon-ignore">
</g>
<g>
	<path d="M95.113,552.548c0-230.486,201.688-420.437,423.665-420.437c201.677,0,336.151,151.513,336.151,338.271
		c0,166.478-94.988,251.863-184.638,251.863c-59.766,0-93.891-41.632-97.085-86.456v-7.459
		c-37.366,53.355-101.397,93.915-169.695,93.915c-99.24,0-163.272-70.442-163.272-173.961c0-148.32,124.858-267.853,250.777-267.853
		c69.37,0,116.315,37.366,136.596,83.239l13.894-66.153h72.539l-60.815,289.181c-1.071,6.41-2.146,16.014-2.146,22.424
		c0,35.223,22.426,55.478,50.164,55.478c41.631,0,116.315-46.945,116.315-194.217c0-175.01-120.581-302.001-302.001-302.001
		c-207.026,0-383.108,182.493-383.108,382.048c0,170.743,128.064,301.999,305.207,301.999c75.779,0,140.86-23.471,198.505-59.765
		l19.207,27.737c-66.177,42.703-143.006,67.249-221.978,67.249C239.178,887.649,95.113,741.452,95.113,552.548z M583.859,566.442
		l30.956-148.345c-11.748-33.076-46.946-77.901-109.905-77.901c-106.736,0-187.83,100.301-187.83,203.82
		c0,68.299,39.486,118.461,108.844,118.461C498.487,662.478,552.903,611.243,583.859,566.442z"/>
</g>
</svg>
