<?xml version="1.0" encoding="utf-8"?>
<!-- Generator: Adobe Illustrator 16.0.0, SVG Export Plug-In . SVG Version: 6.00 Build 0)  -->
<!DOCTYPE svg PUBLIC "-//W3C//DTD SVG 1.1//EN" "http://www.w3.org/Graphics/SVG/1.1/DTD/svg11.dtd">
<svg version="1.1" id="Layer_1" xmlns="http://www.w3.org/2000/svg" xmlns:xlink="http://www.w3.org/1999/xlink" x="0px" y="0px"
	 width="951px" height="1024px" viewBox="0 0 951 1024" enable-background="new 0 0 951 1024" xml:space="preserve">
<g id="Layer_1_1_" display="none">
	<g id="outer_circle" display="inline">
		<path fill="#249FDA" d="M55-383.147c-241.589,0-438.147,196.546-438.147,438.147c0,241.598,196.559,438.147,438.147,438.147
			c241.58,0,438.146-196.55,438.146-438.147C493.146-186.602,296.58-383.147,55-383.147z M55,465.468
			c-226.345,0-410.472-184.145-410.472-410.468c0-226.327,184.127-410.477,410.472-410.477
			c237.936,0,410.468,198.234,410.468,410.477C465.468,281.323,281.332,465.468,55,465.468z"/>
	</g>
	<g id="real_time_1_" display="inline">
		<g>
			<path fill="#249FDA" d="M55.775,332.444c-153.415,0-278.224-124.805-278.224-278.22S-97.64-224.004,55.775-224.004
				S334.004-99.19,334.004,54.225S209.19,332.444,55.775,332.444z M55.775-201.949c-141.25,0-256.17,114.919-256.17,256.174
				c0,141.251,114.919,256.166,256.17,256.166c141.25,0,256.174-114.915,256.174-256.166
				C311.949-87.03,197.025-201.949,55.775-201.949z"/>
			<path fill="#249FDA" d="M55.775-126.336c-6.091,0-11.027-4.937-11.027-11.027v-75.613c0-6.091,4.937-11.027,11.027-11.027
				c6.09,0,11.027,4.937,11.027,11.027v75.613C66.803-131.272,61.866-126.336,55.775-126.336z"/>
			<path fill="#249FDA" d="M55.775,332.444c-6.091,0-11.027-4.938-11.027-11.027v-75.604c0-6.091,4.937-11.027,11.027-11.027
				c6.09,0,11.027,4.937,11.027,11.027v75.604C66.803,327.508,61.866,332.444,55.775,332.444z"/>
			<path fill="#249FDA" d="M191.246-70.223c-2.826,0-5.644-1.077-7.797-3.23c-4.308-4.308-4.308-11.29,0-15.598l53.481-53.455
				c4.315-4.304,11.294-4.299,15.593,0.004c4.308,4.308,4.308,11.29,0,15.598l-53.481,53.456
				C196.889-71.299,194.062-70.223,191.246-70.223z"/>
			<path fill="#249FDA" d="M244.727-121.473c-3.385,0-6.771-1.292-9.355-3.873c-5.169-5.169-5.169-13.547,0-18.716l34.029-34.046
				c5.169-5.169,13.543-5.165,18.711-0.004c5.17,5.169,5.17,13.547,0,18.716l-34.028,34.046
				C251.498-122.765,248.113-121.473,244.727-121.473z"/>
			<path fill="#249FDA" d="M-133.155,254.186c-2.821,0-5.643-1.076-7.796-3.23c-4.308-4.307-4.308-11.285,0-15.593l53.451-53.456
				c4.308-4.307,11.286-4.307,15.593,0c4.308,4.308,4.308,11.286,0,15.594l-53.451,53.455
				C-127.512,253.109-130.333,254.186-133.155,254.186z"/>
			<path fill="#249FDA" d="M322.977,65.252h-75.613c-6.091,0-11.027-4.937-11.027-11.027c0-6.09,4.937-11.027,11.027-11.027h75.613
				c6.091,0,11.027,4.937,11.027,11.027C334.004,60.315,329.067,65.252,322.977,65.252z"/>
			<path fill="#249FDA" d="M-135.817,65.252h-75.604c-6.091,0-11.027-4.937-11.027-11.027c0-6.09,4.937-11.027,11.027-11.027h75.604
				c6.091,0,11.027,4.937,11.027,11.027C-124.79,60.315-129.726,65.252-135.817,65.252z"/>
			<path fill="#249FDA" d="M244.727,254.186c-2.825,0-5.643-1.076-7.796-3.23l-53.481-53.464c-4.308-4.308-4.308-11.286,0-15.593
				c4.307-4.308,11.285-4.308,15.593,0l53.481,53.464c4.308,4.308,4.308,11.286,0,15.593
				C250.369,253.109,247.553,254.186,244.727,254.186z"/>
			<path fill="#249FDA" d="M-79.703-70.223c-2.821,0-5.643-1.077-7.797-3.23l-53.451-53.456c-4.308-4.307-4.308-11.29,0-15.593
				c4.308-4.308,11.286-4.308,15.593,0l53.451,53.456c4.308,4.307,4.308,11.29,0,15.593C-74.061-71.299-76.882-70.223-79.703-70.223
				z"/>
		</g>
		<g>
			<path fill="#249FDA" d="M169.338,163.203L101.229,32.938c-2.981-6.47-7.254-12.458-12.854-17.549
				C66.019-4.978,31.404-3.366,11.034,18.981C-9.323,41.328-7.712,75.935,14.644,96.3c4.234,3.843,8.895,6.936,13.831,9.201
				l-0.009,0.009L169.338,163.203z"/>
			<path fill="#249FDA" d="M312.803-116.562c0,0-29.489-25.043-45.97-41.528c-16.497-16.484-40.267-44.703-40.267-44.703
				l31.074-31.069c0,0,28.86,23.135,45.969,40.258c17.109,17.109,40.258,45.965,40.258,45.965L312.803-116.562z"/>
		</g>
	</g>
</g>
<g id="Layer_2" display="none">
	<g id="outer_circle_1_" display="inline">
		<path fill="#249FDA" d="M55-383.147c-241.589,0-438.147,196.546-438.147,438.147c0,241.598,196.559,438.147,438.147,438.147
			c241.58,0,438.146-196.55,438.146-438.147C493.146-186.602,296.58-383.147,55-383.147z M55,465.468
			c-226.345,0-410.472-184.145-410.472-410.468c0-226.327,184.127-410.477,410.472-410.477
			c237.936,0,410.468,198.234,410.468,410.477C465.468,281.323,281.332,465.468,55,465.468z"/>
	</g>
	<path display="inline" fill="#249FDA" d="M-40.63-10.792c0,30.518-24.738,55.26-55.26,55.26c-30.523,0-55.261-24.742-55.261-55.26
		c0-30.519,24.738-55.261,55.261-55.261C-65.368-66.053-40.63-41.311-40.63-10.792z"/>
	<circle display="inline" fill="#249FDA" cx="205.891" cy="-159.538" r="55.265"/>
	<path display="inline" fill="#249FDA" d="M261.156,146.525c0,30.522-24.742,55.265-55.266,55.265
		c-30.522,0-55.265-24.742-55.265-55.265c0-30.515,24.742-55.256,55.265-55.256C236.414,91.27,261.156,116.011,261.156,146.525z"/>
	<path display="inline" fill="#249FDA" d="M54.285,354.938c-6.091,0-11.027-4.936-11.027-11.025v-549.216
		c0-6.091,4.937-11.027,11.027-11.027c6.09,0,11.027,4.937,11.027,11.027v549.216C65.312,350.002,60.376,354.938,54.285,354.938z"/>
	<path display="inline" fill="#249FDA" d="M55,308.451c-2.821,0-5.643-1.076-7.796-3.23c-4.308-4.307-4.308-11.285,0-15.593
		l150.89-150.891c4.309-4.308,11.286-4.308,15.594,0c4.307,4.308,4.307,11.286,0,15.593L62.797,305.221
		C60.643,307.375,57.821,308.451,55,308.451z"/>
	<path display="inline" fill="#249FDA" d="M55,1.308c-2.821,0-5.643-1.077-7.796-3.231c-4.308-4.307-4.308-11.286,0-15.593
		l150.89-150.891c4.309-4.308,11.286-4.308,15.594,0c4.307,4.308,4.307,11.286,0,15.593L62.797-1.923
		C60.643,0.23,57.821,1.308,55,1.308z"/>
	<path display="inline" fill="#249FDA" d="M48.272,143.329c-2.822,0-5.643-1.077-7.797-3.23L-103.687-4.068
		c-4.308-4.308-4.308-11.29,0-15.593c4.307-4.308,11.285-4.308,15.593,0L56.068,124.506c4.308,4.307,4.308,11.285,0,15.593
		C53.915,142.252,51.093,143.329,48.272,143.329z"/>
</g>
<g id="Layer_3" display="none">
	<path display="inline" fill="#249FDA" d="M-98.79-187.558v149.189l-129.547,74.773c-4.992,2.878-8.089,8.245-8.089,14.004v158.929
		c0,5.763,3.097,11.13,8.089,13.999L-90.7,302.792c2.391,1.369,5.195,2.102,8.098,2.102s5.699-0.732,8.081-2.11L55,228.031
		l129.543,74.761c4.781,2.73,11.389,2.748,16.188-0.009l137.606-79.438c4.988-2.886,8.089-8.253,8.089-14.008V50.408
		c0-5.764-3.092-11.126-8.072-13.991L208.803-38.369v-149.189c0-5.759-3.102-11.13-8.09-14.012L63.098-280.996
		c-4.794-2.77-11.367-2.773-16.178,0.005l-137.624,79.425C-95.692-198.685-98.79-193.317-98.79-187.558z M314.077,59.747v140.251
		L192.633,270.09L71.17,199.998V60.178l121.824-70.337L314.077,59.747z M-66.44-178.22l121.462-70.1l121.432,70.1v139.851L55,31.731
		l-121.44-70.1V-178.22z M38.826,60.143v139.855L-82.615,270.09l-121.453-70.092V59.747l121.104-69.894L38.826,60.143z"/>
	<g id="outer_circle_2_" display="inline">
		<path fill="#249FDA" d="M55-383.147c-241.589,0-438.147,196.546-438.147,438.147c0,241.598,196.559,438.147,438.147,438.147
			c241.58,0,438.146-196.55,438.146-438.147C493.146-186.602,296.58-383.147,55-383.147z M55,465.468
			c-226.345,0-410.472-184.145-410.472-410.468c0-226.327,184.127-410.477,410.472-410.477
			c237.936,0,410.468,198.234,410.468,410.477C465.468,281.323,281.332,465.468,55,465.468z"/>
	</g>
</g>
<g id="Layer_4" display="none">
	<g id="outer_circle_3_" display="inline">
		<path fill="#249FDA" d="M55-383.147c-241.589,0-438.147,196.546-438.147,438.147c0,241.598,196.559,438.147,438.147,438.147
			c241.58,0,438.146-196.55,438.146-438.147C493.146-186.602,296.58-383.147,55-383.147z M55,465.468
			c-226.345,0-410.472-184.145-410.472-410.468c0-226.327,184.127-410.477,410.472-410.477
			c237.936,0,410.468,198.234,410.468,410.477C465.468,281.323,281.332,465.468,55,465.468z"/>
	</g>
	<path display="inline" fill="#249FDA" d="M286.553,116.338v-272.361c0-6.099-3.902-11.437-9.709-13.285L58.941-238.52
		c-1.379-0.444-2.787-0.664-4.208-0.664c-1.426,0-2.838,0.22-4.2,0.655l-217.911,69.221c-5.815,1.848-9.722,7.186-9.722,13.285
		v272.361c0,54.619,38.595,110.255,114.712,165.364c54.679,39.577,109.139,64.225,111.43,65.25c3.554,1.619,7.822,1.603,11.385,0
		c5.764-2.604,57.961-26.569,111.426-65.25C247.957,226.602,286.553,170.966,286.553,116.338z M57.567,317.549l-2.843,1.361
		l-2.847-1.361c-74.691-35.57-201.094-117.973-201.094-201.211v-262.169l203.946-64.785l203.945,64.785v262.169
		C258.674,199.438,132.259,281.918,57.567,317.549z"/>
	<path display="inline" fill="#249FDA" d="M127.658,83.231c0-30.48-26.361-56.23-57.564-56.23H39.351
		c-15.804,0-29.67-13.25-29.67-28.352s13.866-28.352,29.67-28.352h74.369c7.685,0,13.938-6.254,13.938-13.939
		c0-7.68-6.254-13.93-13.938-13.93H68.664v-40.542c0-7.685-6.256-13.938-13.936-13.938c-7.688,0-13.943,6.255-13.943,13.938v40.24
		l-6.069,0.504C5.537-54.953-18.201-29.823-18.201-1.351c0,30.48,26.357,56.23,57.552,56.23h30.743
		c15.816,0,29.688,13.25,29.688,28.352c0,15.093-13.871,28.334-29.688,28.334H-4.258c-7.689,0-13.943,6.255-13.943,13.939
		c0,7.692,6.254,13.947,13.943,13.947h45.043v38.164c0,7.685,6.255,13.931,13.943,13.931c7.68,0,13.936-6.246,13.936-13.931v-37.88
		l6.072-0.5C103.916,136.824,127.658,111.703,127.658,83.231z"/>
</g>
<g id="Layer_5" display="none">
	<g id="outer_circle_4_" display="inline">
		<path fill="#249FDA" d="M55-383.147c-241.589,0-438.147,196.546-438.147,438.147c0,241.598,196.559,438.147,438.147,438.147
			c241.58,0,438.146-196.55,438.146-438.147C493.146-186.602,296.58-383.147,55-383.147z M55,465.468
			c-226.345,0-410.472-184.145-410.472-410.468c0-226.327,184.127-410.477,410.472-410.477
			c237.936,0,410.468,198.234,410.468,410.477C465.468,281.323,281.332,465.468,55,465.468z"/>
	</g>
	<g display="inline">
		<path fill="#249FDA" d="M204.84,83.102c0,8.899-7.219,16.137-16.007,16.137H90.244c-8.012,0-14.758-5.938-15.697-13.939
			L57.119-39.678L21.953,281.84c-0.784,7.538-7.064,13.5-14.757,14.129c-0.465,0-0.784,0.164-1.249,0.164
			c-7.228,0-13.5-4.868-15.387-11.777L-61.888,98.17l-51.474,97.917c-3.145,5.85-9.58,9.459-16.17,8.478
			c-6.754-0.741-12.086-5.608-13.663-12.087l-25.113-100.304H-289.52c-8.749,0-15.99-7.193-15.99-16.137
			c0-8.795,7.241-16.015,15.99-16.015h133.794c7.198,0,13.771,5.022,15.502,12.242l17.932,71.59l50.668-96.393
			c3.136-5.807,9.451-9.416,15.869-8.477c6.599,0.629,12.104,5.341,13.957,11.622l40.835,145.205L39.226-171.87
			c0.939-7.982,7.529-14.099,15.696-14.262c9.106,0.762,15.068,5.785,16.17,13.957l33.279,239.22h84.461
			C197.621,67.044,204.84,74.307,204.84,83.102L204.84,83.102z M289.93,67.044h-50.863c-8.795,0-16.17,7.263-16.17,16.058
			c0,8.899,7.375,16.137,16.17,16.137h50.863c8.787,0,16.016-7.237,16.016-16.137C305.945,74.307,298.717,67.044,289.93,67.044
			L289.93,67.044z M399.348,67.044h-54.007c-8.95,0-16.171,7.263-16.171,16.058c0,8.899,7.221,16.137,16.171,16.137h54.007
			c8.943,0,16.162-7.237,16.162-16.137C415.51,74.307,408.291,67.044,399.348,67.044L399.348,67.044z"/>
	</g>
</g>
<path fill="#249ED9" d="M912.184,512.014c0-65.392-14.154-128.268-42.102-187.013l0.034-0.06l-3.093-6.259c0,0,0,0-0.01-0.005
	l-11.122-22.468l-0.403,0.732C784.345,171.572,654.795,88.429,510.82,76.838l-32-2.111l0.37,0.625
	c-1.244-0.013-2.472-0.021-3.69-0.021c-143.792,0-277.582,70.341-359.32,188.534l-3.782,5.557c-0.057,0.082-0.107,0.164-0.164,0.246
	l-0.004,0.008c-1.637,2.447-3.252,4.914-4.833,7.387l-8.796,13.452l0.534-0.008c-39.534,66.998-60.318,143.072-60.318,221.507
	c0,65.432,14.182,128.346,42.157,187.135l-0.03,0.062l3.105,6.271c0.03,0.061,0.06,0.112,0.086,0.174l11.019,22.233l0.409-0.724
	c71.133,125.27,200.62,208.387,344.494,219.99l5.548,0.414c0.482,0.034,0.957,0.062,1.439,0.096h0.034
	c0.634,0.043,1.267,0.086,1.896,0.119l23.153,1.49l-0.357-0.594c1.257,0.008,2.502,0.017,3.73,0.017
	c143.715,0,277.471-70.28,359.209-188.374l3.938-5.781c0.033-0.06,0.076-0.119,0.12-0.18l13.889-20.763l-0.846,0.009
	C891.378,666.601,912.184,590.496,912.184,512.014z M840.145,324.178c-34.543,59.79-106.836,160.169-236.677,242.752
	c7.262-16.859,11.293-35.423,11.293-54.912c0-6.887-0.511-13.656-1.481-20.278c0.369-10.094,0.569-20.261,0.569-30.278
	c-0.018-163.826-49.83-287.2-86.934-356.361C660.119,121.898,778.065,203.956,840.145,324.178z M475.501,101.795
	c6.029,0,12.388,0.177,19.616,0.547c33.671,58.537,84.926,171.657,91.547,325.893c-15.317-20.274-36.039-36.246-60.008-45.747
	c-0.067-0.042-0.132-0.083-0.199-0.125c-0.24-0.151-0.49-0.306-0.732-0.457c-0.025-0.022-0.033-0.025-0.068-0.043
	c-151.863-94.976-295.255-115.26-376.938-117.81C226.188,162.005,346.564,101.795,475.501,101.795z M65.282,512.014
	c0-79.094,22.493-155.629,65.12-221.796h0.28c66.04,0.122,190.089,11.969,327.628,83.596c-26.767,3.311-51.204,14.245-71.064,30.56
	c-156.653,83.253-245.562,195.316-289.853,266.75C76.072,620.742,65.282,567.33,65.282,512.014z M110.933,699.992
	c34.559-59.566,106.73-159.405,236.051-241.589c-6.913,16.512-10.739,34.625-10.739,53.616c0,5.698,0.352,11.315,1.021,16.837
	l-0.616-0.023c-0.409,10.578-0.62,21.287-0.62,31.813c0,164.865,50.339,288.808,87.821,358.236
	C290.826,902.029,172.995,820.051,110.933,699.992z M475.5,922.231c-6.09,0-12.607-0.189-19.771-0.56
	c-34.001-58.72-85.782-172.271-92.501-327.366c14.854,20.214,35.021,36.291,58.43,46.144l-0.449,0.807
	c0.28,0.172,0.568,0.353,0.849,0.525c153.411,96.176,298.436,116.111,380.036,118.438
	C724.618,862.116,604.318,922.231,475.5,922.231z M820.469,734.006c-0.318,0.008-0.639,0.008-0.957,0.008l-1.283-0.008
	c-66.034-0.145-189.981-11.985-327.682-83.537c25.851-2.791,49.6-12.686,69.259-27.686
	c159.277-83.771,249.281-197.467,293.892-269.691c21.261,50.324,32.021,103.663,32.021,158.924
	C885.718,591.203,863.182,667.8,820.469,734.006z"/>
</svg>
