<?xml version="1.0" encoding="UTF-8" standalone="no"?>
<svg width="20px" height="18px" viewBox="0 0 20 18" version="1.1" xmlns="http://www.w3.org/2000/svg" xmlns:xlink="http://www.w3.org/1999/xlink">
    <!-- Generator: Sketch 44.1 (41455) - http://www.bohemiancoding.com/sketch -->
    <title>Fast Lane Icon</title>
    <desc>Created with Sketch.</desc>
    <defs></defs>
    <g id="Symbols" stroke="none" stroke-width="1" fill="none" fill-rule="evenodd">
        <g id="Fast-Lane-Icon" fill="#67859B">
            <g id="Shape">
                <path d="M4.03365385,8.35714286 L4.03365385,9 L2.21634615,9 L2.21634615,8.35714286 L4.03365385,8.35714286 L4.03365385,8.35714286 Z M2.21598363,8.35714286 L2.21598363,8.74285714 L0.788368366,8.74285714 C0.399018749,8.74285714 0.139452337,9.12857143 0.399018749,9.38571429 L2.73511646,12.2142857 C2.99468287,12.4714286 3.25424928,12.4714286 3.51381569,12.2142857 L5.8499134,9.38571429 C6.10947981,9.12857143 5.8499134,8.74285714 5.46056378,8.74285714 L4.03294852,8.74285714 L4.03294852,8.35714286 C4.42229813,4.88571429 7.27752867,2.18571429 10.9114584,2.18571429 C14.9347378,2.18571429 18.179318,5.65714286 17.6601851,9.77142857 C17.4006187,12.7285714 14.5453882,15.4285714 11.5603745,15.8142857 C9.35405996,15.9428571 7.27752867,15.1714286 5.8499134,13.6285714 C5.59034699,13.3714286 5.46056378,13.2428571 5.20099737,13.6285714 L4.42229813,14.4 C4.29251493,14.6571429 4.42229813,14.7857143 4.55208134,14.9142857 C6.23926302,16.7142857 8.57536073,17.6142857 11.0412416,17.6142857 C15.4538706,17.6142857 19.2175836,14.0142857 19.6069332,9.64285714 C19.9962829,4.62857143 15.9730035,0.385714286 10.9114584,0.385714286 C6.23926302,0.385714286 2.47555004,3.85714286 2.21598363,8.35714286 Z"></path>
                <path d="M10.0876436,5.3 C9.74541528,5.3 9.46022502,5.52244841 9.34614892,5.80050891 L7.9201976,9.4152955 C7.80612149,9.69335601 7.97723565,9.97141651 8.26242592,9.97141651 L10.6580241,9.97141651 L9.74541528,12.97447 C9.68837723,13.2525305 10.0306055,13.4193668 10.2017197,13.1969184 L13.8521551,9.02601079 C14.0803073,8.80356238 13.8521551,8.35866557 13.5099268,8.35866557 L11.7417471,8.35866557 L13.2817745,5.91173311 C13.4528887,5.63367261 13.2817745,5.3 12.9395462,5.3 L12.4262038,5.3 L10.0876436,5.3 Z"></path>
            </g>
        </g>
    </g>
</svg>