<?xml version="1.0" encoding="UTF-8"?>
<svg width="28px" height="27px" viewBox="0 0 28 27" version="1.1" xmlns="http://www.w3.org/2000/svg" xmlns:xlink="http://www.w3.org/1999/xlink">
    <!-- Generator: Sketch 51.3 (57544) - http://www.bohemiancoding.com/sketch -->
    <title>Group 6</title>
    <desc>Created with Sketch.</desc>
    <defs></defs>
    <g id="Specs" stroke="none" stroke-width="1" fill="none" fill-rule="evenodd">
        <g id="Segment-Summary" transform="translate(-61.000000, -791.000000)">
            <g id="Group-15" transform="translate(58.000000, 470.000000)">
                <g id="Group-6" transform="translate(4.000000, 322.000000)">
                    <g id="Group-4">
                        <circle id="Oval-2-Copy" stroke="#1E6A8F" fill="#FFFFFF" cx="11.5" cy="11.5" r="11.5"></circle>
                        <path d="M15.018018,10.6574074 L14.3423423,13.3425926 L15.3921421,13.3425926 C15.7245357,13.3425926 15.993994,13.6120508 15.993994,13.9444444 L15.993994,13.9444444 C15.993994,14.276838 15.7245357,14.5462963 15.3921421,14.5462963 L14.027027,14.5462963 L13.5922798,16.2790998 C13.4859627,16.7028554 13.1050574,17 12.6681682,17 L12.6681682,17 C12.3498445,17 12.0917922,16.7419477 12.0917922,16.423624 C12.0917922,16.3752278 12.0978876,16.3270243 12.1099345,16.2801514 L12.5555556,14.5462963 L10.1531532,14.5462963 L9.71840593,16.2790998 C9.61208886,16.7028554 9.23118348,17 8.79429429,17 L8.79429429,17 C8.47597063,17 8.21791832,16.7419477 8.21791832,16.423624 C8.21791832,16.3752278 8.2240137,16.3270243 8.23606058,16.2801514 L8.68168168,14.5462963 L7.60185185,14.5462963 C7.26945825,14.5462963 7,14.276838 7,13.9444444 L7,13.9444444 C7,13.6120508 7.26945825,13.3425926 7.60185185,13.3425926 L8.98198198,13.3425926 L9.67267267,10.6574074 L8.61557391,10.6574074 C8.27891885,10.6574074 8.00600601,10.3844946 8.00600601,10.0478395 L8.00600601,10.0478395 C8.00600601,9.71118445 8.27891885,9.4382716 8.61557391,9.4382716 L9.98798799,9.4382716 L10.4234967,7.71335025 C10.5294006,7.29389613 10.9067224,7 11.3393393,7 L11.3393393,7 C11.6558343,7 11.9124042,7.25656989 11.9124042,7.5730649 C11.9124042,7.62036708 11.9065477,7.66748728 11.8949682,7.71335025 L11.4594595,9.4382716 L13.8618619,9.4382716 L14.2973706,7.71335025 C14.4032745,7.29389613 14.7805963,7 15.2132132,7 L15.2132132,7 C15.5297082,7 15.7862781,7.25656989 15.7862781,7.5730649 C15.7862781,7.62036708 15.7804215,7.66748728 15.768842,7.71335025 L15.3333333,9.4382716 L16.3904321,9.4382716 C16.7270872,9.4382716 17,9.71118445 17,10.0478395 L17,10.0478395 C17,10.3844946 16.7270872,10.6574074 16.3904321,10.6574074 L15.018018,10.6574074 Z M13.5465465,10.6574074 L11.1441441,10.6574074 L10.4684685,13.3425926 L12.8558559,13.3425926 L13.5465465,10.6574074 Z" id="#-copy-2" fill="#1E6A8F"></path>
                    </g>
                    <path d="M16,16 L27,16 L27,25 L13,25 L13,19 C13,17.3431458 14.3431458,16 16,16 Z" id="Rectangle-4" fill="#FFFFFF"></path>
                    <g id="email-copy" transform="translate(15.000000, 18.000000)" fill="#1E6A8F">
                        <path d="M5.25346082,5.00584795 C5.40207821,5.14619883 5.60023474,5.14619883 5.74885213,5.00584795 L10.9009217,0.467836257 C11,0.280701754 11,0 10.603687,0 L0.398625994,0.0467836257 C0.101391209,0.0467836257 -0.146304445,0.280701754 0.101391209,0.467836257 L5.25346082,5.00584795 L5.25346082,5.00584795 Z M11,2.24561404 C11,2.01169591 10.7027652,1.87134503 10.5541478,2.05847953 L6.49193909,5.56725146 C6.19470431,5.80116959 5.84793039,5.94152047 5.50115647,5.94152047 C5.15438256,5.94152047 4.80760864,5.80116959 4.51037386,5.56725146 L0.497704256,2.05847953 C0.299547733,1.87134503 0.0518520784,2.01169591 0.0518520784,2.24561404 C0.00231294751,3.22807018 0.00231294751,5.84795322 0.00231294751,7.15789474 C0.00231294751,7.62573099 0.448165125,8 0.943556434,8 L10.0587565,8 C10.5541478,8 11,7.62573099 11,7.15789474 L11,2.24561404 L11,2.24561404 Z" id="Shape"></path>
                    </g>
                </g>
            </g>
        </g>
    </g>
</svg>