<?xml version="1.0" encoding="UTF-8" standalone="no"?>
<svg
   xmlns:dc="http://purl.org/dc/elements/1.1/"
   xmlns:cc="http://creativecommons.org/ns#"
   xmlns:rdf="http://www.w3.org/1999/02/22-rdf-syntax-ns#"
   xmlns:svg="http://www.w3.org/2000/svg"
   xmlns="http://www.w3.org/2000/svg"
   xmlns:sodipodi="http://sodipodi.sourceforge.net/DTD/sodipodi-0.dtd"
   xmlns:inkscape="http://www.inkscape.org/namespaces/inkscape"
   xml:space="preserve"
   enable-background="new 0 0 110 110"
   viewBox="0 0 110 110"
   height="110px"
   width="110px"
   y="0px"
   x="0px"
   version="1.1"
   id="svg2"
   inkscape:version="0.48.4 r9939"
   sodipodi:docname="icon-link-brand.svg"><metadata
     id="metadata18"><rdf:RDF><cc:Work
         rdf:about=""><dc:format>image/svg+xml</dc:format><dc:type
           rdf:resource="http://purl.org/dc/dcmitype/StillImage" /></cc:Work></rdf:RDF></metadata><defs
     id="defs16" /><sodipodi:namedview
     pagecolor="#ffffff"
     bordercolor="#666666"
     borderopacity="1"
     objecttolerance="10"
     gridtolerance="10"
     guidetolerance="10"
     inkscape:pageopacity="0"
     inkscape:pageshadow="2"
     inkscape:window-width="1865"
     inkscape:window-height="1056"
     id="namedview14"
     showgrid="false"
     inkscape:zoom="6.0682618"
     inkscape:cx="16.313231"
     inkscape:cy="45.735607"
     inkscape:window-x="55"
     inkscape:window-y="1104"
     inkscape:window-maximized="1"
     inkscape:current-layer="svg2"
     showguides="true"
     inkscape:guide-bbox="true" /><g
     id="g4"><path
       sodipodi:type="inkscape:offset"
       inkscape:radius="1.8695666"
       inkscape:original="M 55 4.8125 C 27.326 4.8125 4.8125 27.326 4.8125 55 C 4.8125 82.674 27.326 105.1875 55 105.1875 C 82.674 105.1875 105.1875 82.674 105.1875 55 C 105.1875 27.326 82.674 4.8125 55 4.8125 z M 55 7.3125 C 81.296 7.3125 102.6875 28.705 102.6875 55 C 102.6875 81.295 81.296 102.6875 55 102.6875 C 28.705 102.6875 7.3125 81.295 7.3125 55 C 7.3125 28.705 28.705 7.3125 55 7.3125 z "
       id="path2997"
       d="M 55,2.9375 C 26.31204,2.9375 2.9375,26.31204 2.9375,55 2.9375,83.68796 26.31204,107.0625 55,107.0625 83.68796,107.0625 107.0625,83.68796 107.0625,55 107.0625,26.31204 83.68796,2.9375 55,2.9375 z m 0,6.25 c 25.282038,0 45.8125,20.531453 45.8125,45.8125 0,25.281047 -20.530462,45.8125 -45.8125,45.8125 C 29.719,100.8125 9.1875,80.281 9.1875,55 9.1875,29.719 29.719,9.1875 55,9.1875 z" /></g><g
     id="g8"
     transform="matrix(1.1121328,0,0,1.1121328,-4.3802191,-5.3906594)"><path
       sodipodi:type="inkscape:offset"
       inkscape:radius="0.43349126"
       inkscape:original="M 67.65625 23.84375 C 64.610119 24.092941 61.985467 25.671858 60.0625 27.59375 L 51.84375 35.8125 C 50.886945 36.769305 50.857656 38.323102 51.8125 39.28125 A 0.99280271 0.99280271 0 0 0 51.84375 39.28125 C 52.814015 40.251515 54.373485 40.251515 55.34375 39.28125 A 0.99280271 0.99280271 0 0 0 55.375 39.28125 L 63.53125 31.0625 L 63.5625 31.0625 C 65.974154 28.662158 68.055867 28.522853 69.84375 29 C 71.636496 29.478445 73.124777 30.718527 73.75 31.34375 C 74.681022 32.275704 76.070663 33.989896 76.59375 35.9375 C 77.116837 37.885104 76.93423 40.066232 74.46875 42.53125 L 61.8125 55.1875 C 59.213297 57.786234 57.086288 58.157839 55.34375 57.84375 C 53.601212 57.529661 52.14774 56.397287 51.375 55.625 C 50.418195 54.668195 48.864398 54.638906 47.90625 55.59375 A 0.99280271 0.99280271 0 0 0 47.90625 55.625 C 46.93639 56.59486 46.937406 58.15448 47.90625 59.125 C 50.060203 61.277881 52.986687 62.90625 56.3125 62.90625 C 59.208798 62.90625 62.315553 61.626151 65.28125 58.65625 L 77.9375 46 C 81.069696 42.868865 82.115566 39.394122 81.6875 36.1875 C 81.259434 32.980878 79.447912 30.105218 77.21875 27.875 C 74.095145 24.751923 70.705334 23.594317 67.65625 23.84375 z "
       id="path3003"
       d="m 67.625,23.40625 c -3.174268,0.259673 -5.8965,1.897606 -7.875,3.875 L 51.53125,35.5 C 50.411647,36.619603 50.376621,38.466484 51.5,39.59375 a 0.43353461,0.43353461 0 0 0 0.03125,0 0.43353461,0.43353461 0 0 0 0.09375,0.0625 0.43353461,0.43353461 0 0 0 0.03125,0.03125 c 0.01779,0.01593 0.04442,0.01583 0.0625,0.03125 1.076296,0.917763 2.635958,0.906178 3.71875,0 0.0069,-0.0058 0.02441,0.0058 0.03125,0 A 0.43353461,0.43353461 0 0 0 55.5,39.6875 a 0.43353461,0.43353461 0 0 0 0.09375,-0.03125 0.43353461,0.43353461 0 0 0 0.0625,-0.0625 0.43353461,0.43353461 0 0 0 0.03125,0 l 8.09375,-8.15625 a 0.43353461,0.43353461 0 0 0 0.0625,-0.03125 l 0,-0.03125 a 0.43353461,0.43353461 0 0 0 0.03125,0 c 2.329195,-2.31827 4.157172,-2.418861 5.84375,-1.96875 1.670194,0.445738 3.134088,1.665338 3.71875,2.25 0.89561,0.896507 2.260272,2.582852 2.75,4.40625 0.495501,1.844895 0.351382,3.774064 -2.03125,6.15625 L 61.5,54.875 c -2.530194,2.529738 -4.470562,2.823826 -6.09375,2.53125 -1.604946,-0.289288 -2.988391,-1.36382 -3.71875,-2.09375 -1.119603,-1.119603 -2.966484,-1.154629 -4.09375,-0.03125 a 0.43353461,0.43353461 0 0 0 0,0.03125 0.43353461,0.43353461 0 0 0 -0.0625,0.09375 0.43353461,0.43353461 0 0 0 -0.03125,0.0625 c -0.0098,0.01113 -0.02166,0.02001 -0.03125,0.03125 -0.973319,1.141575 -0.95244,2.858196 0.125,3.9375 2.215507,2.214405 5.251441,3.90625 8.71875,3.90625 3.024027,0 6.252603,-1.34206 9.28125,-4.375 L 78.25,46.3125 C 81.46148,43.102108 82.570755,39.464127 82.125,36.125 81.680207,32.793078 79.809113,29.841442 77.53125,27.5625 74.334629,24.366419 70.808732,23.145802 67.625,23.40625 z" /><path
       sodipodi:type="inkscape:offset"
       inkscape:radius="1.4625782"
       inkscape:original="M 51.5625 43.34375 C 47.921602 42.992568 44.485625 44.8275 42.09375 47.21875 L 29.4375 59.875 C 26.6965 62.616 25.51225 65.812 26.03125 69.125 C 26.54825 72.428 28.55825 75.025 30.15625 76.625 C 32.30525 78.773 34.919 80.0885 37.5 80.3125 C 37.776 80.3375 38.0385 80.34375 38.3125 80.34375 C 41.0375 80.34375 43.6715 79.17125 45.9375 76.90625 L 54.28125 68.5625 L 52.1875 66.46875 L 43.84375 74.8125 C 41.96175 76.6935 39.899 77.561 37.75 77.375 C 35.861 77.211 33.907 76.18725 32.25 74.53125 C 30.431 72.71325 29.27575 70.6495 28.96875 68.6875 C 28.59675 66.3145 29.45925 64.03975 31.53125 61.96875 L 44.1875 49.3125 C 49.7825 43.7185 54.3555 47.07425 56.0625 48.78125 C 56.6405 49.35925 57.57925 49.35925 58.15625 48.78125 C 58.73425 48.20325 58.73425 47.2665 58.15625 46.6875 C 56.006375 44.537625 53.747039 43.554459 51.5625 43.34375 z "
       id="path3001"
       d="m 51.6875,41.875 c -4.213055,-0.406369 -8.002411,1.690596 -10.625,4.3125 L 28.40625,58.84375 c -2.994016,2.994016 -4.40641,6.708819 -3.8125,10.5 0.58845,3.75948 2.807397,6.586489 4.53125,8.3125 2.35721,2.356113 5.262329,3.865706 8.25,4.125 0.337166,0.03054 0.641259,0.03125 0.9375,0.03125 3.144541,0 6.167938,-1.387786 8.65625,-3.875 l 8.34375,-8.34375 a 1.4627244,1.4627244 0 0 0 0,-2.0625 L 53.21875,65.4375 a 1.4627244,1.4627244 0 0 0 -2.0625,0 l -8.34375,8.34375 c -1.663088,1.662204 -3.257827,2.270379 -4.9375,2.125 C 36.42193,75.780097 34.744785,74.962652 33.28125,73.5 31.634689,71.854345 30.650833,70.031848 30.40625,68.46875 30.109968,66.578757 30.725705,64.835908 32.5625,63 L 45.21875,50.34375 c 2.553197,-2.55274 4.521239,-2.869153 6.125,-2.59375 1.603761,0.275403 2.956913,1.331913 3.6875,2.0625 1.137893,1.137893 3.018873,1.139348 4.15625,0 1.1367,-1.1367 1.135252,-3.019034 0,-4.15625 -2.354509,-2.354509 -4.978613,-3.53805 -7.5,-3.78125 z" /></g></svg>