<?xml version="1.0" encoding="UTF-8"?>
<svg width="951px" height="1024px" viewBox="0 0 38 38" version="1.1" xmlns="http://www.w3.org/2000/svg" xmlns:xlink="http://www.w3.org/1999/xlink">
    <!-- Generator: Sketch 53.2 (72643) - https://sketchapp.com -->
    <title>Icon_Uniques</title>
    <desc>Created with Sketch.</desc>
    <defs>
        <rect id="path-1" x="0" y="0" width="36.8484848" height="36.8484848" rx="18.4242424"></rect>
        <path d="M23.625,0 L2.625,0 C1.18125,0 0,1.18125 0,2.625 L0,15.3125 C0,16.75625 1.18125,17.9375 2.625,17.9375 L23.625,17.9375 C25.06875,17.9375 26.25,16.75625 26.25,15.3125 L26.25,2.625 C26.25,1.18125 25.06875,0 23.625,0 Z M4.9875,14.875 C4.15625,14.875 3.5,13.95625 3.5,13.08125 C3.54375,11.76875 4.9,10.98125 6.34375,10.325 C7.35,9.8875 7.48125,9.49375 7.48125,9.05625 C7.48125,8.61875 7.21875,8.225 6.86875,7.91875 C6.3,7.39375 5.95,6.60625 5.95,5.73125 C5.95,4.06875 6.95625,2.66875 8.70625,2.66875 C10.45625,2.66875 11.4625,4.06875 11.4625,5.73125 C11.4625,6.60625 11.15625,7.39375 10.54375,7.91875 C10.19375,8.225 9.93125,8.61875 9.93125,9.05625 C9.93125,9.49375 10.0625,9.8875 11.06875,10.28125 C12.5125,10.89375 13.86875,11.76875 13.9125,13.08125 C14,13.95625 13.34375,14.875 12.5125,14.875 L4.9875,14.875 Z M22.75,11.8125 C22.75,12.29375 22.35625,12.6875 21.875,12.6875 L17.9375,12.6875 C17.45625,12.6875 17.0625,12.29375 17.0625,11.8125 L17.0625,10.5 C17.0625,10.01875 17.45625,9.625 17.9375,9.625 L21.875,9.625 C22.35625,9.625 22.75,10.01875 22.75,10.5 L22.75,11.8125 Z M22.75,7 C22.75,7.48125 22.35625,7.875 21.875,7.875 L15.3125,7.875 C14.83125,7.875 14.4375,7.48125 14.4375,7 L14.4375,5.6875 C14.4375,5.20625 14.83125,4.8125 15.3125,4.8125 L21.875,4.8125 C22.35625,4.8125 22.75,5.20625 22.75,5.6875 L22.75,7 Z" id="path-3"></path>
    </defs>
    <g id="03_19_19" stroke="none" stroke-width="1" fill="none" fill-rule="evenodd">
        <g id="Segment-Summary" transform="translate(-271.000000, -329.000000)">
            <g id="Icon_Uniques" transform="translate(271.000000, 329.000000)">
                <g id="Icon-Action-Copy" transform="translate(0.398082, 0.575758)">
                    <mask id="mask-2" fill="white">
                        <use xlink:href="#path-1"></use>
                    </mask>
                    <use id="Mask" fill="#04844B" xlink:href="#path-1"></use>
                    <g id="Background-Color" mask="url(#mask-2)" fill="#3FA399">
                        <rect id="Rectangle" x="0" y="0" width="36.8484848" height="36.8484848"></rect>
                    </g>
                    <g id="Icons-/-z-embedded-/-icon-glyphs-/-standard-/contact" mask="url(#mask-2)">
                        <g transform="translate(1.081726, 1.116621)" id="contact">
                            <g transform="translate(4.375000, 8.750000)">
                                <mask id="mask-4" fill="white">
                                    <use xlink:href="#path-3"></use>
                                </mask>
                                <use id="Mask" fill="#FFFFFF" xlink:href="#path-3"></use>
                            </g>
                        </g>
                    </g>
                </g>
            </g>
        </g>
    </g>
</svg>