<?xml version="1.0" encoding="utf-8"?>
<!-- Generator: Adobe Illustrator 20.1.0, SVG Export Plug-In . SVG Version: 6.00 Build 0)  -->
<svg version="1.1" id="Layer_1" xmlns="http://www.w3.org/2000/svg" xmlns:xlink="http://www.w3.org/1999/xlink" x="0px" y="0px"
	 viewBox="0 0 40 40" style="enable-background:new 0 0 40 40;" xml:space="preserve">
<style type="text/css">
	.st0{fill:#A0B3BE;}
</style>
<g>
	<g>
		<path class="st0" d="M26,5.4c-4.7,0-8.5,3.8-8.5,8.5c0,1.6,0.5,3.1,1.2,4.4l-13,13c-0.4,0.4-0.4,1,0,1.4C5.9,32.9,6.2,33,6.5,33
			c0.3,0,0.5-0.1,0.7-0.3L9,31l3.3,3.3c0.2,0.2,0.5,0.3,0.7,0.3c0.3,0,0.5-0.1,0.7-0.3c0.4-0.4,0.4-1,0-1.4l-3.3-3.3l1.1-1.1
			l2.3,2.3c0.2,0.2,0.5,0.3,0.7,0.3c0.3,0,0.5-0.1,0.7-0.3c0.4-0.4,0.4-1,0-1.4L12.9,27l1.1-1.1l3.3,3.3c0.2,0.2,0.5,0.3,0.7,0.3
			c0.3,0,0.5-0.1,0.7-0.3c0.4-0.4,0.4-1,0-1.4l-3.3-3.3L20,20c1.5,1.6,3.7,2.5,6.1,2.5c4.7,0,8.5-3.8,8.5-8.5
			C34.6,9.3,30.7,5.4,26,5.4L26,5.4z M26,20.5c-3.6,0-6.5-2.9-6.5-6.5c0-3.6,2.9-6.5,6.5-6.5s6.5,2.9,6.5,6.5
			C32.5,17.6,29.6,20.5,26,20.5L26,20.5z M26,20.5"/>
	</g>
</g>
</svg>
