<?xml version="1.0" encoding="utf-8"?>
<!-- Generated by IcoMoon.io -->
<!DOCTYPE svg PUBLIC "-//W3C//DTD SVG 1.1//EN" "http://www.w3.org/Graphics/SVG/1.1/DTD/svg11.dtd">
<svg version="1.1" xmlns="http://www.w3.org/2000/svg" xmlns:xlink="http://www.w3.org/1999/xlink" width="1024" height="1024" viewBox="0 0 1024 1024">
<g id="icomoon-ignore">
</g>
<path d="M961.714 685.607c7.238 7.238 10.857 15.904 10.857 26s-3.619 18.762-10.857 26l-24.392 23.821c-7.238 7.238-15.81 10.857-25.715 10.857-9.904 0-18.476-3.619-25.714-10.857l-373.5-373.5-373.893 373.894c-7.238 7.238-15.809 10.856-25.714 10.856s-18.476-3.618-25.714-10.856l-24.786-24.215c-7.238-7.238-10.857-15.904-10.857-26s3.619-18.762 10.857-26l424-423.429c7.238-7.238 15.81-10.857 25.714-10.857s18.476 3.619 25.714 10.857l424 423.429z"></path>
</svg>
