<?xml version="1.0" encoding="UTF-8" standalone="no"?>
<svg
   xmlns:dc="http://purl.org/dc/elements/1.1/"
   xmlns:cc="http://creativecommons.org/ns#"
   xmlns:rdf="http://www.w3.org/1999/02/22-rdf-syntax-ns#"
   xmlns:svg="http://www.w3.org/2000/svg"
   xmlns="http://www.w3.org/2000/svg"
   xmlns:sodipodi="http://sodipodi.sourceforge.net/DTD/sodipodi-0.dtd"
   xmlns:inkscape="http://www.inkscape.org/namespaces/inkscape"
   xml:space="preserve"
   enable-background="new 0 0 110 110"
   viewBox="0 0 110 110"
   height="110px"
   width="110px"
   y="0px"
   x="0px"
   version="1.1"
   id="svg2"
   inkscape:version="0.48.4 r9939"
   sodipodi:docname="icon-link-brand.svg"><metadata
     id="metadata18"><rdf:RDF><cc:Work
         rdf:about=""><dc:format>image/svg+xml</dc:format><dc:type
           rdf:resource="http://purl.org/dc/dcmitype/StillImage" /></cc:Work></rdf:RDF></metadata><defs
     id="defs16" /><sodipodi:namedview
     pagecolor="#ffffff"
     bordercolor="#666666"
     borderopacity="1"
     objecttolerance="10"
     gridtolerance="10"
     guidetolerance="10"
     inkscape:pageopacity="0"
     inkscape:pageshadow="2"
     inkscape:window-width="1872"
     inkscape:window-height="1059"
     id="namedview14"
     showgrid="false"
     inkscape:zoom="8.5818182"
     inkscape:cx="32.618656"
     inkscape:cy="59.677104"
     inkscape:window-x="48"
     inkscape:window-y="21"
     inkscape:window-maximized="1"
     inkscape:current-layer="svg2" /><g
     id="g4"><path
       sodipodi:type="inkscape:offset"
       inkscape:radius="0.88851565"
       inkscape:original="M 55 4.8125 C 27.326 4.8125 4.8125 27.326 4.8125 55 C 4.8125 82.674 27.326 105.1875 55 105.1875 C 82.674 105.1875 105.1875 82.674 105.1875 55 C 105.1875 27.326 82.674 4.8125 55 4.8125 z M 55 7.3125 C 81.296 7.3125 102.6875 28.705 102.6875 55 C 102.6875 81.295 81.296 102.6875 55 102.6875 C 28.705 102.6875 7.3125 81.295 7.3125 55 C 7.3125 28.705 28.705 7.3125 55 7.3125 z "
       id="path2997"
       d="M 55,3.9375 C 26.844113,3.9375 3.9375,26.844113 3.9375,55 3.9375,83.155887 26.844113,106.0625 55,106.0625 83.155887,106.0625 106.0625,83.155887 106.0625,55 106.0625,26.844113 83.155887,3.9375 55,3.9375 z m 0,4.25 c 25.814112,0 46.8125,20.999383 46.8125,46.8125 0,25.813117 -20.998388,46.8125 -46.8125,46.8125 C 29.186906,101.8125 8.1875,80.813094 8.1875,55 8.1875,29.186906 29.186906,8.1875 55,8.1875 z" /></g><g
     id="g8"><path
       sodipodi:type="inkscape:offset"
       inkscape:radius="-0.46107197"
       inkscape:original="M 67.65625 23.84375 C 64.610119 24.092941 61.985467 25.671858 60.0625 27.59375 L 51.84375 35.8125 C 50.886945 36.769305 50.857656 38.323102 51.8125 39.28125 A 0.99280271 0.99280271 0 0 0 51.84375 39.28125 C 52.814015 40.251515 54.373485 40.251515 55.34375 39.28125 A 0.99280271 0.99280271 0 0 0 55.375 39.28125 L 63.53125 31.0625 L 63.5625 31.0625 C 65.974154 28.662158 68.055867 28.522853 69.84375 29 C 71.636496 29.478445 73.124777 30.718527 73.75 31.34375 C 74.681022 32.275704 76.070663 33.989896 76.59375 35.9375 C 77.116837 37.885104 76.93423 40.066232 74.46875 42.53125 L 61.8125 55.1875 C 59.213297 57.786234 57.086288 58.157839 55.34375 57.84375 C 53.601212 57.529661 52.14774 56.397287 51.375 55.625 C 50.418195 54.668195 48.864398 54.638906 47.90625 55.59375 A 0.99280271 0.99280271 0 0 0 47.90625 55.625 C 46.93639 56.59486 46.937406 58.15448 47.90625 59.125 C 50.060203 61.277881 52.986687 62.90625 56.3125 62.90625 C 59.208798 62.90625 62.315553 61.626151 65.28125 58.65625 L 77.9375 46 C 81.069696 42.868865 82.115566 39.394122 81.6875 36.1875 C 81.259434 32.980878 79.447912 30.105218 77.21875 27.875 C 74.095145 24.751923 70.705334 23.594317 67.65625 23.84375 z "
       id="path3003"
       d="m 67.6875,24.3125 c -2.909841,0.238042 -5.448599,1.730891 -7.3125,3.59375 L 52.15625,36.125 c -0.744145,0.744145 -0.78516,1.936328 -0.125,2.71875 A 0.46111808,0.46111808 0 0 1 52.125,38.9375 c 0.0066,0.0068 -0.0067,0.02455 0,0.03125 a 0.46111808,0.46111808 0 0 1 0.03125,0 c 0.795595,0.795595 2.079405,0.795595 2.875,0 a 0.46111808,0.46111808 0 0 1 0.03125,0 A 0.46111808,0.46111808 0 0 1 55.125,38.875 L 55.1875,38.84375 63.21875,30.75 a 0.46111808,0.46111808 0 0 1 0.03125,0 0.46111808,0.46111808 0 0 1 0.15625,-0.125 c 0.0065,-0.0062 0.02477,0.0062 0.03125,0 2.431184,-2.321324 4.681196,-2.556239 6.53125,-2.0625 1.923096,0.513233 3.425385,1.800385 4.09375,2.46875 0.968687,0.969657 2.410181,2.701537 2.96875,4.78125 0.552428,2.056848 0.303599,4.47813 -2.25,7.03125 L 62.125,55.5 c -2.672602,2.67212 -5.005519,3.14947 -6.875,2.8125 -1.888884,-0.340468 -3.369682,-1.557661 -4.1875,-2.375 -0.744145,-0.744145 -1.936328,-0.78516 -2.71875,-0.125 a 0.46111808,0.46111808 0 0 1 -0.0625,0.0625 c -0.01802,0.01667 -0.04496,0.01377 -0.0625,0.03125 a 0.46111808,0.46111808 0 0 1 0,0.03125 c -0.794986,0.794986 -0.794468,2.079158 0,2.875 2.088482,2.087443 4.918436,3.625 8.09375,3.625 2.760442,0 5.757508,-1.190899 8.65625,-4.09375 L 77.625,45.6875 c 3.047868,-3.046835 4.003002,-6.371814 3.59375,-9.4375 -0.410275,-3.073349 -2.135138,-5.884107 -4.3125,-8.0625 -3.045943,-3.045428 -6.312881,-4.112717 -9.21875,-3.875 z" /><path
       sodipodi:type="inkscape:offset"
       inkscape:radius="0.54368335"
       inkscape:original="M 51.5625 43.34375 C 47.921602 42.992568 44.485625 44.8275 42.09375 47.21875 L 29.4375 59.875 C 26.6965 62.616 25.51225 65.812 26.03125 69.125 C 26.54825 72.428 28.55825 75.025 30.15625 76.625 C 32.30525 78.773 34.919 80.0885 37.5 80.3125 C 37.776 80.3375 38.0385 80.34375 38.3125 80.34375 C 41.0375 80.34375 43.6715 79.17125 45.9375 76.90625 L 54.28125 68.5625 L 52.1875 66.46875 L 43.84375 74.8125 C 41.96175 76.6935 39.899 77.561 37.75 77.375 C 35.861 77.211 33.907 76.18725 32.25 74.53125 C 30.431 72.71325 29.27575 70.6495 28.96875 68.6875 C 28.59675 66.3145 29.45925 64.03975 31.53125 61.96875 L 44.1875 49.3125 C 49.7825 43.7185 54.3555 47.07425 56.0625 48.78125 C 56.6405 49.35925 57.57925 49.35925 58.15625 48.78125 C 58.73425 48.20325 58.73425 47.2665 58.15625 46.6875 C 56.006375 44.537625 53.747039 43.554459 51.5625 43.34375 z "
       id="path3001"
       d="m 51.625,42.8125 c -3.853585,-0.371697 -7.428612,1.554259 -9.90625,4.03125 L 29.0625,59.5 c -2.835053,2.835053 -4.109346,6.227996 -3.5625,9.71875 0.54356,3.472687 2.636467,6.134408 4.28125,7.78125 2.226398,2.225362 4.924079,3.60663 7.65625,3.84375 0.298737,0.02706 0.592732,0.03125 0.875,0.03125 2.880956,0 5.65136,-1.246146 8,-3.59375 l 8.34375,-8.34375 a 0.54373772,0.54373772 0 0 0 0,-0.75 L 52.5625,66.09375 a 0.54373772,0.54373772 0 0 0 -0.75,0 l -8.34375,8.34375 c -1.800624,1.799667 -3.681713,2.57715 -5.65625,2.40625 -1.726952,-0.149931 -3.602417,-1.103373 -5.1875,-2.6875 -1.754899,-1.753934 -2.841202,-3.748784 -3.125,-5.5625 -0.343853,-2.193452 0.421683,-4.266391 2.40625,-6.25 L 44.5625,49.6875 c 2.706685,-2.706202 5.04961,-3.167944 6.9375,-2.84375 1.88789,0.324194 3.379691,1.504691 4.1875,2.3125 0.786129,0.786129 2.058442,0.786669 2.84375,0 0.785685,-0.785685 0.785147,-2.057245 0,-2.84375 -2.225944,-2.225944 -4.596495,-3.277213 -6.90625,-3.5 z" /></g></svg>