<?xml version="1.0" encoding="UTF-8" standalone="no"?>
<svg width="46px" height="21px" viewBox="0 0 46 21" version="1.1" xmlns="http://www.w3.org/2000/svg" xmlns:xlink="http://www.w3.org/1999/xlink">
    <defs>
        <path d="M9.61808412,15.1099063 C9.35542452,15.1099063 9.09276492,15.066276 8.83010533,14.9790153 C8.56744573,14.935385 8.26100953,14.8481244 7.99834993,14.7608637 C7.82324354,14.7172334 7.64813714,14.7608637 7.56058394,14.8481244 L7.38547754,15.0226457 C6.29106255,16.1134038 4.49622197,16.2442947 3.31425378,15.2407973 C2.0447324,14.1064089 1.9571792,12.1430443 3.18292398,10.9650256 L6.07217955,8.08542422 C6.46616895,7.69275131 6.90393495,7.47459969 7.38547754,7.34370872 C7.99834993,7.16918742 8.65499893,7.21281775 9.22409472,7.47459969 C9.57430752,7.60549066 9.92452031,7.82364228 10.1871799,8.12905454 C10.3185097,8.25994551 10.4498395,8.43446681 10.5811693,8.65261843 C10.7124991,8.91440037 11.0627119,8.95803069 11.2815949,8.73987907 L12.3760099,7.64912098 C12.5511163,7.47459969 12.5511163,7.25644807 12.4197865,7.08192678 C12.2446801,6.86377516 12.0695737,6.68925386 11.8944673,6.47110225 C11.6318077,6.20932031 11.2815949,5.94753836 10.9751587,5.72938675 C10.4060629,5.38034416 9.83696712,5.16219254 9.18031812,5.03130157 C7.99834993,4.81314995 6.72882855,4.98767125 5.59063696,5.59849578 C5.15287096,5.81664739 4.75888157,6.12205966 4.40866877,6.47110225 L1.6069664,9.26344296 C-0.406757179,11.2704378 -0.581863577,14.5427121 1.3880834,16.6369676 C3.44558358,18.8184838 6.90393495,18.9057445 9.00521172,16.7678586 L9.96829691,15.8079915 C10.1871799,15.5898399 10.0120735,15.1535366 9.61808412,15.1099063 Z M16.841223,8.95803069 C18.9424998,6.86377516 18.8987232,3.4169796 16.7098932,1.36635439 C14.6086165,-0.55337985 11.3253715,-0.422488879 9.31164792,1.58450601 L8.43611593,2.45711248 C8.17345633,2.71889442 8.34856273,3.15519765 8.69877553,3.19882798 C9.22409472,3.2424583 9.79319052,3.32971895 10.3185097,3.50424024 C10.4936161,3.54787057 10.6687225,3.50424024 10.7562757,3.4169796 L10.9313821,3.2424583 C12.0257971,2.15170021 13.8206377,2.02080924 15.0026059,3.02430668 C16.2721272,4.1586951 16.3596804,6.12205966 15.1339357,7.3000784 L12.2446801,10.1796798 C11.8506907,10.5723527 11.4129247,10.7905043 10.9313821,10.9213953 C10.3185097,11.0959165 9.66186072,11.0522862 9.09276492,10.7905043 C8.74255213,10.6596133 8.39233933,10.4414617 8.12967973,10.1360494 C7.99834993,10.0051585 7.86702014,9.83063716 7.77946694,9.65611587 C7.64813714,9.39433393 7.29792434,9.3507036 7.07904134,9.56885522 L6.02840295,10.615983 C5.85329656,10.7905043 5.85329656,11.0086559 5.98462636,11.1831772 C6.15973275,11.4013288 6.29106255,11.5758501 6.50994555,11.7940017 C6.81638175,12.099414 7.12281794,12.3175656 7.42925414,12.5357172 C7.99834993,12.8847598 8.56744573,13.1029114 9.22409472,13.2338024 C10.4060629,13.451954 11.6755843,13.2774327 12.8137759,12.6666082 C13.2515419,12.4484566 13.6455313,12.1430443 13.9957441,11.7940017 L16.841223,8.95803069 L16.841223,8.95803069 Z M18.8549466,17.0296406 L20.8686702,15.0226457 C21.0437766,14.8481244 21.0437766,14.5863424 20.8686702,14.4118211 L19.6429254,13.1901721 C19.467819,13.0156508 19.2051594,13.0156508 19.030053,13.1901721 L17.060106,15.2407973 L15.1777123,13.3646934 C15.0026059,13.1901721 14.7399463,13.1901721 14.5648399,13.3646934 L13.3390951,14.5863424 C13.1639887,14.7608637 13.1639887,15.0226457 13.3390951,15.197167 L15.2214889,17.0732709 L13.3828717,18.9057445 C13.2077653,19.0802658 13.2077653,19.3420477 13.3828717,19.516569 L14.6086165,20.7382181 C14.7837229,20.9127394 15.0463825,20.9127394 15.2214889,20.7382181 L17.060106,18.9057445 L19.030053,20.869109 C19.2051594,21.0436303 19.467819,21.0436303 19.6429254,20.869109 L20.8686702,19.64746 C21.0437766,19.4729387 21.0437766,19.2111567 20.8686702,19.0366354 L18.8549466,17.0296406 Z" id="path-1"></path>
    </defs>
    <g id="01-copy" stroke="none" stroke-width="1" fill="none" fill-rule="evenodd" transform="translate(-1696.000000, -1446.000000)">
        <g id="Group-3" transform="translate(1566.000000, 1224.000000)">
            <g id="Group-9-Copy" transform="translate(130.000000, 222.000000)">
                <g id="Group-6">
                    <path d="M8.5,9.5 L0.5,9.5" id="Line-2" stroke="#54698D" stroke-linecap="square"></path>
                    <path d="M45.5,9.5 L37.5,9.5" id="Line-2-Copy" stroke="#54698D" stroke-linecap="square"></path>
                    <g id="Group-5" transform="translate(13.000000, 0.000000)">
                        <g id="icons/utility/remove_link">
                            <mask id="mask-2" fill="white">
                                <use xlink:href="#path-1"></use>
                            </mask>
                            <use id="Mask" fill="#54698D" xlink:href="#path-1"></use>
                        </g>
                    </g>
                </g>
            </g>
        </g>
    </g>
</svg>