<?xml version="1.0" encoding="utf-8"?>
<!-- Generator: Adobe Illustrator 16.0.0, SVG Export Plug-In . SVG Version: 6.00 Build 0)  -->
<!DOCTYPE svg PUBLIC "-//W3C//DTD SVG 1.1//EN" "http://www.w3.org/Graphics/SVG/1.1/DTD/svg11.dtd">
<svg version="1.1" id="Layer_1" xmlns="http://www.w3.org/2000/svg" xmlns:xlink="http://www.w3.org/1999/xlink" x="0px" y="0px"
  width="951px" height="1024px" viewBox="0 0 951 1024" enable-background="new 0 0 951 1024" xml:space="preserve">
<g id="icomoon-ignore">
</g>
<path d="M874.531,257.946c-8.225,0-16.023-1.666-23.434-4.165l-183.68,302.94c9.146,12.267,14.783,27.334,14.783,43.819
  c0,40.629-32.898,73.493-73.492,73.493c-40.629,0-73.527-32.864-73.527-73.493c0-8.367,1.701-16.308,4.289-23.788L385.164,427.037
  c-10.795,6.239-23.168,10.068-36.533,10.068c-8.758,0-17.035-1.79-24.816-4.591L127.336,787.021
  c14.199,13.401,23.186,32.262,23.186,53.32c0,40.629-32.881,73.528-73.51,73.528c-40.594,0-73.492-32.899-73.492-73.528
  c0-40.593,32.898-73.457,73.492-73.457c6.436,0,12.568,1.063,18.523,2.623L293.68,411.97c-11.398-12.94-18.543-29.744-18.543-48.375
  c0-40.61,32.883-73.511,73.494-73.511c40.609,0,73.51,32.9,73.51,73.511c0,14.021-4.129,26.979-10.938,38.129l148.652,144.221
  c13.012-11.628,29.992-18.932,48.854-18.932c10.777,0,20.988,2.481,30.24,6.665l181.623-299.626
  c-12.018-13.082-19.568-30.4-19.568-49.615c0-40.611,32.898-73.493,73.527-73.493s73.492,32.882,73.492,73.493
  C948.023,225.064,915.16,257.946,874.531,257.946z"/>
</svg>
