<?xml version="1.0" encoding="utf-8"?>
<!-- Generator: Adobe Illustrator 16.0.0, SVG Export Plug-In . SVG Version: 6.00 Build 0)  -->
<!DOCTYPE svg PUBLIC "-//W3C//DTD SVG 1.1//EN" "http://www.w3.org/Graphics/SVG/1.1/DTD/svg11.dtd">
<svg version="1.1" id="Layer_1" xmlns="http://www.w3.org/2000/svg" xmlns:xlink="http://www.w3.org/1999/xlink" x="0px" y="0px"
	 width="951px" height="1024px" viewBox="0 0 951 1024" enable-background="new 0 0 951 1024" xml:space="preserve">
<g id="icomoon-ignore">
</g>
<path fill="#5187A8" d="M918.438,512.305c0,244.864-198.508,443.373-443.373,443.373c-244.864,0-443.372-198.509-443.372-443.373
	S230.2,68.943,475.064,68.943C719.93,68.943,918.438,267.44,918.438,512.305z"/>
<g>
	<path fill="#FFFFFF" d="M747.694,321.208H202.436c-6.205,0-11.299,5.07-11.299,11.287v337.081c0,6.181,5.094,11.299,11.299,11.299
		h40.078V422.551c0-15.572,12.663-28.248,28.236-28.248h214.178c15.585,0,28.235,12.676,28.235,28.248v179.254H644.19
		c15.573,0,28.248,12.651,28.248,28.224v50.847h75.256c6.205,0,11.299-5.118,11.299-11.299V332.495
		C758.993,326.278,753.899,321.208,747.694,321.208z"/>
	<path fill="#FFFFFF" d="M634.582,635.316H490.565h-59.611c-3.114,0-5.649,2.511-5.649,5.649v94.498v5.577
		c0,3.114,2.535,5.649,5.649,5.649h203.628c3.114,0,5.625-2.535,5.625-5.649V640.966
		C640.207,637.827,637.696,635.316,634.582,635.316z"/>
	<path fill="#FFFFFF" d="M480.715,601.805V430.832c0-3.103-2.535-5.638-5.65-5.638H280.178c-3.114,0-5.649,2.535-5.649,5.638V729.79
		c0,3.139,2.535,5.674,5.649,5.674h112.605V630.028c0-15.572,12.664-28.224,28.236-28.224H480.715z"/>
</g>
</svg>
