<?xml version="1.0" encoding="utf-8"?>
<!-- Generator: Adobe Illustrator 16.0.0, SVG Export Plug-In . SVG Version: 6.00 Build 0)  -->
<!DOCTYPE svg PUBLIC "-//W3C//DTD SVG 1.1//EN" "http://www.w3.org/Graphics/SVG/1.1/DTD/svg11.dtd">
<svg version="1.1" id="Layer_3" xmlns="http://www.w3.org/2000/svg" xmlns:xlink="http://www.w3.org/1999/xlink" x="0px" y="0px"
	 viewBox="0 0 110 110" enable-background="new 0 0 110 110" xml:space="preserve">
<g id="outer_circle_2_">
	<path d="M55,5.333C27.614,5.333,5.333,27.613,5.333,55c0,27.387,22.281,49.667,49.667,49.667
		c27.385,0,49.667-22.28,49.667-49.667C104.667,27.613,82.385,5.333,55,5.333z M55,101.529C29.342,101.529,8.47,80.655,8.47,55
		C8.47,29.344,29.342,8.47,55,8.47c26.972,0,46.529,22.471,46.529,46.53C101.529,80.655,80.656,101.529,55,101.529z"/>
</g>
<path d="M37.567,27.504v16.912l-14.685,8.476c-0.566,0.326-0.917,0.935-0.917,1.587v18.016
	c0,0.653,0.351,1.262,0.917,1.587l15.602,9.007c0.271,0.155,0.589,0.238,0.918,0.238s0.646-0.083,0.916-0.239L55,74.614
	l14.685,8.475c0.542,0.31,1.291,0.312,1.835-0.001l15.599-9.005c0.565-0.327,0.917-0.936,0.917-1.588V54.479
	c0-0.653-0.351-1.261-0.915-1.586l-14.686-8.478V27.504c0-0.653-0.352-1.262-0.917-1.588l-15.6-9.003
	c-0.543-0.314-1.289-0.314-1.834,0l-15.601,9.003C37.918,26.243,37.567,26.852,37.567,27.504z M84.368,55.538v15.898l-13.767,7.945
	l-13.769-7.945v-15.85l13.81-7.973L84.368,55.538z M41.234,28.563l13.769-7.946l13.765,7.946v15.853L55,52.362l-13.766-7.946V28.563
	z M53.167,55.583v15.854L39.4,79.382l-13.768-7.945V55.538l13.728-7.923L53.167,55.583z"/>
</svg>
