<?xml version="1.0" encoding="UTF-8"?>
<svg width="100px" height="100px" viewBox="0 0 36 36" version="1.1" xmlns="http://www.w3.org/2000/svg" xmlns:xlink="http://www.w3.org/1999/xlink">
    <!-- Generator: Sketch 52.5 (67469) - http://www.bohemiancoding.com/sketch -->
    <title>ico</title>
    <desc>Created with Sketch.</desc>
    <g stroke="none" stroke-width="1" fill="none" fill-rule="evenodd">
        <g transform="translate(-695.000000, -447.000000)">
            <g transform="translate(696.000000, 448.000000)">
                <path d="M23.2038016,21.6520231 C21.8432088,23.6790655 19.6169777,25 17.1015084,25 C14.5865227,25 12.3606639,23.6795733 11,21.6531921 C11.6169723,20.7293254 12.8701783,20.1079268 14.1936137,19.5581395 C15.3909821,19.0348837 15.5962452,18.5465116 15.5962452,18.0232558 C15.5962452,17.5 15.25414,16.9767442 14.8436137,16.5930233 C14.1251926,15.8953488 13.7146663,14.9534884 13.7146663,13.8372093 C13.7146663,11.7790698 14.9462452,10 17.1357189,10 C19.3251926,10 20.5567716,11.7790698 20.5567716,13.8372093 C20.5567716,14.9534884 20.1462452,15.9302326 19.4278242,16.5930233 C19.0172979,16.9767442 18.6751926,17.5 18.6751926,18.0232558 C18.6751926,18.5465116 18.8462452,19.0348837 20.0778242,19.5581395 C21.3517058,20.1076949 22.5905025,20.7288011 23.2038016,21.6520231 Z" id="Combined-Shape" fill="#0370D6"></path>
                <circle stroke="#0370D6" cx="17" cy="17" r="17"></circle>
                <path d="M17.1886043,29.1886043 C23.8160213,29.1886043 29.1886043,23.8160213 29.1886043,17.1886043 C29.1886043,10.5611873 23.8160213,5.1886043 17.1886043,5.1886043 C13.6109753,5.1886043 10.3990154,6.75421994 8.20048277,9.23769304 C7.18119509,10.3890854 6.37973872,11.7377667 5.8606649,13.2191859 C5.60273512,13.9553088 5.41452939,14.7242064 5.30396763,15.5179589 C5.22791791,16.0639402 5.1886043,16.6216811 5.1886043,17.1886043 C5.1886043,20.2575378 6.32792986,23.0688264 8.23586581,25.1793072 C8.96325345,25.9839137 9.59044334,26.5986802 10.1174355,27.0236067" stroke="#0370D6" transform="translate(17.188604, 17.188604) rotate(84.000000) translate(-17.188604, -17.188604) "></path>
                <polyline fill="#0370D6" transform="translate(7.595415, 10.472338) rotate(-7.000000) translate(-7.595415, -10.472338) " points="5.8788428 7.9638172 5.08422138 12.9808594 10.106609 11.624097"></polyline>
            </g>
        </g>
    </g>
</svg>