<?xml version="1.0" encoding="utf-8"?>
<!-- Generated by IcoMoon.io -->
<!DOCTYPE svg PUBLIC "-//W3C//DTD SVG 1.1//EN" "http://www.w3.org/Graphics/SVG/1.1/DTD/svg11.dtd">
<svg version="1.1" xmlns="http://www.w3.org/2000/svg" xmlns:xlink="http://www.w3.org/1999/xlink" width="951" height="1024" viewBox="0 0 951 1024">
<g id="icomoon-ignore">
</g>
<path d="M417.88 973.112c-33.105 0-64.161-12.838-87.456-36.139l-279.89-279.895c-48.18-48.217-48.18-126.658-0.012-174.875l362.755-362.755c39.061-39.084 110.216-68.561 165.511-68.561h210.635c86.659 0 147.18 50.848 147.18 123.653v234.185c0 55.295-29.453 126.457-68.525 165.518l-362.742 362.73c-23.302 23.301-54.364 36.139-87.456 36.139zM578.788 111.693c-39.589 0-94.545 22.761-122.514 50.74l-362.748 362.761c-24.478 24.5-24.483 64.393 0.012 88.904l279.89 279.884c11.816 11.816 27.6 18.325 44.452 18.325s32.641-6.509 44.464-18.325l362.743-362.731c27.955-27.968 50.711-82.931 50.711-122.525v-234.185c0-43.413-43.385-62.848-86.375-62.848h-210.635zM664.759 446.272c-68.109 0-123.511-55.402-123.511-123.506s55.401-123.511 123.511-123.511 123.512 55.407 123.512 123.511-55.403 123.506-123.512 123.506zM664.759 260.062c-34.57 0-62.705 28.128-62.705 62.705 0 34.571 28.135 62.7 62.705 62.7 34.572 0 62.706-28.129 62.706-62.7 0-34.578-28.134-62.705-62.706-62.705z"></path>
</svg>
