<?xml version="1.0" encoding="utf-8"?>
<!-- Generator: Adobe Illustrator 16.0.0, SVG Export Plug-In . SVG Version: 6.00 Build 0)  -->
<!DOCTYPE svg PUBLIC "-//W3C//DTD SVG 1.1//EN" "http://www.w3.org/Graphics/SVG/1.1/DTD/svg11.dtd">
<svg version="1.1" id="Layer_1" xmlns="http://www.w3.org/2000/svg" xmlns:xlink="http://www.w3.org/1999/xlink" x="0px" y="0px"
	 width="951px" height="1024px" viewBox="0 0 951 1024" enable-background="new 0 0 951 1024" xml:space="preserve">
<g id="Layer_1_1_" display="none">
	<g id="outer_circle" display="inline">
		<path fill="#249FDA" d="M55-383.147c-241.589,0-438.147,196.546-438.147,438.147c0,241.598,196.559,438.147,438.147,438.147
			c241.58,0,438.146-196.55,438.146-438.147C493.146-186.602,296.58-383.147,55-383.147z M55,465.468
			c-226.345,0-410.472-184.145-410.472-410.468c0-226.327,184.127-410.477,410.472-410.477
			c237.936,0,410.468,198.234,410.468,410.477C465.468,281.323,281.332,465.468,55,465.468z"/>
	</g>
	<g id="real_time_1_" display="inline">
		<g>
			<path fill="#249FDA" d="M55.775,332.444c-153.415,0-278.224-124.805-278.224-278.22S-97.64-224.004,55.775-224.004
				S334.004-99.19,334.004,54.225S209.19,332.444,55.775,332.444z M55.775-201.949c-141.25,0-256.17,114.919-256.17,256.174
				c0,141.251,114.919,256.166,256.17,256.166c141.25,0,256.174-114.915,256.174-256.166
				C311.949-87.03,197.025-201.949,55.775-201.949z"/>
			<path fill="#249FDA" d="M55.775-126.336c-6.091,0-11.027-4.937-11.027-11.027v-75.613c0-6.091,4.937-11.027,11.027-11.027
				c6.09,0,11.027,4.937,11.027,11.027v75.613C66.803-131.272,61.866-126.336,55.775-126.336z"/>
			<path fill="#249FDA" d="M55.775,332.444c-6.091,0-11.027-4.938-11.027-11.027v-75.604c0-6.091,4.937-11.027,11.027-11.027
				c6.09,0,11.027,4.937,11.027,11.027v75.604C66.803,327.508,61.866,332.444,55.775,332.444z"/>
			<path fill="#249FDA" d="M191.246-70.223c-2.826,0-5.644-1.077-7.797-3.23c-4.308-4.308-4.308-11.29,0-15.598l53.481-53.455
				c4.315-4.304,11.294-4.299,15.593,0.004c4.308,4.308,4.308,11.29,0,15.598l-53.481,53.456
				C196.889-71.299,194.062-70.223,191.246-70.223z"/>
			<path fill="#249FDA" d="M244.727-121.473c-3.385,0-6.771-1.292-9.355-3.873c-5.169-5.169-5.169-13.547,0-18.716l34.029-34.046
				c5.169-5.169,13.543-5.165,18.711-0.004c5.17,5.169,5.17,13.547,0,18.716l-34.028,34.046
				C251.498-122.765,248.113-121.473,244.727-121.473z"/>
			<path fill="#249FDA" d="M-133.155,254.186c-2.821,0-5.643-1.076-7.796-3.23c-4.308-4.307-4.308-11.285,0-15.593l53.451-53.456
				c4.308-4.307,11.286-4.307,15.593,0c4.308,4.308,4.308,11.286,0,15.594l-53.451,53.455
				C-127.512,253.109-130.333,254.186-133.155,254.186z"/>
			<path fill="#249FDA" d="M322.977,65.252h-75.613c-6.091,0-11.027-4.937-11.027-11.027c0-6.09,4.937-11.027,11.027-11.027h75.613
				c6.091,0,11.027,4.937,11.027,11.027C334.004,60.315,329.067,65.252,322.977,65.252z"/>
			<path fill="#249FDA" d="M-135.817,65.252h-75.604c-6.091,0-11.027-4.937-11.027-11.027c0-6.09,4.937-11.027,11.027-11.027h75.604
				c6.091,0,11.027,4.937,11.027,11.027C-124.79,60.315-129.726,65.252-135.817,65.252z"/>
			<path fill="#249FDA" d="M244.727,254.186c-2.825,0-5.643-1.076-7.796-3.23l-53.481-53.464c-4.308-4.308-4.308-11.286,0-15.593
				c4.307-4.308,11.285-4.308,15.593,0l53.481,53.464c4.308,4.308,4.308,11.286,0,15.593
				C250.369,253.109,247.553,254.186,244.727,254.186z"/>
			<path fill="#249FDA" d="M-79.703-70.223c-2.821,0-5.643-1.077-7.797-3.23l-53.451-53.456c-4.308-4.307-4.308-11.29,0-15.593
				c4.308-4.308,11.286-4.308,15.593,0l53.451,53.456c4.308,4.307,4.308,11.29,0,15.593C-74.061-71.299-76.882-70.223-79.703-70.223
				z"/>
		</g>
		<g>
			<path fill="#249FDA" d="M169.338,163.203L101.229,32.938c-2.981-6.47-7.254-12.458-12.854-17.549
				C66.019-4.978,31.404-3.366,11.034,18.981C-9.323,41.328-7.712,75.935,14.644,96.3c4.234,3.843,8.895,6.936,13.831,9.201
				l-0.009,0.009L169.338,163.203z"/>
			<path fill="#249FDA" d="M312.803-116.562c0,0-29.489-25.043-45.97-41.528c-16.497-16.484-40.267-44.703-40.267-44.703
				l31.074-31.069c0,0,28.86,23.135,45.969,40.258c17.109,17.109,40.258,45.965,40.258,45.965L312.803-116.562z"/>
		</g>
	</g>
</g>
<g id="Layer_2" display="none">
	<g id="outer_circle_1_" display="inline">
		<path fill="#249FDA" d="M55-383.147c-241.589,0-438.147,196.546-438.147,438.147c0,241.598,196.559,438.147,438.147,438.147
			c241.58,0,438.146-196.55,438.146-438.147C493.146-186.602,296.58-383.147,55-383.147z M55,465.468
			c-226.345,0-410.472-184.145-410.472-410.468c0-226.327,184.127-410.477,410.472-410.477
			c237.936,0,410.468,198.234,410.468,410.477C465.468,281.323,281.332,465.468,55,465.468z"/>
	</g>
	<path display="inline" fill="#249FDA" d="M-40.63-10.792c0,30.518-24.738,55.26-55.26,55.26c-30.523,0-55.261-24.742-55.261-55.26
		c0-30.519,24.738-55.261,55.261-55.261C-65.368-66.053-40.63-41.311-40.63-10.792z"/>
	<circle display="inline" fill="#249FDA" cx="205.891" cy="-159.538" r="55.265"/>
	<path display="inline" fill="#249FDA" d="M261.156,146.525c0,30.522-24.742,55.265-55.266,55.265
		c-30.522,0-55.265-24.742-55.265-55.265c0-30.515,24.742-55.256,55.265-55.256C236.414,91.27,261.156,116.011,261.156,146.525z"/>
	<path display="inline" fill="#249FDA" d="M54.285,354.938c-6.091,0-11.027-4.936-11.027-11.025v-549.216
		c0-6.091,4.937-11.027,11.027-11.027c6.09,0,11.027,4.937,11.027,11.027v549.216C65.312,350.002,60.376,354.938,54.285,354.938z"/>
	<path display="inline" fill="#249FDA" d="M55,308.451c-2.821,0-5.643-1.076-7.796-3.23c-4.308-4.307-4.308-11.285,0-15.593
		l150.89-150.891c4.309-4.308,11.286-4.308,15.594,0c4.307,4.308,4.307,11.286,0,15.593L62.797,305.221
		C60.643,307.375,57.821,308.451,55,308.451z"/>
	<path display="inline" fill="#249FDA" d="M55,1.308c-2.821,0-5.643-1.077-7.796-3.231c-4.308-4.307-4.308-11.286,0-15.593
		l150.89-150.891c4.309-4.308,11.286-4.308,15.594,0c4.307,4.308,4.307,11.286,0,15.593L62.797-1.923
		C60.643,0.23,57.821,1.308,55,1.308z"/>
	<path display="inline" fill="#249FDA" d="M48.272,143.329c-2.822,0-5.643-1.077-7.797-3.23L-103.687-4.068
		c-4.308-4.308-4.308-11.29,0-15.593c4.307-4.308,11.285-4.308,15.593,0L56.068,124.506c4.308,4.307,4.308,11.285,0,15.593
		C53.915,142.252,51.093,143.329,48.272,143.329z"/>
</g>
<g id="Layer_3" display="none">
	<path display="inline" fill="#249FDA" d="M-98.79-187.558v149.189l-129.547,74.773c-4.992,2.878-8.089,8.245-8.089,14.004v158.929
		c0,5.763,3.097,11.13,8.089,13.999L-90.7,302.792c2.391,1.369,5.195,2.102,8.098,2.102s5.699-0.732,8.081-2.11L55,228.031
		l129.543,74.761c4.781,2.73,11.389,2.748,16.188-0.009l137.606-79.438c4.988-2.886,8.089-8.253,8.089-14.008V50.408
		c0-5.764-3.092-11.126-8.072-13.991L208.803-38.369v-149.189c0-5.759-3.102-11.13-8.09-14.012L63.098-280.996
		c-4.794-2.77-11.367-2.773-16.178,0.005l-137.624,79.425C-95.692-198.685-98.79-193.317-98.79-187.558z M314.077,59.747v140.251
		L192.633,270.09L71.17,199.998V60.178l121.824-70.337L314.077,59.747z M-66.44-178.22l121.462-70.1l121.432,70.1v139.851L55,31.731
		l-121.44-70.1V-178.22z M38.826,60.143v139.855L-82.615,270.09l-121.453-70.092V59.747l121.104-69.894L38.826,60.143z"/>
	<g id="outer_circle_2_" display="inline">
		<path fill="#249FDA" d="M55-383.147c-241.589,0-438.147,196.546-438.147,438.147c0,241.598,196.559,438.147,438.147,438.147
			c241.58,0,438.146-196.55,438.146-438.147C493.146-186.602,296.58-383.147,55-383.147z M55,465.468
			c-226.345,0-410.472-184.145-410.472-410.468c0-226.327,184.127-410.477,410.472-410.477
			c237.936,0,410.468,198.234,410.468,410.477C465.468,281.323,281.332,465.468,55,465.468z"/>
	</g>
</g>
<g>
	<path fill="#249FDA" d="M475.5,73.853C233.911,73.853,37.354,270.398,37.354,512c0,241.598,196.559,438.147,438.146,438.147
		c241.58,0,438.146-196.551,438.146-438.147C913.646,270.397,717.08,73.853,475.5,73.853z M475.5,922.468
		C249.155,922.468,65.028,738.323,65.028,512c0-226.327,184.127-410.478,410.472-410.478c237.937,0,410.468,198.234,410.468,410.478
		C885.968,738.323,701.832,922.468,475.5,922.468z"/>
	<path fill="#249FDA" d="M697.344,287.691l-217.902-69.212c-1.379-0.443-2.787-0.664-4.208-0.664c-1.426,0-2.838,0.221-4.2,0.655
		l-217.911,69.221c-5.814,1.849-9.722,7.187-9.722,13.285v272.361c0,54.619,38.595,110.255,114.712,165.364
		c54.679,39.577,109.139,64.225,111.43,65.25c3.555,1.619,7.822,1.603,11.385,0c5.765-2.604,57.962-26.569,111.427-65.25
		c76.104-55.101,114.699-110.736,114.699-165.364V300.977C707.053,294.878,703.151,289.54,697.344,287.691z M679.174,573.338
		c0,83.1-126.415,165.58-201.106,201.211l-2.843,1.361l-2.848-1.361c-74.69-35.57-201.094-117.973-201.094-201.211V311.169
		l203.946-64.785l203.944,64.785V573.338z"/>
	<path fill="#249FDA" d="M461.285,358.886v40.24l-6.069,0.504c-29.179,2.417-52.917,27.547-52.917,56.019
		c0,30.48,26.357,56.23,57.553,56.23h30.742c15.816,0,29.688,13.25,29.688,28.352c0,15.094-13.871,28.334-29.688,28.334h-74.352
		c-7.688,0-13.943,6.255-13.943,13.939c0,7.691,6.255,13.947,13.943,13.947h45.043v38.164c0,7.685,6.255,13.931,13.943,13.931
		c7.68,0,13.936-6.246,13.936-13.931v-37.881l6.072-0.5c29.18-2.41,52.922-27.531,52.922-56.004
		c0-30.479-26.361-56.229-57.564-56.229h-30.742c-15.805,0-29.67-13.25-29.67-28.353c0-15.102,13.865-28.352,29.67-28.352h74.369
		c7.685,0,13.938-6.254,13.938-13.939c0-7.68-6.254-13.93-13.938-13.93h-45.057v-40.542c0-7.685-6.256-13.938-13.936-13.938
		C467.54,344.947,461.285,351.202,461.285,358.886z"/>
</g>
<g id="Layer_5" display="none">
	<g id="outer_circle_4_" display="inline">
		<path fill="#249FDA" d="M55-383.147c-241.589,0-438.147,196.546-438.147,438.147c0,241.598,196.559,438.147,438.147,438.147
			c241.58,0,438.146-196.55,438.146-438.147C493.146-186.602,296.58-383.147,55-383.147z M55,465.468
			c-226.345,0-410.472-184.145-410.472-410.468c0-226.327,184.127-410.477,410.472-410.477
			c237.936,0,410.468,198.234,410.468,410.477C465.468,281.323,281.332,465.468,55,465.468z"/>
	</g>
	<g display="inline">
		<path fill="#249FDA" d="M204.84,83.102c0,8.899-7.219,16.137-16.007,16.137H90.244c-8.012,0-14.758-5.938-15.697-13.939
			L57.119-39.678L21.953,281.84c-0.784,7.538-7.064,13.5-14.757,14.129c-0.465,0-0.784,0.164-1.249,0.164
			c-7.228,0-13.5-4.868-15.387-11.777L-61.888,98.17l-51.474,97.917c-3.145,5.85-9.58,9.459-16.17,8.478
			c-6.754-0.741-12.086-5.608-13.663-12.087l-25.113-100.304H-289.52c-8.749,0-15.99-7.193-15.99-16.137
			c0-8.795,7.241-16.015,15.99-16.015h133.794c7.198,0,13.771,5.022,15.502,12.242l17.932,71.59l50.668-96.393
			c3.136-5.807,9.451-9.416,15.869-8.477c6.599,0.629,12.104,5.341,13.957,11.622l40.835,145.205L39.226-171.87
			c0.939-7.982,7.529-14.099,15.696-14.262c9.106,0.762,15.068,5.785,16.17,13.957l33.279,239.22h84.461
			C197.621,67.044,204.84,74.307,204.84,83.102L204.84,83.102z M289.93,67.044h-50.863c-8.795,0-16.17,7.263-16.17,16.058
			c0,8.899,7.375,16.137,16.17,16.137h50.863c8.787,0,16.016-7.237,16.016-16.137C305.945,74.307,298.717,67.044,289.93,67.044
			L289.93,67.044z M399.348,67.044h-54.007c-8.95,0-16.171,7.263-16.171,16.058c0,8.899,7.221,16.137,16.171,16.137h54.007
			c8.943,0,16.162-7.237,16.162-16.137C415.51,74.307,408.291,67.044,399.348,67.044L399.348,67.044z"/>
	</g>
</g>
<g id="Layer_6" display="none">
	<path display="inline" fill="#249ED9" d="M51.627,492.26l-23.153-1.49c-0.629-0.033-1.262-0.076-1.896-0.119h-0.034
		c-0.482-0.034-0.957-0.062-1.439-0.096l-5.548-0.414c-143.874-11.604-273.361-94.721-344.494-219.991l-0.409,0.724l-11.019-22.234
		c-0.026-0.061-0.056-0.112-0.086-0.173l-3.105-6.271l0.03-0.062C-367.502,183.346-381.683,120.431-381.683,55
		c0-78.435,20.784-154.509,60.318-221.507l-0.534,0.008l8.796-13.452c1.581-2.473,3.196-4.94,4.833-7.387l0.004-0.008
		c0.056-0.082,0.107-0.164,0.164-0.246l3.782-5.557C-222.582-311.342-88.792-381.683,55-381.683c1.219,0,2.447,0.008,3.691,0.021
		l-0.37-0.625l32,2.111c143.974,11.591,273.524,94.734,344.667,220.103l0.403-0.732l11.122,22.468c0.01,0.005,0.01,0.005,0.01,0.005
		l3.093,6.259l-0.034,0.06C477.529-73.268,491.684-10.392,491.684,55c0,78.482-20.806,154.587-60.374,221.594l0.846-0.009
		l-13.889,20.762c-0.044,0.061-0.087,0.121-0.12,0.181l-3.938,5.781C332.471,421.402,198.715,491.683,55,491.683
		c-1.228,0-2.473-0.009-3.73-0.017L51.627,492.26z M35.229,464.658c7.164,0.37,13.681,0.56,19.771,0.56
		c128.819,0,249.118-60.115,326.593-162.013c-81.601-2.326-226.625-22.261-380.036-118.438c-0.28-0.172-0.568-0.353-0.849-0.525
		l6.453-11.578l7.051-11.2c0.117,0.078,0.237,0.156,0.354,0.225c159.243,99.985,308.359,115.139,383.163,115.303l1.283,0.008
		c0.318,0,0.639,0,0.957-0.008c42.713-66.206,65.249-142.802,65.249-221.99c0-55.261-10.76-108.6-32.021-158.924
		c-44.695,72.363-134.954,186.36-294.804,270.176l-12.285-23.434C292.23,55.707,380.352-64.825,419.645-132.836
		c-62.079-120.222-180.025-202.279-313.229-219.078c37.104,69.161,86.916,192.535,86.934,356.361
		c0,11.281-0.241,22.757-0.707,34.098l-26.447-1.103c0.457-10.976,0.689-22.076,0.689-32.991
		c-0.018-171.248-56.222-296.458-92.267-359.123c-7.228-0.37-13.586-0.547-19.616-0.547c-128.936,0-249.312,60.21-326.782,162.258
		c81.683,2.55,225.074,22.834,376.938,117.81c0.035,0.018,0.043,0.021,0.068,0.043c0.242,0.151,0.492,0.306,0.732,0.457
		c0.389,0.241,0.768,0.478,1.146,0.719l1.524,0.965l-6.159,11.759l-7.09,11.174l6.176-11.751l-7.072,11.182l-1.396-0.878
		C-65.842-151.5-215.027-166.658-289.817-166.796h-0.28C-332.724-100.629-355.218-24.094-355.218,55
		c0,55.316,10.79,108.729,32.112,159.109C-278.291,141.83-187.804,27.949-27.669-55.59l12.242,23.467
		c-166.341,86.774-254.714,207.146-294.14,275.102C-247.505,363.037-129.674,445.016,3.35,461.868
		c-37.483-69.429-87.821-193.371-87.821-358.236c0-10.527,0.211-21.235,0.62-31.814l26.448,1.033
		c-0.401,10.235-0.603,20.59-0.603,30.781C-58.006,275.99-1.187,401.769,35.229,464.658z"/>
	<g display="inline">
		<path fill="#249ED9" d="M181.027,55.004C181.027,124.6,124.6,181.037,55,181.037S-71.023,124.599-71.023,55.004
			C-71.023-14.608-14.6-71.028,55-71.028S181.027-14.608,181.027,55.004z"/>
		<path fill="#249ED9" d="M55,194.27c-76.785,0-139.256-62.476-139.256-139.265S-21.785-84.261,55-84.261
			S194.261-21.785,194.261,55.004S131.785,194.27,55,194.27z M55-57.795c-62.191,0-112.791,50.6-112.791,112.8
			c0,62.196,50.6,112.8,112.791,112.8c62.199,0,112.795-50.604,112.795-112.8C167.795-7.195,117.199-57.795,55-57.795z"/>
	</g>
</g>
</svg>
