<?xml version="1.0" encoding="UTF-8"?>
<svg width="936px" height="642px" viewBox="0 0 936 642" version="1.1" xmlns="http://www.w3.org/2000/svg" xmlns:xlink="http://www.w3.org/1999/xlink">
    <!-- Generator: Sketch 52.2 (67145) - http://www.bohemiancoding.com/sketch -->
    <title>Group 4 Copy</title>
    <desc>Created with Sketch.</desc>
    <g id="OTT---Tactical---MVP" stroke="none" stroke-width="1" fill="none" fill-rule="evenodd">
        <g id="Group-4-Copy" transform="translate(-5.000000, -3.500000)" fill="#1E6A8F">
            <g id="new_custom99">
                <path d="M811.641536,336.844444 L764.457582,336.844444 L764.457582,289.916442 C764.457582,284.154215 761.63969,278.391988 756.830148,273.744412 C750.704423,267.824977 741.34782,263.713743 730.467477,263.713743 L84.6554976,263.713743 C65.2325809,263.713743 45.8096642,276.815092 45.8096642,289.916442 L45.8096642,571.595459 C45.8096642,587.972146 65.2325809,597.798158 84.6554976,597.798158 L122.427586,597.798158 L122.427586,634.111681 L85.7345485,634.111681 C42.1801293,634.111681 5.88477995,597.798158 5.88477995,554.22193 L5.88477995,292.764561 C5.88477995,249.188333 42.1801293,216.506162 85.7345485,216.506162 L259.952225,216.506162 C267.211295,198.349401 278.0999,187.455344 288.988505,176.561287 L205.509201,67.6207164 C190.991062,49.4639547 190.991062,27.6758406 209.138736,13.1504313 C227.286411,-1.37497807 252.693156,2.25637427 267.211295,20.413136 L361.579204,136.616411 L405.133623,136.616411 L495.871996,20.413136 C510.390136,2.25637427 539.426416,-1.37497807 553.944555,13.1504313 C572.09223,24.0444883 575.721765,49.4639547 561.203625,67.6207164 L477.724322,176.561287 C488.612926,187.455344 499.501531,198.349401 506.760601,216.506162 L731.791767,216.506162 C775.346186,216.506162 811.641536,249.188333 811.641536,292.764561 L811.641536,336.844444 Z" id="Combined-Shape"></path>
            </g>
            <g id="Group-3" transform="translate(150.848276, 398.088889)">
                <path d="M17.8605296,132.384975 C17.8605296,96.2749438 27.8939942,68.1618451 47.9612245,48.0448358 C68.0284548,27.9278265 95.9716539,17.8694728 131.79166,17.8694728 C168.514692,17.8694728 196.809062,27.7518054 216.67562,47.516767 C236.542178,67.2817286 246.475308,94.9673473 246.475308,130.574454 C246.475308,156.424811 242.135834,177.622791 233.456757,194.169031 C224.77768,210.715271 212.235849,223.589964 195.830889,232.793496 C179.425928,241.997028 158.982744,246.598724 134.500723,246.598724 C109.617357,246.598724 89.0236708,242.625675 72.7190461,234.679456 C56.4144215,226.733237 43.1953318,214.160295 33.0613805,196.960252 C22.9274292,179.760209 17.8605296,158.235332 17.8605296,132.384975 Z M86.0386037,132.686729 C86.0386037,155.016609 90.1774078,171.059684 98.4551403,180.816433 C106.732873,190.573183 117.995437,195.451484 132.24317,195.451484 C146.892249,195.451484 158.230064,190.673766 166.256956,181.118187 C174.283848,171.562607 178.297234,154.413114 178.297234,129.669193 C178.297234,108.848088 174.108262,93.6348281 165.730194,84.0289562 C157.352125,74.4230843 145.989226,69.6202204 131.641157,69.6202204 C117.895104,69.6202204 106.858293,74.4985219 98.5303921,84.2552714 C90.2024915,94.0120209 86.0386037,110.155679 86.0386037,132.686729 Z" id="O"></path>
                <polygon id="T" points="275.052155 17.8694728 503.666933 17.8694728 503.666933 74.3496836 426.963936 74.3496836 426.963936 246.598724 351.755153 246.598724 351.755153 74.3496836 275.052155 74.3496836"></polygon>
                <polygon id="T-Copy" points="560.820628 17.8694728 789.435406 17.8694728 789.435406 74.3496836 712.732409 74.3496836 712.732409 246.598724 637.523626 246.598724 637.523626 74.3496836 560.820628 74.3496836"></polygon>
            </g>
        </g>
    </g>
</svg>