<?xml version="1.0" encoding="utf-8"?>
<!-- Generator: Adobe Illustrator 16.0.0, SVG Export Plug-In . SVG Version: 6.00 Build 0)  -->
<!DOCTYPE svg PUBLIC "-//W3C//DTD SVG 1.1//EN" "http://www.w3.org/Graphics/SVG/1.1/DTD/svg11.dtd">
<svg version="1.1" id="Layer_1" xmlns="http://www.w3.org/2000/svg" xmlns:xlink="http://www.w3.org/1999/xlink" x="0px" y="0px"
	 width="951px" height="1024px" viewBox="0 0 951 1024" enable-background="new 0 0 951 1024" xml:space="preserve">
<g id="icomoon-ignore">
</g>
<g>
	<rect x="354.39" y="803.641" width="86.438" height="23.494"/>
	<path d="M595.152,830.676c0,25.263-21.348,45.839-47.559,45.839h-300.02c-25.763,0-47.522-21.772-47.522-47.584V195.071
		c0-25.812,21.759-47.584,47.522-47.584h300.02c25.764,0,47.559,21.771,47.559,47.584V418.1h23.52V195.071
		c0-38.532-32.547-71.077-71.078-71.077h-300.02c-38.519,0-71.04,32.545-71.04,71.077v633.859c0,38.506,32.521,71.075,71.04,71.075
		h300.02c39.168,0,71.078-31.123,71.078-69.33V607.672h-23.52V830.676z"/>
	<polygon points="557.645,200.283 235.814,200.283 235.814,752.59 557.645,752.59 557.645,607.672 534.139,607.672 534.139,729.048 
		259.32,729.048 259.32,223.776 534.139,223.776 534.139,418.1 557.645,418.1 	"/>
	<path d="M287.514,576.511h31.24l8.146-21.937h55.474l8.154,21.937h31.224l-49.847-129.407h-34.538L287.514,576.511z
		 M374.811,530.34h-40.354l20.189-55.671L374.811,530.34z"/>
	<path d="M494.381,447.104h-60.52v129.407h27.548V530.34h32.971c27.934,0,43.473-19.016,43.473-41.511
		C537.854,466.12,522.529,447.104,494.381,447.104z M490.518,506.089H461.41v-34.718h29.108c10.861,0,19.197,6.58,19.197,17.458
		C509.715,499.51,501.379,506.089,490.518,506.089z"/>
	<path d="M615.707,447.104H555.18v129.407h27.549V530.34h32.979c27.926,0,43.465-19.016,43.465-41.511
		C659.172,466.12,643.83,447.104,615.707,447.104z M611.834,506.089h-29.105v-34.718h29.105c10.863,0,19.197,6.58,19.197,17.458
		C631.031,499.51,622.697,506.089,611.834,506.089z"/>
	<path d="M700.156,482.413c0-7.744,6.613-12.814,18.264-12.814c13.174,0,27.137,4.479,37.621,14.16l15.326-20.542
		c-12.816-11.83-29.879-18.065-50.455-18.065c-30.453,0-49.074,17.852-49.074,39.411c0,48.682,74.506,32.946,74.506,55.476
		c0,7.562-7.186,14.355-22.512,14.355c-17.85,0-32.027-8.171-41.133-17.672l-15.127,21.561
		c12.223,12.19,30.074,20.543,55.096,20.543c34.719,0,51.799-17.853,51.799-41.512C774.467,489.009,700.156,502.792,700.156,482.413
		z"/>
</g>
</svg>
