<?xml version="1.0" encoding="utf-8"?>
<!-- Generator: Adobe Illustrator 20.1.0, SVG Export Plug-In . SVG Version: 6.00 Build 0)  -->
<svg version="1.1" id="Layer_1" xmlns="http://www.w3.org/2000/svg" xmlns:xlink="http://www.w3.org/1999/xlink" x="0px" y="0px"
	 viewBox="0 0 951 1024" style="enable-background:new 0 0 951 1024;" xml:space="preserve">
<g id="icomoon-ignore">
</g>
<g>
	<g>
		<path d="M137.8,480.7c17,0,30.7-13.7,30.7-30.7V302.1h614V450c0,17,13.7,30.7,30.7,30.7s30.7-13.7,30.7-30.7V271.4
			c0-17-13.7-30.7-30.7-30.7H137.8c-17,0-30.7,13.7-30.7,30.7V450C107.1,467,120.8,480.7,137.8,480.7L137.8,480.7z"/>
	</g>
	<path d="M452.9,773.6c17.3,17.4,38.5,7.8,45,0l176.4-189.7c11.6-12.5,10.8-31.9-1.7-43.4c-12.5-11.6-31.9-10.8-43.3,1.7
		L506.2,674.6V408.8c0-17-13.7-30.7-30.7-30.7s-30.7,13.7-30.7,30.7v265.9L321.7,542.2c-11.6-12.5-31-13.1-43.5-1.7
		c-12.5,11.6-13.1,31-1.7,43.5L452.9,773.6z"/>
</g>
</svg>
