<?xml version="1.0" encoding="UTF-8" standalone="no"?>
<svg width="46px" height="19px" viewBox="0 0 46 19" version="1.1" xmlns="http://www.w3.org/2000/svg" xmlns:xlink="http://www.w3.org/1999/xlink">
    <defs>
        <path d="M8.70207611,13.6708676 C8.46443171,13.6708676 8.22678731,13.6313926 7.98914291,13.5524425 C7.75149852,13.5129674 7.47424672,13.4340173 7.23660232,13.3550672 C7.07817272,13.3155921 6.91974312,13.3550672 6.84052833,13.4340173 L6.68209873,13.5919175 C5.69191374,14.5787939 4.06801035,14.697219 2.99861057,13.7892928 C1.84999598,12.7629414 1.77078118,10.9865639 2.87978837,9.92073743 L5.49387674,7.31538382 C5.85034334,6.96010833 6.24641733,6.76273305 6.68209873,6.64430789 C7.23660232,6.48640767 7.83071332,6.52588272 8.34560951,6.76273305 C8.66246871,6.88115822 8.9793279,7.07853349 9.2169723,7.35485887 C9.3357945,7.47328404 9.4546167,7.63118426 9.5734389,7.82855953 C9.6922611,8.06540986 10.0091203,8.10488491 10.2071573,7.90750964 L11.1973423,6.92063327 C11.3557719,6.76273305 11.3557719,6.56535778 11.2369497,6.40745756 C11.0785201,6.21008229 10.9200905,6.05218207 10.7616609,5.85480679 C10.5240165,5.61795647 10.2071573,5.38110614 9.92990549,5.18373087 C9.4150093,4.86793043 8.9001131,4.67055515 8.30600211,4.55212999 C7.23660232,4.35475472 6.08798773,4.51265494 5.05819534,5.0653057 C4.66212135,5.26268097 4.30565475,5.53900636 3.98879556,5.85480679 L1.45392198,8.38121029 C-0.3680184,10.1970628 -0.526447998,13.1576919 1.25588498,15.0524945 C3.11743276,17.0262473 6.24641733,17.1051974 8.14757251,15.1709197 L9.0189353,14.3024685 C9.2169723,14.1050932 9.0585427,13.7103427 8.70207611,13.6708676 Z M15.237297,8.10488491 C17.1384522,6.21008229 17.0988448,3.09155297 15.1184748,1.2362254 C13.2173197,-0.500677007 10.2467647,-0.382251843 8.42482431,1.43360067 L7.63267632,2.22310177 C7.39503192,2.45995209 7.55346152,2.85470264 7.87032072,2.89417769 C8.34560951,2.93365275 8.8605057,3.01260286 9.3357945,3.17050308 C9.4942241,3.20997813 9.6526537,3.17050308 9.7318685,3.09155297 L9.89029809,2.93365275 C10.8804831,1.94677638 12.5043865,1.82835122 13.5737863,2.73627748 C14.7224008,3.7626289 14.8016156,5.53900636 13.6926085,6.60483283 L11.0785201,9.21018644 C10.7220535,9.56546193 10.3259795,9.76283721 9.89029809,9.88126237 C9.3357945,10.0391626 8.74168351,9.99968754 8.22678731,9.76283721 C7.90992811,9.64441204 7.59306892,9.44703677 7.35542452,9.17071139 C7.23660232,9.05228622 7.11778012,8.894386 7.03856532,8.73648579 C6.91974312,8.49963546 6.60288393,8.4601604 6.40484693,8.65753568 L5.45426934,9.60493699 C5.29583974,9.76283721 5.29583974,9.96021248 5.41466194,10.1181127 C5.57309154,10.315488 5.69191374,10.4733882 5.88995074,10.6707635 C6.16720253,10.9470888 6.44445433,11.1444641 6.72170613,11.3418394 C7.23660232,11.6576398 7.75149852,11.8550151 8.34560951,11.9734403 C9.4150093,12.1708155 10.5636239,12.0129153 11.5934163,11.4602646 C11.9894903,11.2628893 12.3459569,10.9865639 12.6628161,10.6707635 L15.237297,8.10488491 L15.237297,8.10488491 Z M17.0592374,15.40777 L18.8811778,13.5919175 C19.0396074,13.4340173 19.0396074,13.197167 18.8811778,13.0392667 L17.7721706,11.9339652 C17.613741,11.776065 17.3760966,11.776065 17.217667,11.9339652 L15.435334,13.7892928 L13.7322159,12.0918654 C13.5737863,11.9339652 13.3361419,11.9339652 13.1777123,12.0918654 L12.0687051,13.197167 C11.9102755,13.3550672 11.9102755,13.5919175 12.0687051,13.7498177 L13.7718233,15.4472451 L12.1083125,17.1051974 C11.9498829,17.2630976 11.9498829,17.4999479 12.1083125,17.6578481 L13.2173197,18.7631497 C13.3757493,18.9210499 13.6133937,18.9210499 13.7718233,18.7631497 L15.435334,17.1051974 L17.217667,18.8815748 C17.3760966,19.0394751 17.613741,19.0394751 17.7721706,18.8815748 L18.8811778,17.7762733 C19.0396074,17.6183731 19.0396074,17.3815228 18.8811778,17.2236225 L17.0592374,15.40777 Z" id="path-1"></path>
    </defs>
    <g id="01-copy-4" stroke="none" stroke-width="1" fill="none" fill-rule="evenodd" transform="translate(-943.000000, -449.000000)">
        <g id="Group-3" transform="translate(813.000000, 449.000000)">
            <g id="Group-6" transform="translate(130.000000, 0.000000)">
                <path d="M8.5,9.5 L0.5,9.5" id="Line-2" stroke="#54698D" stroke-linecap="square"></path>
                <path d="M45.5,9.5 L37.5,9.5" id="Line-2-Copy" stroke="#54698D" stroke-linecap="square"></path>
                <g id="Group-5" transform="translate(13.000000, 0.000000)">
                    <g id="icons/utility/remove_link">
                        <mask id="mask-2" fill="white">
                            <use xlink:href="#path-1"></use>
                        </mask>
                        <use id="Mask" fill="#54698D" xlink:href="#path-1"></use>
                    </g>
                </g>
            </g>
        </g>
    </g>
</svg>