<?xml version="1.0" encoding="utf-8"?>
<!-- Generator: Adobe Illustrator 16.0.0, SVG Export Plug-In . SVG Version: 6.00 Build 0)  -->
<!DOCTYPE svg PUBLIC "-//W3C//DTD SVG 1.1//EN" "http://www.w3.org/Graphics/SVG/1.1/DTD/svg11.dtd">
<svg version="1.1" id="Layer_1" xmlns="http://www.w3.org/2000/svg" xmlns:xlink="http://www.w3.org/1999/xlink" x="0px" y="0px"
	 width="951px" height="1024px" viewBox="0 0 951 1024" enable-background="new 0 0 951 1024" xml:space="preserve">
<g id="icomoon-ignore">
</g>
<g>
	<path fill="#209ED9" d="M180.819,608.331c4.605,12.569,9.583,22.028,35.593,22.028H559.87l-3.049,16.678
		c-22.651,0.871-45.054,8.712-61.357,34.226H269.557c-13.069-19.042-41.072-31.86-64.843-31.86
		c-56.876,0-85.625,41.817-85.625,88.986c0,47.419,38.706,88.614,86.124,88.614c52.148,0,79.903-43.81,85.379-69.198h183.824
		c5.506,25.389,39.717,68.203,85.331,68.203c48.353,0,86.188-43.81,86.188-91.353c0-21.531-8.089-44.681-23.148-60.611
		l94.337-400.629h123.34c15.681,0,23.896-3.485,23.896-17.174v-37.96c0-14.188-8.216-21.282-23.398-21.282H694.97
		c-22.34,0-33.354,14.811-37.09,30.398l-13.938,65.683l-519.627,0.124c-3.733,0-23.398,0.125-32.856,13.566
		c-3.733,5.227-7.219,13.193-2.614,26.386L180.819,608.331L180.819,608.331z M204.59,705.034c17.922,0,32.358,14.438,32.358,32.359
		s-14.436,32.359-32.358,32.359c-17.799,0-32.36-14.438-32.36-32.359S186.792,705.034,204.59,705.034L204.59,705.034z
		 M527.821,737.394c0-18.047,14.625-32.732,32.608-32.732c18.172,0,32.856,14.686,32.856,32.732
		c0,18.046-14.685,32.732-32.856,32.732C542.446,770.126,527.821,755.439,527.821,737.394L527.821,737.394z M527.821,737.394"/>
</g>
</svg>
