<?xml version="1.0" encoding="utf-8"?>
<!-- Generator: Adobe Illustrator 16.0.0, SVG Export Plug-In . SVG Version: 6.00 Build 0)  -->
<!DOCTYPE svg PUBLIC "-//W3C//DTD SVG 1.1//EN" "http://www.w3.org/Graphics/SVG/1.1/DTD/svg11.dtd">
<svg version="1.1" id="Layer_6" xmlns="http://www.w3.org/2000/svg" xmlns:xlink="http://www.w3.org/1999/xlink" x="0px" y="0px"
	 viewBox="0 0 110 110" enable-background="new 0 0 110 110" xml:space="preserve">
<path fill="none" stroke="#000000" stroke-width="3" stroke-linecap="round" stroke-miterlimit="10" d="M98.037,33.75
	c-4.255,7.58-14.456,22.138-34.28,32.533C83.581,55.888,93.782,41.33,98.037,33.75C90.631,18.786,75.66,8.234,58.113,7.109
	c4.429,7.481,11.92,23.602,10.99,45.963c0.93-22.361-6.562-38.481-10.99-45.963c-1.031-0.065-2.066-0.11-3.113-0.11
	c-16.654,0-31.323,8.484-39.932,21.363c8.688-0.097,26.402,1.472,45.312,13.465c-18.91-11.994-36.625-13.562-45.312-13.465
	C9.974,35.984,6.999,45.144,6.999,55c0,7.639,1.796,14.854,4.972,21.265c4.267-7.568,14.498-22.113,34.352-32.471
	C26.469,54.151,16.237,68.696,11.971,76.265c7.407,14.952,22.367,25.494,39.9,26.622c-4.451-7.47-11.98-23.565-11.111-45.922
	c-0.869,22.356,6.661,38.452,11.111,45.922c1.036,0.068,2.078,0.114,3.129,0.114c16.646,0,31.309-8.476,39.918-21.343
	c-8.691,0.122-26.402-1.394-45.341-13.32c18.938,11.927,36.649,13.442,45.341,13.32c5.104-7.626,8.083-16.795,8.083-26.658
	C103.001,47.366,101.208,40.156,98.037,33.75z"/>
<circle fill="#0000000" stroke="#000000" stroke-width="3" stroke-miterlimit="10" cx="55" cy="55" r="14.286"/>
</svg>
