<?xml version="1.0" encoding="utf-8"?>
<!-- Generator: Adobe Illustrator 16.0.0, SVG Export Plug-In . SVG Version: 6.00 Build 0)  -->
<!DOCTYPE svg PUBLIC "-//W3C//DTD SVG 1.1//EN" "http://www.w3.org/Graphics/SVG/1.1/DTD/svg11.dtd">
<svg version="1.1" id="Layer_1" xmlns="http://www.w3.org/2000/svg" xmlns:xlink="http://www.w3.org/1999/xlink" x="0px" y="0px"
	 width="951px" height="1024px" viewBox="0 0 951 1024" enable-background="new 0 0 951 1024" xml:space="preserve">
<g id="icomoon-ignore">
</g>
<g>
	<path d="M129.615,205.761h151.848c4.474,0,8.145-1.434,11.012-4.33c2.868-2.868,4.273-6.539,4.273-10.984V98.562
		c0-4.474-1.405-8.145-4.273-11.012c-2.867-2.868-6.538-4.302-11.012-4.302H129.615c-4.474,0-8.145,1.434-11.012,4.302
		c-2.872,2.868-4.302,6.538-4.302,11.012v91.884c0,4.445,1.43,8.116,4.302,10.984C121.47,204.298,125.141,205.761,129.615,205.761
		L129.615,205.761z M129.615,205.761"/>
	<path d="M832.396,822.569c-2.867-2.896-6.537-4.337-11.012-4.337h-691.77c-4.474,0-8.145,1.44-11.012,4.337
		c-2.872,2.868-4.302,6.539-4.302,10.983v91.885c0,4.475,1.43,8.145,4.302,11.013c2.867,2.86,6.538,4.302,11.012,4.302h691.77
		c4.475,0,8.145-1.441,11.012-4.302c2.869-2.868,4.303-6.538,4.303-11.013v-91.885C836.699,829.108,835.266,825.438,832.396,822.569
		L832.396,822.569z M832.396,822.569"/>
	<path d="M129.586,695.755h526.498c4.475,0,8.145-1.441,11.012-4.302c2.869-2.867,4.303-6.539,4.303-11.013v-91.884
		c0-4.475-1.434-8.145-4.303-11.013c-2.867-2.875-6.537-4.302-11.012-4.302H129.586c-4.445,0-8.116,1.427-10.983,4.302
		c-2.872,2.868-4.302,6.538-4.302,11.013v91.884c0,4.474,1.43,8.146,4.302,11.013C121.47,694.313,125.141,695.755,129.586,695.755
		L129.586,695.755z M129.586,695.755"/>
	<path d="M129.615,450.758h338.24c4.475,0,8.145-1.434,11.012-4.33c2.869-2.868,4.273-6.539,4.273-10.984v-91.884
		c0-4.474-1.404-8.145-4.273-11.012c-2.868-2.868-6.538-4.302-11.012-4.302h-338.24c-4.474,0-8.145,1.434-11.012,4.302
		c-2.872,2.868-4.302,6.538-4.302,11.012v91.884c0,4.445,1.43,8.116,4.302,10.984C121.47,449.295,125.141,450.758,129.615,450.758
		L129.615,450.758z M129.615,450.758"/>
</g>
</svg>
