<?xml version="1.0" encoding="UTF-8"?>
<svg width="951px" height="1024px" viewBox="0 0 951 1024" version="1.1" xmlns="http://www.w3.org/2000/svg" xmlns:xlink="http://www.w3.org/1999/xlink">
    <!-- Generator: Sketch 53.2 (72643) - https://sketchapp.com -->
    <title>Artboard</title>
    <desc>Created with Sketch.</desc>
    <defs>
        <path d="M602.1,0 L66.9,0 C30.105,0 0,30.105 0,66.9 L0,390.25 C0,427.045 30.105,457.15 66.9,457.15 L602.1,457.15 C638.895,457.15 669,427.045 669,390.25 L669,66.9 C669,30.105 638.895,0 602.1,0 Z M127.11,379.1 C105.925,379.1 89.2,355.685 89.2,333.385 C90.315,299.935 124.88,279.865 161.675,263.14 C187.32,251.99 190.665,241.955 190.665,230.805 C190.665,219.655 183.975,209.62 175.055,201.815 C160.56,188.435 151.64,168.365 151.64,146.065 C151.64,103.695 177.285,68.015 221.885,68.015 C266.485,68.015 292.13,103.695 292.13,146.065 C292.13,168.365 284.325,188.435 268.715,201.815 C259.795,209.62 253.105,219.655 253.105,230.805 C253.105,241.955 256.45,251.99 282.095,262.025 C318.89,277.635 353.455,299.935 354.57,333.385 C356.8,355.685 340.075,379.1 318.89,379.1 L127.11,379.1 Z M579.8,301.05 C579.8,313.315 569.765,323.35 557.5,323.35 L457.15,323.35 C444.885,323.35 434.85,313.315 434.85,301.05 L434.85,267.6 C434.85,255.335 444.885,245.3 457.15,245.3 L557.5,245.3 C569.765,245.3 579.8,255.335 579.8,267.6 L579.8,301.05 Z M579.8,178.4 C579.8,190.665 569.765,200.7 557.5,200.7 L390.25,200.7 C377.985,200.7 367.95,190.665 367.95,178.4 L367.95,144.95 C367.95,132.685 377.985,122.65 390.25,122.65 L557.5,122.65 C569.765,122.65 579.8,132.685 579.8,144.95 L579.8,178.4 Z" id="path-1"></path>
    </defs>
    <g id="Artboard" stroke="none" stroke-width="1" fill="none" fill-rule="evenodd">
        <circle id="Oval" fill="#3FA399" cx="475.030303" cy="511.560606" r="475.969697"></circle>
        <g id="Icons-/-z-embedded-/-icon-glyphs-/-standard-/contact" transform="translate(28.808712, 65.339015)">
            <g id="contact" transform="translate(111.500000, 223.000000)">
                <mask id="mask-2" fill="white">
                    <use xlink:href="#path-1"></use>
                </mask>
                <use id="Mask" fill="#FFFFFF" xlink:href="#path-1"></use>
            </g>
        </g>
    </g>
</svg>