<?xml version="1.0" encoding="utf-8"?>
<!-- Generator: Adobe Illustrator 16.0.0, SVG Export Plug-In . SVG Version: 6.00 Build 0)  -->
<!DOCTYPE svg PUBLIC "-//W3C//DTD SVG 1.1//EN" "http://www.w3.org/Graphics/SVG/1.1/DTD/svg11.dtd">
<svg version="1.1" id="Layer_1" xmlns="http://www.w3.org/2000/svg" xmlns:xlink="http://www.w3.org/1999/xlink" x="0px" y="0px"
  width="951px" height="1024px" viewBox="0 0 951 1024" enable-background="new 0 0 951 1024" xml:space="preserve">
<path d="M931.315,614.492c-22.385-58.97-62.273-72.418-90.324-77.402c-16.858-3.025-34.565-8.153-45.074-11.998
  c0.042-3.446,0.169-7.387,0.38-11.756c5.99-10.083,16.382-29.738,20.887-41.433c11.417-10.043,19.581-25.386,24.271-45.623
  c1.985-8.587,7.2-31.148-3.809-49.728c5.967-87.884-53.474-132.629-85.877-144.03l-0.473-0.131l-0.448-0.409h-0.785
  c-0.017-0.004-0.033-0.008-0.051-0.012c-12.976-3.877-25.612-5.843-37.563-5.843c-2.007,0-4.27,0-6.816,0.216
  c-2.274-0.216-4.558-0.216-6.969-0.216c-11.941,0-24.566,1.963-37.53,5.834c-0.165,0.036-0.32,0.082-0.465,0.131h-0.317
  l-0.537,0.266l-0.463,0.163c-22.146,7.762-44.461,24.925-59.694,45.912c-18.489,25.527-27.601,56.928-26.55,91.23
  c-21.295-24.246-44.614-33.847-51.724-36.347l-0.982-0.27c-0.039-0.017-0.075-0.031-0.107-0.043l-0.519-0.197
  c-13.328-3.906-25.975-5.886-37.586-5.886c-1.954,0-3.876,0.09-5.911,0.185l-0.921,0.043l-0.114-0.006
  c-2.178-0.109-4.429-0.222-6.839-0.222c-11.705,0-24.392,1.98-37.707,5.887l-0.762,0.224l-0.098,0.087h-0.194l-0.57,0.203
  c-18.474,6.587-37.226,19.781-51.592,36.071c2.376-83.23-54.792-125.811-86.349-136.871l-0.133-0.047l-0.558-0.492h-0.997
  c-0.03-0.007-0.061-0.014-0.092-0.021c-12.855-3.872-25.483-5.834-37.534-5.834c-2,0-4.256,0-6.712,0.215
  c-2.276-0.215-4.61-0.215-7.073-0.215c-12.002,0-24.695,1.983-37.821,5.923c-0.033,0.011-0.076,0.025-0.127,0.043h-0.376
  l-0.741,0.373l-0.133,0.054c-22.114,7.712-44.427,24.875-59.687,45.914c-19.666,27.151-28.756,61.012-26.32,97.988
  c-9.789,16.383-7.142,35.213-3.701,49.861c4.71,20.303,12.841,35.649,24.174,45.63c5.004,12.656,16.409,33.471,21.439,42.075
  c0.208,4.088,0.334,7.805,0.376,11.093c-10.689,3.894-28.795,9.025-45.179,11.997c-28.004,4.996-67.836,18.454-90.339,77.426
  c-5.125,13.826-3.249,28.703,5.131,40.793c3.551,5.213,10.941,16.061,42.045,25.228c37.048,10.92,97.079,16.456,178.426,16.456
  c4.503,0,8.837,0,13.093-0.038c-3.099,5.865-5.887,12.049-8.321,18.459c-5.151,13.776-3.319,28.651,5.031,40.819
  c3.584,5.196,11.042,16.011,42.033,25.156c37.087,10.946,97.118,16.496,178.425,16.496c81.355,0,141.418-5.549,178.521-16.492
  c31.021-9.148,38.471-19.965,42.057-25.172c8.337-12.178,10.167-27.052,5.018-40.824c-2.582-6.798-5.307-12.883-8.265-18.442
  c4.237,0.038,8.551,0.038,13.031,0.038c81.355,0,141.389-5.535,178.432-16.452c31.109-9.169,38.492-20.019,42.029-25.217
  C934.71,643.076,936.543,628.196,931.315,614.492z M146.565,379.4c-0.766-7.433-2.382-33.875,9-62.043
  c10.71-26.508,28.868-44.437,53.967-53.287l0.542-0.191c10.014-2.968,19.42-4.473,27.959-4.473c2.014,0,3.784,0.106,5.258,0.213
  c1.006,0.134,2.026,0.134,3.032,0.002c1.763-0.113,3.644-0.216,5.495-0.216c8.7,0,18.119,1.497,27.995,4.45l0.029,0.011
  c0.271,0.104,0.669,0.256,1.194,0.341c56.479,20.329,65.572,84.201,62.481,115.116c-0.544,4.337,0.769,8.801,3.606,12.291
  c0.169,0.251,0.34,0.446,0.477,0.589l0.065,0.083c4.811,6.132,2.748,18.053,0.776,26.499c-3.356,14.59-8.74,24.812-15.572,29.561
  c-3.336,2.322-5.634,5.719-6.478,9.572c-1.806,6.829-16.403,33.822-20.525,40.764c-0.364,0.369-0.652,0.814-0.838,1.309
  c-2.01,2.985-5.706,8.174-8.2,11.676l-0.235,0.33c-0.406,0.586-0.793,1.134-1.154,1.646c-0.442,0.626-0.846,1.2-1.2,1.72
  c-17.512,16.791-30.493,19.825-51.161,19.938c-20.443-0.968-37.661-11.042-46.334-19.487c-0.237-0.34-0.494-0.679-0.763-1.029
  c-0.204-0.267-0.416-0.543-0.626-0.84l-0.085-0.114c-2.803-3.621-8.019-10.558-10.083-13.758l-0.354-0.46
  c-4.038-6.807-19.447-34.908-21.239-41.688c-0.853-3.86-3.188-7.298-6.609-9.707c-6.776-4.683-12.119-14.862-15.454-29.456
  c-1.97-8.433-4.045-20.328,0.654-26.239l0.228-0.287l0.162-0.325C145.527,388.599,146.98,384.089,146.565,379.4z M339.234,526.437
  c-1.343-0.452-2.632-0.903-3.852-1.349c0.014-3.098,0.08-6.968,0.377-11.734c0.31-0.526,0.628-1.074,0.954-1.641
  C337.272,517.281,338.302,522.38,339.234,526.437z M179.341,550.8c1.479-0.778,2.808-1.774,3.975-2.977
  c11.121,8.072,31.574,19.593,58.767,20.689l0.692,0.003c22.996,0,42.906-3.561,64.529-20.513c1.051,1.027,2.261,1.924,3.6,2.66
  c10.259,5.607,30.39,11.565,46.252,15.386c2.255,2.723,4.362,4.889,6.523,6.708c4.623,11.896,15.294,31.562,21.417,42.011
  c0.157,4.657,0.25,8.307,0.284,11.217c-10.935,3.89-29.093,8.991-45.072,11.898c-14.597,2.562-36.177,7.979-56.012,25.345
  c-13.195,0.34-25.999,0.505-39.094,0.505c-166.204,0-189.985-22.687-193.099-27.284c-2.168-3.085-2.629-6.639-1.358-10.206
  c9.072-23.805,23.907-49.129,65.168-56.459C138.986,565.641,168.051,556.938,179.341,550.8z M376.837,480.284
  c-0.769-7.43-2.391-33.862,8.996-62.054c10.632-26.324,28.603-44.216,53.416-53.188h0.937l0.433-0.427
  c9.917-2.936,19.272-4.425,27.807-4.425c1.781,0,3.448,0.092,5.276,0.206c0.944,0.125,1.746,0.125,2.666,0.125l0.434-0.027
  c1.557-0.194,3.377-0.293,5.41-0.293c8.758,0,18.207,1.543,28.085,4.586l0.634,0.175c25.054,8.856,43.179,26.786,53.871,53.292
  c11.369,28.18,9.746,54.61,8.973,62.085c-0.392,4.345,0.916,8.709,3.595,12.025c0.095,0.148,0.188,0.277,0.272,0.392l0.334,0.48
  c4.665,5.745,2.9,17.109,0.849,26.336c-1.675,7.218-3.9,13.416-6.642,18.476c-2.664,5.125-5.661,8.853-8.958,11.113
  c-3.284,2.336-5.549,5.652-6.531,9.528c-0.375,1.372-1.58,4.583-5.171,12.062c-5.638,11.499-13.41,25.606-15.554,29.021
  c-0.026,0.034-0.051,0.068-0.075,0.102l-0.83,0.742v0.608c-1.693,2.497-4.362,6.269-6.555,9.366l-1.511,2.136
  c-0.364,0.513-0.703,0.974-1.018,1.4c-0.565,0.769-1.066,1.448-1.52,2.16c-6.526,6.277-12.395,10.617-18.456,13.649
  c-7.127,3.611-14.386,5.347-24.274,5.802l-0.131,0.008c-2.521,0.211-5.199,0.315-8.181,0.318c-0.437-0.031-0.864-0.055-1.285-0.077
  c-0.88-0.047-1.64-0.087-2.348-0.205l-0.21-0.028c-8.172-0.858-16.372-3.164-24.307-6.825c-7.226-3.516-13.689-7.852-18.245-12.235
  c-0.329-0.481-0.704-1.005-1.086-1.537l-0.397-0.551c-2.761-3.566-7.37-9.719-9.633-13.082l-0.54-0.87
  c-2.115-3.353-10.664-18.595-16.275-30.172c-4.001-7.827-4.904-10.749-5.125-11.717c-0.959-3.837-3.323-7.249-6.609-9.574
  c-3.322-2.434-6.396-6.24-9.125-11.293c-2.489-4.679-4.646-10.849-6.411-18.338c-1.146-4.856-4.634-19.636,0.626-26.264l0.252-0.357
  C375.739,489.513,377.247,484.937,376.837,480.284z M281.011,727.157c5.054-13.141,11.296-23.991,18.546-32.244
  c14.757-16.724,31.847-21.64,46.639-24.248c10.22-1.868,20.749-4.337,30.427-7.133c14.731-4.16,26.777-8.531,33.005-11.966
  c1.512-0.806,2.858-1.807,3.998-2.967c2.052,1.497,4.226,2.981,6.566,4.313c10.261,6.451,21.209,11.04,32.521,13.634
  c6.925,1.637,13.356,2.529,19.662,2.729l0.673,0.002c10.002,0,18.181-0.724,25.703-2.27c11.972-2.332,22.754-6.877,32.95-13.886
  c1.967-1.338,3.911-2.815,5.868-4.361c1.119,1.138,2.348,2.058,3.696,2.776c9.143,5.075,24.791,9.761,33.287,12.097
  c9.771,2.741,20.536,5.234,30.329,7.023c14.809,2.63,31.899,7.564,46.407,24.255c7.386,8.303,13.481,18.85,18.643,32.262
  c1.328,3.401,0.873,7.032-1.264,10.196c-3.136,4.554-27.189,27.269-193.194,27.269c-165.9,0-189.946-22.715-193.1-27.294
  C280.215,734.272,279.739,730.635,281.011,727.157z M566.023,614.129c5.924-9.99,16.255-29.698,20.871-41.418
  c2.262-1.956,4.35-4.124,6.226-6.466c19.571-4.625,38.257-10.808,46.724-15.468c1.508-0.795,2.872-1.804,4.05-2.985
  c16.904,12.361,38.1,19.865,58.701,20.699l0.69,0.003c22.977,0,42.896-3.561,64.632-20.521c1.053,1.031,2.265,1.93,3.603,2.665
  c12.981,7.121,43.119,15.472,63.598,19.123c23.164,4.126,49.007,14.072,65.062,56.609c1.365,3.489,0.935,6.974-1.281,10.127
  c-3.079,4.548-26.863,27.234-193.076,27.234c-12.811,0-25.617-0.169-39.105-0.517c-19.828-17.364-41.411-22.782-55.999-25.345
  c-16.051-2.881-34.188-7.983-45.073-11.889C565.687,622.503,565.815,618.468,566.023,614.129z M615.641,525.076
  c-1.47,0.533-2.951,1.054-4.439,1.56c0.806-3.432,2.053-8.881,2.645-15.298c0.542,0.946,1.049,1.823,1.511,2.622
  C615.514,518.566,615.606,522.184,615.641,525.076z M607.099,379.39c-0.767-7.433-2.382-33.875,8.999-62.043
  c10.711-26.508,28.868-44.437,53.967-53.288l0.616-0.177c10.021-2.978,19.443-4.487,28.007-4.487c1.995,0,3.774,0.107,5.262,0.215
  c1.006,0.131,2.026,0.132,3.032,0.001c1.498-0.102,3.453-0.216,5.489-0.216c8.547,0,17.924,1.486,27.876,4.416
  c0.313,0.135,0.719,0.279,1.175,0.366c24.879,8.933,42.891,26.846,53.542,53.247c11.371,28.185,9.753,54.554,8.983,61.998
  c-0.411,4.379,0.951,8.876,3.736,12.336l0.436,0.544c4.684,5.854,2.919,17.236,0.87,26.45c-3.47,14.626-8.861,24.86-15.522,29.548
  c-3.318,2.219-5.611,5.525-6.64,9.592c-1.684,6.923-16.898,34.876-20.605,40.923c-0.2,0.231-0.375,0.492-0.515,0.781
  c-1.107,1.661-2.885,4.204-4.605,6.665c-1.408,2.015-2.835,4.056-3.976,5.727c-0.861,1.241-1.661,2.35-2.38,3.296
  c-17.665,16.957-30.126,19.894-51.247,20.009c-20.276-0.964-37.551-11.04-46.327-19.492c-0.273-0.392-0.556-0.759-0.831-1.116
  c-0.191-0.249-0.391-0.507-0.646-0.856c-2.748-3.564-7.384-9.736-9.64-13.089l-0.528-0.858
  c-3.607-5.798-19.755-35.149-21.409-41.984c-0.932-3.787-3.242-7.194-6.507-9.594l-0.083-0.059
  c-6.737-4.659-12.121-14.848-15.566-29.458c-1.973-8.443-4.052-20.353,0.647-26.273l0.227-0.285l0.162-0.324
  C606.055,388.582,607.512,384.071,607.099,379.39z"/>
</svg>
