<?xml version="1.0" encoding="UTF-8" standalone="no"?>
<svg
   xmlns:dc="http://purl.org/dc/elements/1.1/"
   xmlns:cc="http://creativecommons.org/ns#"
   xmlns:rdf="http://www.w3.org/1999/02/22-rdf-syntax-ns#"
   xmlns:svg="http://www.w3.org/2000/svg"
   xmlns="http://www.w3.org/2000/svg"
   xmlns:sodipodi="http://sodipodi.sourceforge.net/DTD/sodipodi-0.dtd"
   xmlns:inkscape="http://www.inkscape.org/namespaces/inkscape"
   version="1.1"
   x="0px"
   y="0px"
   viewBox="0 0 100 100"
   enable-background="new 0 0 90 90"
   xml:space="preserve"
   id="svg2"
   inkscape:version="0.48.4 r9939"
   sodipodi:docname="cross-device.svg"
   width="100%"
   height="100%"><metadata
     id="metadata18"><rdf:RDF><cc:Work
         rdf:about=""><dc:format>image/svg+xml</dc:format><dc:type
           rdf:resource="http://purl.org/dc/dcmitype/StillImage" /><dc:title /></cc:Work></rdf:RDF></metadata><defs
     id="defs16" /><sodipodi:namedview
     pagecolor="#ffffff"
     bordercolor="#666666"
     borderopacity="1"
     objecttolerance="10"
     gridtolerance="10"
     guidetolerance="10"
     inkscape:pageopacity="0"
     inkscape:pageshadow="2"
     inkscape:window-width="1865"
     inkscape:window-height="1056"
     id="namedview14"
     showgrid="true"
     inkscape:zoom="3.6965971"
     inkscape:cx="15.727663"
     inkscape:cy="5.7550786"
     inkscape:window-x="55"
     inkscape:window-y="24"
     inkscape:window-maximized="1"
     inkscape:current-layer="svg2"><inkscape:grid
       type="xygrid"
       id="grid2991"
       empspacing="5"
       visible="true"
       enabled="true"
       snapvisiblegridlinesonly="true" /></sodipodi:namedview><path
     d="m 58.416965,48.041522 -6.416744,-3.972191 0,2.644411 -16.301956,0 c -0.684182,0 -1.238562,0.594315 -1.238562,1.32778 0,0.733466 0.55438,1.327783 1.238562,1.327783 l 16.301956,0 0,2.64441 6.416744,-3.972193 z"
     id="path4"
     inkscape:connector-curvature="0" /><path
     d="m 74.378503,26.868053 -24.680659,0 c -0.632981,0 -1.147987,0.551002 -1.147987,1.230681 l 0,17.522065 2.295972,0 0,-15.191032 22.385205,0 0,35.199757 -22.385205,0 0,-15.059607 -2.295972,0 0,17.522066 c 0,0.678579 0.514492,1.23013 1.147987,1.23013 l 24.680659,0 c 0.632983,0 1.147988,-0.551551 1.147988,-1.23013 l 0,-39.993249 c 0,-0.67913 -0.515005,-1.230681 -1.147988,-1.230681 z m -11.478828,2.088528 -1.147471,0 c -0.159527,0 -0.287253,-0.138025 -0.287253,-0.307396 0,-0.169918 0.127726,-0.307944 0.287253,-0.307944 l 1.147471,0 c 0.158504,0 0.287254,0.138026 0.287254,0.307944 -5.12e-4,0.169371 -0.129262,0.307396 -0.287254,0.307396 z m -0.573991,39.442797 c -0.47448,0 -0.860733,-0.414077 -0.860733,-0.922734 0,-0.509761 0.386253,-0.923286 0.860733,-0.923286 0.474993,0 0.861245,0.413525 0.861245,0.923286 -5.12e-4,0.508657 -0.386764,0.922734 -0.861245,0.922734 z"
     id="path6"
     inkscape:connector-curvature="0" /><path
     d="m 38.156511,50.701396 0,6.654984 -11.491681,0 0,-19.074771 11.491681,0 0,7.486516 0.822697,0 0,-9.886828 c 0,-0.458793 -0.3482,-0.832627 -0.776678,-0.832627 l -11.583717,0 c -0.428989,0 -0.77668,0.373834 -0.77668,0.832627 l 0,24.706926 c 0,0.459342 0.347691,0.833174 0.77668,0.833174 l 11.584228,0 c 0.428478,0 0.776678,-0.373832 0.776678,-0.833174 l 0,-9.886827 -0.823208,0 z m -6.201672,-14.253322 0.912685,0 c 0.100729,0 0.18254,0.08771 0.18254,0.195689 0,0.107437 -0.08181,0.195137 -0.18254,0.195137 l -0.912685,0 c -0.100729,0 -0.182538,-0.0877 -0.182538,-0.195137 -5.11e-4,-0.108534 0.08129,-0.195689 0.182538,-0.195689 z m 0.455576,23.918699 c -0.503639,0 -0.912176,-0.437965 -0.912176,-0.978431 0,-0.539372 0.408025,-0.977337 0.912176,-0.977337 0.504151,0 0.912176,0.437965 0.912176,0.977337 0,0.540466 -0.408025,0.978431 -0.912176,0.978431 z"
     id="path8"
     inkscape:connector-curvature="0" /><circle
     id="circle4260"
     r="0.68000001"
     cy="28.438"
     cx="49.641998"
     style="fill:none"
     d="m 50.321998,28.438 c 0,0.375553 -0.304446,0.68 -0.68,0.68 -0.375553,0 -0.68,-0.304447 -0.68,-0.68 0,-0.375554 0.304447,-0.68 0.68,-0.68 0.375554,0 0.68,0.304446 0.68,0.68 z"
     sodipodi:cx="49.641998"
     sodipodi:cy="28.438"
     sodipodi:rx="0.68000001"
     sodipodi:ry="0.68000001"
     transform="matrix(1.0965367,0,0,1.2973652,-2.7669996,-14.577248)" /><path
     id="path4262"
     d="m 90.376895,75.607798 c 0.120623,-0.2958 0.195186,-0.621439 0.195186,-0.97043 l 0,-52.225436 c 0,-1.23639 -0.846524,-2.239253 -1.893721,-2.239253 l -76.933016,0 c -1.044999,0 -1.8904287,1.002863 -1.8904287,2.239253 l 0,52.224139 c 0,0.350288 0.073465,0.675927 0.1929897,0.970429 l -9.18020581,0 0,2.05018 c 0,1.236389 0.84762281,2.239251 1.89262281,2.239251 l 94.905256,0 c 1.043902,0 1.892624,-1.000267 1.892624,-2.239251 l 0,-2.05018 -9.181307,0 z M 50.212949,21.435015 c 0.411202,0 0.745646,0.395697 0.745646,0.882209 0,0.487809 -0.334444,0.883505 -0.745646,0.883505 -0.412297,0 -0.74674,-0.395696 -0.74674,-0.883505 0,-0.486512 0.334443,-0.882209 0.74674,-0.882209 z m -38.307907,1.577826 76.612529,-0.210882 0.196708,50.396991 -77.00595,-0.421764 z m 43.024113,54.841039 -9.436795,0 c -0.411203,0 -0.745646,-0.395696 -0.745646,-0.882208 0,-0.489107 0.334443,-0.883506 0.745646,-0.883506 l 9.436795,0 c 0.413394,0 0.746741,0.394399 0.746741,0.883506 0,0.487809 -0.333347,0.882208 -0.746741,0.882208 z"
     inkscape:connector-curvature="0"
     sodipodi:nodetypes="cssssssccsssscccssssscccccsssssss" /><g
     id="g4355"
     transform="translate(1206.5574,5.849474)"><g
       id="g4339"><circle
         id="circle4341"
         r="0.68000001"
         cy="28.438"
         cx="49.641998"
         style="fill:none"
         d="m 50.321998,28.438 c 0,0.375553 -0.304446,0.68 -0.68,0.68 -0.375553,0 -0.68,-0.304447 -0.68,-0.68 0,-0.375554 0.304447,-0.68 0.68,-0.68 0.375554,0 0.68,0.304446 0.68,0.68 z" /></g></g></svg>