<?xml version="1.0" encoding="utf-8"?>
<!-- Generator: Adobe Illustrator 16.0.0, SVG Export Plug-In . SVG Version: 6.00 Build 0)  -->
<!DOCTYPE svg PUBLIC "-//W3C//DTD SVG 1.1//EN" "http://www.w3.org/Graphics/SVG/1.1/DTD/svg11.dtd">
<svg version="1.1" id="Layer_1" xmlns="http://www.w3.org/2000/svg" xmlns:xlink="http://www.w3.org/1999/xlink" x="0px" y="0px"
	 width="951px" height="1024px" viewBox="0 0 951 1024" enable-background="new 0 0 951 1024" xml:space="preserve">
<g id="icomoon-ignore">
</g>
<g>
	<path d="M475.3,122.292c-20.747,0-41.136,1.548-61.072,4.497c-0.259-0.688-0.541-1.352-0.849-1.991
		c11.056-8.623,16.865-20.538,14.347-32.379c-3.229-15.157-19.32-25.328-40.043-25.328c-4.471,0-9.027,0.491-13.537,1.449
		c-26.004,5.527-43.238,24.69-39.208,43.606c2.444,11.497,12.308,20.12,26.002,23.608c-0.024,0.836-0.011,1.695,0.038,2.53
		C187.968,187.886,61.35,347.275,61.35,536.243c0,228.618,185.332,413.95,413.951,413.95c228.631,0,413.94-185.332,413.94-413.95
		C889.24,307.624,703.932,122.292,475.3,122.292L475.3,122.292z M348.425,109.272c-2.333-10.981,10.761-23.437,28.597-27.245
		c3.562-0.762,7.148-1.13,10.661-1.13c13.832,0,24.738,5.921,26.545,14.396c1.375,6.46-2.653,13.462-9.827,18.892
		c-6.055-4.299-13.806-6.167-21.644-4.496c-7.8,1.67-14.088,6.485-17.896,12.823C356.066,120.401,349.753,115.537,348.425,109.272
		L348.425,109.272z M735.01,795.939c-44.368,44.367-98.096,75.96-156.688,93.009l-42.795-69.425l-10.859,80.702
		c-16.214,2.161-32.71,3.291-49.368,3.291c-98.094,0-190.331-38.201-259.695-107.577c-44.379-44.368-75.961-98.071-92.985-156.712
		l69.376-42.771l-80.666-10.858c-2.173-16.214-3.316-32.697-3.316-49.354c0-98.095,38.202-190.343,107.591-259.721
		c44.356-44.343,98.083-75.936,156.688-92.961l42.782,69.402l10.859-80.702c16.237-2.187,32.709-3.292,49.366-3.292
		c98.109,0,190.333,38.201,259.709,107.553c44.366,44.393,75.96,98.096,92.96,156.737l-69.376,42.771l80.676,10.833
		c2.164,16.239,3.318,32.699,3.318,49.38C842.588,634.339,804.36,726.562,735.01,795.939L735.01,795.939z M689.953,321.579
		L520.075,450.677c-12.604-6.583-26.607-10.392-40.88-10.956l-44.06-92.446l-2.643,102.345
		c-11.448,5.651-21.655,13.512-30.069,23.241l-54.416-19.285l39.75,41.862c-5.455,11.646-8.501,24.174-8.993,36.925l-92.419,44.048
		l102.406,2.629c0.319,0.662,0.663,1.326,0.995,1.989L260.648,750.884l169.88-129.1c12.627,6.609,26.618,10.393,40.892,10.981
		l44.061,92.421l2.628-102.321c11.473-5.65,21.644-13.511,30.094-23.239l54.393,19.261l-39.75-41.839
		c5.454-11.669,8.524-24.173,8.992-36.948l92.42-44.023l-102.394-2.653c-0.345-0.664-0.688-1.302-1.033-1.965L689.953,321.579z
		 M475.388,450.456v2.972V450.456z M458.092,455.271c5.797-1.253,11.583-1.843,17.295-1.843c3.562,0,7.124,0.246,10.6,0.688
		l0.087,0.024l-0.013-0.024c7.505,1.007,14.802,3.021,21.681,5.97l-61.713,46.874l-46.898,61.711
		c-2.038-4.84-3.684-9.899-4.815-15.206C384.822,508.728,413.356,464.778,458.092,455.271L458.092,455.271z M518.527,606.849
		L518.527,606.849c-7.813,4.79-16.559,8.353-26.018,10.366c-5.798,1.229-11.582,1.819-17.295,1.819
		c-3.562,0-7.125-0.222-10.612-0.664l-0.075-0.05l0.013,0.025c-7.518-0.982-14.802-3.021-21.668-5.945l61.7-46.898l46.898-61.687
		c2.038,4.815,3.66,9.9,4.814,15.208C563.778,554.274,547.614,589.062,518.527,606.849L518.527,606.849z M518.527,606.849"/>
</g>
</svg>
