<?xml version="1.0" encoding="UTF-8" standalone="no"?>
<svg width="100px" height="100px" viewBox="0 0 100 100" version="1.1" xmlns="http://www.w3.org/2000/svg" xmlns:xlink="http://www.w3.org/1999/xlink">
    <!-- Generator: Sketch 46.2 (44496) - http://www.bohemiancoding.com/sketch -->
    <title>Group 2</title>
    <desc>Created with Sketch.</desc>
    <defs></defs>
    <g id="Page-1" stroke="none" stroke-width="1" fill="none" fill-rule="evenodd">
        <g id="Group-2">
            <g id="Group">
                <g id="icon-standard" fill-rule="nonzero" fill="#0070D2">
                    <g id="outer_circle_1_">
                        <path d="M50,0.333 C22.614,0.333 0.333,22.613 0.333,50 C0.333,77.387 22.614,99.667 50,99.667 C77.385,99.667 99.667,77.387 99.667,50 C99.667,22.613 77.385,0.333 50,0.333 Z M50,96.529 C24.342,96.529 3.47,75.655 3.47,50 C3.47,24.344 24.342,3.47 50,3.47 C76.972,3.47 96.529,25.941 96.529,50 C96.529,75.655 75.656,96.529 50,96.529 Z" id="Shape"></path>
                    </g>
                </g>
                <g id="Group-8" transform="translate(23.000000, 23.000000)">
                    <g id="Group-9" transform="translate(0.529412, 0.529412)">
                        <g id="orders" transform="translate(0.000000, 20.588235)" fill="#0070D2">
                            <path d="M51.8382353,15.8088235 L48.5294118,14.3382353 C48.1617647,13.9705882 47.7941176,13.9705882 47.0588235,14.3382353 L28.3088235,23.1617647 C27.2058824,23.8970588 25.7352941,23.8970588 24.6323529,23.1617647 L5.88235294,14.3382353 C5.14705882,13.9705882 4.77941176,13.9705882 4.41176471,14.3382353 L1.10294118,15.8088235 C-0.367647059,16.5441176 -0.367647059,18.3823529 1.10294118,19.1176471 L24.6323529,30.1470588 C25.7352941,30.8823529 27.2058824,30.8823529 28.3088235,30.1470588 L51.8382353,19.1176471 C53.3088235,18.3823529 53.3088235,16.5441176 51.8382353,15.8088235 L51.8382353,15.8088235 Z M51.8382353,3.30882353 L48.5294118,1.83823529 L47.0588235,1.83823529 L28.3088235,11.0294118 C27.2058824,11.3970588 25.7352941,11.3970588 24.6323529,11.0294118 L5.88235294,1.83823529 L4.41176471,1.83823529 L1.10294118,3.30882353 C-0.367647059,4.04411765 -0.367647059,5.88235294 1.10294118,6.61764706 L24.6323529,18.0147059 C25.7352941,18.3823529 27.2058824,18.3823529 28.3088235,18.0147059 L51.8382353,6.98529412 C53.3088235,6.25 53.3088235,4.04411765 51.8382353,3.30882353 Z" id="Shape"></path>
                        </g>
                        <path d="M1.10294118,14.9297781 L24.6323529,25.9210258 C25.7352941,26.6537757 27.2058824,26.6537757 28.3088235,25.9210258 L51.8382353,14.9297781 C53.3088235,14.1970283 53.3088235,12.3651537 51.8382353,11.6324038 L28.3088235,0.274781193 C27.2058824,-0.0915937309 25.7352941,-0.0915937309 24.6323529,0.274781193 L1.10294118,11.6324038 C-0.367647059,12.3651537 -0.367647059,14.1970283 1.10294118,14.9297781 Z" id="Path" stroke="#0070D2"></path>
                    </g>
                </g>
            </g>
        </g>
    </g>
</svg>