<?xml version="1.0" encoding="utf-8"?>
<!-- Generator: Adobe Illustrator 16.0.0, SVG Export Plug-In . SVG Version: 6.00 Build 0)  -->
<!DOCTYPE svg PUBLIC "-//W3C//DTD SVG 1.1//EN" "http://www.w3.org/Graphics/SVG/1.1/DTD/svg11.dtd">
<svg version="1.1" id="Layer_4" xmlns="http://www.w3.org/2000/svg" xmlns:xlink="http://www.w3.org/1999/xlink" x="0px" y="0px"
	 viewBox="0 0 110 110" enable-background="new 0 0 110 110" xml:space="preserve">
<g id="outer_circle_3_">
	<path  d="M55,5.333C27.614,5.333,5.333,27.613,5.333,55c0,27.387,22.281,49.667,49.667,49.667
		c27.385,0,49.667-22.28,49.667-49.667C104.667,27.613,82.385,5.333,55,5.333z M55,101.529C29.342,101.529,8.47,80.655,8.47,55
		C8.47,29.344,29.342,8.47,55,8.47c26.972,0,46.529,22.471,46.529,46.53C101.529,80.655,80.656,101.529,55,101.529z"/>
</g>
<path  d="M81.248,61.953V31.079c0-0.691-0.442-1.296-1.101-1.506l-24.701-7.846c-0.156-0.05-0.316-0.075-0.477-0.075
	c-0.162,0-0.322,0.025-0.476,0.074l-24.702,7.847c-0.659,0.209-1.102,0.814-1.102,1.506v30.874c0,6.191,4.375,12.498,13.003,18.745
	c6.198,4.486,12.372,7.28,12.631,7.396c0.403,0.184,0.887,0.182,1.291,0c0.653-0.295,6.57-3.012,12.631-7.396
	C76.873,74.452,81.248,68.146,81.248,61.953z M55.291,84.762l-0.322,0.154l-0.323-0.154c-8.467-4.032-22.795-13.373-22.795-22.809
	V32.234l23.119-7.344l23.119,7.344v29.719C78.088,71.373,63.758,80.723,55.291,84.762z"/>
<path  d="M63.236,58.2c0-3.455-2.988-6.374-6.525-6.374h-3.485c-1.792,0-3.363-1.502-3.363-3.214
	s1.572-3.214,3.363-3.214h8.43c0.871,0,1.58-0.709,1.58-1.58c0-0.871-0.709-1.579-1.58-1.579h-5.107v-4.596
	c0-0.871-0.709-1.58-1.58-1.58c-0.872,0-1.581,0.709-1.581,1.58v4.562l-0.688,0.057c-3.308,0.274-5.999,3.123-5.999,6.35
	c0,3.455,2.988,6.374,6.524,6.374h3.485c1.793,0,3.365,1.502,3.365,3.214c0,1.711-1.572,3.212-3.365,3.212h-8.428
	c-0.872,0-1.581,0.709-1.581,1.58c0,0.872,0.709,1.581,1.581,1.581h5.106v4.326c0,0.871,0.709,1.579,1.581,1.579
	c0.871,0,1.58-0.708,1.58-1.579v-4.294l0.688-0.057C60.545,64.275,63.236,61.428,63.236,58.2z"/>
</svg>
