<?xml version="1.0" encoding="UTF-8" standalone="no"?>
<svg width="100px" height="100px" viewBox="0 0 100 100" version="1.1" xmlns="http://www.w3.org/2000/svg" xmlns:xlink="http://www.w3.org/1999/xlink">
    <!-- Generator: Sketch 46.2 (44496) - http://www.bohemiancoding.com/sketch -->
    <title>Group 6</title>
    <desc>Created with Sketch.</desc>
    <defs></defs>
    <g id="Icons" stroke="none" stroke-width="1" fill="none" fill-rule="evenodd">
        <g id="Group-6" fill="#0070D2">
            <g id="Group-4" fill-rule="nonzero">
                <g id="Group-2-Copy">
                    <g id="Group">
                        <g id="icon-standard">
                            <g id="outer_circle_1_">
                                <path d="M50,0.333 C22.614,0.333 0.333,22.613 0.333,50 C0.333,77.387 22.614,99.667 50,99.667 C77.385,99.667 99.667,77.387 99.667,50 C99.667,22.613 77.385,0.333 50,0.333 Z M50,96.529 C24.342,96.529 3.47,75.655 3.47,50 C3.47,24.344 24.342,3.47 50,3.47 C76.972,3.47 96.529,25.941 96.529,50 C96.529,75.655 75.656,96.529 50,96.529 Z" id="Shape"></path>
                            </g>
                        </g>
                    </g>
                </g>
            </g>
            <path d="M42.625,47.375 C43,43.625 44.125,39.875 46,36.5 C49,31.625 53.875,28.625 60.25,28.25 C61.375,25.25 64.375,23 67.75,23 C72.25,23 76,26.75 76,31.25 C76,35.75 72.25,39.125 67.75,39.125 C64.375,39.125 61.375,36.875 60.25,33.875 C53.125,34.25 49,39.875 48.25,47.375 L60.25,47.375 C61.375,44 64.375,41.75 67.75,41.75 C72.25,41.75 76,45.5 76,50 C76,54.5 72.25,58.25 67.75,58.25 C64.375,58.25 61.375,56 60.25,52.625 L48.25,52.625 C49,60.875 52.75,66.125 60.25,66.125 C61.375,63.125 64.375,60.875 67.75,60.875 C72.25,60.875 76,64.25 76,68.75 C76,73.25 72.25,77 67.75,77 C64.375,77 61.375,74.75 60.25,71.75 C53.5,71.75 48.625,68.75 45.625,63.5 C44.125,60.125 43,56.75 42.625,52.625 L37.75,52.625 C36.625,56 33.625,58.25 30.25,58.25 C25.75,58.25 22,54.5 22,50 C22,45.5 25.75,41.75 30.25,41.75 C33.625,41.75 36.625,44 37.75,47.375 L42.625,47.375 Z M67.8,34 C69.4,34 71,32.8 71,31.2 C71,29.6 69.4,28 67.8,28 C66.2,28 65,29.6 65,31.2 C65,32.8 66.2,34 67.8,34 Z M67.8,72 C69.4,72 71,70.4 71,68.8 C71,67.2 69.4,66 67.8,66 C66.2,66 65,67.2 65,68.8 C65,70.4 66.2,72 67.8,72 Z M67.8,52 C69.4,52 71,50.9285714 71,49.5 C71,48.0714286 69.4,47 67.8,47 C66.2,47 65,48.0714286 65,49.5 C65,50.9285714 66.2,52 67.8,52 Z M30.2,52 C31.8,52 33,50.9285714 33,49.5 C33,48.0714286 31.8,47 30.2,47 C28.6,47 27,48.0714286 27,49.5 C27,50.9285714 28.6,52 30.2,52 Z" id="Shape"></path>
        </g>
    </g>
</svg>
