<?xml version="1.0" encoding="utf-8"?>
<!-- Generator: Adobe Illustrator 16.0.0, SVG Export Plug-In . SVG Version: 6.00 Build 0)  -->
<!DOCTYPE svg PUBLIC "-//W3C//DTD SVG 1.1//EN" "http://www.w3.org/Graphics/SVG/1.1/DTD/svg11.dtd">
<svg version="1.1" id="Layer_1" xmlns="http://www.w3.org/2000/svg" xmlns:xlink="http://www.w3.org/1999/xlink" x="0px" y="0px"
	 width="951px" height="1024px" viewBox="0 0 951 1024" enable-background="new 0 0 951 1024" xml:space="preserve">
<g>
	<g id="icomoon-ignore">
	</g>
	<path fill="#EA785E" d="M919.439,511.994c0,245.189-198.763,443.939-443.939,443.939c-245.178,0-443.939-198.75-443.939-443.939
		c0-245.178,198.762-443.928,443.939-443.928C720.677,68.066,919.439,266.816,919.439,511.994z"/>
	<path fill="#FFFFFF" d="M588.105,401.903l0.193-0.398c2.272-2.394,3.385-5.79,3.094-9.198
		c-2.973-28.985,5.609-88.793,59.059-107.613l0.193-0.097c0.121,0,0.29-0.097,0.508-0.097c9.403-2.815,18.179-4.23,26.253-4.23
		c1.886,0,3.578,0.134,5.077,0.242c0.726,0.061,1.402,0.061,2.127,0c1.596-0.108,3.385-0.242,5.271-0.242
		c8.099,0,16.971,1.415,26.326,4.23c0.193,0.097,0.531,0.193,0.725,0.193c53.354,18.941,61.911,78.725,58.938,107.613
		c-0.314,3.179,0.677,6.382,2.708,8.944c0.217,0.182,0.266,0.254,0.41,0.472c5.174,6.49,3.385,17.684,1.354,26.579
		c-3.264,13.889-8.534,23.86-15.327,28.684c-2.394,1.595-3.965,3.988-4.689,6.805c-1.692,6.962-16.391,33.711-19.243,38.329
		c-0.145,0-0.145,0.06-0.145,0.156s-0.097,0.097-0.097,0.097c-1.789,2.72-5.488,7.882-7.881,11.387
		c-0.895,1.281-1.692,2.369-2.346,3.312c-16.801,16.125-29.13,19.014-48.832,19.146c-19.437-0.919-35.803-10.479-44.287-18.747
		c-0.363-0.629-0.895-1.221-1.402-1.935c-2.369-3.082-7.276-9.561-9.308-12.643c0-0.121-0.048-0.121-0.048-0.193
		c-2.829-4.509-18.083-31.947-19.775-38.909c-0.677-2.816-2.393-5.21-4.689-6.901c-6.769-4.654-12.087-14.541-15.351-28.538
		C584.817,419.382,583.125,408.213,588.105,401.903z M379.782,493.077l0.193-0.266c2.297-2.514,3.372-5.923,3.106-9.223
		c-3.01-28.997,5.572-88.756,59.082-107.745h0.097c0.061-0.097,0.387-0.097,0.58-0.193c9.368-2.78,18.144-4.183,26.254-4.183
		c1.812,0,3.469,0.085,5.101,0.193c0.665,0.133,1.281,0.133,2.104,0.133c1.571-0.241,3.396-0.326,5.27-0.326
		c8.074,0,16.946,1.402,26.351,4.279c0.218,0,0.459,0.097,0.677,0.218c53.401,18.868,61.959,78.627,58.938,107.696
		c-0.267,3.131,0.725,6.334,2.731,8.728c0.097,0.193,0.29,0.423,0.387,0.592c5.222,6.419,3.385,17.575,1.402,26.58
		c-1.596,6.878-3.699,12.667-6.285,17.441c-2.611,5.005-5.585,8.775-9.09,11.169c-2.345,1.692-4.013,4.122-4.69,6.914
		c-0.628,2.176-2.514,6.467-4.883,11.482c-5.101,10.335-12.377,23.583-14.312,26.677c-0.145,0.121-0.145,0.218-0.266,0.314
		c0,0,0,0,0,0.072c-1.789,2.78-5.464,7.905-7.856,11.29c-1.016,1.438-1.838,2.417-2.418,3.433
		c-6.285,6.08-11.942,10.286-17.744,13.163c-7.252,3.687-14.528,5.197-23.231,5.56c-2.49,0.193-5.125,0.29-7.784,0.29
		c-1.317-0.097-2.49-0.097-3.687-0.29c-8.569-0.882-16.354-3.408-23.038-6.442c-7.386-3.602-13.478-7.929-17.562-11.882
		c-0.424-0.616-0.883-1.317-1.402-1.994c-2.43-3.106-7.276-9.573-9.308-12.68c0,0-0.061-0.121-0.061-0.218
		c-1.897-2.985-9.729-16.861-14.867-27.547c-2.514-4.834-4.411-9.053-4.907-11.229c-0.688-2.792-2.43-5.222-4.774-6.914
		c-3.408-2.453-6.49-6.261-9.162-11.229c-2.514-4.763-4.521-10.601-6.128-17.382C376.47,510.556,374.802,499.326,379.782,493.077z
		 M185.528,456.889c-6.805-4.727-12.075-14.565-15.254-28.587c-2.091-8.896-3.783-20.089,1.185-26.374l0.193-0.423
		c2.297-2.394,3.408-5.79,3.106-9.198c-3.01-28.985,5.608-88.793,59.07-107.613l0.084-0.097c0.121,0,0.314-0.097,0.521-0.097
		c9.367-2.815,18.251-4.23,26.253-4.23c1.874,0,3.554,0.134,5.064,0.242c0.689,0.061,1.414,0.061,2.055,0
		c1.753-0.108,3.506-0.242,5.307-0.242c8.171,0,17.092,1.415,26.374,4.23c0.267,0.097,0.472,0.193,0.786,0.193
		c53.353,18.941,61.874,78.725,58.949,107.613c-0.423,3.251,0.629,6.382,2.731,8.944c0.073,0.182,0.242,0.254,0.387,0.472
		c5.102,6.49,3.385,17.684,1.294,26.628c-3.191,13.9-8.497,23.884-15.375,28.635c-2.284,1.595-3.989,3.988-4.581,6.805
		c-1.813,6.962-16.451,33.711-19.243,38.329c-0.121,0-0.193,0.084-0.193,0.156c0,0.097,0,0.097,0,0.097
		c-1.837,2.72-5.5,7.882-7.978,11.387c-0.919,1.317-1.717,2.417-2.297,3.312c-16.776,16.125-29.274,19.086-48.844,19.146
		c-19.509-0.919-35.863-10.479-44.252-18.747c-0.423-0.629-0.918-1.197-1.438-1.897c-2.345-3.07-7.252-9.598-9.222-12.68
		c-0.146-0.121-0.146-0.121-0.206-0.193c-2.707-4.509-17.985-31.947-19.75-38.909C189.626,460.974,187.922,458.557,185.528,456.889z
		 M267.165,652.399c-147.887,0-173.149-19.823-177.295-26.024c-2.587-3.687-3.106-7.978-1.607-12.159
		c15.146-39.791,39.489-49.195,61.343-53.051c20.536-3.747,46.391-11.398,56.471-16.85c1.898-1.016,3.409-2.526,4.484-4.376
		c12.68,9.924,31.645,19.086,53.873,19.969h0.496c21.467,0,39.344-3.53,58.889-19.823c1.016,1.704,2.49,3.118,4.267,4.085
		c8.594,4.714,26.157,10.045,42.1,13.876c2.104,2.587,4.315,4.992,6.806,6.975c4.206,11.192,14.964,30.738,19.835,39.006
		c0.205,5.802,0.326,10.117,0.326,13.271c-10.068,3.783-28.091,8.896-43.43,11.688c-14.771,2.574-33.312,7.978-49.968,22.966
		C292.5,652.206,280.316,652.399,267.165,652.399z M654.344,705.498c1.571,4.05,1.015,8.474-1.499,12.172
		c-4.207,6.08-29.541,26.061-177.368,26.061c-147.754,0-173.101-19.98-177.295-26.061c-2.587-3.698-3.07-8.122-1.608-12.172
		c5.017-12.97,10.915-22.748,17.394-30.121c13.453-15.278,29.191-20.392,43.985-22.978c8.667-1.584,18.265-3.796,27.221-6.383
		c12.378-3.493,23.438-7.36,29.239-10.588c1.934-0.955,3.505-2.466,4.472-4.303c2.503,1.909,5.174,3.903,8.195,5.56
		c8.026,5.161,17.672,9.525,28.538,12.015c5.5,1.317,11.156,2.236,17.128,2.405h0.544c7.989,0,15.339-0.495,22.651-2.006
		c9.634-1.898,19.037-5.476,28.635-12.075c2.489-1.704,4.932-3.675,7.542-5.729c1.112,1.668,2.515,3.179,4.399,4.134
		c6.286,3.505,17.454,7.349,29.445,10.685c9.282,2.587,18.928,4.823,27.123,6.286c14.698,2.586,30.532,7.699,43.805,22.941
		C643.465,682.75,649.363,692.528,654.344,705.498z M861.18,626.375c-4.206,6.201-29.444,26.024-177.295,26.024
		c-13.176,0-25.335-0.193-36.601-0.472c-16.704-14.988-35.246-20.367-50.017-22.941c-15.593-2.828-33.434-7.905-43.394-11.688
		c0-3.312,0.097-7.905,0.387-13.852c5.318-8.812,15.255-27.765,19.364-38.426c2.369-1.982,4.593-4.315,6.503-6.805
		c17.14-4.001,34.738-9.658,42.571-13.9c1.909-1.063,3.505-2.562,4.617-4.376c12.522,9.899,31.62,19.086,53.764,19.969h0.508
		c21.539,0,39.283-3.566,58.938-19.872c1.015,1.717,2.514,3.167,4.278,4.098c11.29,6.225,38.147,13.683,56.568,16.958
		c21.854,3.929,46.197,13.284,61.258,53.185C864.274,618.397,863.742,622.688,861.18,626.375z"/>
</g>
</svg>
