<svg id="svg" xmlns="http://www.w3.org/2000/svg" xmlns:xlink="http://www.w3.org/1999/xlink" width="400" height="400.6057546693589" viewBox="0, 0, 400,400.6057546693589"><g id="svgg"><path id="path0" d="M189.733 0.183 C 188.723 0.257,186.657 0.398,185.142 0.496 C 178.164 0.945,166.067 2.515,162.020 3.495 C 161.653 3.584,160.526 3.812,159.516 4.002 C 158.506 4.191,157.417 4.415,157.095 4.500 C 156.774 4.584,155.947 4.776,155.259 4.926 C 152.364 5.554,146.282 7.094,145.075 7.504 C 144.846 7.581,144.207 7.772,143.656 7.926 C 143.105 8.081,142.467 8.271,142.237 8.348 C 142.008 8.426,141.256 8.655,140.568 8.857 C 135.732 10.278,125.898 13.865,121.619 15.767 C 121.344 15.890,120.555 16.234,119.866 16.532 C 116.123 18.152,114.371 18.980,109.766 21.301 C 105.627 23.388,101.865 25.412,100.050 26.529 C 99.589 26.813,99.171 27.045,99.120 27.045 C 98.897 27.045,89.942 32.645,88.902 33.435 C 88.808 33.506,87.877 34.134,86.832 34.829 C 85.253 35.881,81.877 38.296,79.920 39.774 C 79.665 39.967,79.239 40.280,78.975 40.471 C 78.269 40.981,75.723 42.948,75.626 43.059 C 75.580 43.112,74.791 43.755,73.873 44.488 C 72.955 45.222,72.166 45.861,72.120 45.910 C 72.074 45.958,71.625 46.335,71.123 46.747 C 70.014 47.656,66.341 50.857,65.200 51.909 C 64.745 52.328,63.843 53.158,63.196 53.752 C 61.379 55.422,53.999 62.850,52.504 64.514 C 51.770 65.331,51.056 66.120,50.918 66.267 C 50.260 66.968,47.923 69.639,47.329 70.369 C 46.962 70.820,46.361 71.533,45.993 71.952 C 45.626 72.371,44.725 73.464,43.990 74.379 C 43.255 75.294,42.611 76.081,42.558 76.127 C 42.421 76.247,38.168 81.927,36.809 83.806 C 36.178 84.679,34.660 86.895,33.436 88.731 C 32.212 90.568,31.135 92.183,31.043 92.321 C 30.558 93.046,28.617 96.178,28.251 96.824 C 28.018 97.235,27.420 98.242,26.923 99.062 C 26.426 99.882,25.812 100.935,25.558 101.403 C 25.304 101.871,24.533 103.268,23.844 104.508 C 22.546 106.844,18.690 114.504,17.710 116.694 C 15.862 120.822,15.076 122.638,14.496 124.124 C 14.137 125.042,13.773 125.943,13.686 126.127 C 13.599 126.311,13.263 127.174,12.938 128.047 C 12.614 128.919,12.280 129.783,12.196 129.967 C 12.113 130.150,11.806 130.977,11.514 131.803 C 11.222 132.629,10.920 133.456,10.843 133.639 C 10.600 134.213,8.593 140.361,8.090 142.070 C 7.968 142.483,7.668 143.497,7.424 144.324 C 7.179 145.150,6.880 146.202,6.758 146.661 C 5.867 150.020,5.450 151.626,5.261 152.421 C 4.542 155.461,4.139 157.297,3.285 161.436 C 3.057 162.537,2.723 164.338,2.168 167.446 C 2.078 167.951,1.925 168.927,1.828 169.616 C 0.118 181.786,0.126 181.664,0.043 199.165 C -0.006 209.465,0.030 215.093,0.153 216.444 C 0.524 220.516,0.673 222.004,0.922 224.124 C 1.360 227.859,1.579 229.406,2.324 234.057 C 2.420 234.654,2.573 235.518,2.665 235.977 C 2.756 236.436,2.946 237.450,3.087 238.230 C 3.228 239.011,3.413 239.950,3.498 240.317 C 3.584 240.684,3.815 241.736,4.011 242.654 C 4.663 245.703,4.881 246.637,5.626 249.583 C 6.829 254.345,7.132 255.408,8.862 260.935 C 10.232 265.311,10.913 267.297,12.241 270.785 C 13.832 274.965,15.197 278.320,16.250 280.634 C 17.085 282.471,17.736 283.914,18.246 285.058 C 18.797 286.297,22.808 294.275,23.659 295.826 C 24.624 297.586,25.097 298.418,25.486 299.037 C 25.701 299.379,25.876 299.704,25.876 299.759 C 25.876 300.201,32.930 311.286,36.069 315.776 C 37.984 318.515,42.409 324.349,44.232 326.539 C 44.650 327.040,45.115 327.604,45.267 327.791 C 45.991 328.685,50.027 333.394,50.641 334.060 C 56.252 340.155,60.638 344.537,66.090 349.499 C 66.494 349.866,66.907 350.245,67.010 350.341 C 67.177 350.499,71.564 354.230,72.371 354.902 C 72.840 355.292,75.815 357.685,77.212 358.795 C 78.182 359.565,81.633 362.129,82.888 363.012 C 83.072 363.141,83.823 363.679,84.558 364.206 C 88.347 366.930,97.161 372.547,100.299 374.238 C 100.915 374.570,101.699 375.018,102.042 375.234 C 102.384 375.450,102.694 375.626,102.730 375.626 C 102.766 375.626,103.500 376.025,104.361 376.512 C 106.399 377.666,114.047 381.481,116.611 382.622 C 117.713 383.113,119.157 383.768,119.820 384.078 C 120.483 384.387,121.069 384.641,121.123 384.641 C 121.207 384.641,121.877 384.921,123.122 385.476 C 123.306 385.558,123.869 385.787,124.374 385.985 C 124.879 386.183,125.442 386.411,125.626 386.492 C 129.099 388.026,140.665 391.923,146.201 393.425 C 148.463 394.039,149.068 394.198,150.000 394.428 C 150.551 394.564,151.452 394.788,152.003 394.925 C 152.554 395.063,153.456 395.275,154.007 395.397 C 154.558 395.519,155.572 395.749,156.260 395.908 C 158.656 396.461,158.501 396.429,162.771 397.259 C 169.467 398.561,178.605 399.705,185.977 400.163 C 192.998 400.600,194.919 400.670,199.833 400.670 C 204.724 400.670,206.567 400.603,213.606 400.166 C 224.782 399.472,235.286 397.854,247.746 394.905 C 250.140 394.339,255.035 392.990,257.429 392.236 C 258.210 391.991,259.186 391.691,259.599 391.571 C 261.078 391.140,264.477 390.043,265.025 389.820 C 265.209 389.745,266.035 389.446,266.861 389.155 C 268.630 388.533,271.824 387.355,272.538 387.062 C 272.813 386.949,273.376 386.721,273.790 386.554 C 274.203 386.388,274.841 386.126,275.209 385.973 C 275.576 385.821,276.139 385.597,276.461 385.477 C 276.782 385.357,277.520 385.044,278.100 384.783 C 278.680 384.521,279.192 384.307,279.236 384.307 C 279.281 384.307,279.670 384.147,280.101 383.951 C 281.717 383.217,283.100 382.587,284.558 381.919 C 287.599 380.527,294.375 377.038,297.663 375.171 C 300.770 373.407,302.868 372.175,304.264 371.292 C 305.178 370.713,306.565 369.848,307.346 369.370 C 308.766 368.499,313.988 365.002,315.310 364.036 C 315.697 363.754,316.281 363.335,316.608 363.105 C 316.936 362.876,317.346 362.575,317.520 362.437 C 317.694 362.300,318.011 362.062,318.225 361.909 C 319.379 361.085,321.464 359.534,321.536 359.446 C 321.582 359.390,322.408 358.747,323.372 358.016 C 324.336 357.286,325.209 356.611,325.311 356.516 C 325.413 356.421,325.821 356.081,326.217 355.760 C 326.613 355.438,327.058 355.063,327.206 354.925 C 327.355 354.787,327.849 354.377,328.304 354.012 C 328.759 353.648,329.169 353.310,329.215 353.260 C 329.261 353.210,329.787 352.757,330.384 352.253 C 330.981 351.748,331.551 351.260,331.652 351.169 C 331.753 351.077,332.429 350.476,333.155 349.834 C 333.880 349.192,334.962 348.217,335.559 347.668 C 337.537 345.849,346.317 337.008,347.921 335.220 C 349.982 332.924,351.429 331.276,352.021 330.551 C 352.284 330.230,352.544 329.929,352.599 329.883 C 352.702 329.798,355.376 326.534,356.427 325.210 C 356.749 324.805,357.206 324.245,357.443 323.965 C 357.890 323.438,360.685 319.727,362.290 317.529 C 363.379 316.039,365.790 312.530,367.166 310.434 C 367.709 309.608,368.294 308.728,368.467 308.479 C 368.640 308.230,368.781 307.955,368.781 307.867 C 368.781 307.779,368.844 307.682,368.921 307.652 C 369.062 307.596,373.623 300.129,373.623 299.954 C 373.623 299.903,373.948 299.310,374.345 298.636 C 374.742 297.963,375.392 296.811,375.788 296.077 C 376.185 295.342,376.715 294.366,376.967 293.907 C 377.219 293.447,378.139 291.644,379.011 289.900 C 380.479 286.964,380.968 285.946,381.975 283.723 C 382.183 283.264,382.575 282.400,382.847 281.803 C 383.118 281.206,383.749 279.741,384.248 278.548 C 384.747 277.354,385.226 276.227,385.311 276.043 C 385.397 275.860,385.621 275.296,385.810 274.791 C 385.998 274.286,386.221 273.723,386.304 273.539 C 387.268 271.416,390.920 260.744,392.160 256.427 C 393.037 253.376,394.388 248.156,394.903 245.826 C 395.066 245.092,395.337 243.890,395.507 243.155 C 395.676 242.421,396.005 240.843,396.238 239.649 C 396.470 238.456,396.737 237.104,396.831 236.644 C 397.244 234.618,398.054 229.213,398.596 224.875 C 399.099 220.843,399.156 220.080,399.270 215.735 C 399.354 212.514,399.438 211.352,399.584 211.352 C 400.212 211.352,400.163 188.908,399.535 188.497 C 399.451 188.442,399.333 186.669,399.274 184.558 C 399.215 182.446,399.094 180.042,399.004 179.215 C 398.386 173.503,397.467 167.218,396.587 162.688 C 396.444 161.953,396.250 160.939,396.156 160.434 C 396.061 159.929,395.841 158.915,395.666 158.180 C 395.491 157.446,395.183 156.093,394.982 155.175 C 394.559 153.244,393.298 148.237,392.801 146.509 C 392.613 145.858,392.419 145.175,392.369 144.992 C 391.049 140.170,387.398 129.399,386.312 127.129 C 386.225 126.945,385.998 126.381,385.810 125.876 C 385.621 125.371,385.398 124.808,385.314 124.624 C 385.231 124.441,384.790 123.389,384.334 122.287 C 383.433 120.106,382.837 118.740,382.224 117.446 C 382.006 116.987,381.665 116.235,381.465 115.776 C 381.003 114.712,377.217 107.135,376.377 105.593 C 376.027 104.950,375.423 103.861,375.036 103.172 C 374.649 102.483,374.184 101.657,374.003 101.336 C 373.822 101.014,373.261 100.038,372.756 99.165 C 371.961 97.790,371.598 97.186,370.497 95.405 C 370.385 95.224,370.016 94.624,369.676 94.073 C 368.861 92.753,364.247 85.750,364.121 85.643 C 364.067 85.597,363.765 85.184,363.450 84.725 C 362.150 82.834,355.897 74.568,355.430 74.124 C 355.382 74.078,355.043 73.664,354.678 73.205 C 354.313 72.746,353.937 72.288,353.843 72.188 C 353.749 72.087,353.372 71.646,353.005 71.207 C 352.638 70.768,352.262 70.324,352.170 70.221 C 352.078 70.117,351.518 69.470,350.924 68.781 C 350.331 68.093,349.730 67.410,349.589 67.264 C 349.448 67.119,348.806 66.409,348.164 65.687 C 344.515 61.590,337.860 54.967,333.477 51.072 C 332.681 50.364,331.545 49.350,331.154 48.998 C 331.052 48.907,330.480 48.419,329.883 47.914 C 329.286 47.410,328.760 46.959,328.715 46.913 C 328.669 46.866,328.255 46.529,327.796 46.164 C 327.337 45.798,326.880 45.423,326.780 45.329 C 326.493 45.059,325.385 44.170,323.861 42.986 C 323.087 42.384,322.304 41.767,322.120 41.613 C 321.732 41.289,316.752 37.600,316.201 37.229 C 315.996 37.091,315.366 36.644,314.801 36.234 C 312.957 34.900,308.307 31.805,306.344 30.605 C 305.288 29.960,303.885 29.083,303.226 28.656 C 302.567 28.229,301.986 27.880,301.935 27.880 C 301.884 27.880,301.337 27.570,300.719 27.192 C 298.159 25.625,293.768 23.246,289.585 21.159 C 286.876 19.808,282.485 17.696,282.384 17.696 C 282.352 17.696,281.815 17.466,281.189 17.185 C 280.562 16.903,279.900 16.607,279.716 16.526 C 279.533 16.446,278.967 16.196,278.460 15.972 C 277.953 15.748,276.864 15.289,276.040 14.952 C 275.215 14.615,274.316 14.240,274.040 14.118 C 273.765 13.996,272.262 13.429,270.701 12.858 C 269.140 12.286,267.713 11.758,267.529 11.683 C 266.059 11.081,260.498 9.248,257.429 8.353 C 256.740 8.152,255.719 7.846,255.160 7.673 C 253.844 7.266,251.274 6.581,249.165 6.075 C 248.247 5.854,247.233 5.601,246.912 5.511 C 246.277 5.334,245.082 5.064,242.487 4.511 C 241.569 4.315,240.518 4.086,240.150 4.003 C 239.583 3.874,236.565 3.304,233.055 2.663 C 228.630 1.855,220.381 0.895,214.524 0.506 C 213.101 0.412,210.874 0.259,209.575 0.167 C 206.832 -0.027,192.434 -0.015,189.733 0.183 M315.841 106.525 C 328.866 108.659,338.122 117.713,340.145 130.301 C 340.389 131.819,340.409 138.434,340.363 203.339 L 340.312 274.708 339.840 276.617 C 336.797 288.914,326.623 297.873,314.775 298.690 C 310.826 298.963,84.082 298.721,82.638 298.443 C 70.561 296.117,62.142 287.978,59.471 276.047 L 59.022 274.040 58.970 204.007 C 58.917 131.690,58.917 131.633,59.592 128.541 C 60.544 124.177,63.026 119.210,65.735 116.247 C 66.288 115.642,66.344 115.510,66.158 115.255 C 65.318 114.107,66.581 112.749,68.088 113.181 C 68.555 113.315,68.702 113.286,69.005 112.998 C 72.054 110.099,77.686 107.504,82.721 106.679 C 84.943 106.315,313.636 106.164,315.841 106.525 M150.668 135.058 C 150.459 135.148,151.114 135.200,152.421 135.197 C 153.709 135.194,154.348 135.141,154.090 135.058 C 153.529 134.879,151.086 134.879,150.668 135.058 M146.745 135.559 L 146.327 135.693 146.776 135.710 C 147.024 135.719,147.272 135.651,147.329 135.559 C 147.446 135.369,147.337 135.369,146.745 135.559 M157.429 135.553 C 157.429 135.688,160.285 136.265,160.397 136.153 C 160.432 136.118,160.023 136.006,159.487 135.905 C 158.952 135.803,158.270 135.653,157.972 135.572 C 157.673 135.490,157.429 135.482,157.429 135.553 M144.908 135.934 C 144.495 136.028,144.232 136.131,144.324 136.162 C 144.416 136.193,144.904 136.116,145.409 135.991 C 146.472 135.727,146.030 135.677,144.908 135.934 M142.107 136.769 C 141.622 136.955,141.255 137.137,141.291 137.173 C 141.399 137.281,143.239 136.670,143.239 136.527 C 143.239 136.351,143.144 136.372,142.107 136.769 M161.436 136.509 C 161.436 136.668,163.268 137.288,163.387 137.169 C 163.426 137.131,163.134 136.986,162.739 136.848 C 162.343 136.709,161.889 136.543,161.728 136.477 C 161.567 136.412,161.436 136.426,161.436 136.509 M149.833 136.894 C 133.820 138.059,123.028 151.078,122.983 169.282 C 122.959 179.135,125.948 186.334,132.858 193.072 C 137.703 197.795,139.368 201.148,139.191 205.825 C 138.966 211.804,136.121 214.773,126.377 219.200 C 108.868 227.156,99.893 234.676,97.392 243.489 C 94.485 253.729,101.108 265.702,110.594 267.356 C 112.773 267.736,192.585 267.744,194.924 267.365 C 202.147 266.194,208.011 258.714,208.080 250.584 C 208.103 247.887,207.954 244.393,207.842 244.992 C 207.753 245.463,207.740 245.448,207.624 244.741 C 206.044 235.117,194.915 225.546,176.461 217.937 C 168.254 214.554,165.188 210.818,165.490 204.568 C 165.695 200.334,167.260 197.618,172.451 192.487 C 178.258 186.748,180.973 180.997,181.632 173.037 C 183.442 151.185,169.602 135.456,149.833 136.894 M139.212 138.023 C 133.817 140.745,129.550 145.093,126.699 150.775 C 125.828 152.512,125.799 152.588,126.013 152.588 C 126.088 152.588,126.327 152.156,126.546 151.628 C 126.764 151.100,127.040 150.569,127.161 150.447 C 127.281 150.326,127.379 150.146,127.379 150.047 C 127.379 149.948,127.642 149.471,127.963 148.987 C 128.285 148.503,128.548 148.064,128.548 148.010 C 128.548 147.909,129.671 146.295,129.964 145.975 C 130.057 145.873,130.359 145.499,130.634 145.145 C 131.195 144.424,133.579 142.045,134.385 141.402 C 134.673 141.173,135.083 140.835,135.295 140.651 C 135.664 140.332,135.939 140.153,136.770 139.691 C 136.976 139.576,137.205 139.389,137.279 139.274 C 137.352 139.159,137.508 139.065,137.626 139.065 C 137.743 139.065,138.171 138.849,138.577 138.584 C 138.983 138.319,139.616 138.000,139.983 137.875 C 140.625 137.655,141.256 137.229,140.939 137.229 C 140.855 137.229,140.078 137.586,139.212 138.023 M164.190 137.637 C 164.558 137.871,164.971 138.063,165.109 138.066 C 165.246 138.068,165.690 138.294,166.094 138.567 C 166.498 138.841,166.892 139.065,166.970 139.065 C 167.047 139.065,167.477 139.328,167.924 139.649 C 168.372 139.971,168.805 140.234,168.886 140.234 C 168.968 140.234,169.129 140.384,169.243 140.568 C 169.358 140.751,169.544 140.902,169.657 140.902 C 169.894 140.902,170.066 141.057,172.496 143.468 C 173.483 144.448,174.290 145.320,174.290 145.406 C 174.290 145.492,174.431 145.697,174.603 145.862 C 174.774 146.026,175.264 146.686,175.690 147.329 C 176.117 147.972,176.525 148.573,176.596 148.664 C 176.668 148.756,176.899 149.188,177.109 149.623 C 177.319 150.059,177.549 150.451,177.619 150.494 C 177.689 150.538,177.884 150.933,178.052 151.372 C 178.320 152.073,178.798 152.800,178.798 152.505 C 178.798 152.315,177.283 149.356,176.746 148.497 C 173.855 143.873,170.365 140.589,165.775 138.175 C 164.116 137.303,163.147 136.974,164.190 137.637 M178.808 152.807 C 178.786 153.111,179.348 154.591,179.485 154.591 C 179.566 154.591,179.633 154.563,179.633 154.529 C 179.633 154.387,178.816 152.683,178.808 152.807 M125.230 154.194 C 125.030 154.715,124.905 155.178,124.951 155.223 C 125.038 155.311,125.049 155.286,125.458 154.106 C 125.834 153.022,125.651 153.093,125.230 154.194 M179.817 155.593 C 179.822 155.730,179.931 156.106,180.061 156.427 L 180.298 157.012 180.196 156.427 C 180.082 155.765,179.804 155.153,179.817 155.593 M180.315 157.346 C 180.310 157.529,180.378 157.792,180.467 157.930 C 180.682 158.262,180.682 157.845,180.467 157.346 L 180.324 157.012 180.315 157.346 M221.830 158.215 C 222.038 158.255,222.338 158.253,222.498 158.212 C 222.657 158.170,222.487 158.137,222.120 158.139 C 221.753 158.141,221.622 158.175,221.830 158.215 M294.284 158.215 C 294.492 158.255,294.792 158.253,294.952 158.212 C 295.111 158.170,294.942 158.137,294.574 158.139 C 294.207 158.141,294.076 158.175,294.284 158.215 M218.874 159.142 C 217.158 160.000,214.061 163.532,214.575 164.046 C 214.620 164.091,214.833 163.767,215.047 163.325 C 215.262 162.883,215.589 162.343,215.774 162.126 C 216.621 161.130,217.659 160.100,217.816 160.100 C 217.911 160.100,218.092 159.975,218.218 159.823 C 218.344 159.670,218.842 159.371,219.324 159.157 C 219.806 158.944,220.200 158.730,220.200 158.683 C 220.200 158.519,219.943 158.608,218.874 159.142 M296.494 158.765 C 296.494 158.856,296.610 158.932,296.751 158.932 C 297.131 158.932,298.200 159.512,298.565 159.915 C 298.740 160.109,298.975 160.267,299.086 160.267 C 299.198 160.267,299.604 160.624,299.988 161.060 C 301.026 162.239,301.069 162.298,301.425 163.019 C 301.740 163.658,302.170 164.241,302.170 164.029 C 302.170 163.773,301.403 162.440,300.804 161.656 C 299.697 160.205,296.494 158.057,296.494 158.765 M221.452 159.935 C 217.768 160.676,214.682 163.761,214.035 167.351 C 213.791 168.703,213.795 183.576,214.039 184.903 C 214.678 188.378,217.410 191.253,220.952 192.177 C 222.831 192.667,293.783 192.655,295.703 192.164 C 299.367 191.227,302.093 188.291,302.654 184.680 C 302.891 183.151,302.900 169.097,302.665 167.648 C 302.110 164.227,299.826 161.506,296.448 160.239 L 295.409 159.850 258.765 159.825 C 238.610 159.812,221.820 159.861,221.452 159.935 M302.185 164.441 C 302.190 164.578,302.258 164.841,302.337 165.025 L 302.481 165.359 302.490 165.025 C 302.495 164.841,302.426 164.578,302.337 164.441 C 302.193 164.218,302.176 164.218,302.185 164.441 M166.205 208.514 C 166.751 210.501,169.750 213.233,173.289 214.964 C 173.794 215.212,174.245 215.462,174.290 215.521 C 174.386 215.643,176.334 216.362,176.561 216.359 C 176.644 216.357,176.148 216.110,175.459 215.809 C 171.176 213.938,168.023 211.512,166.596 208.992 C 166.318 208.500,166.142 208.285,166.205 208.514 M137.674 209.682 C 136.198 211.961,133.438 214.081,129.343 216.079 C 127.990 216.739,126.882 217.332,126.881 217.396 C 126.879 217.461,127.085 217.413,127.337 217.289 C 130.403 215.789,132.721 214.593,132.721 214.512 C 132.721 214.456,133.021 214.267,133.387 214.092 C 133.753 213.917,134.054 213.723,134.055 213.661 C 134.056 213.600,134.338 213.376,134.682 213.164 C 135.435 212.698,137.229 210.976,137.229 210.718 C 137.229 210.617,137.323 210.474,137.437 210.401 C 137.672 210.250,138.465 208.860,138.369 208.765 C 138.336 208.731,138.023 209.143,137.674 209.682 M261.324 209.808 C 267.460 209.832,277.451 209.832,283.527 209.808 C 289.603 209.784,284.583 209.764,272.371 209.764 C 260.159 209.764,255.187 209.784,261.324 209.808 M295.659 210.090 C 296.950 210.498,297.304 210.563,296.701 210.283 C 296.401 210.145,295.875 209.991,295.532 209.942 C 294.936 209.857,294.942 209.864,295.659 210.090 M246.311 211.156 C 244.480 212.342,241.583 216.361,242.560 216.361 C 242.658 216.361,242.719 216.300,242.696 216.227 C 242.631 216.019,243.460 214.290,243.696 214.140 C 243.812 214.067,243.907 213.913,243.907 213.797 C 243.907 213.476,246.171 211.387,246.808 211.121 C 247.355 210.892,247.753 210.518,247.448 210.518 C 247.365 210.518,246.854 210.805,246.311 211.156 M297.329 210.639 C 297.329 210.710,297.668 210.948,298.082 211.168 C 298.997 211.653,301.069 213.795,301.407 214.604 C 301.542 214.928,301.733 215.192,301.831 215.192 C 302.090 215.192,301.476 214.062,300.725 213.156 C 299.763 211.996,297.329 210.192,297.329 210.639 M249.586 211.540 C 246.363 212.083,243.279 214.927,242.339 218.223 C 241.853 219.929,241.943 235.961,242.448 237.509 C 243.471 240.649,246.007 243.027,249.183 243.824 C 250.839 244.240,295.252 244.113,296.301 243.689 C 299.988 242.200,302.163 239.621,302.669 236.137 C 303.048 233.524,302.818 219.174,302.375 217.851 C 301.465 215.131,299.258 212.902,296.397 211.812 L 295.409 211.436 272.955 211.411 C 259.905 211.397,250.118 211.451,249.586 211.540 M302.012 215.442 C 302.010 215.534,302.117 215.910,302.249 216.277 C 302.381 216.644,302.493 216.822,302.497 216.672 C 302.501 216.522,302.394 216.146,302.260 215.837 C 302.126 215.528,302.015 215.351,302.012 215.442 M176.795 216.536 C 176.795 216.614,177.039 216.749,177.337 216.835 C 177.636 216.922,178.030 217.050,178.214 217.120 C 178.402 217.193,178.490 217.185,178.415 217.103 C 178.203 216.871,176.795 216.378,176.795 216.536 M178.631 217.362 C 178.631 217.454,178.687 217.514,178.756 217.495 C 178.825 217.476,179.248 217.626,179.696 217.829 C 180.143 218.031,180.575 218.197,180.656 218.197 C 180.736 218.197,180.801 218.272,180.801 218.364 C 180.801 218.456,180.904 218.531,181.031 218.531 C 181.294 218.531,182.847 219.191,182.972 219.356 C 183.018 219.417,183.468 219.641,183.973 219.854 C 184.478 220.068,184.929 220.294,184.975 220.358 C 185.086 220.511,186.477 221.057,186.477 220.947 C 186.477 220.797,179.033 217.195,178.723 217.195 C 178.673 217.195,178.631 217.270,178.631 217.362 M125.710 217.788 C 125.296 218.002,125.031 218.182,125.120 218.187 C 125.418 218.205,126.711 217.652,126.711 217.507 C 126.711 217.303,126.563 217.345,125.710 217.788 M121.056 220.049 C 119.011 221.068,117.372 221.935,117.413 221.976 C 117.504 222.067,118.740 221.509,118.883 221.313 C 118.940 221.236,119.032 221.176,119.089 221.180 C 119.248 221.190,120.774 220.501,120.868 220.377 C 120.914 220.316,121.365 220.092,121.870 219.878 C 122.375 219.665,122.826 219.442,122.871 219.382 C 122.917 219.322,123.293 219.130,123.706 218.956 C 124.369 218.676,125.097 218.197,124.860 218.197 C 124.812 218.197,123.100 219.030,121.056 220.049 M186.790 221.260 C 186.892 221.383,187.296 221.625,187.687 221.798 C 188.078 221.970,188.435 222.151,188.481 222.199 C 188.527 222.248,188.902 222.469,189.316 222.692 C 189.729 222.915,190.104 223.148,190.150 223.211 C 190.196 223.274,190.487 223.455,190.796 223.614 C 191.106 223.773,191.716 224.159,192.152 224.472 C 192.588 224.785,193.030 225.042,193.133 225.042 C 193.237 225.042,193.322 225.115,193.322 225.204 C 193.322 225.294,193.565 225.493,193.863 225.646 C 194.160 225.800,194.900 226.328,195.509 226.819 C 196.117 227.311,196.669 227.713,196.736 227.713 C 196.875 227.713,197.145 227.963,200.042 230.777 C 201.212 231.915,202.170 232.928,202.170 233.030 C 202.170 233.131,202.358 233.337,202.588 233.488 C 202.817 233.638,203.005 233.865,203.005 233.991 C 203.005 234.117,203.155 234.315,203.339 234.429 C 203.523 234.544,203.673 234.691,203.673 234.756 C 203.673 234.821,203.917 235.235,204.215 235.676 C 205.106 236.992,205.988 238.652,206.404 239.799 C 206.467 239.972,206.568 240.065,206.628 240.005 C 206.688 239.945,206.317 239.051,205.803 238.020 C 203.155 232.706,197.660 227.409,190.234 223.012 C 186.797 220.977,186.379 220.765,186.790 221.260 M116.361 222.475 C 109.270 226.585,105.033 229.830,102.022 233.459 C 100.359 235.463,98.600 238.230,98.989 238.230 C 99.081 238.230,99.318 237.855,99.515 237.396 C 99.713 236.937,99.927 236.561,99.992 236.561 C 100.057 236.561,100.217 236.354,100.347 236.102 C 101.138 234.564,104.595 230.983,108.170 227.997 C 108.302 227.887,108.498 227.759,108.605 227.713 C 108.713 227.667,109.018 227.463,109.283 227.259 C 110.656 226.205,111.372 225.710,111.521 225.710 C 111.612 225.710,111.824 225.578,111.992 225.417 C 112.282 225.141,112.510 224.992,113.397 224.499 C 113.604 224.384,113.811 224.240,113.858 224.178 C 113.967 224.035,115.589 223.135,116.393 222.773 C 116.732 222.620,117.049 222.391,117.097 222.266 C 117.209 221.974,117.242 221.964,116.361 222.475 M98.399 239.023 C 97.863 240.269,97.315 241.945,97.384 242.131 C 97.423 242.235,97.507 242.095,97.570 241.820 C 97.634 241.544,97.769 241.131,97.871 240.902 C 97.973 240.672,98.063 240.447,98.071 240.401 C 98.079 240.355,98.143 240.226,98.214 240.114 C 98.379 239.855,98.820 238.397,98.734 238.397 C 98.698 238.397,98.548 238.679,98.399 239.023 M206.691 240.340 C 206.684 240.444,206.788 240.782,206.922 241.091 C 207.056 241.400,207.165 241.540,207.165 241.402 C 207.163 241.094,206.710 240.076,206.691 240.340 M207.281 242.154 C 207.418 242.767,207.513 242.901,207.510 242.474 C 207.509 242.298,207.431 242.041,207.338 241.903 C 207.214 241.720,207.199 241.788,207.281 242.154 " stroke="none" fill="#3ca49c" fill-rule="evenodd"></path><path id="path1" d="M59.014 202.504 C 59.014 240.563,59.033 256.133,59.057 237.104 C 59.080 218.074,59.080 186.934,59.057 167.905 C 59.033 148.875,59.014 164.445,59.014 202.504 M123.284 161.277 C 123.125 161.534,123.342 161.699,123.557 161.485 C 123.676 161.365,123.679 161.272,123.565 161.201 C 123.472 161.144,123.345 161.178,123.284 161.277 M123.038 162.938 C 123.038 163.250,123.083 163.294,123.239 163.139 C 123.395 162.983,123.395 162.894,123.239 162.738 C 123.083 162.582,123.038 162.627,123.038 162.938 M213.889 166.071 C 213.883 166.463,213.830 166.932,213.772 167.114 C 213.714 167.297,213.735 167.446,213.817 167.446 C 213.900 167.446,213.977 167.352,213.988 167.237 C 214.000 167.122,214.035 166.792,214.066 166.503 C 214.098 166.215,214.074 165.839,214.012 165.669 C 213.943 165.474,213.897 165.624,213.889 166.071 M122.762 169.533 C 122.762 170.267,122.792 170.547,122.827 170.154 C 122.862 169.762,122.862 169.161,122.826 168.819 C 122.790 168.477,122.761 168.798,122.762 169.533 M181.855 169.533 C 181.856 170.083,181.887 170.289,181.924 169.989 C 181.961 169.689,181.960 169.238,181.922 168.987 C 181.884 168.736,181.854 168.982,181.855 169.533 M213.765 175.209 C 213.765 178.790,213.788 180.231,213.815 178.411 C 213.841 176.592,213.841 173.662,213.814 171.900 C 213.787 170.139,213.765 171.628,213.765 175.209 M240.429 192.613 C 250.223 192.636,266.300 192.636,276.155 192.613 C 286.010 192.589,277.997 192.569,258.347 192.569 C 238.698 192.569,230.635 192.589,240.429 192.613 M133.806 194.157 C 134.259 194.616,134.666 194.992,134.712 194.992 C 134.758 194.992,134.425 194.616,133.973 194.157 C 133.521 193.698,133.114 193.322,133.068 193.322 C 133.022 193.322,133.354 193.698,133.806 194.157 M165.546 206.479 C 165.479 206.587,165.493 206.798,165.577 206.948 C 165.774 207.300,165.938 207.029,165.784 206.605 C 165.704 206.386,165.628 206.345,165.546 206.479 M261.657 209.641 C 267.610 209.665,277.301 209.665,283.193 209.641 C 289.086 209.617,284.215 209.597,272.371 209.597 C 260.526 209.597,255.705 209.617,261.657 209.641 M241.951 219.115 C 241.952 219.574,241.985 219.742,242.023 219.489 C 242.061 219.235,242.060 218.859,242.021 218.654 C 241.981 218.448,241.950 218.656,241.951 219.115 M103.415 231.761 L 102.755 232.471 103.464 231.811 C 104.124 231.197,104.250 231.052,104.124 231.052 C 104.097 231.052,103.777 231.371,103.415 231.761 M200.417 232.387 C 200.776 232.755,201.107 233.055,201.153 233.055 C 201.199 233.055,200.943 232.755,200.584 232.387 C 200.226 232.020,199.895 231.720,199.849 231.720 C 199.803 231.720,200.059 232.020,200.417 232.387 M103.664 233.180 L 103.088 233.806 103.715 233.231 C 104.297 232.696,104.417 232.554,104.290 232.554 C 104.262 232.554,103.980 232.836,103.664 233.180 M142.960 298.790 C 174.255 298.813,225.416 298.813,256.650 298.790 C 287.884 298.766,262.279 298.747,199.750 298.747 C 137.220 298.747,111.665 298.766,142.960 298.790 " stroke="none" fill="#98d1c9" fill-rule="evenodd"></path><path id="path2" d="M142.960 106.469 C 174.255 106.492,225.416 106.492,256.650 106.469 C 287.884 106.446,262.279 106.427,199.750 106.427 C 137.220 106.427,111.665 106.446,142.960 106.469 M83.472 106.678 C 83.100 106.797,83.122 106.813,83.681 106.828 C 84.025 106.837,84.307 106.770,84.307 106.678 C 84.307 106.487,84.069 106.487,83.472 106.678 M314.858 106.678 C 314.858 106.770,315.215 106.837,315.651 106.828 C 316.297 106.815,316.367 106.787,316.027 106.678 C 315.423 106.485,314.858 106.485,314.858 106.678 M80.718 107.173 C 79.255 107.550,79.480 107.595,81.135 107.256 C 82.617 106.954,82.867 106.871,82.304 106.872 C 82.074 106.872,81.361 107.007,80.718 107.173 M317.767 107.113 C 318.403 107.240,318.953 107.313,318.989 107.277 C 319.083 107.183,317.417 106.841,316.978 106.864 C 316.776 106.875,317.131 106.987,317.767 107.113 M77.791 107.996 C 75.778 108.745,73.737 109.754,72.164 110.779 C 70.277 112.008,68.702 113.246,68.929 113.321 C 69.027 113.354,69.509 113.056,70.000 112.659 C 71.766 111.231,71.801 111.208,73.817 110.120 C 74.307 109.855,74.745 109.583,74.791 109.514 C 74.837 109.445,75.220 109.271,75.642 109.129 C 76.064 108.986,76.703 108.722,77.061 108.541 C 77.420 108.361,78.107 108.116,78.589 107.998 C 79.071 107.880,79.466 107.722,79.466 107.648 C 79.466 107.429,79.125 107.500,77.791 107.996 M319.866 107.679 C 319.866 107.771,320.014 107.846,320.194 107.846 C 320.375 107.846,320.870 107.964,321.295 108.109 C 321.721 108.253,322.103 108.337,322.145 108.294 C 322.219 108.220,320.278 107.513,320.001 107.513 C 319.927 107.513,319.866 107.588,319.866 107.679 M322.538 108.547 C 322.675 108.676,323.088 108.881,323.456 109.003 C 323.823 109.125,324.560 109.478,325.092 109.788 C 325.625 110.097,326.132 110.351,326.219 110.351 C 326.306 110.351,326.377 110.411,326.377 110.485 C 326.377 110.558,326.752 110.803,327.209 111.027 C 327.667 111.252,328.043 111.486,328.044 111.547 C 328.046 111.609,328.328 111.832,328.673 112.044 C 329.017 112.256,329.587 112.713,329.938 113.059 C 330.290 113.406,330.630 113.689,330.694 113.689 C 330.891 113.689,333.222 116.106,333.222 116.311 C 333.222 116.418,333.447 116.665,333.723 116.861 C 333.998 117.058,334.224 117.323,334.224 117.451 C 334.224 117.579,334.374 117.765,334.558 117.863 C 334.741 117.961,334.891 118.119,334.891 118.213 C 334.891 118.307,335.154 118.728,335.476 119.149 C 335.797 119.570,336.060 120.002,336.060 120.109 C 336.060 120.217,336.192 120.450,336.352 120.628 C 336.513 120.806,336.831 121.365,337.060 121.870 C 337.289 122.375,337.523 122.826,337.580 122.871 C 337.638 122.917,337.856 123.427,338.065 124.003 C 338.428 125.002,338.910 125.711,338.644 124.854 C 337.078 119.806,332.178 113.771,327.147 110.695 C 325.003 109.384,321.878 107.927,322.538 108.547 M65.626 116.463 C 64.281 117.988,61.294 122.871,61.273 123.581 C 61.259 124.013,61.612 123.557,61.950 122.705 C 62.169 122.154,62.391 121.703,62.444 121.703 C 62.497 121.703,62.724 121.290,62.948 120.786 C 63.172 120.282,63.410 119.869,63.477 119.868 C 63.544 119.867,63.753 119.566,63.940 119.199 C 64.127 118.831,64.354 118.531,64.444 118.531 C 64.534 118.531,64.608 118.449,64.608 118.349 C 64.608 118.179,66.018 116.405,66.339 116.171 C 66.419 116.113,66.453 115.971,66.415 115.856 C 66.374 115.734,66.046 115.987,65.626 116.463 M61.024 124.058 C 60.312 125.992,60.181 126.544,60.434 126.544 C 60.526 126.544,60.601 126.444,60.601 126.321 C 60.601 126.199,60.756 125.627,60.945 125.051 C 61.230 124.183,61.300 123.309,61.024 124.058 M338.792 125.626 C 339.159 127.210,339.317 127.713,339.448 127.713 C 339.533 127.713,339.547 127.581,339.481 127.421 C 339.415 127.260,339.291 126.835,339.206 126.475 C 339.121 126.116,338.976 125.703,338.883 125.557 C 338.743 125.336,338.728 125.347,338.792 125.626 M60.007 127.151 C 59.947 127.414,59.794 128.053,59.665 128.572 C 59.389 129.688,59.373 130.050,59.599 130.050 C 59.691 130.050,59.766 129.829,59.766 129.560 C 59.766 129.290,59.883 128.567,60.025 127.954 C 60.167 127.341,60.246 126.801,60.200 126.755 C 60.154 126.709,60.067 126.887,60.007 127.151 M340.067 131.970 C 340.067 132.506,340.119 132.891,340.184 132.827 C 340.302 132.708,340.261 131.193,340.135 131.066 C 340.098 131.027,340.067 131.434,340.067 131.970 M59.144 132.554 C 59.144 132.967,59.177 133.136,59.216 132.930 C 59.256 132.723,59.256 132.385,59.216 132.179 C 59.177 131.972,59.144 132.141,59.144 132.554 M340.316 202.588 C 340.316 240.601,340.336 256.127,340.359 237.090 C 340.382 218.053,340.382 186.951,340.359 167.975 C 340.336 148.998,340.316 164.574,340.316 202.588 M141.241 134.634 C 141.130 134.767,141.095 134.967,141.163 135.076 C 141.252 135.220,141.349 135.190,141.511 134.968 C 141.907 134.427,141.664 134.125,141.241 134.634 M148.493 135.066 C 148.420 135.185,148.672 135.204,149.276 135.127 C 150.444 134.978,150.509 134.891,149.453 134.891 C 148.984 134.891,148.552 134.970,148.493 135.066 M154.438 134.954 C 154.632 135.129,156.427 135.234,156.427 135.070 C 156.427 134.962,156.019 134.891,155.398 134.891 C 154.832 134.891,154.400 134.920,154.438 134.954 M144.992 135.600 C 144.073 135.791,143.285 135.994,143.239 136.052 C 143.040 136.302,141.833 136.550,141.718 136.365 C 141.539 136.074,141.068 136.343,141.068 136.737 C 141.068 136.954,141.148 137.056,141.277 137.002 C 142.145 136.640,144.924 135.824,146.160 135.568 C 146.987 135.397,147.437 135.256,147.162 135.255 C 146.886 135.254,145.910 135.409,144.992 135.600 M157.763 135.414 C 158.176 135.499,159.131 135.716,159.885 135.897 C 161.457 136.275,161.436 136.273,161.436 136.089 C 161.436 135.943,157.905 135.213,157.343 135.243 C 157.161 135.253,157.350 135.330,157.763 135.414 M138.105 136.171 C 137.877 136.263,137.814 136.728,138.030 136.728 C 138.104 136.728,138.254 136.638,138.364 136.528 C 138.732 136.160,138.596 135.973,138.105 136.171 M161.603 136.274 C 161.649 136.322,162.364 136.621,163.193 136.941 C 171.429 140.112,177.656 147.230,180.386 156.594 C 180.506 157.008,180.611 157.256,180.619 157.147 C 180.644 156.819,180.117 154.685,179.988 154.593 C 179.923 154.546,179.766 154.169,179.640 153.756 C 179.252 152.481,176.562 147.188,176.173 146.935 C 176.083 146.876,175.978 146.729,175.939 146.607 C 175.751 146.020,171.842 141.569,171.515 141.569 C 171.464 141.569,171.036 141.231,170.564 140.818 C 170.092 140.405,169.616 140.067,169.508 140.067 C 169.399 140.067,169.282 139.982,169.247 139.879 C 169.182 139.684,168.450 139.217,167.028 138.463 C 166.569 138.220,166.169 137.955,166.138 137.875 C 166.107 137.795,165.985 137.730,165.867 137.730 C 165.663 137.730,164.842 137.402,163.356 136.726 C 162.703 136.430,161.437 136.103,161.603 136.274 M155.634 136.843 C 155.795 136.885,156.058 136.885,156.219 136.843 C 156.379 136.801,156.248 136.767,155.927 136.767 C 155.605 136.767,155.474 136.801,155.634 136.843 M145.785 137.094 C 145.303 137.182,144.908 137.329,144.908 137.420 C 144.908 137.516,145.066 137.535,145.284 137.465 C 145.490 137.399,146.260 137.251,146.995 137.136 C 148.157 136.955,148.222 136.928,147.496 136.931 C 147.037 136.933,146.267 137.006,145.785 137.094 M157.262 137.070 C 157.675 137.144,158.201 137.202,158.431 137.200 L 158.848 137.195 158.431 137.062 C 158.201 136.988,157.675 136.930,157.262 136.932 L 156.511 136.937 157.262 137.070 M139.649 137.395 C 139.190 137.561,138.608 137.742,138.356 137.799 C 138.103 137.856,137.896 138.000,137.896 138.119 C 137.896 138.238,137.652 138.465,137.354 138.624 C 136.180 139.248,135.392 139.765,135.392 139.912 C 135.392 139.997,135.309 140.067,135.208 140.067 C 135.106 140.067,134.738 140.292,134.391 140.568 C 134.043 140.843,133.617 141.068,133.443 141.068 C 133.249 141.068,133.058 141.254,132.945 141.555 C 132.844 141.822,132.452 142.236,132.073 142.475 C 131.695 142.714,131.386 143.021,131.386 143.157 C 131.386 143.294,131.323 143.406,131.247 143.406 C 131.171 143.406,131.008 143.593,130.885 143.823 C 130.762 144.053,130.533 144.240,130.376 144.240 C 130.076 144.240,129.687 144.607,129.730 144.849 C 129.789 145.176,129.691 145.377,129.215 145.910 C 128.940 146.218,128.715 146.566,128.715 146.683 C 128.715 146.800,128.621 146.955,128.506 147.028 C 128.391 147.102,128.115 147.500,127.892 147.913 C 127.670 148.326,127.440 148.702,127.383 148.748 C 127.127 148.952,125.207 153.103,124.951 154.007 C 124.795 154.558,124.608 155.083,124.535 155.175 C 124.364 155.391,123.650 158.430,123.747 158.527 C 123.788 158.568,123.994 157.943,124.204 157.139 C 126.467 148.489,132.138 141.297,139.451 137.802 C 141.030 137.047,141.118 136.867,139.649 137.395 M159.182 137.396 C 159.646 137.595,159.973 137.595,159.850 137.396 C 159.793 137.304,159.544 137.234,159.297 137.240 C 158.896 137.251,158.884 137.268,159.182 137.396 M134.632 137.911 C 134.406 138.276,134.831 138.407,135.138 138.067 C 135.436 137.738,135.435 137.730,135.094 137.730 C 134.902 137.730,134.694 137.811,134.632 137.911 M142.404 138.023 C 141.899 138.169,141.445 138.349,141.395 138.422 C 141.345 138.496,140.857 138.702,140.310 138.880 C 139.278 139.216,137.354 140.194,137.257 140.432 C 137.226 140.506,137.123 140.568,137.028 140.568 C 136.934 140.568,136.498 140.831,136.060 141.152 C 135.622 141.473,135.181 141.736,135.079 141.736 C 134.978 141.736,134.800 141.886,134.686 142.070 C 134.571 142.254,134.385 142.404,134.271 142.404 C 134.158 142.404,133.260 143.212,132.275 144.199 C 129.966 146.514,129.716 146.791,129.716 147.033 C 129.716 147.143,129.566 147.314,129.382 147.412 C 129.199 147.511,129.048 147.672,129.048 147.771 C 129.048 147.871,128.788 148.306,128.471 148.739 C 128.153 149.172,127.817 149.726,127.724 149.971 C 127.630 150.217,127.487 150.417,127.406 150.417 C 127.324 150.417,127.123 150.774,126.958 151.210 C 126.793 151.646,126.605 152.041,126.539 152.087 C 126.473 152.133,126.245 152.583,126.031 153.088 C 125.818 153.593,125.592 154.044,125.528 154.090 C 125.395 154.187,124.704 156.369,124.716 156.654 C 124.721 156.759,124.949 156.281,125.223 155.593 C 128.833 146.516,134.633 140.905,143.489 137.924 C 144.319 137.645,143.429 137.726,142.404 138.023 M161.185 137.897 C 161.369 137.977,162.120 138.263,162.855 138.532 C 163.589 138.802,164.472 139.146,164.816 139.296 C 165.161 139.447,165.442 139.500,165.442 139.413 C 165.442 139.266,163.782 138.564,163.433 138.564 C 163.344 138.564,163.272 138.505,163.272 138.432 C 163.272 138.360,162.790 138.172,162.201 138.015 C 161.055 137.710,160.643 137.662,161.185 137.897 M133.264 139.343 C 133.149 139.389,133.055 139.582,133.055 139.773 C 133.055 140.108,133.065 140.109,133.389 139.816 C 133.889 139.364,133.823 139.117,133.264 139.343 M134.721 139.653 C 134.377 140.068,134.702 140.164,135.100 139.765 C 135.395 139.471,135.414 139.399,135.199 139.399 C 135.053 139.399,134.837 139.514,134.721 139.653 M165.693 139.733 C 165.750 139.825,165.879 139.900,165.981 139.900 C 166.082 139.900,166.735 140.252,167.432 140.682 C 173.255 144.278,177.570 149.907,179.951 157.012 C 180.320 158.114,180.625 158.892,180.628 158.742 C 180.645 157.989,178.540 152.369,178.136 152.087 C 178.070 152.041,177.880 151.644,177.714 151.205 C 177.549 150.766,177.330 150.352,177.229 150.287 C 177.128 150.221,176.871 149.810,176.658 149.374 C 176.445 148.938,176.206 148.581,176.126 148.581 C 176.047 148.581,175.934 148.427,175.874 148.239 C 175.814 148.050,175.565 147.674,175.320 147.403 C 175.075 147.132,174.687 146.666,174.457 146.368 C 173.788 145.499,170.589 142.404,170.361 142.404 C 170.246 142.404,170.112 142.297,170.061 142.166 C 170.011 142.035,169.703 141.801,169.376 141.646 C 169.049 141.491,168.781 141.303,168.781 141.229 C 168.781 141.154,168.575 140.984,168.322 140.851 C 168.070 140.719,167.450 140.376,166.945 140.091 C 166.024 139.571,165.500 139.421,165.693 139.733 M131.594 141.012 C 131.366 141.104,131.304 141.569,131.519 141.569 C 131.593 141.569,131.743 141.479,131.853 141.369 C 132.221 141.001,132.085 140.814,131.594 141.012 M129.774 142.829 C 129.607 143.264,129.873 143.323,130.259 142.937 L 130.625 142.571 130.249 142.571 C 130.042 142.571,129.828 142.687,129.774 142.829 M128.422 144.184 C 128.308 144.230,128.214 144.424,128.214 144.614 C 128.214 144.949,128.224 144.951,128.548 144.658 C 129.047 144.206,128.982 143.958,128.422 144.184 M126.753 145.853 C 126.525 145.946,126.462 146.411,126.678 146.411 C 126.751 146.411,126.902 146.321,127.012 146.210 C 127.380 145.842,127.244 145.655,126.753 145.853 M128.214 146.239 C 128.214 146.454,128.295 146.536,128.451 146.476 C 128.846 146.324,128.913 145.910,128.542 145.910 C 128.327 145.910,128.214 146.023,128.214 146.239 M126.745 147.613 C 126.472 147.885,126.493 148.080,126.795 148.080 C 126.932 148.080,127.045 148.049,127.045 148.010 C 127.045 147.972,127.091 147.822,127.146 147.676 C 127.266 147.365,127.030 147.327,126.745 147.613 M125.108 149.159 C 124.882 149.327,124.842 149.445,124.971 149.575 C 125.100 149.706,125.231 149.668,125.441 149.436 C 125.796 149.044,125.546 148.836,125.108 149.159 M124.932 151.009 C 124.765 151.444,125.031 151.504,125.417 151.118 L 125.784 150.751 125.407 150.751 C 125.201 150.751,124.987 150.867,124.932 151.009 M123.372 152.594 C 123.372 152.882,123.423 152.906,123.706 152.755 C 123.890 152.656,124.040 152.503,124.040 152.415 C 124.040 152.326,123.890 152.254,123.706 152.254 C 123.482 152.254,123.372 152.365,123.372 152.594 M123.581 154.034 C 123.353 154.126,123.290 154.591,123.506 154.591 C 123.579 154.591,123.730 154.501,123.840 154.391 C 124.208 154.023,124.072 153.836,123.581 154.034 M124.231 157.989 C 124.034 158.619,123.879 159.257,123.887 159.408 C 123.894 159.559,124.080 159.119,124.301 158.431 C 124.521 157.742,124.676 157.104,124.645 157.012 C 124.614 156.920,124.427 157.360,124.231 157.989 M121.760 157.353 C 121.706 157.494,121.707 157.655,121.762 157.710 C 121.881 157.829,122.371 157.452,122.371 157.242 C 122.371 156.990,121.864 157.082,121.760 157.353 M217.012 157.365 C 216.819 157.598,216.831 157.626,217.103 157.574 C 217.276 157.540,217.449 157.419,217.488 157.304 C 217.587 157.006,217.277 157.046,217.012 157.365 M180.728 157.930 C 180.919 158.887,181.112 159.282,181.125 158.742 C 181.130 158.500,181.017 158.087,180.874 157.824 L 180.612 157.346 180.728 157.930 M222.120 157.930 C 222.188 158.040,234.476 158.097,258.441 158.097 C 282.474 158.097,294.658 158.041,294.658 157.930 C 294.658 157.819,282.440 157.763,258.337 157.763 C 234.166 157.763,222.052 157.819,222.120 157.930 M220.701 158.097 C 220.701 158.296,221.155 158.296,221.619 158.097 C 221.887 157.982,221.829 157.951,221.327 157.942 C 220.983 157.935,220.701 158.005,220.701 158.097 M296.160 158.410 C 299.363 159.440,301.753 161.908,302.567 165.028 C 302.808 165.950,302.810 166.540,302.570 165.842 C 302.286 165.014,301.642 163.773,301.498 163.773 C 301.408 163.773,301.336 163.691,301.336 163.590 C 301.336 163.489,301.167 163.170,300.961 162.881 C 300.754 162.591,300.604 162.335,300.627 162.312 C 300.649 162.289,300.611 162.264,300.543 162.256 C 300.474 162.249,300.107 161.988,299.729 161.678 C 299.350 161.368,298.843 161.024,298.602 160.914 C 298.361 160.804,298.164 160.660,298.164 160.593 C 298.164 160.442,296.799 159.994,295.910 159.853 C 295.389 159.771,295.482 159.833,296.337 160.135 C 299.412 161.221,301.812 163.745,302.582 166.701 C 302.956 168.136,302.962 184.096,302.589 185.527 C 302.284 186.697,301.717 187.840,300.930 188.871 C 300.603 189.299,300.397 189.649,300.471 189.649 C 300.732 189.649,301.700 188.410,301.964 187.739 C 302.111 187.367,302.293 187.019,302.370 186.967 C 302.964 186.562,303.367 167.297,302.829 164.966 C 302.634 164.118,301.722 162.104,301.533 162.104 C 301.462 162.104,301.265 161.765,301.094 161.352 C 300.924 160.939,300.687 160.601,300.569 160.601 C 300.450 160.601,300.255 160.470,300.135 160.309 C 299.577 159.562,297.149 158.273,296.285 158.266 C 296.125 158.265,295.993 158.189,295.993 158.097 C 295.993 158.005,295.712 157.935,295.367 157.942 C 294.823 157.952,294.926 158.014,296.160 158.410 M219.128 158.600 C 218.676 158.777,218.263 158.981,218.210 159.055 C 218.157 159.129,217.911 159.319,217.663 159.476 C 217.138 159.810,216.810 159.545,217.304 159.185 C 217.473 159.060,217.558 158.904,217.491 158.838 C 217.307 158.654,216.861 159.097,216.861 159.464 C 216.861 159.983,216.530 160.471,216.250 160.363 C 216.100 160.306,216.025 160.346,216.065 160.465 C 216.154 160.732,215.662 161.230,215.401 161.139 C 215.286 161.099,215.192 161.149,215.192 161.251 C 215.192 161.353,215.265 161.436,215.353 161.436 C 215.442 161.436,215.292 161.766,215.019 162.169 C 214.747 162.573,214.524 162.984,214.524 163.083 C 214.524 163.181,214.374 163.549,214.191 163.901 C 213.970 164.325,213.832 164.988,213.783 165.868 C 213.713 167.096,213.717 167.121,213.844 166.194 C 214.322 162.677,216.620 159.884,220.219 158.445 C 220.565 158.306,220.574 158.285,220.284 158.282 C 220.100 158.281,219.580 158.424,219.128 158.600 M121.912 158.875 C 121.683 158.967,121.621 159.432,121.836 159.432 C 121.910 159.432,122.060 159.342,122.170 159.232 C 122.538 158.864,122.403 158.677,121.912 158.875 M123.234 160.142 C 122.876 162.756,122.803 164.274,123.036 164.274 C 123.195 164.274,123.220 164.060,123.136 163.424 C 123.068 162.911,123.085 162.613,123.179 162.672 C 123.367 162.787,123.553 161.722,123.366 161.602 C 123.295 161.556,123.280 161.293,123.335 161.018 C 123.433 160.521,123.435 160.520,123.539 160.935 C 123.597 161.164,123.646 160.770,123.647 160.058 C 123.651 158.374,123.471 158.411,123.234 160.142 M215.436 158.943 C 215.375 159.041,215.366 159.161,215.415 159.210 C 215.534 159.329,215.860 159.119,215.860 158.922 C 215.860 158.708,215.572 158.723,215.436 158.943 M181.158 159.808 C 181.250 160.106,181.330 160.952,181.336 161.686 C 181.344 162.712,181.383 162.925,181.504 162.604 C 181.718 162.033,181.407 159.265,181.128 159.265 C 181.053 159.265,181.067 159.510,181.158 159.808 M222.037 159.599 C 222.037 159.710,234.283 159.766,258.441 159.766 C 282.667 159.766,294.810 159.710,294.741 159.599 C 294.673 159.489,282.358 159.432,258.337 159.432 C 234.248 159.432,222.037 159.489,222.037 159.599 M220.022 160.007 C 218.366 160.463,216.429 161.899,215.149 163.617 C 214.828 164.048,214.253 165.492,214.109 166.229 C 214.037 166.598,214.066 166.572,214.250 166.105 C 215.418 163.131,217.613 161.027,220.534 160.081 C 221.577 159.744,221.182 159.686,220.022 160.007 M213.852 160.523 C 213.567 160.866,213.726 160.983,214.103 160.708 C 214.290 160.571,214.341 160.444,214.235 160.378 C 214.139 160.319,213.967 160.384,213.852 160.523 M215.436 160.612 C 215.375 160.710,215.366 160.830,215.415 160.879 C 215.534 160.999,215.860 160.788,215.860 160.591 C 215.860 160.378,215.572 160.392,215.436 160.612 M212.139 162.268 C 212.066 162.549,212.100 162.573,212.370 162.429 C 212.740 162.231,212.792 161.937,212.457 161.937 C 212.330 161.937,212.187 162.086,212.139 162.268 M213.823 162.227 C 213.541 162.566,213.817 162.691,214.161 162.380 C 214.330 162.228,214.518 162.153,214.579 162.214 C 214.641 162.276,214.691 162.243,214.691 162.142 C 214.691 161.892,214.049 161.956,213.823 162.227 M181.659 162.938 C 181.644 163.076,181.585 163.376,181.528 163.606 C 181.447 163.928,181.470 163.980,181.626 163.835 C 181.738 163.731,181.797 163.431,181.758 163.167 C 181.718 162.904,181.674 162.801,181.659 162.938 M212.180 163.953 C 212.011 164.270,212.024 164.283,212.341 164.114 C 212.532 164.012,212.688 163.856,212.688 163.767 C 212.688 163.480,212.371 163.596,212.180 163.953 M122.817 164.923 C 122.755 165.232,122.714 165.756,122.725 166.089 C 122.740 166.548,122.781 166.452,122.891 165.693 C 123.052 164.595,122.996 164.026,122.817 164.923 M181.757 165.310 C 181.795 165.558,181.838 167.192,181.852 168.941 C 181.866 170.689,181.935 172.120,182.007 172.120 C 182.078 172.120,182.137 170.580,182.137 168.698 C 182.137 166.708,182.072 165.275,181.982 165.275 C 181.897 165.275,181.796 165.182,181.758 165.067 C 181.719 164.952,181.719 165.061,181.757 165.310 M122.752 167.529 C 122.754 167.988,122.786 168.156,122.824 167.903 C 122.863 167.649,122.862 167.273,122.822 167.068 C 122.782 166.862,122.751 167.070,122.752 167.529 M213.735 168.114 C 213.735 168.527,213.768 168.696,213.807 168.489 C 213.847 168.283,213.847 167.944,213.807 167.738 C 213.768 167.531,213.735 167.700,213.735 168.114 M122.750 171.452 C 122.750 171.866,122.783 172.035,122.822 171.828 C 122.862 171.621,122.862 171.283,122.822 171.077 C 122.783 170.870,122.750 171.039,122.750 171.452 M123.076 174.958 C 123.074 175.371,123.132 175.897,123.205 176.127 L 123.339 176.544 123.343 176.127 C 123.346 175.897,123.287 175.371,123.214 174.958 L 123.080 174.207 123.076 174.958 M181.251 176.487 C 181.090 177.345,180.913 178.235,180.858 178.464 C 180.785 178.762,180.808 178.833,180.939 178.713 C 181.124 178.542,181.697 175.391,181.597 175.091 C 181.567 175.001,181.411 175.629,181.251 176.487 M123.384 176.993 C 123.378 177.241,123.447 177.489,123.539 177.546 C 123.739 177.669,123.739 177.342,123.539 176.878 C 123.411 176.580,123.394 176.592,123.384 176.993 M123.893 178.631 C 123.882 178.966,124.327 180.810,124.446 180.929 C 124.704 181.187,124.654 180.757,124.296 179.627 C 124.078 178.942,123.897 178.493,123.893 178.631 M180.270 180.434 C 179.827 181.719,179.770 181.970,179.920 181.970 C 180.062 181.970,180.705 179.814,180.596 179.706 C 180.565 179.675,180.418 180.003,180.270 180.434 M124.708 181.276 C 124.708 181.830,126.947 186.677,127.338 186.969 C 127.406 187.020,127.642 187.392,127.862 187.796 C 128.248 188.503,128.383 188.687,129.149 189.553 C 129.495 189.944,129.757 190.423,129.785 190.718 C 129.793 190.800,129.922 190.913,130.073 190.968 C 130.223 191.023,130.623 191.402,130.962 191.810 C 131.302 192.217,131.911 192.810,132.317 193.126 C 132.723 193.442,133.055 193.803,133.055 193.929 C 133.055 194.054,133.153 194.157,133.272 194.157 C 133.532 194.157,134.770 195.391,134.640 195.521 C 134.590 195.572,134.813 195.815,135.137 196.062 C 135.461 196.309,135.726 196.617,135.726 196.747 C 135.726 196.877,135.876 197.064,136.060 197.162 C 136.244 197.260,136.394 197.421,136.394 197.519 C 136.394 197.617,136.603 198.009,136.859 198.390 C 137.574 199.454,138.340 201.150,138.585 202.212 C 138.707 202.740,138.873 203.172,138.954 203.172 C 139.035 203.172,139.054 203.050,138.996 202.900 C 138.939 202.750,138.808 202.281,138.705 201.857 C 138.094 199.329,136.433 196.856,132.976 193.322 C 128.743 188.996,126.145 185.208,125.048 181.761 C 124.861 181.174,124.708 180.956,124.708 181.276 M213.737 182.387 C 213.738 182.846,213.771 183.014,213.809 182.761 C 213.848 182.507,213.847 182.131,213.807 181.926 C 213.767 181.721,213.736 181.928,213.737 182.387 M178.592 184.454 C 176.957 187.760,175.707 189.410,172.187 192.905 C 168.245 196.819,166.901 198.758,166.014 201.807 C 165.562 203.361,165.243 206.654,165.563 206.456 C 165.667 206.392,165.817 206.667,165.935 207.139 C 166.812 210.652,170.369 213.578,177.298 216.487 C 193.137 223.136,203.415 231.173,206.518 239.334 C 206.611 239.579,206.726 239.740,206.774 239.692 C 206.909 239.557,206.236 237.765,205.940 237.468 C 205.795 237.323,205.676 237.109,205.676 236.991 C 205.676 236.874,205.460 236.480,205.196 236.115 C 204.932 235.751,204.664 235.289,204.601 235.088 C 204.537 234.888,204.340 234.646,204.162 234.552 C 203.985 234.457,203.840 234.292,203.840 234.187 C 203.840 234.081,203.539 233.638,203.172 233.203 C 202.805 232.767,202.504 232.379,202.504 232.340 C 202.504 231.997,197.132 227.082,196.503 226.849 C 196.314 226.779,196.160 226.646,196.160 226.554 C 196.160 226.461,195.942 226.273,195.675 226.135 C 195.408 225.997,195.089 225.786,194.966 225.665 C 194.842 225.545,194.441 225.264,194.073 225.041 C 193.706 224.818,193.260 224.501,193.082 224.338 C 192.904 224.174,192.669 224.040,192.560 224.040 C 192.451 224.040,192.263 223.922,192.143 223.777 C 192.024 223.633,191.620 223.360,191.247 223.171 C 190.873 222.981,190.530 222.773,190.484 222.708 C 190.386 222.568,187.792 221.171,185.309 219.921 C 184.345 219.435,183.481 218.979,183.389 218.908 C 183.297 218.836,182.884 218.637,182.471 218.466 C 182.058 218.295,181.269 217.942,180.718 217.681 C 180.167 217.420,179.510 217.158,179.257 217.099 C 179.005 217.040,178.798 216.932,178.798 216.859 C 178.798 216.786,178.366 216.594,177.838 216.433 C 177.310 216.272,176.765 216.049,176.628 215.937 C 176.490 215.826,176.094 215.644,175.748 215.533 C 174.659 215.183,171.843 213.626,170.979 212.897 C 170.734 212.690,170.471 212.521,170.393 212.521 C 170.315 212.521,169.594 211.864,168.790 211.060 C 165.657 207.931,164.942 204.465,166.646 200.673 C 166.830 200.263,167.048 199.750,167.131 199.534 C 167.213 199.317,167.505 198.813,167.780 198.413 C 168.055 198.013,168.280 197.624,168.280 197.548 C 168.280 197.471,168.431 197.315,168.614 197.201 C 168.798 197.086,168.948 196.882,168.948 196.747 C 168.948 196.612,169.136 196.379,169.366 196.228 C 169.595 196.078,169.783 195.864,169.783 195.752 C 169.783 195.640,170.365 195.001,171.077 194.332 C 171.788 193.663,172.859 192.655,173.456 192.092 C 174.654 190.962,176.721 188.474,176.882 187.969 C 176.938 187.791,177.047 187.646,177.125 187.646 C 177.202 187.646,177.436 187.289,177.645 186.853 C 177.853 186.417,178.072 186.023,178.131 185.977 C 178.447 185.731,179.922 182.357,179.770 182.226 C 179.740 182.200,179.210 183.203,178.592 184.454 M213.740 184.140 C 213.740 184.645,213.771 184.852,213.809 184.599 C 213.847 184.347,213.847 183.934,213.809 183.681 C 213.771 183.429,213.740 183.635,213.740 184.140 M213.946 185.805 C 213.997 186.215,214.099 186.591,214.172 186.639 C 214.246 186.688,214.353 186.916,214.412 187.145 C 214.470 187.375,214.688 187.820,214.896 188.133 C 215.105 188.447,215.351 188.827,215.442 188.976 C 215.534 189.126,215.891 189.538,216.235 189.892 C 216.580 190.246,216.861 190.603,216.861 190.687 C 216.861 190.770,216.932 190.794,217.018 190.741 C 217.105 190.687,217.311 190.781,217.478 190.948 C 217.644 191.116,218.118 191.397,218.531 191.573 C 218.944 191.750,219.320 191.937,219.366 191.990 C 219.527 192.176,220.794 192.476,221.786 192.564 L 222.788 192.652 221.619 192.422 C 218.016 191.713,215.523 189.530,214.164 185.893 L 213.852 185.058 213.946 185.805 M299.416 190.430 C 298.471 191.252,296.507 192.153,295.103 192.407 C 294.445 192.527,294.132 192.630,294.407 192.636 C 295.043 192.652,297.192 192.201,297.318 192.026 C 297.370 191.953,297.750 191.746,298.164 191.566 C 298.875 191.256,300.311 190.069,300.156 189.919 C 300.116 189.881,299.783 190.111,299.416 190.430 M138.918 204.439 C 138.898 205.621,138.355 208.164,138.084 208.338 C 138.006 208.389,137.771 208.767,137.562 209.179 C 136.971 210.344,134.170 213.038,132.930 213.634 C 132.631 213.777,132.387 213.953,132.387 214.025 C 132.387 214.096,132.270 214.200,132.126 214.255 C 131.925 214.332,131.889 214.278,131.970 214.022 C 132.097 213.625,131.848 213.584,131.542 213.953 C 131.368 214.162,131.366 214.242,131.533 214.345 C 131.676 214.434,131.581 214.541,131.230 214.686 C 130.948 214.803,130.718 214.965,130.718 215.045 C 130.718 215.126,130.652 215.192,130.572 215.192 C 130.414 215.192,129.400 215.660,128.214 216.281 C 127.801 216.498,127.331 216.679,127.170 216.685 C 127.010 216.690,126.878 216.755,126.878 216.828 C 126.878 216.901,126.596 217.070,126.252 217.203 C 125.908 217.335,125.551 217.475,125.459 217.514 C 125.367 217.552,125.385 217.470,125.499 217.332 C 125.764 217.011,125.586 216.826,125.208 217.029 C 124.984 217.148,124.763 218.030,124.956 218.030 C 125.115 218.030,129.717 215.863,130.718 215.317 C 135.348 212.789,138.300 209.724,138.833 206.888 C 138.889 206.590,139.002 206.388,139.083 206.439 C 139.261 206.548,139.247 204.470,139.065 203.756 C 138.968 203.376,138.933 203.541,138.918 204.439 M136.285 207.436 C 136.230 207.578,136.231 207.739,136.286 207.794 C 136.405 207.913,136.895 207.536,136.895 207.325 C 136.895 207.073,136.389 207.165,136.285 207.436 M138.557 208.754 C 138.350 209.448,138.123 210.017,138.050 210.017 C 137.978 210.017,137.868 210.186,137.805 210.392 C 137.395 211.744,134.155 214.871,132.053 215.942 C 131.732 216.106,131.430 216.300,131.382 216.373 C 131.335 216.447,130.923 216.666,130.467 216.861 C 130.012 217.057,129.600 217.273,129.553 217.341 C 129.505 217.410,129.034 217.640,128.506 217.851 C 127.978 218.063,127.546 218.302,127.546 218.383 C 127.546 219.165,134.068 215.184,136.061 213.186 C 137.599 211.644,139.486 208.045,139.008 207.567 C 138.966 207.525,138.763 208.059,138.557 208.754 M165.875 208.431 C 166.356 211.905,170.365 215.360,177.116 218.118 C 192.122 224.248,201.984 231.721,206.100 240.079 C 206.598 241.090,206.832 241.444,206.755 241.068 C 206.623 240.421,205.390 237.971,204.852 237.287 C 204.662 237.047,204.508 236.750,204.508 236.628 C 204.508 236.506,204.357 236.325,204.174 236.227 C 203.990 236.129,203.838 235.957,203.835 235.846 C 203.827 235.521,202.745 234.289,200.588 232.148 C 197.984 229.564,197.602 229.215,197.368 229.215 C 197.261 229.215,197.093 229.065,196.995 228.881 C 196.897 228.698,196.729 228.548,196.623 228.548 C 196.516 228.548,196.237 228.368,196.002 228.150 C 195.768 227.931,195.050 227.404,194.407 226.980 C 193.765 226.555,193.120 226.096,192.974 225.959 C 192.829 225.822,192.653 225.710,192.584 225.710 C 192.515 225.710,192.146 225.495,191.764 225.233 C 190.665 224.479,188.730 223.372,188.513 223.372 C 188.403 223.372,188.314 223.315,188.314 223.245 C 188.314 223.175,187.919 222.933,187.437 222.708 C 186.955 222.483,186.523 222.249,186.477 222.189 C 186.432 222.128,185.981 221.904,185.476 221.691 C 184.971 221.478,184.520 221.250,184.474 221.184 C 184.427 221.119,184.052 220.931,183.639 220.767 C 183.226 220.603,182.797 220.378,182.685 220.268 C 182.573 220.158,182.066 219.937,181.558 219.777 C 181.050 219.618,180.634 219.428,180.634 219.356 C 180.634 219.284,180.240 219.098,179.758 218.943 C 179.276 218.787,178.731 218.567,178.548 218.453 C 178.364 218.339,177.725 218.075,177.129 217.864 C 176.532 217.654,176.006 217.432,175.960 217.370 C 175.914 217.308,175.407 217.084,174.833 216.872 C 174.259 216.660,173.790 216.426,173.790 216.351 C 173.790 216.277,173.629 216.165,173.433 216.103 C 173.008 215.968,171.147 214.810,170.771 214.446 C 170.625 214.305,170.432 214.190,170.342 214.190 C 169.540 214.190,166.652 210.373,166.022 208.481 L 165.783 207.763 165.875 208.431 M134.632 209.030 C 134.406 209.395,134.831 209.526,135.138 209.186 C 135.436 208.857,135.435 208.848,135.094 208.848 C 134.902 208.848,134.694 208.930,134.632 209.030 M136.391 209.103 C 136.274 209.242,136.226 209.403,136.283 209.460 C 136.404 209.581,136.895 209.208,136.895 208.995 C 136.895 208.765,136.623 208.823,136.391 209.103 M244.342 209.111 C 244.272 209.294,244.326 209.357,244.519 209.319 C 244.672 209.290,244.828 209.172,244.867 209.057 C 244.969 208.750,244.461 208.802,244.342 209.111 M248.419 209.765 C 247.917 209.886,247.479 210.068,247.445 210.168 C 247.412 210.268,247.268 210.351,247.127 210.351 C 246.784 210.351,245.018 211.565,244.263 212.320 C 243.416 213.167,242.539 214.734,242.327 215.776 C 242.245 216.180,242.280 216.148,242.507 215.609 C 243.853 212.425,246.693 210.175,249.954 209.707 L 251.002 209.557 250.167 209.551 C 249.708 209.547,248.921 209.643,248.419 209.765 M294.741 209.693 C 295.292 209.767,296.074 209.946,296.478 210.091 C 297.157 210.334,297.530 210.329,297.281 210.080 C 297.080 209.879,295.233 209.521,294.491 209.540 C 293.771 209.557,293.782 209.564,294.741 209.693 M133.264 210.461 C 133.036 210.553,132.973 211.018,133.189 211.018 C 133.361 211.018,133.723 210.657,133.723 210.484 C 133.723 210.338,133.586 210.331,133.264 210.461 M242.947 210.461 C 242.718 210.553,242.656 211.018,242.871 211.018 C 242.945 211.018,243.095 210.928,243.205 210.818 C 243.573 210.450,243.438 210.263,242.947 210.461 M297.496 210.422 C 297.496 210.461,297.895 210.722,298.384 211.001 C 300.110 211.989,301.705 214.017,302.467 216.194 L 302.846 217.279 302.758 216.456 C 302.709 216.004,302.557 215.510,302.420 215.358 C 302.283 215.206,302.170 215.006,302.170 214.912 C 302.170 214.678,301.645 213.628,301.468 213.509 C 301.389 213.456,301.186 213.155,301.018 212.841 C 300.849 212.527,300.633 212.270,300.538 212.270 C 300.442 212.270,300.202 212.064,300.003 211.811 C 299.804 211.559,299.535 211.352,299.404 211.352 C 299.273 211.352,299.165 211.285,299.165 211.202 C 299.165 211.120,298.862 210.894,298.492 210.701 C 297.850 210.367,297.496 210.267,297.496 210.422 M134.666 210.763 C 134.516 211.154,134.819 211.208,135.145 210.847 C 135.434 210.529,135.432 210.518,135.102 210.518 C 134.914 210.518,134.718 210.628,134.666 210.763 M244.407 210.782 C 244.407 211.077,244.767 211.025,244.870 210.716 C 244.906 210.607,244.817 210.518,244.672 210.518 C 244.526 210.518,244.407 210.636,244.407 210.782 M248.692 211.368 C 248.340 211.451,247.892 211.632,247.695 211.770 C 247.499 211.907,247.219 212.020,247.073 212.020 C 246.927 212.020,246.662 212.152,246.484 212.312 C 246.306 212.473,245.947 212.714,245.687 212.849 C 245.089 213.158,243.239 215.122,243.239 215.449 C 243.239 215.583,243.174 215.693,243.094 215.693 C 242.942 215.693,242.324 217.171,242.432 217.279 C 242.466 217.313,242.744 216.861,243.048 216.274 C 244.095 214.254,246.028 212.623,248.321 211.825 L 249.666 211.357 272.291 211.354 C 293.786 211.352,294.971 211.368,296.028 211.661 C 298.974 212.478,301.406 214.823,302.447 217.851 C 303.034 219.558,303.042 235.855,302.456 237.572 C 301.650 239.938,299.719 242.192,297.663 243.169 C 296.497 243.723,296.549 243.919,297.728 243.414 C 300.122 242.387,302.356 239.603,302.842 237.041 C 302.938 236.536,302.996 232.286,302.982 226.730 C 302.970 221.532,302.927 217.449,302.887 217.657 C 302.795 218.136,302.504 217.975,302.504 217.446 C 302.504 217.227,302.429 217.002,302.337 216.945 C 302.245 216.888,302.170 216.727,302.170 216.588 C 302.170 216.014,299.846 213.032,299.387 213.017 C 299.311 213.015,298.954 212.789,298.593 212.516 C 298.232 212.243,297.840 212.020,297.722 212.020 C 297.603 212.020,297.185 211.851,296.791 211.644 L 296.077 211.269 272.705 211.242 C 259.144 211.227,249.064 211.280,248.692 211.368 M131.443 212.278 C 131.389 212.419,131.389 212.580,131.444 212.635 C 131.563 212.754,132.053 212.377,132.053 212.167 C 132.053 211.915,131.547 212.007,131.443 212.278 M133.264 212.140 C 133.149 212.181,133.055 212.356,133.055 212.530 C 133.055 212.885,133.473 212.812,133.619 212.430 C 133.722 212.161,133.564 212.032,133.264 212.140 M241.068 212.354 C 241.068 212.732,241.242 212.782,241.536 212.487 C 241.830 212.193,241.781 212.020,241.402 212.020 C 241.180 212.020,241.068 212.131,241.068 212.354 M242.947 212.140 C 242.711 212.224,242.659 212.688,242.884 212.688 C 243.103 212.688,243.443 212.228,243.289 212.141 C 243.215 212.099,243.061 212.099,242.947 212.140 M128.214 214.018 C 128.214 214.389,128.628 214.322,128.780 213.927 C 128.840 213.771,128.758 213.689,128.542 213.689 C 128.327 213.689,128.214 213.803,128.214 214.018 M241.277 213.800 C 241.049 213.892,240.986 214.357,241.202 214.357 C 241.275 214.357,241.426 214.267,241.536 214.157 C 241.904 213.789,241.768 213.602,241.277 213.800 M125.163 215.381 C 124.818 215.574,124.783 215.860,125.105 215.860 C 125.391 215.860,125.775 215.419,125.589 215.304 C 125.514 215.258,125.322 215.292,125.163 215.381 M128.214 215.693 C 128.214 216.071,128.387 216.121,128.681 215.826 C 128.975 215.532,128.926 215.359,128.548 215.359 C 128.325 215.359,128.214 215.470,128.214 215.693 M241.822 217.404 C 241.599 219.571,241.800 237.027,242.051 237.262 C 242.246 237.445,242.260 237.414,242.142 237.062 C 241.961 236.523,241.857 218.213,242.037 218.488 C 242.113 218.605,242.168 218.184,242.163 217.528 C 242.151 216.079,241.966 216.011,241.822 217.404 M121.760 217.119 C 121.706 217.261,121.707 217.422,121.762 217.477 C 121.881 217.596,122.371 217.218,122.371 217.008 C 122.371 216.756,121.864 216.848,121.760 217.119 M123.543 218.385 C 123.133 218.567,122.757 218.774,122.709 218.844 C 122.661 218.915,122.479 219.025,122.305 219.089 C 122.035 219.189,122.021 219.169,122.204 218.948 C 122.322 218.806,122.372 218.643,122.315 218.587 C 122.170 218.442,121.679 218.877,121.750 219.088 C 121.781 219.184,121.240 219.550,120.546 219.903 C 119.853 220.255,119.260 220.466,119.228 220.372 C 119.106 220.004,118.531 220.192,118.531 220.600 C 118.531 220.913,118.379 221.060,117.822 221.283 C 117.432 221.439,117.075 221.616,117.029 221.676 C 116.918 221.822,115.925 222.371,115.772 222.371 C 115.706 222.371,115.745 222.258,115.860 222.120 C 116.033 221.911,116.009 221.870,115.713 221.870 C 115.518 221.870,115.350 221.945,115.338 222.037 C 115.327 222.129,115.298 222.279,115.275 222.371 C 115.253 222.462,115.224 222.609,115.213 222.697 C 115.201 222.784,114.873 223.012,114.482 223.202 C 113.471 223.696,112.286 224.382,112.188 224.531 C 112.017 224.788,111.258 225.107,110.914 225.066 C 110.653 225.035,110.529 225.139,110.450 225.456 C 110.390 225.694,110.174 225.954,109.970 226.035 C 109.766 226.116,109.449 226.299,109.265 226.443 C 107.862 227.541,107.173 228.047,107.084 228.047 C 107.026 228.047,106.769 228.253,106.513 228.506 C 105.525 229.480,104.857 229.959,104.481 229.962 C 104.200 229.965,104.089 230.064,104.084 230.312 C 104.078 230.675,103.642 231.297,103.097 231.720 C 102.852 231.910,102.807 231.915,102.913 231.740 C 103.009 231.580,102.980 231.533,102.820 231.587 C 102.692 231.630,102.588 231.809,102.588 231.985 C 102.588 232.160,102.337 232.567,102.031 232.888 C 101.724 233.210,101.330 233.625,101.154 233.812 C 100.978 233.999,100.835 234.243,100.835 234.353 C 100.835 234.464,100.684 234.649,100.501 234.763 C 100.317 234.878,100.167 235.031,100.167 235.103 C 100.167 235.175,99.904 235.616,99.583 236.083 C 99.261 236.550,98.998 237.001,98.998 237.084 C 98.998 237.168,98.819 237.516,98.599 237.858 C 98.379 238.201,98.067 238.894,97.906 239.399 C 97.745 239.904,97.563 240.355,97.502 240.401 C 97.440 240.447,97.259 241.085,97.098 241.820 C 96.938 242.554,96.737 243.286,96.651 243.445 C 96.565 243.605,96.496 243.943,96.499 244.196 C 96.506 244.848,96.756 244.369,96.912 243.406 C 97.512 239.683,100.907 233.857,104.153 230.981 C 104.433 230.732,104.467 230.624,104.303 230.506 C 104.155 230.399,104.185 230.383,104.399 230.453 C 104.619 230.524,104.973 230.311,105.625 229.715 C 107.966 227.576,112.579 224.457,116.781 222.171 C 118.005 221.506,118.963 220.891,118.910 220.805 C 118.857 220.720,118.894 220.700,118.994 220.761 C 119.137 220.849,124.400 218.394,124.690 218.103 C 124.869 217.924,124.226 218.082,123.543 218.385 M118.531 218.891 C 118.531 219.240,118.541 219.242,118.865 218.948 C 119.048 218.782,119.199 218.620,119.199 218.588 C 119.199 218.557,119.048 218.531,118.865 218.531 C 118.634 218.531,118.531 218.642,118.531 218.891 M125.710 219.131 C 125.021 219.460,123.851 220.023,123.109 220.382 C 122.367 220.741,121.673 221.035,121.565 221.035 C 121.457 221.035,121.369 221.096,121.369 221.171 C 121.369 221.246,120.937 221.485,120.409 221.701 C 119.881 221.918,119.412 222.138,119.366 222.192 C 119.320 222.245,118.681 222.585,117.947 222.948 C 117.212 223.310,116.215 223.854,115.731 224.157 C 115.247 224.460,114.783 224.708,114.700 224.708 C 114.616 224.708,114.449 224.802,114.327 224.917 C 114.206 225.032,113.806 225.276,113.439 225.460 C 113.072 225.643,112.659 225.887,112.521 226.002 C 112.125 226.332,110.065 227.659,109.777 227.769 C 109.633 227.824,109.516 227.938,109.516 228.021 C 109.516 228.105,109.289 228.267,109.011 228.382 C 108.733 228.497,108.452 228.675,108.385 228.778 C 108.258 228.974,107.251 229.716,107.112 229.716 C 106.960 229.716,101.957 234.570,101.503 235.159 C 100.230 236.807,99.833 237.370,99.833 237.528 C 99.833 237.630,99.734 237.773,99.612 237.846 C 99.491 237.920,99.215 238.356,98.998 238.815 C 98.781 239.274,98.548 239.688,98.480 239.735 C 98.343 239.829,97.833 241.221,97.838 241.486 C 97.839 241.578,98.233 240.901,98.712 239.983 C 100.008 237.498,103.264 233.158,104.250 232.600 C 104.376 232.529,104.805 232.169,105.203 231.799 C 107.514 229.654,111.625 226.749,115.109 224.797 C 115.568 224.540,116.544 223.993,117.279 223.582 C 118.410 222.948,120.199 222.063,126.628 218.955 C 127.087 218.733,127.350 218.547,127.212 218.543 C 127.074 218.538,126.398 218.803,125.710 219.131 M115.453 220.297 C 115.080 220.670,115.316 220.958,115.705 220.606 C 115.878 220.450,115.979 220.258,115.929 220.178 C 115.807 219.980,115.757 219.993,115.453 220.297 M112.184 221.957 C 112.067 222.097,112.019 222.258,112.076 222.315 C 112.197 222.436,112.688 222.063,112.688 221.849 C 112.688 221.619,112.416 221.678,112.184 221.957 M110.457 223.623 C 110.401 223.769,110.455 223.873,110.586 223.873 C 110.709 223.873,110.904 223.760,111.018 223.623 C 111.191 223.414,111.170 223.372,110.890 223.372 C 110.705 223.372,110.510 223.485,110.457 223.623 M112.187 223.706 C 112.089 223.890,112.071 224.040,112.148 224.040 C 112.325 224.040,112.688 223.681,112.688 223.506 C 112.688 223.247,112.363 223.376,112.187 223.706 M107.346 225.209 C 107.247 225.392,107.230 225.543,107.306 225.543 C 107.484 225.543,107.846 225.184,107.846 225.008 C 107.846 224.749,107.522 224.879,107.346 225.209 M105.676 226.878 C 105.578 227.062,105.560 227.212,105.637 227.212 C 105.814 227.212,106.177 226.853,106.177 226.678 C 106.177 226.419,105.853 226.548,105.676 226.878 M107.285 226.962 C 107.229 227.109,107.283 227.212,107.416 227.212 C 107.541 227.212,107.687 227.099,107.740 226.962 C 107.796 226.815,107.742 226.711,107.609 226.711 C 107.484 226.711,107.338 226.824,107.285 226.962 M104.083 228.392 C 103.888 228.708,104.173 228.787,104.464 228.496 C 104.724 228.236,104.725 228.214,104.470 228.214 C 104.318 228.214,104.144 228.294,104.083 228.392 M105.663 228.573 C 105.497 228.883,105.509 228.917,105.754 228.823 C 105.910 228.763,106.069 228.715,106.107 228.715 C 106.146 228.715,106.177 228.602,106.177 228.464 C 106.177 228.097,105.884 228.159,105.663 228.573 M102.671 229.883 C 102.539 229.965,102.486 230.087,102.554 230.155 C 102.621 230.223,102.764 230.191,102.871 230.083 C 103.124 229.831,102.983 229.690,102.671 229.883 M99.242 233.233 C 99.046 233.550,99.332 233.628,99.622 233.337 C 99.883 233.077,99.883 233.055,99.628 233.055 C 99.476 233.055,99.302 233.135,99.242 233.233 M101.000 233.307 C 100.832 233.509,100.843 233.556,101.055 233.556 C 101.367 233.556,101.570 233.284,101.357 233.152 C 101.274 233.101,101.114 233.171,101.000 233.307 M97.734 234.796 C 97.558 234.925,97.456 235.074,97.508 235.127 C 97.561 235.179,97.748 235.116,97.925 234.987 C 98.102 234.858,98.204 234.709,98.151 234.656 C 98.099 234.604,97.911 234.667,97.734 234.796 M99.366 234.925 C 99.092 235.198,99.113 235.402,99.403 235.291 C 99.662 235.191,99.902 234.725,99.694 234.725 C 99.624 234.725,99.476 234.815,99.366 234.925 M97.668 236.554 C 97.533 236.640,97.473 236.761,97.535 236.823 C 97.688 236.976,98.164 236.781,98.164 236.566 C 98.164 236.354,97.991 236.350,97.668 236.554 M96.070 238.075 C 96.009 238.172,96.000 238.293,96.049 238.342 C 96.169 238.461,96.494 238.251,96.494 238.054 C 96.494 237.840,96.206 237.854,96.070 238.075 M242.477 238.432 C 242.625 239.124,242.882 239.733,243.027 239.733 C 243.099 239.733,243.252 239.948,243.369 240.211 C 243.547 240.615,244.959 242.055,245.991 242.886 C 246.312 243.144,247.804 243.740,248.124 243.738 C 248.237 243.737,247.940 243.555,247.463 243.332 C 245.535 242.435,244.074 241.039,242.962 239.030 C 242.621 238.415,242.421 238.167,242.477 238.432 M206.850 239.989 C 206.847 240.084,206.989 240.572,207.164 241.074 C 207.340 241.576,207.537 242.272,207.602 242.620 C 207.667 242.969,207.755 243.218,207.799 243.174 C 207.932 243.042,207.313 240.420,207.076 240.107 C 206.955 239.947,206.853 239.894,206.850 239.989 M97.526 242.190 C 97.179 243.073,96.803 244.582,96.877 244.786 C 96.919 244.899,97.011 244.691,97.082 244.324 C 97.153 243.957,97.351 243.249,97.521 242.752 C 97.842 241.814,97.846 241.374,97.526 242.190 M206.846 241.778 C 206.847 241.801,207.035 242.346,207.265 242.988 C 207.662 244.099,207.687 243.699,207.305 242.362 C 207.170 241.891,206.835 241.464,206.846 241.778 M207.771 244.174 C 207.709 244.505,207.700 244.818,207.752 244.870 C 207.804 244.921,207.854 244.782,207.863 244.560 L 207.880 244.157 208.013 244.574 C 208.127 244.929,208.150 244.885,208.164 244.282 C 208.184 243.417,207.926 243.346,207.771 244.174 M248.414 243.882 C 248.414 244.062,249.259 244.247,249.979 244.224 C 250.471 244.208,250.463 244.198,249.833 244.057 C 249.466 243.975,248.996 243.869,248.790 243.821 C 248.583 243.773,248.414 243.800,248.414 243.882 M295.159 243.997 C 294.487 244.151,294.375 244.212,294.741 244.222 C 295.488 244.244,296.494 244.050,296.494 243.885 C 296.494 243.711,296.351 243.723,295.159 243.997 M96.327 247.732 C 96.327 249.209,96.389 250.417,96.464 250.417 C 96.539 250.417,96.582 249.403,96.559 248.164 C 96.532 246.742,96.578 245.910,96.684 245.910 C 96.921 245.910,96.788 245.199,96.536 245.116 C 96.375 245.063,96.327 245.659,96.327 247.732 M208.049 245.551 C 207.884 245.655,207.876 245.798,208.013 246.160 C 208.121 246.443,208.185 247.838,208.172 249.624 C 208.161 251.269,208.196 252.659,208.250 252.713 C 208.303 252.766,208.347 251.145,208.347 249.110 C 208.347 247.074,208.328 245.410,208.306 245.412 C 208.283 245.413,208.167 245.476,208.049 245.551 M96.506 251.284 C 96.499 251.531,96.569 251.780,96.661 251.836 C 96.860 251.960,96.860 251.632,96.661 251.169 C 96.533 250.870,96.516 250.883,96.506 251.284 M96.845 252.564 C 96.820 252.892,97.374 255.160,97.503 255.259 C 97.563 255.305,97.781 255.868,97.987 256.511 C 98.193 257.153,98.419 257.717,98.489 257.763 C 98.560 257.809,98.780 258.184,98.978 258.598 C 99.504 259.691,100.209 260.856,100.532 261.167 C 100.686 261.316,100.860 261.588,100.919 261.771 C 100.977 261.954,101.132 262.104,101.263 262.104 C 101.395 262.104,101.503 262.188,101.503 262.291 C 101.503 262.542,104.119 265.108,104.245 264.981 C 104.300 264.927,104.437 265.003,104.551 265.151 C 104.807 265.483,107.651 266.950,108.006 266.933 C 108.148 266.926,107.797 266.705,107.227 266.442 C 102.491 264.260,98.879 259.472,97.027 252.922 C 96.936 252.600,96.854 252.439,96.845 252.564 M207.952 253.393 C 207.877 253.698,207.859 253.992,207.914 254.046 C 208.103 254.235,208.204 253.953,208.147 253.397 L 208.090 252.838 207.952 253.393 M207.693 254.450 C 207.685 254.602,207.492 255.278,207.263 255.952 C 206.781 257.373,206.804 257.262,206.993 257.262 C 207.179 257.262,207.898 254.645,207.787 254.373 C 207.741 254.259,207.700 254.292,207.693 254.450 M206.276 258.394 C 203.921 263.213,199.394 266.815,194.825 267.504 C 194.527 267.549,194.575 267.573,194.992 267.586 C 195.697 267.608,196.895 267.356,197.579 267.040 C 197.855 266.913,198.418 266.672,198.831 266.504 C 199.245 266.337,199.680 266.106,199.799 265.992 C 199.918 265.878,200.282 265.658,200.607 265.504 C 201.183 265.231,203.533 263.019,204.312 262.019 C 204.525 261.744,204.882 261.294,205.104 261.018 C 205.327 260.743,205.509 260.434,205.509 260.331 C 205.509 260.229,205.668 259.943,205.863 259.696 C 206.213 259.251,206.913 257.609,206.801 257.497 C 206.769 257.465,206.533 257.868,206.276 258.394 M108.347 267.054 C 108.347 267.248,109.944 267.617,110.689 267.597 C 111.128 267.585,111.006 267.528,110.184 267.365 C 109.587 267.246,108.929 267.094,108.723 267.027 C 108.516 266.961,108.347 266.973,108.347 267.054 M59.144 272.621 C 59.144 273.034,59.177 273.203,59.216 272.997 C 59.256 272.790,59.256 272.452,59.216 272.245 C 59.177 272.039,59.144 272.208,59.144 272.621 M340.067 273.205 C 340.067 273.741,340.098 274.148,340.135 274.110 C 340.261 273.983,340.302 272.467,340.184 272.348 C 340.119 272.284,340.067 272.670,340.067 273.205 M339.839 275.231 C 339.780 275.662,339.764 276.047,339.803 276.086 C 339.843 276.125,339.927 275.809,339.991 275.383 C 340.055 274.957,340.071 274.573,340.027 274.529 C 339.983 274.485,339.898 274.801,339.839 275.231 M59.526 275.876 C 61.009 282.202,63.138 286.177,67.273 290.335 C 69.752 292.829,74.486 296.160,75.551 296.160 C 75.758 296.160,75.176 295.729,74.538 295.411 C 74.172 295.228,73.836 295.034,73.790 294.980 C 73.744 294.926,73.331 294.700,72.871 294.477 C 72.412 294.255,71.962 293.991,71.870 293.889 C 71.778 293.788,71.515 293.583,71.285 293.434 C 71.056 293.284,70.680 293.009,70.451 292.822 C 68.236 291.014,67.392 290.211,66.098 288.676 C 65.272 287.696,64.487 286.776,64.352 286.630 C 64.217 286.485,64.107 286.314,64.107 286.251 C 64.107 286.187,63.858 285.774,63.554 285.332 C 63.250 284.890,62.903 284.290,62.782 284.000 C 62.662 283.710,62.498 283.472,62.417 283.472 C 62.336 283.472,62.270 283.390,62.270 283.289 C 62.270 283.189,62.015 282.567,61.702 281.908 C 61.389 281.249,61.004 280.261,60.847 279.712 C 60.689 279.163,60.495 278.633,60.416 278.533 C 60.336 278.433,60.150 277.757,60.002 277.030 C 59.854 276.304,59.660 275.634,59.571 275.543 C 59.466 275.434,59.450 275.551,59.526 275.876 M339.516 276.586 C 339.477 276.655,339.276 277.406,339.070 278.255 C 338.863 279.105,338.637 279.800,338.566 279.800 C 338.496 279.800,338.393 280.031,338.336 280.314 C 338.128 281.355,335.939 285.540,335.436 285.860 C 335.320 285.933,335.225 286.086,335.225 286.200 C 335.225 286.477,334.239 287.621,334.230 287.354 C 334.227 287.239,334.139 287.145,334.036 287.145 C 333.908 287.145,333.916 287.226,334.060 287.400 C 334.176 287.540,334.242 287.686,334.206 287.725 C 334.170 287.764,333.915 288.060,333.639 288.383 C 332.595 289.606,330.738 291.486,330.574 291.486 C 330.480 291.486,330.304 291.617,330.184 291.778 C 329.850 292.225,328.548 293.194,328.548 292.996 C 328.548 292.900,328.481 292.821,328.399 292.821 C 328.318 292.821,328.261 292.948,328.274 293.104 C 328.287 293.259,328.144 293.466,327.957 293.563 C 327.770 293.660,327.507 293.840,327.373 293.962 C 327.063 294.244,325.652 295.053,324.833 295.417 C 324.271 295.667,323.992 295.993,324.341 295.993 C 324.624 295.993,328.024 293.890,329.299 292.927 C 334.198 289.224,338.560 282.515,339.652 277.003 C 339.751 276.502,339.682 276.289,339.516 276.586 M322.788 296.378 C 322.237 296.578,321.749 296.780,321.703 296.827 C 321.589 296.945,320.569 297.277,319.908 297.412 C 319.610 297.473,319.366 297.587,319.366 297.667 C 319.366 297.842,320.666 297.471,322.371 296.811 C 324.370 296.036,324.713 295.681,322.788 296.378 M75.793 296.241 C 75.793 296.325,76.629 296.700,77.268 296.903 C 78.009 297.138,77.598 296.728,76.814 296.450 C 75.950 296.143,75.793 296.111,75.793 296.241 M78.214 297.222 C 78.994 297.555,80.821 298.033,80.924 297.930 C 81.032 297.821,80.942 297.789,79.288 297.339 C 77.857 296.949,77.479 296.908,78.214 297.222 M318.531 297.830 C 318.531 298.039,318.708 298.039,319.032 297.830 C 319.234 297.699,319.210 297.667,318.907 297.665 C 318.700 297.664,318.531 297.738,318.531 297.830 M82.179 298.279 C 82.339 298.321,82.602 298.321,82.763 298.279 C 82.924 298.237,82.792 298.202,82.471 298.202 C 82.149 298.202,82.018 298.237,82.179 298.279 M83.431 298.448 C 83.637 298.488,83.975 298.488,84.182 298.448 C 84.389 298.409,84.220 298.376,83.806 298.376 C 83.393 298.376,83.224 298.409,83.431 298.448 M315.486 298.449 C 315.694 298.489,315.994 298.487,316.154 298.445 C 316.313 298.403,316.144 298.371,315.776 298.373 C 315.409 298.375,315.278 298.409,315.486 298.449 M142.195 298.623 C 173.804 298.646,225.528 298.646,257.137 298.623 C 288.746 298.599,262.884 298.580,199.666 298.580 C 136.448 298.580,110.586 298.599,142.195 298.623 " stroke="none" fill="#d1ebe7" fill-rule="evenodd"></path><path id="path3" d="M332.053 114.608 C 332.365 114.929,332.657 115.192,332.703 115.192 C 332.749 115.192,332.532 114.929,332.220 114.608 C 331.909 114.286,331.616 114.023,331.571 114.023 C 331.525 114.023,331.742 114.286,332.053 114.608 M200.000 230.269 C 200.000 230.298,200.244 230.542,200.543 230.812 L 201.085 231.302 200.595 230.760 C 200.138 230.254,200.000 230.140,200.000 230.269 M261.561 244.199 C 267.552 244.223,277.356 244.223,283.347 244.199 C 289.338 244.174,284.437 244.154,272.454 244.154 C 260.472 244.154,255.570 244.174,261.561 244.199 " stroke="none" fill="#6cbcb4" fill-rule="evenodd"></path><path id="path4" d="M150.626 136.843 C 150.787 136.885,151.050 136.885,151.210 136.843 C 151.371 136.801,151.240 136.767,150.918 136.767 C 150.597 136.767,150.465 136.801,150.626 136.843 M153.381 136.846 C 153.587 136.885,153.925 136.885,154.132 136.846 C 154.338 136.806,154.169 136.773,153.756 136.773 C 153.343 136.773,153.174 136.806,153.381 136.846 M181.682 172.454 C 181.682 172.867,181.714 173.036,181.754 172.830 C 181.794 172.623,181.794 172.285,181.754 172.078 C 181.714 171.872,181.682 172.041,181.682 172.454 M241.980 227.713 C 241.980 231.799,242.002 233.470,242.028 231.427 C 242.055 229.384,242.055 226.041,242.028 223.998 C 242.002 221.955,241.980 223.627,241.980 227.713 M332.126 290.526 L 331.636 291.068 332.179 290.578 C 332.684 290.121,332.798 289.983,332.669 289.983 C 332.640 289.983,332.396 290.227,332.126 290.526 " stroke="none" fill="#60b4aa" fill-rule="evenodd"></path></g></svg>