<?xml version="1.0" encoding="UTF-8" standalone="no"?>
<svg
   xmlns:dc="http://purl.org/dc/elements/1.1/"
   xmlns:cc="http://creativecommons.org/ns#"
   xmlns:rdf="http://www.w3.org/1999/02/22-rdf-syntax-ns#"
   xmlns:svg="http://www.w3.org/2000/svg"
   xmlns="http://www.w3.org/2000/svg"
   xmlns:sodipodi="http://sodipodi.sourceforge.net/DTD/sodipodi-0.dtd"
   xmlns:inkscape="http://www.inkscape.org/namespaces/inkscape"
   version="1.1"
   x="0px"
   y="0px"
   viewBox="0 0 100 100"
   enable-background="new 0 0 100 100"
   xml:space="preserve"
   id="svg2"
   inkscape:version="0.48.4 r9939"
   sodipodi:docname="kx-icon-infinity.svg"
   width="100%"
   height="100%"><metadata
     id="metadata14"><rdf:RDF><cc:Work
         rdf:about=""><dc:format>image/svg+xml</dc:format><dc:type
           rdf:resource="http://purl.org/dc/dcmitype/StillImage" /></cc:Work></rdf:RDF></metadata><defs
     id="defs12" /><sodipodi:namedview
     pagecolor="#ffffff"
     bordercolor="#666666"
     borderopacity="1"
     objecttolerance="10"
     gridtolerance="10"
     guidetolerance="10"
     inkscape:pageopacity="0"
     inkscape:pageshadow="2"
     inkscape:window-width="1865"
     inkscape:window-height="1056"
     id="namedview10"
     showgrid="false"
     inkscape:zoom="5.3400704"
     inkscape:cx="46.876454"
     inkscape:cy="45.505373"
     inkscape:window-x="55"
     inkscape:window-y="1104"
     inkscape:window-maximized="1"
     inkscape:current-layer="svg2"
     fit-margin-top="0"
     fit-margin-left="0"
     fit-margin-right="0"
     fit-margin-bottom="0"
     inkscape:snap-grids="true"
     inkscape:snap-page="false" /><path
     sodipodi:type="inkscape:offset"
     inkscape:radius="0.56373763"
     inkscape:original="M 24.8125 25.875 C 19.473033 25.875 14.124469 27.937511 10.0625 32 C 6.1280614 35.933399 3.96875 41.158037 3.96875 46.71875 C 3.96875 52.279463 6.1264842 57.533774 10.0625 61.46875 C 13.998328 65.404578 19.250826 67.5625 24.8125 67.5625 C 30.373213 67.5625 35.596948 65.403052 39.53125 61.46875 L 50.125 50.875 C 51.499434 52.872387 53.674795 55.172751 54.3125 55.8125 L 60.375 61.84375 A 0.81019975 0.81019975 0 0 0 60.40625 61.875 A 0.81019975 0.81019975 0 0 0 60.625 62.03125 C 64.478888 65.589312 69.444472 67.5625 74.71875 67.5625 C 80.280424 67.5625 85.533824 65.404716 89.46875 61.46875 C 93.404099 57.53444 95.59375 52.283476 95.59375 46.71875 C 95.59375 41.154024 93.402659 35.931831 89.46875 32 C 85.535342 28.064513 80.283476 25.875 74.71875 25.875 C 69.657419 25.875 64.901159 27.721859 61.15625 30.96875 C 61.149929 30.97423 61.131315 30.963262 61.125 30.96875 A 0.81019975 0.81019975 0 0 0 60.78125 31.1875 L 48.59375 43.375 C 48.225066 42.471503 47.856309 41.570144 47.3125 40.65625 C 46.533326 39.346815 45.793309 38.262639 45.25 37.71875 L 39.53125 32 C 35.470355 27.939105 30.151967 25.875 24.8125 25.875 z M 24.8125 32.28125 C 28.510763 32.281487 32.21341 33.68216 35.03125 36.5 L 40.75 42.21875 C 41.534544 43.000785 43.913581 44.916171 46 45.96875 L 35.03125 56.9375 C 32.298525 59.668328 28.674699 61.15625 24.8125 61.15625 C 20.950301 61.15625 17.325346 59.668148 14.59375 56.9375 C 11.863036 54.205838 10.375 50.582001 10.375 46.71875 C 10.375 42.856285 11.86136 39.231442 14.59375 36.5 C 17.412183 33.682041 21.114376 32.281013 24.8125 32.28125 z M 74.71875 32.28125 C 78.416881 32.281487 82.119669 33.682169 84.9375 36.5 C 87.669199 39.232648 89.15625 42.856418 89.15625 46.71875 C 89.15625 50.58003 87.668953 54.206047 84.9375 56.9375 C 82.207099 59.667901 78.579898 61.15625 74.71875 61.15625 C 70.855499 61.15625 67.230534 59.668034 64.5 56.9375 L 58.84375 51.28125 C 58.567218 51.005013 58.215612 50.730276 57.71875 50.40625 C 57.221888 50.082224 56.597621 49.742921 55.9375 49.375 C 54.983284 48.843163 53.981314 48.408307 53 48 L 64.375 36.625 L 64.5 36.5 C 67.317864 33.682136 71.020757 32.281013 74.71875 32.28125 z "
     id="path3961"
     d="m 24.8125,25.3125 c -5.484639,0 -10.986787,2.111253 -15.15625,6.28125 -4.0380214,4.036954 -6.25,9.418348 -6.25,15.125 0,5.706545 2.2093875,11.116705 6.25,15.15625 4.040301,4.040301 9.448756,6.25 15.15625,6.25 5.706661,0 11.087207,-2.212207 15.125,-6.25 L 50.09375,51.71875 c 1.397438,1.90083 3.209186,3.894752 3.8125,4.5 l 6.0625,6.03125 c 0.0049,0.0049 0.02502,-0.0062 0.03125,0 0.0062,0.0062 -0.0049,0.02639 0,0.03125 l 0.03125,0 c 0.01122,0.01081 0.02974,0.02986 0.03125,0.03125 0.0025,0.0023 0.02864,0.02904 0.03125,0.03125 0.0026,0.0022 0.02855,0.02915 0.03125,0.03125 0.0027,0.0021 0.05971,0.02926 0.0625,0.03125 0.0028,0.002 0.02838,0.06063 0.03125,0.0625 0.0029,0.0019 0.05956,-0.0018 0.0625,0 0.0029,0.0018 0.02824,0.02962 0.03125,0.03125 0.003,0.0016 0.05942,0.02975 0.0625,0.03125 3.938412,3.584054 8.981905,5.59375 14.34375,5.59375 5.707484,0 11.116786,-2.209468 15.15625,-6.25 4.038773,-4.037706 6.28125,-9.443641 6.28125,-15.15625 0,-5.712706 -2.24484,-11.090722 -6.28125,-15.125 -4.036869,-4.039003 -9.443651,-6.28125 -15.15625,-6.28125 -5.136083,0 -9.959199,1.866699 -13.78125,5.125 -0.005,0.0016 -0.05764,0.02933 -0.0625,0.03125 -0.0128,0.0064 -0.01896,-0.0061 -0.03125,0 -0.02271,0.0098 -0.05919,0.0297 -0.0625,0.03125 -9.45e-4,4.44e-4 0.005,0.02871 0,0.03125 -0.01005,0.0051 -0.01714,-0.0072 -0.03125,0 -0.01411,0.0072 -0.02942,-0.001 -0.03125,0 -0.0046,0.0025 -0.08935,0.0597 -0.09375,0.0625 -0.0044,0.0028 -0.05828,0.02817 -0.0625,0.03125 -0.0042,0.0031 -0.05849,0.05916 -0.0625,0.0625 -0.004,0.0033 -0.05871,0.05891 -0.0625,0.0625 -0.0028,0.0027 -0.04559,0.01413 -0.0625,0.03125 l 0,0.03125 L 48.75,42.40625 C 48.4676,41.737595 48.227007,41.071596 47.8125,40.375 47.023042,39.048282 46.283401,37.94032 45.65625,37.3125 L 39.9375,31.59375 C 35.770123,27.426373 30.297252,25.3125 24.8125,25.3125 z m 0,7.53125 c 3.555948,2.28e-4 7.103209,1.353209 9.8125,4.0625 l 5.71875,5.71875 c 0.773738,0.771263 2.77866,2.321957 4.75,3.4375 L 34.625,56.53125 c -2.628884,2.62706 -6.095089,4.0625 -9.8125,4.0625 -3.717394,0 -7.184841,-1.435753 -9.8125,-4.0625 -2.626867,-2.627779 -4.0625,-6.094008 -4.0625,-9.8125 0,-3.717839 1.434182,-7.185094 4.0625,-9.8125 2.709947,-2.709491 6.256781,-4.062728 9.8125,-4.0625 z m 49.90625,0 c 3.55581,2.28e-4 7.103224,1.353224 9.8125,4.0625 2.627845,2.628758 4.0625,6.094866 4.0625,9.8125 0,3.716519 -1.435087,7.185087 -4.0625,9.8125 -2.626314,2.626314 -6.096221,4.0625 -9.8125,4.0625 -3.718474,0 -7.185945,-1.435945 -9.8125,-4.0625 L 59.25,50.875 C 58.936654,50.561988 58.548311,50.274698 58.03125,49.9375 57.504245,49.593816 56.875595,49.241095 56.21875,48.875 55.486195,48.466707 54.742619,48.13328 54,47.8125 l 10.78125,-10.78125 0.125,-0.125 c 2.709326,-2.709326 6.256927,-4.062728 9.8125,-4.0625 z"
     transform="translate(0,2.9962152)" /></svg>
