<?xml version="1.0" encoding="UTF-8" standalone="no"?>
<svg width="36px" height="36px" viewBox="0 0 36 36" version="1.1" xmlns="http://www.w3.org/2000/svg" xmlns:xlink="http://www.w3.org/1999/xlink">
    <!-- Generator: Sketch 46.1 (44463) - http://www.bohemiancoding.com/sketch -->
    <title>Group 8</title>
    <desc>Created with Sketch.</desc>
    <defs></defs>
    <g id="SLDS" stroke="none" stroke-width="1" fill="none" fill-rule="evenodd">
        <g id="New-Segment" transform="translate(-730.000000, -510.000000)">
            <g id="Group-8" transform="translate(731.000000, 511.000000)">
                <g id="Group-5" stroke="#209ED9" fill="#FFFFFF">
                    <circle id="Oval-2" cx="17" cy="17" r="17"></circle>
                </g>
                <g id="Group-9" transform="translate(8.000000, 9.000000)">
                    <g id="orders" transform="translate(0.000000, 7.000000)" fill="#209ED9">
                        <path d="M17.625,5.375 L16.5,4.875 C16.375,4.75 16.25,4.75 16,4.875 L9.625,7.875 C9.25,8.125 8.75,8.125 8.375,7.875 L2,4.875 C1.75,4.75 1.625,4.75 1.5,4.875 L0.375,5.375 C-0.125,5.625 -0.125,6.25 0.375,6.5 L8.375,10.25 C8.75,10.5 9.25,10.5 9.625,10.25 L17.625,6.5 C18.125,6.25 18.125,5.625 17.625,5.375 L17.625,5.375 Z M17.625,1.125 L16.5,0.625 L16,0.625 L9.625,3.75 C9.25,3.875 8.75,3.875 8.375,3.75 L2,0.625 L1.5,0.625 L0.375,1.125 C-0.125,1.375 -0.125,2 0.375,2.25 L8.375,6.125 C8.75,6.25 9.25,6.25 9.625,6.125 L17.625,2.375 C18.125,2.125 18.125,1.375 17.625,1.125 Z" id="Shape"></path>
                    </g>
                    <path d="M0.375,5.125 L8.375,8.875 C8.75,9.125 9.25,9.125 9.625,8.875 L17.625,5.125 C18.125,4.875 18.125,4.25 17.625,4 L9.625,0.125 C9.25,1.14491749e-16 8.75,1.14491749e-16 8.375,0.125 L0.375,4 C-0.125,4.25 -0.125,4.875 0.375,5.125 Z" id="Path" stroke="#209ED9"></path>
                </g>
            </g>
        </g>
    </g>
</svg>