<?xml version="1.0" encoding="utf-8"?>
<!-- Generator: Adobe Illustrator 16.0.0, SVG Export Plug-In . SVG Version: 6.00 Build 0)  -->
<!DOCTYPE svg PUBLIC "-//W3C//DTD SVG 1.1//EN" "http://www.w3.org/Graphics/SVG/1.1/DTD/svg11.dtd">
<svg version="1.1" id="Layer_1" xmlns="http://www.w3.org/2000/svg" xmlns:xlink="http://www.w3.org/1999/xlink" x="0px" y="0px"
	  viewBox="0 0 110 110" enable-background="new 0 0 110 110" xml:space="preserve">
<g id="real_time_1_">
	<g>
		<circle fill="none" stroke="#000000" stroke-width="2.5" stroke-miterlimit="10" cx="55.088" cy="54.912" r="30.289"/>

			<line fill="none" stroke="#000000" stroke-width="2.5" stroke-linecap="round" stroke-miterlimit="10" x1="55.088" y1="33.194" x2="55.088" y2="24.623"/>

			<line fill="none" stroke="#000000" stroke-width="2.5" stroke-linecap="round" stroke-miterlimit="10" x1="55.088" y1="85.2" x2="55.088" y2="76.63"/>

			<line fill="none" stroke="#000000" stroke-width="2.5" stroke-linecap="round" stroke-miterlimit="10" x1="70.444" y1="39.555" x2="76.507" y2="33.496"/>

			<line fill="none" stroke="#000000" stroke-width="3" stroke-linecap="round" stroke-miterlimit="10" x1="80.364" y1="29.636" x2="76.507" y2="33.496"/>

			<line fill="none" stroke="#000000" stroke-width="2.5" stroke-linecap="round" stroke-miterlimit="10" x1="33.671" y1="76.329" x2="39.73" y2="70.27"/>

			<line fill="none" stroke="#000000" stroke-width="2.5" stroke-linecap="round" stroke-miterlimit="10" x1="76.806" y1="54.912" x2="85.377" y2="54.912"/>

			<line fill="none" stroke="#000000" stroke-width="2.5" stroke-linecap="round" stroke-miterlimit="10" x1="24.799" y1="54.912" x2="33.37" y2="54.912"/>

			<line fill="none" stroke="#000000" stroke-width="2.5" stroke-linecap="round" stroke-miterlimit="10" x1="70.444" y1="70.269" x2="76.507" y2="76.329"/>

			<line fill="none" stroke="#000000" stroke-width="2.5" stroke-linecap="round" stroke-miterlimit="10" x1="33.671" y1="33.496" x2="39.73" y2="39.555"/>
	</g>
	<g>
		<path  d="M67.961,67.266L60.24,52.499c-0.338-0.733-0.822-1.412-1.457-1.989c-2.534-2.309-6.458-2.126-8.767,0.407
			c-2.308,2.533-2.125,6.456,0.409,8.765c0.48,0.436,1.008,0.786,1.568,1.043l-0.001,0.001L67.961,67.266z"/>
		<path d="M84.224,35.552c0,0-3.343-2.839-5.211-4.708c-1.87-1.869-4.564-5.067-4.564-5.067l3.522-3.522
			c0,0,3.271,2.623,5.211,4.563c1.939,1.939,4.563,5.21,4.563,5.21L84.224,35.552z"/>
	</g>
</g>
<g id="outer_circle_1_">
	<path  d="M55,5.333C27.614,5.333,5.333,27.613,5.333,55c0,27.387,22.281,49.667,49.667,49.667
		c27.385,0,49.667-22.28,49.667-49.667C104.667,27.613,82.385,5.333,55,5.333z M55,101.529C29.342,101.529,8.47,80.655,8.47,55
		C8.47,29.344,29.342,8.47,55,8.47c26.972,0,46.529,22.471,46.529,46.53C101.529,80.655,80.656,101.529,55,101.529z"/>
</g>
</svg>
