<?xml version="1.0" encoding="utf-8"?>
<!-- Generated by IcoMoon.io -->
<!DOCTYPE svg PUBLIC "-//W3C//DTD SVG 1.1//EN" "http://www.w3.org/Graphics/SVG/1.1/DTD/svg11.dtd">
<svg version="1.1" xmlns="http://www.w3.org/2000/svg" xmlns:xlink="http://www.w3.org/1999/xlink" width="1024" height="1024" viewBox="0 0 1024 1024">
<g id="icomoon-ignore">
</g>
<path d="M961.714 338.393l-424 423.429c-7.238 7.238-15.81 10.857-25.714 10.857s-18.476-3.619-25.714-10.857l-424-423.429c-7.238-7.238-10.857-15.904-10.857-26s3.619-18.762 10.857-26l24.786-24.215c7.238-7.238 15.809-10.856 25.714-10.856s18.476 3.618 25.714 10.856l373.894 373.894 373.5-373.5c7.238-7.238 15.81-10.857 25.714-10.857s18.477 3.619 25.715 10.857l24.392 23.821c7.238 7.238 10.857 15.904 10.857 26s-3.62 18.761-10.858 26v0z"></path>
</svg>
