<?xml version="1.0" encoding="utf-8"?>
<!-- Generated by IcoMoon.io -->
<!DOCTYPE svg PUBLIC "-//W3C//DTD SVG 1.1//EN" "http://www.w3.org/Graphics/SVG/1.1/DTD/svg11.dtd">
<svg version="1.1" xmlns="http://www.w3.org/2000/svg" xmlns:xlink="http://www.w3.org/1999/xlink" width="951" height="1024" viewBox="0 0 951 1024">
<g id="icomoon-ignore">
</g>
<path d="M817.663 222.812h-684.326c-14.796 0-26.835 12.038-26.835 26.835v415.045c0 14.795 12.038 26.836 26.835 26.836h67.507v49.301c0 14.794 12.038 26.837 26.835 26.837h167.229v6.688c0 14.794 12.038 26.835 26.836 26.835h251.893c14.796 0 26.837-12.041 26.837-26.835v-82.827h117.189c14.796 0 26.836-12.041 26.836-26.836v-415.044c-0.001-14.797-12.042-26.835-26.836-26.835v0zM234.999 674.45v-295.473h228.828v234.459h-42.083c-14.798 0-26.836 12.041-26.836 26.836v93.237h-159.91v-59.059zM666.32 767.035h-237.257v-119.443h237.257v119.443zM810.344 657.373h-109.87v-17.101c0-14.795-12.041-26.836-26.836-26.836h-175.657v-241.777c0-14.797-12.043-26.836-26.837-26.836h-243.464c-14.797 0-26.835 12.039-26.835 26.836v285.714h-60.188v-400.408h669.688v400.408h-0.001z"></path>
</svg>
