<?xml version="1.0" encoding="utf-8"?>
<!-- Generator: Adobe Illustrator 16.0.0, SVG Export Plug-In . SVG Version: 6.00 Build 0)  -->
<!DOCTYPE svg PUBLIC "-//W3C//DTD SVG 1.1//EN" "http://www.w3.org/Graphics/SVG/1.1/DTD/svg11.dtd">
<svg version="1.1" id="Layer_1" xmlns="http://www.w3.org/2000/svg" xmlns:xlink="http://www.w3.org/1999/xlink" x="0px" y="0px"
	  viewBox="0 0 110 110" enable-background="new 0 0 110 110" xml:space="preserve">
<g>
	<path stroke-miterlimit="10" d="M55,105.188C27.326,105.188,4.812,82.674,4.812,55
		S27.326,4.812,55,4.812S105.188,27.326,105.188,55S82.674,105.188,55,105.188z M55,7.312C28.705,7.312,7.312,28.705,7.312,55
		S28.705,102.688,55,102.688c26.296,0,47.688-21.393,47.688-47.688S81.296,7.312,55,7.312z"/>
</g>
<g>
	<path stroke-miterlimit="10" d="M76.518,28.552c-5.918-5.917-12.19-3.844-15.767-0.27
		l-8.205,8.206c-0.578,0.578-0.578,1.516,0,2.096c0.578,0.578,1.517,0.578,2.095,0l8.205-8.207
		c5.246-5.244,10.188-1.119,11.576,0.27c1.998,2,6.07,7.225,0.732,12.562L62.497,55.868c-5.535,5.534-10.099,2.164-11.806,0.458
		c-0.578-0.578-1.516-0.578-2.096,0c-0.578,0.578-0.578,1.517,0,2.096c2.009,2.008,4.709,3.473,7.713,3.473
		c2.614,0,5.461-1.105,8.282-3.932L77.25,45.305C83.157,39.4,80.743,32.779,76.518,28.552z"/>
	<path stroke-miterlimit="10" d="M54.269,68.564l-2.095-2.096l-8.338,8.34
		c-1.882,1.881-3.928,2.738-6.077,2.553c-1.889-0.164-3.841-1.168-5.498-2.824c-1.819-1.818-2.991-3.9-3.298-5.862
		c-0.372-2.373,0.491-4.627,2.563-6.698l12.658-12.66c5.595-5.594,10.166-2.23,11.873-0.523c0.578,0.578,1.518,0.578,2.094,0
		c0.578-0.578,0.578-1.516,0-2.095c-5.732-5.733-12.234-3.302-16.062,0.524L29.432,59.88c-2.741,2.741-3.915,5.94-3.396,9.253
		c0.517,3.303,2.531,5.9,4.129,7.5c2.149,2.148,4.755,3.456,7.336,3.68c0.276,0.025,0.551,0.037,0.825,0.037
		c2.725,0,5.338-1.182,7.604-3.447L54.269,68.564z"/>
</g>
</svg>
