<?xml version="1.0" encoding="UTF-8"?>
<svg width="826px" height="883px" viewBox="0 0 826 883" version="1.1" xmlns="http://www.w3.org/2000/svg" xmlns:xlink="http://www.w3.org/1999/xlink">
    <!-- Generator: Sketch 51.3 (57544) - http://www.bohemiancoding.com/sketch -->
    <title>Group</title>
    <desc>Created with Sketch.</desc>
    <defs></defs>
    <g id="Page-1" stroke="none" stroke-width="1" fill="none" fill-rule="evenodd">
        <g id="Group" fill="#1E6A8F">
            <path d="M691.009054,542 L637.795715,542 C670.193904,491.868401 689,432.1304 689,368 C689,190.716595 545.283405,47 368,47 C190.716595,47 47,190.716595 47,368 C47,545.283405 190.716595,689 368,689 C372.690847,689 377.358194,688.899383 382,688.700188 L382,734.719187 C377.189815,734.90582 372.355906,735 367.5,735 C164.535354,735 0,570.464646 0,367.5 C0,164.535354 164.535354,0 367.5,0 C570.464646,0 735,164.535354 735,367.5 C735,430.65365 719.070016,490.086652 691.009054,542 Z" id="Combined-Shape"></path>
            <g id="email-copy" transform="translate(452.000000, 610.000000)">
                <path d="M178.556246,170.551933 C183.6075,175.333763 190.342505,175.333763 195.393758,170.551933 L370.503889,15.939433 C373.871391,9.56365981 373.871391,0 360.401381,0 L13.5486232,1.5939433 C3.44611568,1.5939433 -4.97264058,9.56365981 3.44611568,15.939433 L178.556246,170.551933 L178.556246,170.551933 Z M373.871391,76.5092784 C373.871391,68.5395619 363.768884,63.757732 358.71763,70.1335052 L220.650027,189.679253 C210.54752,197.648969 198.761261,202.430799 186.975002,202.430799 C175.188743,202.430799 163.402485,197.648969 153.299977,189.679253 L16.9161257,70.1335052 C10.1811207,63.757732 1.76236442,68.5395619 1.76236442,76.5092784 C0.0786131732,109.982088 0.0786131732,199.242913 0.0786131732,243.873325 C0.0786131732,259.812758 15.2323744,272.564304 32.069887,272.564304 L341.880117,272.564304 C358.71763,272.564304 373.871391,259.812758 373.871391,243.873325 L373.871391,76.5092784 L373.871391,76.5092784 Z" id="Shape"></path>
            </g>
            <path d="M464.308968,324.914968 L442.709898,410.751273 L494.507625,410.751273 C495.05991,410.751273 495.507625,411.198988 495.507625,411.751273 L495.507625,448.229617 C495.507625,448.781902 495.05991,449.229617 494.507625,449.229617 L432.630331,449.229617 L413.141016,526.909591 C413.029427,527.354361 412.629632,527.666241 412.171078,527.666241 L366.722735,527.666241 C366.17045,527.666241 365.722735,527.218526 365.722735,526.666241 C365.722735,526.582275 365.73331,526.498642 365.754211,526.417319 L385.592356,449.229617 L308.795662,449.229617 L289.306346,526.909591 C289.194757,527.354361 288.794962,527.666241 288.336408,527.666241 L242.888065,527.666241 C242.33578,527.666241 241.888065,527.218526 241.888065,526.666241 C241.888065,526.582275 241.89864,526.498642 241.919541,526.417319 L261.757686,449.229617 L209,449.229617 C208.447715,449.229617 208,448.781902 208,448.229617 L208,411.751273 C208,411.198988 208.447715,410.751273 209,410.751273 L271.357273,410.751273 L293.436323,324.914968 L241.158616,324.914968 C240.606331,324.914968 240.158616,324.467253 240.158616,323.914968 L240.158616,286.943312 C240.158616,286.391027 240.606331,285.943312 241.158616,285.943312 L303.515889,285.943312 L323.004368,208.755202 C323.116485,208.311139 323.515944,208 323.973942,208 L368.949156,208 C369.501441,208 369.949156,208.447715 369.949156,209 C369.949156,209.082542 369.938936,209.164767 369.91873,209.244798 L350.553864,285.943312 L427.350559,285.943312 L446.839038,208.755202 C446.951155,208.311139 447.350614,208 447.808612,208 L492.783826,208 C493.336111,208 493.783826,208.447715 493.783826,209 C493.783826,209.082542 493.773606,209.164767 493.7534,209.244798 L474.388534,285.943312 L526.666241,285.943312 C527.218526,285.943312 527.666241,286.391027 527.666241,286.943312 L527.666241,323.914968 C527.666241,324.467253 527.218526,324.914968 526.666241,324.914968 L464.308968,324.914968 Z M417.270993,324.914968 L340.474298,324.914968 L318.875228,410.751273 L395.191943,410.751273 L417.270993,324.914968 Z" id="#-copy-2"></path>
        </g>
    </g>
</svg>