<svg id="svg" xmlns="http://www.w3.org/2000/svg" xmlns:xlink="http://www.w3.org/1999/xlink" width="400" height="400" viewBox="0, 0, 400,400"><g id="svgg"><path id="path0" d="M148.419 10.330 C 3.660 49.258,-44.451 231.622,61.964 338.036 C 185.384 461.457,396.000 374.423,396.000 200.000 C 396.000 71.683,272.396 -23.009,148.419 10.330 M251.500 27.536 C 380.778 67.772,422.980 225.428,330.614 323.091 C 218.831 441.285,20.000 362.492,20.000 200.000 C 20.000 80.051,137.936 -7.809,251.500 27.536 M173.375 63.965 C 150.193 68.831,124.602 82.354,107.441 98.805 C 93.378 112.287,92.546 112.542,83.023 106.302 L 73.163 99.842 70.499 128.506 C 67.191 164.101,65.825 163.130,100.233 149.630 L 128.916 138.377 117.651 129.395 C 103.432 118.057,108.250 111.441,145.223 91.540 C 227.287 47.368,326.044 107.822,325.669 202.000 C 325.065 353.509,108.087 371.657,77.985 222.716 C 76.697 216.341,73.594 212.125,70.852 213.024 C 61.598 216.062,63.417 236.365,75.168 261.197 C 134.624 386.839,315.419 361.281,341.020 223.615 C 358.280 130.808,267.370 44.235,173.375 63.965 M178.829 128.063 C 158.710 143.889,156.176 181.207,174.205 196.170 C 186.381 206.275,181.148 219.283,160.749 229.621 C 125.945 247.257,125.039 259.061,157.074 277.482 C 192.263 297.717,227.198 294.448,256.836 268.146 C 276.804 250.427,275.204 245.812,243.534 229.764 C 218.563 217.110,217.360 214.239,229.619 196.550 C 259.830 152.956,218.328 96.992,178.829 128.063 " stroke="none" fill="#000000" fill-rule="evenodd"></path></g></svg>