<?xml version="1.0" encoding="utf-8"?>
<!-- Generator: Adobe Illustrator 16.0.0, SVG Export Plug-In . SVG Version: 6.00 Build 0)  -->
<!DOCTYPE svg PUBLIC "-//W3C//DTD SVG 1.1//EN" "http://www.w3.org/Graphics/SVG/1.1/DTD/svg11.dtd">
<svg version="1.1" id="Layer_5" xmlns="http://www.w3.org/2000/svg" xmlns:xlink="http://www.w3.org/1999/xlink" x="0px" y="0px"
	 viewBox="0 0 110 110" enable-background="new 0 0 110 110" xml:space="preserve">
<g id="outer_circle_4_">
	<path d="M55,5.333C27.614,5.333,5.333,27.613,5.333,55c0,27.387,22.281,49.667,49.667,49.667
		c27.385,0,49.667-22.28,49.667-49.667C104.667,27.613,82.385,5.333,55,5.333z M55,101.529C29.342,101.529,8.47,80.655,8.47,55
		C8.47,29.344,29.342,8.47,55,8.47c26.972,0,46.529,22.471,46.529,46.53C101.529,80.655,80.656,101.529,55,101.529z"/>
</g>
<g>
	<path d="M71.985,58.186c0,1.009-0.818,1.829-1.814,1.829H58.995c-0.908,0-1.673-0.673-1.779-1.58L55.24,44.268
		l-3.986,36.446c-0.089,0.854-0.801,1.53-1.673,1.602c-0.053,0-0.089,0.019-0.142,0.019c-0.819,0-1.53-0.552-1.744-1.335
		L41.75,59.894l-5.835,11.1c-0.356,0.663-1.086,1.072-1.833,0.961c-0.766-0.084-1.37-0.636-1.549-1.37l-2.847-11.37h-13.74
		c-0.992,0-1.812-0.815-1.812-1.829c0-0.997,0.821-1.815,1.812-1.815h15.167c0.816,0,1.561,0.569,1.757,1.388l2.033,8.115
		l5.744-10.927c0.355-0.658,1.071-1.067,1.799-0.961c0.748,0.071,1.372,0.605,1.582,1.317l4.629,16.46l4.556-41.679
		c0.106-0.905,0.854-1.598,1.779-1.617c1.032,0.086,1.708,0.656,1.833,1.582l3.772,27.117h9.574
		C71.167,56.365,71.985,57.188,71.985,58.186L71.985,58.186z M81.631,56.365h-5.766c-0.997,0-1.833,0.823-1.833,1.82
		c0,1.009,0.836,1.829,1.833,1.829h5.766c0.996,0,1.815-0.82,1.815-1.829C83.446,57.188,82.627,56.365,81.631,56.365L81.631,56.365z
		 M94.034,56.365h-6.122c-1.015,0-1.833,0.823-1.833,1.82c0,1.009,0.818,1.829,1.833,1.829h6.122c1.014,0,1.832-0.82,1.832-1.829
		C95.866,57.188,95.048,56.365,94.034,56.365L94.034,56.365z M94.034,56.365"/>
</g>
</svg>
