<?xml version="1.0" encoding="UTF-8" standalone="no"?>
<!-- Created with Inkscape (http://www.inkscape.org/) -->
<svg id="svg2985" xmlns:rdf="http://www.w3.org/1999/02/22-rdf-syntax-ns#" xmlns="http://www.w3.org/2000/svg" height="100%" width="100%" version="1.1" xmlns:cc="http://creativecommons.org/ns#" xmlns:dc="http://purl.org/dc/elements/1.1/" viewBox="0 0 102 102">
 <metadata id="metadata2990">
  <rdf:RDF>
   <cc:Work rdf:about="">
    <dc:format>image/svg+xml</dc:format>
    <dc:type rdf:resource="http://purl.org/dc/dcmitype/StillImage"/>
    <dc:title/>
   </cc:Work>
  </rdf:RDF>
 </metadata>
 <g id="layer1" transform="translate(-5 -2.3622)">
  <path id="path3775" style="block-progression:tb;text-indent:0;color:#000000;text-transform:none" d="m55.951 0.37462c-28.111 0-50.951 22.84-50.951 50.95 0 28.111 22.84 50.951 50.951 50.951s50.951-22.84 50.951-50.951-22.84-50.951-50.951-50.951zm0 4.8524c25.488 0 46.098 20.61 46.098 46.098s-20.61 46.098-46.098 46.098-46.098-20.61-46.098-46.098 20.61-46.098 46.098-46.098z"/>
  <g id="text3779" transform="translate(-.5 -1.5)">
   <path d="m76.64 25.722v9.7438c-2.912-1.4933-5.9359-2.6132-9.0718-3.3599-3.136-0.7466-6.3839-1.1199-9.7438-1.12-5.1146 0.000055-8.9599 0.78404-11.536 2.352-2.5386 1.568-3.8079 3.92-3.8079 7.0559-0.000017 2.3893 0.91463 4.2746 2.7439 5.6559 1.8293 1.344 5.5065 2.632 11.032 3.8639l3.5279 0.78398c7.3172 1.568 12.506 3.7893 15.568 6.6639 3.0986 2.8373 4.6479 6.8132 4.6479 11.928-0.000054 5.8239-2.3147 10.434-6.9439 13.832-4.592 3.3973-10.92 5.0959-18.984 5.0959-3.36-0.000002-6.8692-0.336-10.528-1.008-3.621-0.636-7.447-1.606-11.479-2.913v-10.64c3.8079 1.9786 7.5598 3.4719 11.256 4.4799 3.6959 0.97066 7.3545 1.456 10.976 1.456 4.8532 0.000007 8.5865-0.82131 11.2-2.464 2.6132-1.68 3.9199-4.0319 3.9199-7.0559-0.000043-2.7999-0.95202-4.9466-2.8559-6.4399-1.8667-1.4933-5.9919-2.9306-12.376-4.3119l-3.5839-0.83998c-6.3839-1.3439-10.994-3.3972-13.832-6.1599-2.8373-2.7999-4.2559-6.6265-4.2559-11.48-0.000007-5.8985 2.0906-10.453 6.2719-13.664 4.1812-3.2105 10.117-4.8158 17.808-4.8159 3.8079 0.000064 7.3918 0.28006 10.752 0.83998 3.3599 0.56005 6.4585 1.4 9.2958 2.52"/>
  </g>
 </g>
</svg>
