<?xml version="1.0" encoding="utf-8"?>
<!-- Generator: Adobe Illustrator 16.0.0, SVG Export Plug-In . SVG Version: 6.00 Build 0)  -->
<!DOCTYPE svg PUBLIC "-//W3C//DTD SVG 1.1//EN" "http://www.w3.org/Graphics/SVG/1.1/DTD/svg11.dtd">
<svg version="1.1" id="Layer_1" xmlns="http://www.w3.org/2000/svg" xmlns:xlink="http://www.w3.org/1999/xlink" x="0px" y="0px"
  width="951px" height="1024px" viewBox="0 0 951 1024" enable-background="new 0 0 951 1024" xml:space="preserve">
<g id="icomoon-ignore">
</g>
<path d="M796.964,615.692c0-68.255-67.637-127.635-167.354-158.244l-18.543-342.773c66.694-19.381,110.755-52.61,110.755-90.402
  H229.178c0,37.792,44.061,71.021,110.77,90.402l-18.572,342.773c-99.704,30.609-167.34,89.989-167.34,158.244h293.297
  c-1.148,25.548-1.972,51.565-1.958,77.88c-0.015,38.319,1.266,76.643,3.591,112.55c2.089,35.938,5.327,69.461,9.227,98.217
  c7.167,57.481,17.321,95.803,17.306,95.803c-0.015,0,10.14-38.32,17.307-95.803c3.899-28.756,7.138-62.279,9.229-98.217
  c2.323-35.907,3.604-74.229,3.591-112.55c0.014-26.313-0.811-52.332-1.958-77.88H796.964L796.964,615.692z"/>
</svg>
