<?xml version="1.0" encoding="utf-8"?>
<!-- Generator: Adobe Illustrator 20.1.0, SVG Export Plug-In . SVG Version: 6.00 Build 0)  -->
<svg version="1.1" id="Layer_1" xmlns="http://www.w3.org/2000/svg" xmlns:xlink="http://www.w3.org/1999/xlink" x="0px" y="0px"
	 viewBox="0 0 30 30" style="enable-background:new 0 0 30 30;" xml:space="preserve">
<style type="text/css">
	.st0{fill:#A0B3BE;}
</style>
<g>
	<path class="st0" d="M22.7,19.8c-0.1,0-0.2,0-0.3-0.1l-4.6-4.3c-0.2-0.2-0.2-0.4,0-0.6c0.2-0.2,0.4-0.2,0.6,0l4.6,4.3
		c0.2,0.2,0.2,0.4,0,0.6C22.9,19.8,22.8,19.8,22.7,19.8L22.7,19.8z M22.7,19.8"/>
	<path class="st0" d="M7.3,19.8c-0.1,0-0.2,0-0.3-0.1c-0.2-0.2-0.1-0.4,0-0.6l4.6-4.3c0.2-0.2,0.4-0.1,0.6,0c0.2,0.2,0.1,0.4,0,0.6
		l-4.6,4.3C7.5,19.8,7.4,19.8,7.3,19.8L7.3,19.8z M7.3,19.8"/>
	<path class="st0" d="M25.4,23.8H4.6c-1.1,0-2-0.9-2-2V8.2c0-1.1,0.9-2,2-2h20.8c1.1,0,2,0.9,2,2v13.6
		C27.4,22.9,26.5,23.8,25.4,23.8L25.4,23.8z M4.6,7C3.9,7,3.4,7.5,3.4,8.2v13.6c0,0.7,0.5,1.2,1.2,1.2h20.8c0.7,0,1.2-0.5,1.2-1.2
		V8.2c0-0.7-0.5-1.2-1.2-1.2H4.6z M4.6,7"/>
	<path class="st0" d="M15,17c-0.5,0-1.1-0.2-1.5-0.5l-10.3-9C3.1,7.4,3.1,7.1,3.2,7c0.1-0.2,0.4-0.2,0.6,0l10.3,9
		c0.5,0.4,1.4,0.4,1.9,0l10.3-8.9c0.2-0.1,0.4-0.1,0.6,0c0.1,0.2,0.1,0.4,0,0.6l-10.3,8.9C16.1,16.8,15.5,17,15,17L15,17z M15,17"/>
</g>
</svg>
