<svg id="svg" xmlns="http://www.w3.org/2000/svg" xmlns:xlink="http://www.w3.org/1999/xlink" width="400" height="430.70452155625657" viewBox="0, 0, 400,430.70452155625657"><g id="svgg"><path id="path0" d="M196.000 30.511 C 195.890 30.613,192.692 30.815,188.893 30.960 C 185.094 31.106,181.584 31.374,181.093 31.555 C 180.602 31.736,179.705 31.814,179.100 31.729 C 178.495 31.643,178.000 31.714,178.000 31.886 C 178.000 32.059,177.325 32.229,176.500 32.263 C 174.764 32.337,169.682 33.148,168.800 33.492 C 168.470 33.621,167.993 33.694,167.740 33.655 C 167.377 33.598,160.153 35.059,157.200 35.786 C 156.870 35.867,155.189 36.229,153.464 36.590 C 151.739 36.952,149.849 37.433,149.264 37.660 C 148.679 37.888,147.763 38.156,147.228 38.258 C 146.693 38.359,146.067 38.559,145.835 38.702 C 145.604 38.845,145.141 38.988,144.807 39.020 C 143.514 39.144,140.836 40.134,141.014 40.422 C 141.117 40.589,140.841 40.631,140.401 40.516 C 139.960 40.401,139.600 40.486,139.600 40.705 C 139.600 40.924,138.925 41.291,138.100 41.521 C 136.248 42.037,129.152 44.603,128.141 45.122 C 127.303 45.552,124.305 46.916,124.000 47.006 C 123.890 47.039,122.930 47.456,121.867 47.933 C 120.804 48.410,119.851 48.800,119.750 48.800 C 119.649 48.800,119.349 48.991,119.083 49.224 C 118.533 49.706,115.903 51.345,115.600 51.394 C 114.661 51.547,111.600 52.988,111.600 53.278 C 111.600 53.481,111.420 53.536,111.200 53.400 C 110.980 53.264,110.800 53.299,110.800 53.479 C 110.800 53.658,110.215 54.059,109.500 54.370 C 108.785 54.681,108.108 55.040,107.997 55.168 C 107.885 55.296,106.895 55.878,105.797 56.462 C 104.698 57.046,103.849 57.735,103.910 57.992 C 103.970 58.249,103.856 58.358,103.655 58.234 C 103.455 58.110,103.070 58.275,102.800 58.600 C 102.530 58.925,102.184 59.114,102.030 59.019 C 101.877 58.924,101.132 59.376,100.376 60.022 C 99.619 60.669,98.788 61.199,98.529 61.199 C 98.269 61.200,97.817 61.425,97.522 61.700 C 97.228 61.975,96.331 62.535,95.529 62.944 C 94.726 63.353,93.311 64.396,92.384 65.260 C 91.457 66.124,90.176 67.102,89.536 67.433 C 88.865 67.780,88.490 68.222,88.649 68.479 C 88.807 68.736,88.743 68.812,88.496 68.659 C 88.148 68.444,84.765 70.635,84.000 71.570 C 83.890 71.705,82.630 72.784,81.200 73.968 C 79.770 75.153,78.649 76.288,78.710 76.491 C 78.770 76.694,78.653 76.756,78.449 76.630 C 78.049 76.383,65.000 88.921,65.000 89.553 C 65.000 89.762,64.836 90.083,64.636 90.267 C 64.420 90.464,64.403 90.356,64.595 90.000 C 64.811 89.597,64.785 89.532,64.514 89.800 C 63.804 90.503,60.242 94.602,59.000 96.145 C 58.340 96.964,57.217 98.278,56.504 99.063 C 55.792 99.848,55.325 100.678,55.466 100.907 C 55.616 101.150,55.530 101.204,55.259 101.036 C 54.990 100.870,54.682 101.054,54.527 101.475 C 54.380 101.874,54.034 102.337,53.758 102.504 C 53.482 102.672,52.394 104.112,51.340 105.704 C 50.287 107.297,48.650 109.556,47.704 110.725 C 46.758 111.894,46.088 113.019,46.216 113.225 C 46.343 113.431,46.260 113.600,46.031 113.600 C 45.802 113.600,45.502 114.050,45.364 114.600 C 45.226 115.150,44.944 115.600,44.737 115.600 C 44.531 115.600,44.145 116.098,43.881 116.707 C 43.616 117.316,43.078 118.261,42.685 118.807 C 40.987 121.166,39.614 123.437,39.607 123.900 C 39.603 124.175,39.432 124.400,39.227 124.400 C 38.877 124.400,38.398 125.416,38.419 126.114 C 38.424 126.287,38.152 126.705,37.814 127.043 C 37.476 127.381,37.200 127.914,37.200 128.229 C 37.200 128.543,37.009 128.800,36.776 128.800 C 36.543 128.800,36.455 128.965,36.579 129.166 C 36.703 129.367,36.614 129.595,36.381 129.673 C 36.147 129.751,35.905 130.081,35.841 130.407 C 35.689 131.195,32.311 138.145,31.957 138.400 C 31.805 138.510,31.617 138.960,31.540 139.400 C 31.463 139.840,31.253 140.308,31.073 140.440 C 30.894 140.572,30.704 140.932,30.652 141.240 C 30.599 141.548,30.247 142.385,29.868 143.100 C 29.489 143.815,29.295 144.400,29.436 144.400 C 29.577 144.400,29.427 144.805,29.103 145.300 C 28.779 145.795,27.583 148.990,26.445 152.400 C 25.307 155.810,24.094 159.108,23.749 159.728 C 23.404 160.349,23.212 161.204,23.323 161.629 C 23.435 162.054,23.362 162.300,23.163 162.177 C 22.821 161.966,22.752 162.203,22.663 163.900 C 22.643 164.285,22.514 164.690,22.377 164.800 C 22.076 165.040,20.347 171.393,20.453 171.867 C 20.494 172.050,20.422 172.470,20.295 172.800 C 19.997 173.568,19.237 177.041,19.025 178.600 C 18.935 179.260,18.583 181.330,18.241 183.200 C 17.451 187.529,17.284 188.782,16.749 194.400 C 16.508 196.930,16.167 199.360,15.991 199.800 C 15.816 200.240,15.702 201.500,15.739 202.600 C 15.776 203.700,15.663 204.915,15.489 205.300 C 15.277 205.767,15.343 206.002,15.686 206.006 C 16.075 206.011,16.083 206.086,15.720 206.317 C 14.373 207.174,15.787 233.297,17.782 244.400 C 18.118 246.270,18.490 248.592,18.608 249.559 C 18.727 250.526,19.184 252.866,19.623 254.759 C 20.062 256.652,20.500 258.708,20.596 259.329 C 20.747 260.310,21.015 261.264,21.909 264.000 C 22.017 264.330,22.171 265.106,22.252 265.725 C 22.333 266.344,22.597 267.221,22.840 267.675 C 23.083 268.128,23.331 268.948,23.391 269.495 C 23.451 270.043,23.693 270.610,23.928 270.756 C 24.164 270.901,24.542 271.847,24.768 272.858 C 24.995 273.868,25.343 275.124,25.542 275.647 C 25.741 276.171,25.922 276.737,25.944 276.904 C 25.966 277.071,26.290 277.791,26.665 278.504 C 27.039 279.217,27.375 280.070,27.410 280.400 C 27.521 281.435,28.830 284.954,29.326 285.552 C 29.587 285.866,29.742 286.140,29.672 286.161 C 29.501 286.213,30.296 288.418,30.800 289.295 C 31.020 289.677,31.200 290.272,31.200 290.618 C 31.200 290.992,31.388 291.131,31.662 290.962 C 31.962 290.776,32.014 290.853,31.811 291.183 C 31.638 291.462,31.671 291.804,31.883 291.945 C 32.095 292.085,33.047 293.910,34.000 296.000 C 34.953 298.090,35.927 299.932,36.166 300.094 C 36.405 300.256,36.463 300.391,36.297 300.394 C 36.022 300.399,38.257 304.726,38.780 305.200 C 38.901 305.310,39.317 306.085,39.704 306.921 C 40.091 307.758,40.590 308.330,40.814 308.192 C 41.037 308.054,41.181 308.089,41.134 308.270 C 41.000 308.786,42.747 312.192,43.633 313.143 C 44.072 313.614,44.319 314.000,44.183 314.000 C 43.860 314.000,45.629 316.913,46.179 317.285 C 46.410 317.442,46.600 317.758,46.600 317.986 C 46.600 318.214,47.365 319.289,48.300 320.375 C 49.235 321.460,50.000 322.506,50.000 322.699 C 50.000 322.891,50.333 323.406,50.739 323.843 C 51.146 324.279,51.551 324.829,51.639 325.063 C 52.157 326.440,62.206 338.212,62.760 338.090 C 63.035 338.030,63.145 338.166,63.005 338.393 C 62.708 338.872,71.196 347.650,71.672 347.356 C 71.847 347.247,71.884 347.438,71.753 347.779 C 71.622 348.121,71.715 348.400,71.960 348.400 C 72.205 348.400,72.791 348.844,73.263 349.386 C 73.735 349.929,74.273 350.278,74.460 350.163 C 74.647 350.047,74.800 350.193,74.800 350.486 C 74.800 351.118,80.737 356.250,81.283 356.090 C 81.490 356.030,81.551 356.156,81.419 356.370 C 81.286 356.584,81.557 356.963,82.022 357.212 C 82.486 357.460,83.615 358.369,84.531 359.232 C 85.446 360.094,86.353 360.800,86.545 360.800 C 86.854 360.800,88.378 361.953,90.500 363.793 C 90.885 364.127,91.290 364.400,91.400 364.400 C 91.510 364.400,91.933 364.715,92.339 365.100 C 93.432 366.135,95.266 367.400,95.673 367.400 C 95.869 367.400,96.200 367.670,96.408 368.000 C 96.617 368.330,96.793 368.420,96.800 368.200 C 96.808 367.948,96.921 367.954,97.106 368.217 C 97.268 368.446,98.750 369.481,100.400 370.517 C 102.050 371.553,103.793 372.687,104.273 373.036 C 104.753 373.386,105.273 373.640,105.428 373.602 C 105.584 373.563,105.821 373.692,105.955 373.887 C 106.383 374.509,109.069 376.000,109.760 376.000 C 110.126 376.000,110.528 376.269,110.654 376.598 C 110.781 376.926,111.045 377.096,111.242 376.974 C 111.439 376.852,111.600 376.922,111.600 377.128 C 111.600 377.334,112.185 377.728,112.900 378.004 C 114.848 378.754,118.970 380.864,119.210 381.233 C 119.502 381.682,127.806 385.200,128.575 385.200 C 128.919 385.200,129.200 385.388,129.200 385.618 C 129.200 385.847,129.425 385.991,129.700 385.936 C 129.975 385.882,130.776 386.144,131.480 386.519 C 132.184 386.893,133.012 387.200,133.319 387.200 C 133.626 387.200,134.435 387.479,135.118 387.819 C 135.800 388.159,136.750 388.513,137.229 388.606 C 137.708 388.698,138.521 389.049,139.036 389.387 C 139.551 389.724,140.328 390.000,140.762 390.000 C 141.197 390.000,141.672 390.192,141.817 390.427 C 141.962 390.662,142.321 390.762,142.615 390.650 C 142.908 390.537,143.208 390.623,143.280 390.840 C 143.352 391.057,143.949 391.304,144.606 391.390 C 145.263 391.475,145.845 391.580,145.900 391.622 C 145.955 391.665,146.180 391.745,146.400 391.800 C 146.620 391.855,146.935 391.944,147.100 391.997 C 147.265 392.051,147.554 392.067,147.742 392.033 C 147.930 392.000,148.290 392.141,148.542 392.347 C 148.987 392.711,151.165 393.367,153.200 393.751 C 153.750 393.854,155.777 394.320,157.705 394.786 C 159.633 395.251,163.053 395.994,165.305 396.435 C 167.557 396.876,170.100 397.389,170.955 397.575 C 171.810 397.761,173.099 397.885,173.820 397.851 C 174.541 397.817,175.043 397.931,174.936 398.103 C 174.829 398.276,175.250 398.401,175.871 398.382 C 176.492 398.363,178.314 398.535,179.920 398.765 C 187.536 399.855,213.200 400.152,213.200 399.150 C 213.200 398.971,213.475 398.931,213.810 399.059 C 214.700 399.401,222.038 398.786,221.794 398.390 C 221.680 398.206,222.419 398.147,223.436 398.259 C 224.453 398.370,225.193 398.312,225.079 398.128 C 224.966 397.944,225.711 397.767,226.736 397.734 C 228.809 397.667,230.297 397.457,231.200 397.103 C 231.530 396.973,234.005 396.463,236.700 395.968 C 239.395 395.474,241.600 394.908,241.600 394.711 C 241.600 394.514,241.777 394.462,241.993 394.595 C 242.481 394.897,251.265 392.829,251.040 392.465 C 250.950 392.319,251.354 392.179,251.938 392.152 C 253.549 392.080,255.309 391.608,255.949 391.076 C 256.265 390.814,256.585 390.645,256.661 390.700 C 256.738 390.755,256.845 390.787,256.900 390.770 C 256.955 390.754,257.450 390.659,258.000 390.559 C 258.550 390.459,259.057 390.212,259.126 390.011 C 259.195 389.810,259.510 389.744,259.826 389.865 C 260.142 389.986,260.400 389.916,260.400 389.709 C 260.400 389.503,260.625 389.322,260.900 389.307 C 262.052 389.248,275.827 383.834,276.400 383.216 C 276.510 383.097,276.870 382.940,277.200 382.867 C 278.703 382.535,281.600 381.054,281.600 380.617 C 281.600 380.351,281.846 380.133,282.146 380.133 C 282.956 380.133,292.000 375.561,292.000 375.152 C 292.000 374.958,292.270 374.800,292.600 374.800 C 292.930 374.800,293.200 374.620,293.200 374.400 C 293.200 374.180,293.335 374.021,293.500 374.047 C 294.294 374.173,294.823 373.960,294.603 373.605 C 294.467 373.386,294.612 373.307,294.928 373.428 C 295.241 373.548,295.609 373.354,295.746 372.998 C 295.882 372.641,296.176 372.461,296.397 372.598 C 296.619 372.735,296.800 372.669,296.800 372.451 C 296.800 372.232,297.128 371.950,297.529 371.822 C 297.931 371.695,298.606 371.278,299.029 370.895 C 299.453 370.513,300.340 369.937,301.000 369.615 C 303.025 368.628,308.400 364.771,308.400 364.306 C 308.400 364.064,308.509 363.976,308.642 364.109 C 308.775 364.242,309.288 363.915,309.782 363.382 C 310.276 362.849,310.760 362.493,310.857 362.591 C 311.080 362.813,317.329 357.861,321.193 354.400 C 322.790 352.970,324.349 351.654,324.657 351.475 C 324.965 351.297,325.094 350.937,324.944 350.675 C 324.794 350.414,324.814 350.328,324.987 350.485 C 325.307 350.773,328.958 348.025,328.656 347.723 C 328.566 347.632,329.458 346.645,330.638 345.529 C 331.819 344.412,332.670 343.314,332.530 343.087 C 332.391 342.861,332.460 342.790,332.685 342.929 C 333.082 343.174,334.212 342.206,334.471 341.400 C 334.542 341.180,334.711 341.037,334.847 341.082 C 334.983 341.128,335.509 340.723,336.017 340.182 C 336.524 339.642,336.820 339.200,336.674 339.200 C 336.528 339.200,337.207 338.448,338.184 337.529 C 339.160 336.610,339.868 335.710,339.756 335.529 C 339.644 335.348,339.718 335.200,339.919 335.200 C 340.299 335.200,347.200 327.065,347.200 326.618 C 347.200 326.479,347.384 326.149,347.608 325.883 C 349.462 323.687,349.930 323.011,349.773 322.757 C 349.674 322.596,350.068 322.090,350.650 321.632 C 351.232 321.174,351.604 320.800,351.476 320.800 C 351.349 320.800,351.753 320.244,352.375 319.563 C 352.996 318.883,353.748 317.848,354.046 317.263 C 354.994 315.403,358.912 309.031,359.618 308.200 C 359.992 307.760,360.867 306.192,361.562 304.716 C 362.257 303.239,362.967 301.944,363.140 301.837 C 363.313 301.730,364.148 300.058,364.997 298.121 C 365.845 296.185,366.805 294.285,367.131 293.900 C 367.457 293.515,367.578 293.200,367.400 293.200 C 367.222 293.200,367.357 292.885,367.700 292.500 C 368.698 291.380,375.200 274.480,375.200 273.005 C 375.200 272.672,375.350 272.400,375.533 272.400 C 376.001 272.400,376.750 269.787,376.620 268.606 C 376.561 268.065,376.659 267.713,376.838 267.823 C 377.138 268.009,377.808 266.086,378.099 264.200 C 378.167 263.760,378.335 263.220,378.472 263.000 C 378.609 262.780,378.821 261.970,378.943 261.200 C 379.065 260.430,379.612 257.910,380.157 255.600 C 380.702 253.290,381.260 250.500,381.397 249.400 C 381.534 248.300,381.798 246.680,381.985 245.800 C 382.172 244.920,382.448 243.210,382.598 242.000 C 382.747 240.790,383.044 238.720,383.257 237.400 C 383.470 236.080,383.705 234.190,383.780 233.200 C 383.855 232.210,384.041 231.094,384.193 230.720 C 384.346 230.346,384.409 228.861,384.335 227.419 C 384.261 225.978,384.344 224.799,384.520 224.799 C 385.000 224.800,384.701 213.054,384.213 212.706 C 383.949 212.518,383.982 212.410,384.305 212.406 C 384.675 212.402,384.797 211.494,384.762 209.003 C 384.736 207.134,384.599 205.677,384.457 205.765 C 384.316 205.853,384.251 204.502,384.314 202.762 C 384.376 201.023,384.271 199.600,384.081 199.600 C 383.890 199.600,383.790 198.668,383.858 197.530 C 383.926 196.391,383.831 195.266,383.646 195.030 C 383.461 194.793,383.192 193.520,383.048 192.200 C 382.367 185.959,380.459 175.034,380.023 174.881 C 379.837 174.815,379.765 174.455,379.863 174.081 C 379.961 173.706,379.392 170.970,378.600 168.000 C 377.807 165.030,376.978 161.887,376.758 161.016 C 376.538 160.144,376.165 159.199,375.930 158.916 C 375.695 158.632,375.659 158.397,375.851 158.394 C 376.043 158.391,375.971 158.242,375.691 158.064 C 375.410 157.887,375.100 157.318,375.000 156.802 C 374.611 154.782,373.114 150.800,372.744 150.800 C 372.529 150.800,372.451 150.641,372.571 150.447 C 372.783 150.105,371.551 146.087,370.930 145.092 C 370.761 144.822,370.593 144.405,370.556 144.166 C 370.400 143.144,368.483 140.045,368.170 140.310 C 367.981 140.469,368.048 140.309,368.318 139.953 C 368.714 139.432,368.692 139.209,368.205 138.804 C 367.872 138.528,367.600 138.071,367.600 137.789 C 367.600 137.508,366.970 136.162,366.200 134.800 C 365.430 133.438,364.799 132.205,364.798 132.062 C 364.796 131.640,361.340 125.100,360.082 123.135 C 359.707 122.550,358.815 121.110,358.100 119.935 C 356.217 116.843,355.824 116.224,355.600 116.000 C 355.490 115.890,354.954 114.945,354.408 113.900 C 353.863 112.855,353.286 112.000,353.127 112.000 C 352.968 112.000,352.545 111.384,352.188 110.631 C 351.831 109.878,351.290 109.167,350.987 109.050 C 350.684 108.934,350.064 108.110,349.610 107.219 C 349.156 106.329,348.607 105.600,348.392 105.600 C 348.176 105.600,348.000 105.422,348.000 105.203 C 348.000 104.791,346.082 102.161,343.768 99.400 C 343.030 98.520,341.505 96.675,340.379 95.300 C 339.252 93.925,338.205 92.800,338.052 92.800 C 337.898 92.800,337.460 92.271,337.078 91.624 C 336.696 90.978,336.031 90.337,335.600 90.200 C 335.169 90.063,334.855 89.827,334.903 89.676 C 335.037 89.251,330.841 85.000,330.288 85.000 C 330.020 85.000,329.800 84.766,329.800 84.480 C 329.800 83.826,324.864 78.874,323.909 78.571 C 323.519 78.447,323.200 78.168,323.200 77.949 C 323.200 77.731,322.992 77.681,322.738 77.838 C 322.478 77.999,322.384 77.949,322.523 77.724 C 322.748 77.360,319.259 74.021,318.254 73.638 C 318.021 73.549,316.941 72.602,315.854 71.532 C 314.768 70.463,313.787 69.679,313.675 69.791 C 313.563 69.903,313.220 69.636,312.913 69.197 C 312.606 68.759,312.114 68.400,311.820 68.400 C 311.526 68.400,311.172 68.104,311.033 67.743 C 310.895 67.381,310.680 67.186,310.557 67.310 C 310.343 67.524,309.446 66.904,308.084 65.600 C 307.739 65.270,307.310 65.000,307.130 65.000 C 306.950 65.000,306.307 64.542,305.701 63.982 C 304.008 62.416,302.144 61.200,301.438 61.200 C 301.087 61.200,300.800 61.020,300.800 60.800 C 300.800 60.580,300.530 60.400,300.200 60.400 C 299.870 60.400,299.600 60.253,299.600 60.074 C 299.600 59.894,298.835 59.323,297.900 58.803 C 296.965 58.284,296.110 57.745,296.000 57.605 C 295.715 57.243,290.949 54.400,290.626 54.400 C 290.479 54.400,289.707 53.958,288.912 53.418 C 288.117 52.877,287.316 52.528,287.133 52.641 C 286.950 52.755,286.800 52.671,286.800 52.455 C 286.800 52.239,286.200 51.864,285.467 51.622 C 283.638 51.019,281.521 49.911,280.178 48.854 C 279.560 48.368,278.817 48.061,278.527 48.173 C 278.237 48.284,278.000 48.229,278.000 48.051 C 278.000 47.500,262.348 41.200,260.979 41.200 C 260.697 41.200,260.407 41.047,260.333 40.860 C 260.134 40.352,253.685 38.300,253.210 38.594 C 252.984 38.733,252.800 38.690,252.800 38.499 C 252.800 38.190,247.452 36.652,244.800 36.198 C 243.772 36.022,241.323 35.446,238.725 34.768 C 237.914 34.556,237.104 34.423,236.925 34.471 C 236.746 34.519,236.240 34.435,235.800 34.284 C 235.360 34.133,232.750 33.640,230.000 33.187 C 227.250 32.734,224.190 32.212,223.200 32.026 C 222.158 31.830,221.344 31.839,221.266 32.046 C 221.192 32.244,220.922 32.274,220.666 32.114 C 219.932 31.655,219.186 31.535,216.355 31.421 C 214.900 31.363,213.550 31.220,213.355 31.105 C 212.899 30.836,196.266 30.266,196.000 30.511 M209.999 43.438 C 217.940 43.980,223.796 44.603,228.600 45.418 C 229.260 45.530,230.340 45.694,231.000 45.782 C 232.089 45.928,239.353 47.432,240.800 47.812 C 241.130 47.899,242.480 48.234,243.801 48.557 C 245.121 48.880,246.741 49.426,247.401 49.770 C 248.060 50.114,248.795 50.396,249.034 50.398 C 249.273 50.399,251.523 51.063,254.034 51.874 C 256.545 52.685,258.720 53.360,258.867 53.374 C 259.013 53.388,259.268 53.535,259.433 53.700 C 259.598 53.865,260.143 54.000,260.643 54.000 C 261.143 54.000,261.672 54.192,261.817 54.427 C 261.962 54.662,262.333 54.758,262.640 54.640 C 262.948 54.522,263.200 54.575,263.200 54.758 C 263.200 54.941,264.055 55.407,265.100 55.792 C 266.145 56.177,269.572 57.755,272.715 59.298 C 275.859 60.841,278.533 62.001,278.658 61.876 C 278.783 61.750,279.249 61.987,279.694 62.401 C 280.138 62.816,281.784 63.828,283.351 64.650 C 284.918 65.473,286.438 66.383,286.729 66.673 C 287.019 66.963,287.739 67.203,288.329 67.206 C 289.167 67.211,289.270 67.296,288.800 67.600 C 288.287 67.931,288.302 67.989,288.900 67.994 C 289.285 67.997,289.600 68.180,289.600 68.400 C 289.600 68.620,289.787 68.800,290.016 68.800 C 290.245 68.800,290.920 69.134,291.516 69.542 C 292.112 69.950,293.860 71.073,295.400 72.036 C 296.940 72.999,298.435 74.105,298.723 74.494 C 299.010 74.882,299.625 75.200,300.089 75.200 C 300.554 75.200,300.818 75.316,300.676 75.457 C 300.535 75.598,301.270 76.306,302.310 77.029 C 303.349 77.753,304.470 78.596,304.800 78.903 C 305.130 79.209,306.660 80.457,308.200 81.676 C 309.740 82.895,311.339 84.272,311.753 84.737 C 312.168 85.201,312.708 85.467,312.953 85.326 C 313.199 85.186,313.286 85.200,313.146 85.357 C 312.910 85.621,316.805 89.600,317.299 89.600 C 317.598 89.600,320.782 92.835,323.491 95.893 C 324.705 97.264,325.844 98.296,326.021 98.187 C 326.198 98.078,326.444 98.306,326.568 98.694 C 326.693 99.082,327.741 100.423,328.897 101.674 C 330.054 102.925,331.045 104.095,331.100 104.274 C 331.155 104.453,331.425 104.608,331.700 104.618 C 331.975 104.628,332.158 104.844,332.107 105.097 C 332.056 105.351,332.641 106.223,333.407 107.035 C 334.173 107.847,334.800 108.585,334.800 108.675 C 334.800 108.857,339.656 115.433,340.554 116.467 C 340.873 116.833,341.060 117.207,340.969 117.297 C 340.879 117.387,341.435 118.167,342.205 119.031 C 342.975 119.894,345.073 123.165,346.868 126.300 C 348.664 129.435,350.269 132.000,350.437 132.000 C 350.813 132.000,352.000 134.325,352.000 135.061 C 352.000 135.358,352.210 135.600,352.467 135.600 C 352.723 135.600,352.825 135.708,352.693 135.840 C 352.562 135.972,353.147 137.457,353.994 139.140 C 354.841 140.823,355.929 143.100,356.412 144.200 C 356.894 145.300,357.939 147.550,358.734 149.200 C 359.528 150.850,360.192 152.290,360.209 152.400 C 360.271 152.808,360.905 154.637,361.386 155.800 C 362.158 157.661,365.227 167.525,365.859 170.174 C 366.170 171.480,366.571 172.740,366.749 172.974 C 367.138 173.484,369.377 183.287,369.816 186.400 C 369.863 186.730,370.021 187.900,370.169 189.000 C 370.317 190.100,370.513 191.450,370.606 192.000 C 372.476 203.075,372.582 224.831,370.829 237.600 C 370.603 239.250,370.338 241.230,370.241 242.000 C 369.800 245.499,367.151 257.575,366.568 258.744 C 366.211 259.460,366.010 260.396,366.122 260.823 C 366.234 261.251,366.197 261.522,366.039 261.424 C 365.882 261.327,365.533 262.092,365.263 263.124 C 363.690 269.147,360.607 277.873,358.333 282.741 C 357.680 284.139,357.242 285.532,357.359 285.836 C 357.476 286.141,357.353 286.348,357.086 286.295 C 356.812 286.242,356.655 286.524,356.727 286.940 C 356.803 287.384,356.683 287.575,356.427 287.417 C 356.192 287.271,356.000 287.370,356.000 287.634 C 356.000 287.899,355.017 290.047,353.815 292.406 C 352.613 294.766,351.743 296.809,351.881 296.948 C 352.020 297.087,351.923 297.200,351.667 297.200 C 351.410 297.200,351.200 297.380,351.200 297.599 C 351.200 297.819,350.598 298.854,349.862 299.899 C 349.126 300.945,347.928 302.880,347.200 304.200 C 344.871 308.420,343.049 311.277,341.909 312.497 C 340.840 313.642,340.614 314.146,340.786 315.000 C 340.830 315.220,340.738 315.271,340.580 315.114 C 340.339 314.872,336.400 319.682,336.400 320.218 C 336.400 320.318,336.125 320.715,335.790 321.100 C 335.454 321.485,334.779 322.286,334.290 322.881 C 331.810 325.894,330.499 327.379,329.500 328.308 C 328.895 328.872,328.400 329.498,328.400 329.701 C 328.400 329.904,326.396 332.034,323.946 334.435 C 321.497 336.836,319.620 338.800,319.775 338.800 C 320.134 338.800,319.202 339.735,318.354 340.226 C 316.872 341.083,312.457 345.368,312.681 345.730 C 312.814 345.947,312.738 346.009,312.511 345.868 C 312.284 345.728,311.433 346.240,310.620 347.007 C 309.808 347.773,309.017 348.400,308.863 348.400 C 308.709 348.400,307.731 349.181,306.691 350.136 C 305.651 351.091,304.797 351.766,304.794 351.636 C 304.791 351.506,304.656 351.581,304.494 351.801 C 304.332 352.022,303.393 352.742,302.406 353.401 C 301.420 354.061,300.115 355.101,299.506 355.714 C 298.898 356.326,298.400 356.725,298.400 356.599 C 298.400 356.298,293.487 359.613,293.106 360.170 C 292.944 360.406,292.809 360.467,292.806 360.304 C 292.799 359.958,288.664 362.416,288.467 362.884 C 288.393 363.058,288.078 363.200,287.767 363.200 C 287.455 363.200,287.200 363.372,287.200 363.581 C 287.200 363.791,286.435 364.340,285.500 364.801 C 284.565 365.262,283.252 365.946,282.582 366.320 C 281.912 366.694,280.022 367.621,278.382 368.380 C 276.742 369.139,275.340 369.905,275.266 370.083 C 275.192 370.260,274.967 370.303,274.766 370.179 C 274.565 370.055,274.400 370.122,274.400 370.330 C 274.400 370.623,273.136 371.184,272.493 371.176 C 272.434 371.175,271.624 371.619,270.693 372.162 C 269.762 372.705,268.100 373.452,267.000 373.822 C 265.900 374.192,264.280 374.817,263.400 375.212 C 262.520 375.606,260.540 376.328,259.000 376.817 C 257.460 377.306,255.947 377.908,255.639 378.153 C 255.330 378.399,254.970 378.563,254.839 378.517 C 254.531 378.411,252.719 378.841,252.200 379.144 C 251.980 379.272,251.450 379.431,251.023 379.498 C 250.595 379.564,249.742 379.870,249.127 380.177 C 248.511 380.484,247.421 380.861,246.704 381.014 C 245.987 381.168,245.228 381.397,245.017 381.522 C 244.806 381.647,244.266 381.792,243.817 381.844 C 243.368 381.895,241.067 382.397,238.705 382.959 C 236.342 383.521,233.372 384.159,232.105 384.375 C 230.837 384.592,229.350 384.851,228.800 384.950 C 228.250 385.050,226.810 385.254,225.600 385.404 C 224.390 385.555,223.040 385.744,222.600 385.825 C 222.160 385.906,220.360 386.090,218.600 386.235 C 216.840 386.379,215.310 386.623,215.200 386.778 C 215.019 387.031,186.475 387.070,186.000 386.818 C 185.890 386.759,185.080 386.655,184.200 386.586 C 181.008 386.335,169.969 384.792,167.000 384.182 C 166.560 384.091,164.940 383.760,163.400 383.444 C 158.561 382.454,152.645 380.861,151.281 380.181 C 150.560 379.821,149.706 379.627,149.385 379.751 C 149.063 379.874,148.800 379.771,148.800 379.521 C 148.800 379.271,148.697 379.169,148.572 379.295 C 148.446 379.420,147.884 379.285,147.322 378.993 C 146.760 378.702,146.053 378.558,145.750 378.674 C 145.448 378.791,145.200 378.665,145.200 378.396 C 145.200 378.104,144.878 377.991,144.399 378.116 C 143.959 378.231,143.686 378.185,143.792 378.013 C 143.898 377.841,143.134 377.469,142.093 377.188 C 141.052 376.906,140.020 376.561,139.800 376.421 C 139.580 376.281,138.680 375.937,137.800 375.657 C 136.116 375.120,135.542 374.896,133.085 373.815 C 132.252 373.448,131.249 373.087,130.857 373.011 C 130.465 372.935,129.460 372.410,128.625 371.843 C 127.789 371.275,126.947 370.909,126.753 371.029 C 126.559 371.149,126.400 371.046,126.400 370.800 C 126.400 370.554,126.220 370.464,126.000 370.600 C 125.780 370.736,125.600 370.637,125.600 370.381 C 125.600 370.124,125.335 370.016,125.011 370.141 C 124.686 370.265,124.281 370.133,124.111 369.848 C 123.831 369.380,119.220 367.071,118.845 367.211 C 118.759 367.242,118.579 367.114,118.445 366.925 C 118.310 366.736,117.031 365.966,115.602 365.215 C 114.173 364.463,112.654 363.523,112.227 363.124 C 111.799 362.726,111.241 362.400,110.987 362.400 C 110.732 362.400,110.053 361.995,109.476 361.499 C 108.900 361.004,107.570 360.149,106.521 359.599 C 105.472 359.050,104.371 358.373,104.075 358.096 C 103.778 357.819,103.342 357.712,103.106 357.858 C 102.851 358.015,102.793 357.936,102.962 357.662 C 103.119 357.408,103.059 357.200,102.828 357.200 C 102.381 357.200,101.176 356.289,99.955 355.029 C 99.544 354.605,99.093 354.374,98.951 354.516 C 98.810 354.657,98.345 354.329,97.918 353.786 C 97.491 353.244,96.985 352.800,96.793 352.800 C 96.601 352.800,95.760 352.170,94.922 351.399 C 94.085 350.629,93.085 349.896,92.700 349.772 C 92.315 349.648,92.000 349.378,92.000 349.173 C 92.000 348.968,91.838 348.800,91.640 348.800 C 91.442 348.800,90.637 348.157,89.850 347.370 C 89.005 346.525,88.227 346.060,87.948 346.232 C 87.679 346.398,87.582 346.352,87.723 346.125 C 87.858 345.906,87.346 345.123,86.584 344.385 C 85.823 343.647,85.200 343.141,85.200 343.262 C 85.200 343.382,84.289 342.607,83.176 341.540 C 82.064 340.473,80.984 339.600,80.776 339.600 C 80.569 339.600,80.400 339.414,80.400 339.187 C 80.400 338.639,77.893 336.182,77.470 336.316 C 77.289 336.373,77.243 336.254,77.368 336.052 C 77.493 335.849,76.335 334.540,74.795 333.142 C 73.254 331.744,71.903 330.330,71.793 330.000 C 71.498 329.121,66.989 324.344,66.714 324.619 C 66.585 324.748,66.507 324.611,66.540 324.315 C 66.593 323.837,64.656 321.230,62.700 319.146 C 62.315 318.736,62.000 318.303,62.000 318.185 C 62.000 317.585,58.062 312.467,57.789 312.713 C 57.615 312.871,57.618 312.748,57.797 312.439 C 57.998 312.092,57.900 311.711,57.540 311.439 C 56.728 310.827,54.890 308.022,52.601 303.900 C 51.532 301.975,50.498 300.400,50.305 300.400 C 50.111 300.400,50.065 300.219,50.202 299.997 C 50.339 299.776,50.170 299.487,49.828 299.355 C 49.485 299.224,49.304 298.955,49.426 298.758 C 49.548 298.561,49.446 298.400,49.200 298.400 C 48.954 298.400,48.857 298.231,48.985 298.025 C 49.112 297.818,48.927 297.487,48.573 297.289 C 48.218 297.090,47.944 296.809,47.964 296.664 C 48.077 295.834,47.948 295.585,47.538 295.838 C 47.246 296.019,47.185 295.948,47.373 295.644 C 47.536 295.381,47.345 294.678,46.950 294.082 C 46.555 293.487,46.196 292.820,46.152 292.600 C 45.897 291.313,43.514 286.806,43.193 287.004 C 42.982 287.135,42.904 286.994,43.020 286.691 C 43.235 286.131,42.464 284.108,40.393 279.800 C 39.759 278.480,38.669 275.648,37.971 273.506 C 37.211 271.171,36.538 269.715,36.290 269.868 C 36.038 270.024,35.999 269.926,36.188 269.619 C 36.541 269.048,35.257 264.349,34.631 263.922 C 34.407 263.769,34.336 263.531,34.473 263.394 C 34.716 263.150,33.503 258.197,32.809 256.600 C 32.421 255.707,30.833 248.705,30.587 246.800 C 30.544 246.470,30.134 243.770,29.675 240.800 C 29.217 237.830,28.736 233.870,28.608 232.000 C 28.479 230.130,28.281 227.848,28.167 226.928 C 27.887 224.673,27.876 205.771,28.153 203.561 C 28.505 200.749,28.945 195.163,28.974 193.138 C 28.988 192.114,29.135 191.360,29.300 191.462 C 29.465 191.564,29.601 191.052,29.601 190.324 C 29.602 189.596,29.950 187.209,30.375 185.019 C 30.800 182.830,31.063 180.902,30.960 180.735 C 30.857 180.569,30.943 180.110,31.151 179.716 C 31.359 179.322,31.755 177.920,32.032 176.600 C 32.308 175.280,32.656 174.020,32.805 173.800 C 33.120 173.333,34.410 168.723,34.577 167.462 C 34.640 166.988,34.879 166.139,35.107 165.576 C 35.335 165.013,35.739 163.753,36.005 162.776 C 36.271 161.799,36.639 160.640,36.824 160.200 C 37.162 159.394,38.395 155.744,38.580 155.000 C 38.811 154.071,39.327 152.833,40.633 150.076 C 41.394 148.468,41.896 146.955,41.747 146.714 C 41.585 146.452,41.661 146.391,41.938 146.562 C 42.192 146.719,42.400 146.657,42.400 146.425 C 42.400 145.949,48.450 133.110,48.821 132.800 C 49.604 132.144,53.588 124.704,53.356 124.329 C 53.195 124.068,53.254 123.986,53.496 124.136 C 53.888 124.378,54.276 123.861,54.315 123.045 C 54.324 122.849,54.491 122.579,54.685 122.445 C 54.879 122.310,55.471 121.570,55.999 120.800 C 56.528 120.030,57.194 119.256,57.480 119.080 C 57.766 118.904,58.000 118.582,58.000 118.363 C 58.000 118.145,58.315 117.626,58.700 117.210 C 59.085 116.794,59.756 115.767,60.191 114.927 C 60.626 114.087,61.572 112.773,62.295 112.008 C 63.017 111.242,63.966 109.892,64.404 109.008 C 64.841 108.123,65.200 107.563,65.200 107.762 C 65.200 107.961,65.560 107.798,66.000 107.400 C 66.440 107.002,66.800 106.453,66.800 106.181 C 66.800 105.908,67.081 105.578,67.425 105.446 C 67.775 105.311,67.924 105.001,67.764 104.741 C 67.591 104.461,67.651 104.384,67.914 104.547 C 68.154 104.695,68.497 104.569,68.675 104.267 C 69.120 103.514,71.568 100.532,72.860 99.171 C 73.443 98.556,73.818 97.952,73.694 97.827 C 73.569 97.702,73.727 97.600,74.046 97.600 C 74.844 97.600,79.296 93.037,78.911 92.613 C 78.740 92.425,78.793 92.381,79.029 92.515 C 79.476 92.769,80.800 91.483,80.800 90.795 C 80.800 90.578,80.974 90.400,81.187 90.400 C 81.722 90.400,85.738 86.810,86.072 86.033 C 86.221 85.685,86.356 85.535,86.372 85.700 C 86.387 85.865,86.741 85.685,87.158 85.300 C 87.574 84.915,89.491 83.340,91.416 81.800 C 93.342 80.260,95.386 78.558,95.959 78.018 C 96.531 77.478,97.000 77.110,97.000 77.199 C 97.000 77.289,97.934 76.751,99.076 76.004 C 100.217 75.256,101.062 74.500,100.952 74.322 C 100.842 74.145,101.033 74.000,101.376 74.000 C 101.719 74.000,102.000 73.820,102.000 73.600 C 102.000 73.380,102.190 73.200,102.421 73.200 C 103.171 73.200,105.605 71.339,105.298 71.000 C 105.134 70.820,105.218 70.797,105.485 70.950 C 105.915 71.197,109.080 69.538,109.600 68.794 C 109.710 68.637,110.208 68.381,110.706 68.225 C 111.215 68.066,111.494 67.753,111.344 67.509 C 111.195 67.269,111.261 67.190,111.491 67.333 C 111.719 67.474,112.385 67.212,112.971 66.752 C 113.556 66.291,115.107 65.395,116.418 64.760 C 117.728 64.126,118.800 63.425,118.800 63.203 C 118.800 62.981,118.935 62.843,119.100 62.895 C 119.631 63.063,121.997 61.918,121.794 61.591 C 121.687 61.417,121.959 61.369,122.399 61.484 C 122.847 61.601,123.200 61.496,123.200 61.247 C 123.200 61.001,123.335 60.836,123.500 60.879 C 124.177 61.058,125.593 60.313,125.344 59.909 C 125.193 59.666,125.261 59.591,125.499 59.738 C 126.005 60.051,130.098 58.231,129.725 57.859 C 129.583 57.716,129.775 57.600,130.153 57.600 C 130.530 57.600,131.584 57.240,132.494 56.800 C 133.405 56.360,134.274 56.000,134.424 56.000 C 134.575 56.000,135.576 55.603,136.649 55.117 C 137.722 54.631,138.690 54.219,138.800 54.202 C 139.675 54.063,143.903 52.589,144.300 52.285 C 144.575 52.075,144.800 52.013,144.800 52.149 C 144.800 52.285,145.745 52.028,146.900 51.576 C 148.055 51.125,149.539 50.679,150.198 50.585 C 150.857 50.490,151.457 50.229,151.532 50.004 C 151.607 49.779,151.826 49.692,152.018 49.811 C 152.210 49.930,152.690 49.843,153.084 49.617 C 154.217 48.969,161.626 47.234,169.400 45.797 C 170.666 45.563,178.797 44.464,181.000 44.229 C 182.100 44.112,183.990 43.901,185.200 43.761 C 188.082 43.427,208.083 42.928,208.599 43.177 C 208.818 43.283,209.448 43.400,209.999 43.438 M197.217 101.510 C 196.548 101.835,196.000 102.358,196.000 102.674 C 196.000 102.989,195.820 103.136,195.600 103.000 C 195.380 102.864,195.177 102.898,195.149 103.076 C 195.121 103.254,194.997 103.850,194.874 104.400 C 194.751 104.950,194.639 135.280,194.625 171.800 L 194.600 238.200 184.225 227.800 C 178.519 222.080,173.704 217.445,173.525 217.500 C 173.346 217.555,173.234 217.465,173.276 217.300 C 173.405 216.788,166.558 209.975,166.237 210.297 C 166.070 210.464,165.993 210.386,166.067 210.125 C 166.214 209.600,160.795 204.178,160.270 204.327 C 160.089 204.378,160.036 204.265,160.153 204.076 C 160.270 203.887,159.584 202.966,158.630 202.029 C 156.758 200.192,156.696 199.700,158.055 197.398 C 159.177 195.495,159.988 191.310,159.992 187.400 C 159.995 184.386,159.816 183.132,158.991 180.400 C 158.958 180.290,158.826 179.930,158.699 179.600 C 158.571 179.270,158.362 178.518,158.233 177.928 C 158.104 177.338,157.729 176.586,157.399 176.257 C 157.070 175.927,156.800 175.503,156.800 175.315 C 156.800 174.286,150.587 167.837,149.965 168.222 C 149.761 168.348,149.489 168.176,149.360 167.840 C 149.231 167.504,148.110 166.850,146.868 166.385 C 145.626 165.920,144.428 165.398,144.205 165.225 C 143.982 165.052,143.322 164.796,142.737 164.657 C 142.153 164.517,141.358 164.282,140.972 164.134 C 140.454 163.935,140.355 164.004,140.596 164.394 C 140.792 164.711,140.767 164.827,140.534 164.683 C 139.423 163.996,134.590 163.729,132.400 164.234 C 131.850 164.361,131.175 164.480,130.900 164.499 C 130.625 164.518,130.400 164.666,130.400 164.829 C 130.400 164.992,130.072 165.039,129.672 164.935 C 129.272 164.830,128.710 165.027,128.423 165.372 C 128.137 165.717,127.587 166.000,127.202 166.000 C 123.399 166.000,113.988 176.705,113.998 181.020 C 113.999 181.471,113.786 182.054,113.523 182.317 C 112.948 182.892,112.604 190.800,113.154 190.800 C 113.358 190.800,113.424 191.188,113.300 191.663 C 113.125 192.329,113.202 192.448,113.637 192.186 C 114.117 191.897,114.119 191.947,113.651 192.523 C 113.349 192.895,113.265 193.200,113.464 193.200 C 113.663 193.200,114.072 194.055,114.373 195.100 C 115.104 197.638,116.724 200.837,117.717 201.700 C 118.160 202.085,118.360 202.400,118.162 202.400 C 117.857 202.400,119.190 203.685,122.467 206.550 C 122.833 206.871,123.234 207.033,123.357 206.909 C 123.480 206.786,123.690 206.970,123.824 207.318 C 123.958 207.666,124.592 208.066,125.233 208.207 C 125.875 208.348,126.400 208.600,126.400 208.768 C 126.400 211.829,144.823 211.518,147.483 208.412 C 147.832 208.004,148.343 207.757,148.618 207.862 C 148.894 207.968,149.238 207.862,149.383 207.627 C 149.528 207.392,149.827 207.200,150.047 207.200 C 150.267 207.200,150.355 207.350,150.242 207.533 C 150.128 207.716,150.928 208.744,152.018 209.818 C 153.108 210.891,154.000 211.652,154.000 211.509 C 154.000 211.365,154.959 212.182,156.132 213.324 C 157.304 214.466,158.249 215.507,158.232 215.638 C 158.214 215.769,159.145 216.835,160.300 218.006 C 161.455 219.178,162.400 220.010,162.400 219.857 C 162.400 219.703,163.356 220.527,164.524 221.689 C 165.692 222.850,166.617 223.890,166.578 224.000 C 166.540 224.110,167.384 225.063,168.454 226.117 C 169.524 227.171,170.400 227.945,170.400 227.835 C 170.400 227.495,172.166 229.383,172.910 230.519 C 173.300 231.114,173.884 231.600,174.209 231.600 C 174.534 231.600,174.760 231.735,174.712 231.900 C 174.592 232.305,178.429 236.224,178.832 236.108 C 179.008 236.058,179.264 236.373,179.403 236.808 C 179.541 237.244,179.835 237.600,180.056 237.600 C 180.276 237.600,180.727 237.870,181.057 238.200 C 181.387 238.530,181.509 238.801,181.329 238.803 C 181.148 238.804,181.540 239.163,182.200 239.600 C 182.860 240.037,183.241 240.396,183.047 240.397 C 182.853 240.399,183.933 241.570,185.447 243.001 C 188.880 246.244,188.314 245.679,191.604 249.148 L 194.400 252.096 194.447 294.548 C 194.473 317.897,194.473 337.135,194.447 337.300 C 194.421 337.465,194.574 337.600,194.787 337.600 C 195.001 337.600,195.078 337.853,194.959 338.163 C 194.838 338.479,195.357 339.359,196.138 340.163 C 198.125 342.210,200.905 342.248,203.075 340.259 L 204.538 338.918 204.441 329.481 L 204.343 320.044 218.271 306.125 C 225.932 298.470,232.151 292.057,232.090 291.873 C 232.030 291.690,232.128 291.632,232.308 291.743 C 232.488 291.854,233.257 291.205,234.018 290.299 C 234.778 289.394,235.753 288.371,236.184 288.027 C 236.616 287.682,238.377 285.960,240.098 284.200 C 241.819 282.440,243.613 280.640,244.084 280.200 C 244.555 279.760,246.257 278.164,247.866 276.654 L 250.790 273.907 252.695 274.807 C 255.928 276.333,259.600 277.345,259.600 276.709 C 259.600 276.476,259.861 276.519,260.210 276.808 C 260.898 277.379,269.110 277.144,269.551 276.540 C 269.688 276.353,270.197 276.159,270.682 276.108 C 272.044 275.966,276.695 273.651,276.949 272.989 C 277.073 272.665,277.418 272.400,277.715 272.400 C 278.411 272.400,280.019 270.562,279.668 270.170 C 279.520 270.006,279.610 269.992,279.866 270.139 C 280.383 270.434,283.200 267.383,283.200 266.528 C 283.200 266.238,283.362 266.000,283.560 266.000 C 283.758 266.000,284.243 265.100,284.639 264.000 C 285.034 262.900,285.522 262.000,285.722 262.000 C 285.922 262.000,285.982 261.730,285.855 261.400 C 285.729 261.070,285.820 260.800,286.059 260.800 C 286.298 260.800,286.401 260.449,286.289 260.019 C 286.177 259.590,286.254 259.182,286.460 259.113 C 287.509 258.764,287.154 249.002,285.983 246.000 C 285.940 245.890,285.927 245.665,285.953 245.500 C 285.979 245.335,285.820 245.200,285.600 245.200 C 285.380 245.200,285.200 244.985,285.200 244.723 C 285.200 243.001,279.805 235.949,277.400 234.527 C 275.647 233.491,270.576 230.999,270.200 230.989 C 269.980 230.984,269.530 230.809,269.200 230.601 C 267.480 229.518,256.997 230.212,256.275 231.457 C 256.097 231.765,255.787 231.916,255.587 231.792 C 255.387 231.668,254.633 231.880,253.912 232.262 C 253.190 232.644,252.403 232.991,252.163 233.034 C 251.309 233.184,248.488 235.162,247.703 236.160 C 247.265 236.717,246.792 237.059,246.653 236.920 C 246.514 236.781,246.400 236.844,246.400 237.061 C 246.400 237.277,245.758 238.162,244.974 239.027 C 243.216 240.966,240.970 245.197,241.694 245.206 C 242.055 245.210,242.036 245.316,241.628 245.574 C 241.314 245.773,241.006 246.175,240.944 246.468 C 240.882 246.761,240.649 247.720,240.425 248.600 C 239.401 252.636,240.146 259.943,241.947 263.512 C 243.451 266.493,243.467 266.437,240.227 269.627 C 238.582 271.246,237.308 272.641,237.394 272.728 C 237.610 272.943,236.654 273.948,236.386 273.788 C 236.269 273.717,234.571 275.266,232.615 277.230 C 230.658 279.193,229.179 280.800,229.329 280.800 C 229.478 280.800,229.285 281.131,228.900 281.537 C 228.515 281.942,228.104 282.225,227.986 282.166 C 227.869 282.107,226.159 283.694,224.186 285.692 C 222.214 287.690,220.870 289.200,221.200 289.047 C 221.530 288.895,221.442 289.002,221.004 289.285 C 219.962 289.959,212.350 297.568,211.685 298.601 C 211.402 299.040,211.294 299.130,211.446 298.800 C 211.598 298.470,210.179 299.725,208.293 301.589 C 206.407 303.453,204.950 305.118,205.055 305.289 C 205.161 305.460,205.057 305.600,204.824 305.600 C 204.074 305.600,204.245 191.027,204.996 190.404 C 205.323 190.132,205.490 189.745,205.366 189.545 C 205.242 189.344,205.295 189.230,205.484 189.290 C 206.001 189.456,215.238 180.172,214.896 179.830 C 214.733 179.667,214.788 179.593,215.018 179.667 C 215.510 179.823,221.847 173.629,221.700 173.135 C 221.645 172.951,221.761 172.845,221.957 172.900 C 222.391 173.022,234.627 160.724,234.494 160.300 C 234.442 160.135,234.558 160.045,234.751 160.100 C 234.944 160.155,238.435 156.825,242.507 152.700 C 246.580 148.575,250.107 145.200,250.345 145.200 C 250.583 145.200,251.772 145.640,252.989 146.178 C 254.205 146.716,255.200 147.054,255.200 146.929 C 255.200 146.804,255.425 146.877,255.700 147.091 C 257.981 148.866,273.248 148.496,272.133 146.692 C 271.987 146.456,272.070 146.396,272.324 146.553 C 272.755 146.820,274.018 146.234,277.363 144.215 C 279.095 143.170,281.984 140.147,282.844 138.479 C 283.150 137.886,283.805 136.790,284.300 136.044 C 284.795 135.298,285.200 134.353,285.200 133.944 C 285.200 133.535,285.410 133.200,285.667 133.200 C 285.923 133.200,286.015 133.082,285.870 132.937 C 285.725 132.792,285.806 132.434,286.048 132.142 C 286.291 131.849,286.381 131.329,286.249 130.984 C 286.117 130.640,286.176 130.462,286.380 130.588 C 286.585 130.714,286.737 130.498,286.720 130.109 C 286.703 129.719,286.830 128.878,287.003 128.240 C 287.256 127.303,287.209 127.145,286.758 127.417 C 286.289 127.700,286.285 127.649,286.731 127.098 C 287.114 126.626,287.197 125.682,287.029 123.721 C 286.900 122.225,286.780 120.730,286.761 120.400 C 286.696 119.225,285.877 116.983,285.117 115.900 C 284.693 115.295,284.437 114.800,284.549 114.800 C 284.781 114.800,284.144 113.556,283.013 111.800 C 281.891 110.059,278.886 106.847,278.624 107.109 C 278.501 107.233,278.400 107.147,278.400 106.920 C 278.400 106.406,275.210 104.257,274.903 104.564 C 274.780 104.687,274.481 104.521,274.240 104.195 C 273.665 103.421,269.269 101.889,268.330 102.134 C 267.928 102.239,267.600 102.175,267.600 101.991 C 267.600 101.417,259.634 101.626,257.647 102.252 C 256.631 102.573,255.530 102.898,255.200 102.976 C 253.585 103.359,250.036 105.203,249.655 105.859 C 249.418 106.267,249.219 106.432,249.212 106.228 C 249.173 105.023,243.124 112.435,242.029 115.029 C 239.431 121.189,239.338 132.080,241.862 134.605 C 242.189 134.932,242.350 135.200,242.218 135.200 C 242.087 135.200,242.254 135.731,242.590 136.380 C 243.178 137.518,243.431 138.764,242.982 138.315 C 242.689 138.023,234.088 146.517,234.289 146.900 C 234.376 147.065,234.265 147.200,234.042 147.200 C 233.820 147.200,230.931 149.945,227.622 153.300 C 224.314 156.655,221.414 159.580,221.178 159.800 C 220.942 160.020,217.066 163.879,212.563 168.375 L 204.377 176.551 204.412 140.033 C 204.445 105.355,204.410 103.474,203.724 102.716 C 202.036 100.851,199.536 100.387,197.217 101.510 " stroke="none" fill="#249cdc" fill-rule="evenodd"></path><path id="path1" d="M204.591 141.200 C 204.591 160.670,204.640 168.635,204.700 158.900 C 204.760 149.165,204.760 133.235,204.700 123.500 C 204.640 113.765,204.591 121.730,204.591 141.200 M245.375 149.700 L 244.200 151.000 245.500 149.825 C 246.215 149.179,246.800 148.594,246.800 148.525 C 246.800 148.216,246.470 148.488,245.375 149.700 M204.496 248.100 C 204.443 279.725,204.535 305.600,204.700 305.600 C 204.971 305.600,204.970 265.724,204.696 211.200 C 204.639 199.870,204.549 216.475,204.496 248.100 M204.570 328.000 C 204.570 332.730,204.628 334.665,204.698 332.300 C 204.769 329.935,204.769 326.065,204.698 323.700 C 204.628 321.335,204.570 323.270,204.570 328.000 " stroke="none" fill="#24a4dc" fill-rule="evenodd"></path><path id="path2" d="" stroke="none" fill="#289cdc" fill-rule="evenodd"></path><path id="path3" d="" stroke="none" fill="#289cdc" fill-rule="evenodd"></path><path id="path4" d="" stroke="none" fill="#289cdc" fill-rule="evenodd"></path><path id="path5" d="" stroke="none" fill="#289cdc" fill-rule="evenodd"></path></g></svg>