<?xml version="1.0" encoding="UTF-8"?>
<svg width="951px" height="1024px" viewBox="0 0 39 39" version="1.1" xmlns="http://www.w3.org/2000/svg" xmlns:xlink="http://www.w3.org/1999/xlink">
    <!-- Generator: Sketch 52.5 (67469) - http://www.bohemiancoding.com/sketch -->
    <title>Ico_Personalization</title>
    <desc>Created with Sketch.</desc>
    <defs>
        <path d="M11.3422298,19.4264023 C11.2922298,19.7764023 11.2922298,20.0764023 11.2922298,20.4264023 L8.29222981,20.4264023 C8.29222981,20.0764023 8.29222981,19.7764023 8.34222981,19.4264023 L11.3422298,19.4264023 Z M22.2922298,6.42640233 C14.8922298,6.42640233 8.84222981,12.1764023 8.34222981,19.4264023 C8.34222981,19.5764023 8.29222981,19.7764023 8.29222981,19.9264023 L6.04222981,19.9264023 C5.39222981,19.9264023 5.04222981,20.6764023 5.44222981,21.1264023 L9.19222981,25.6764023 C9.49222981,26.0264023 10.0422298,26.0264023 10.3422298,25.6764023 L14.0922298,21.1264023 C14.4922298,20.6264023 14.1422298,19.9264023 13.4922298,19.9264023 L11.2922298,19.9264023 L11.2922298,19.4264023 C11.7922298,13.8264023 16.5422298,9.42640233 22.2422298,9.42640233 C28.7422298,9.42640233 33.8922298,15.0764023 33.1922298,21.6764023 C32.6922298,26.4264023 28.1922298,30.9264023 23.3922298,31.3764023 C19.8422298,31.7264023 16.4922298,30.4264023 14.1422298,27.8764023 C13.8422298,27.5264023 13.4422298,27.3264023 13.0422298,27.8264023 L11.8422298,29.2764023 C11.5922298,29.5764023 11.7922298,29.7764023 12.0422298,30.0264023 C14.7422298,32.8764023 18.4422298,34.4764023 22.4422298,34.4264023 C29.6422298,34.3264023 35.6922298,28.6264023 36.1922298,21.4264023 C36.8422298,13.2764023 30.3422298,6.42640233 22.2922298,6.42640233 L22.2922298,6.42640233 Z" id="path-1"></path>
    </defs>
    <g id="Page-1" stroke="none" stroke-width="1" fill="none" fill-rule="evenodd">
        <g id="Segment-Summary" transform="translate(-270.000000, -328.000000)">
            <g id="Ico_Personalization" transform="translate(267.000000, 326.000000)">
                <g id="Group-2" stroke-width="1">
                    <path d="M22.1597419,40.6110968 C11.5790968,40.6110968 2.99974194,32.0317419 2.99974194,21.4510968 C2.99974194,10.8691613 11.5790968,2.28980645 22.1597419,2.28980645 C32.7416774,2.28980645 41.3197419,10.8691613 41.3197419,21.4510968 C41.3197419,32.0317419 32.7416774,40.6110968 22.1597419,40.6110968 Z" id="Fill-1" fill="#4BCA81"></path>
                    <mask id="mask-2" fill="white">
                        <use xlink:href="#path-1"></use>
                    </mask>
                    <use id="Mask" fill="#FFFFFF" transform="translate(20.754779, 20.426971) rotate(36.000000) translate(-20.754779, -20.426971) " xlink:href="#path-1"></use>
                </g>
                <path d="M27.8889806,25.9849486 C26.4909801,27.7117669 24.3940777,28.8094451 22.0499986,28.8094451 C19.5848171,28.8094451 17.3930118,27.5954182 16,25.7123372 C16.6528504,24.8975375 17.7854527,24.3226984 18.9755762,23.8088222 C20.157792,23.2718429 20.3604576,22.7706622 20.3604576,22.2336829 C20.3604576,21.6967036 20.0226816,21.1597242 19.6173505,20.7659394 C18.908021,20.049967 18.5026899,19.0834042 18.5026899,17.9378483 C18.5026899,15.8257297 19.7186833,14 21.8804493,14 C24.0422154,14 25.2582088,15.8257297 25.2582088,17.9378483 C25.2582088,19.0834042 24.8528777,20.0857656 24.1435482,20.7659394 C23.7382171,21.1597242 23.4004411,21.6967036 23.4004411,22.2336829 C23.4004411,22.7706622 23.5693291,23.2718429 24.7853225,23.8088222 C26.0551376,24.3781959 27.2896446,25.0224112 27.8889806,25.9849486 Z" id="Path-3" fill="#FFFFFF"></path>
            </g>
        </g>
    </g>
</svg>
