<?xml version="1.0" encoding="utf-8"?>
<!-- Generator: Adobe Illustrator 16.0.0, SVG Export Plug-In . SVG Version: 6.00 Build 0)  -->
<!DOCTYPE svg PUBLIC "-//W3C//DTD SVG 1.1//EN" "http://www.w3.org/Graphics/SVG/1.1/DTD/svg11.dtd">
<svg version="1.1" id="Layer_1" xmlns="http://www.w3.org/2000/svg" xmlns:xlink="http://www.w3.org/1999/xlink" x="0px" y="0px"
  width="951px" height="1024px" viewBox="0 0 951 1024" enable-background="new 0 0 951 1024" xml:space="preserve">
<path d="M475.486,50.158c-255.077,0-461.835,206.771-461.835,461.849c0,255.077,206.758,461.835,461.835,461.835
  s461.862-206.758,461.862-461.835C937.349,256.929,730.563,50.158,475.486,50.158z M387.408,834.398
  c-35.44,0-60.056-16.757-60.056-54.175c0-47.2,33.463-127.968,40.384-144.672l68.902-173.296
  c6.869-17.694-1.977-26.541-9.887-26.541c-36.376,0-83.682,85.659-101.375,85.659c-6.922,0-12.803-6.922-12.803-12.854
  c0-17.694,43.298-59.065,56.153-71.816c39.343-37.417,90.551-65.988,147.638-65.988c42.31,0,87.637,25.604,52.198,121.099
  L497.63,683.741c-5.88,14.779-16.704,39.395-16.704,55.163c0,6.869,3.902,13.791,11.812,13.791
  c29.507,0,83.682-83.682,97.473-83.682c4.892,0,11.761,5.88,11.761,14.728C601.972,712.312,486.857,834.398,387.408,834.398z
  M556.748,335.328c-40.384,0-66.977-26.593-66.977-66.977c0-43.298,37.417-78.737,80.715-78.737
  c39.396,0,67.914,26.541,67.914,66.924C638.4,301.814,601.035,335.328,556.748,335.328z"/>
</svg>
