<?xml version="1.0" encoding="utf-8"?>
<!-- Generator: Adobe Illustrator 16.0.0, SVG Export Plug-In . SVG Version: 6.00 Build 0)  -->
<!DOCTYPE svg PUBLIC "-//W3C//DTD SVG 1.1//EN" "http://www.w3.org/Graphics/SVG/1.1/DTD/svg11.dtd">
<svg version="1.1" id="Layer_1" xmlns="http://www.w3.org/2000/svg" xmlns:xlink="http://www.w3.org/1999/xlink" x="0px" y="0px"
  width="951px" height="1024px" viewBox="0 0 951 1024" enable-background="new 0 0 951 1024" xml:space="preserve">
<g id="icomoon-ignore">
</g>
<g>
  <path d="M944.748,234.706c-6.244-46.385-31.874-94.13-72.17-134.439c-42.96-42.954-89.819-64.732-139.277-64.732
    c-25.409,0-50.716,5.852-75.216,17.392c-21.715,10.229-42.578,25.015-60.336,42.764L458.405,235.041
    c-11.744,11.745-11.747,30.884,0,42.67c5.693,5.693,13.267,8.828,21.327,8.828c8.061,0,15.634-3.135,21.327-8.828l139.335-139.376
    c28.185-28.174,58.358-42.46,89.682-42.46c47.668,0,85.701,32.9,99.84,47.043c14.936,14.95,41.505,45.636,51.648,83.187
    c11.837,43.823-1.354,85.232-39.209,123.08L627.402,564.17c-33.344,33.339-67.591,50.244-101.789,50.249c-0.006,0-0.008,0-0.014,0
    c-42.748,0-75.756-26.608-91.625-42.469c-5.693-5.693-13.265-8.828-21.322-8.828c-8.054,0-15.631,3.133-21.34,8.827
    c-11.753,11.752-11.754,30.889,0.001,42.662c38.993,38.975,86.769,60.438,134.528,60.438c50.479,0,98.992-22.958,144.189-68.233
    l214.986-214.961c24.454-24.446,41.831-50.869,51.647-78.534C945.644,288.015,948.364,261.565,944.748,234.706z"/>
  <path d="M310.488,885.829c-28.088,28.073-58.357,42.308-89.966,42.31c-3.062,0-6.183-0.136-9.272-0.402
    c-30.88-2.684-62.938-19.204-90.269-46.518c-30.16-30.151-49.551-64.527-54.602-96.796c-6.056-38.624,8.116-75.445,42.122-109.444
    L323.47,459.984c33.909-33.903,68.638-51.093,103.221-51.093c42.753,0,75.576,26.447,91.336,42.212
    c5.692,5.692,13.266,8.828,21.326,8.828c8.063,0,15.63-3.137,21.301-8.828c11.753-11.752,11.753-30.882,0.001-42.645
    c-39.343-39.35-83.317-59.301-130.703-59.301c-51.425,0-105.783,24.857-149.136,68.199L65.873,632.301
    C18.151,680.021-2.277,735.85,6.794,793.749c8.984,57.378,43.854,102.436,71.525,130.132
    c37.339,37.331,82.686,60.037,127.661,63.934c4.698,0.433,9.567,0.651,14.472,0.651c47.529,0,93.406-20.75,132.671-60.007
    l145.152-145.135l-42.653-42.664L310.488,885.829z"/>
</g>
</svg>
