<?xml version="1.0" encoding="utf-8"?>
<!-- Generator: Adobe Illustrator 16.0.0, SVG Export Plug-In . SVG Version: 6.00 Build 0)  -->
<!DOCTYPE svg PUBLIC "-//W3C//DTD SVG 1.1//EN" "http://www.w3.org/Graphics/SVG/1.1/DTD/svg11.dtd">
<svg version="1.1" id="Layer_1" xmlns="http://www.w3.org/2000/svg" xmlns:xlink="http://www.w3.org/1999/xlink" x="0px" y="0px"
	 width="951px" height="1024px" viewBox="0 0 951 1024" enable-background="new 0 0 951 1024" xml:space="preserve">
<g id="icomoon-ignore">
</g>
<g>
	<rect x="430.051" y="818.702" width="90.91" height="24.733"/>
	<path d="M633.209,103.938h-315.48c-40.508,0-74.723,34.239-74.723,74.76v666.605c0,40.521,34.215,74.76,74.723,74.76h315.48
		c41.225,0,74.785-32.736,74.785-72.965V693.892v-18.187V178.697C707.994,138.177,673.754,103.938,633.209,103.938z M683.26,693.892
		v153.206c0,26.601-22.432,48.231-50.051,48.231h-315.48c-27.11,0-50.001-22.892-50.001-50.026V178.697
		c0-27.11,22.891-50.025,50.001-50.025h315.48c27.135,0,50.051,22.915,50.051,50.025v497.008V693.892z"/>
	<path d="M305.375,765.015H643.83v-71.123v-18.187V184.153H305.375V765.015z M330.096,208.863h289v466.842v18.187v46.389h-289
		V208.863z"/>
</g>
</svg>
