<?xml version="1.0" encoding="utf-8"?>
<!-- Generator: Adobe Illustrator 16.0.0, SVG Export Plug-In . SVG Version: 6.00 Build 0)  -->
<!DOCTYPE svg PUBLIC "-//W3C//DTD SVG 1.1//EN" "http://www.w3.org/Graphics/SVG/1.1/DTD/svg11.dtd">
<svg version="1.1" id="Layer_1" xmlns="http://www.w3.org/2000/svg" xmlns:xlink="http://www.w3.org/1999/xlink" x="0px" y="0px"
	 width="951px" height="1024px" viewBox="0 0 951 1024" enable-background="new 0 0 951 1024" xml:space="preserve">
<g id="icomoon-ignore">
</g>
<g>
	<g opacity="0.65">
		<path fill="#B8C3C9" d="M834.354,512.898c0,198.146-160.639,358.785-358.786,358.785c-198.185,0-358.835-160.639-358.835-358.785
			c0-198.136,160.65-358.848,358.835-358.848C673.715,154.051,834.354,314.762,834.354,512.898z"/>
		<path fill="#FFFFFF" d="M563.874,426.472l0.16-0.294c1.794-1.901,2.649-4.551,2.408-7.228
			c-2.327-22.752,4.392-69.676,46.362-84.453l0.162-0.16c0.107,0,0.241-0.027,0.427-0.027c7.361-2.167,14.241-3.319,20.559-3.319
			c1.498,0,2.838,0.133,4.016,0.187c0.536,0.053,1.097,0.053,1.633,0c1.259-0.054,2.676-0.187,4.148-0.187
			c6.371,0,13.331,1.151,20.665,3.319c0.16,0.027,0.429,0.187,0.589,0.187c41.866,14.83,48.583,61.754,46.255,84.453
			c-0.269,2.463,0.509,5.033,2.088,6.987c0.161,0.188,0.24,0.241,0.321,0.401c4.069,5.086,2.676,13.839,1.097,20.826
			c-2.568,10.921-6.663,18.711-12.045,22.539c-1.9,1.258-3.132,3.106-3.668,5.354c-1.363,5.46-12.875,26.447-15.096,30.087
			c-0.107,0-0.107,0.026-0.107,0.107c0,0.053-0.08,0.053-0.08,0.053c-1.419,2.142-4.336,6.184-6.184,8.966
			c-0.696,1.019-1.338,1.849-1.847,2.625c-13.196,12.606-22.886,14.908-38.332,15.016c-15.284-0.722-28.106-8.243-34.772-14.722
			c-0.267-0.51-0.695-0.964-1.097-1.525c-1.848-2.437-5.729-7.523-7.308-9.932c0-0.054-0.054-0.054-0.054-0.16
			c-2.195-3.534-14.159-25.056-15.524-30.516c-0.536-2.248-1.849-4.096-3.641-5.46c-5.328-3.587-9.504-11.376-12.045-22.325
			C561.305,440.15,559.965,431.423,563.874,426.472z M400.375,497.995l0.16-0.133c1.794-1.981,2.624-4.711,2.409-7.281
			c-2.354-22.779,4.391-69.677,46.39-84.56h0.053c0.081-0.053,0.322-0.053,0.482-0.188c7.362-2.167,14.241-3.239,20.584-3.239
			c1.419,0,2.757,0.054,4.042,0.161c0.482,0.106,0.964,0.106,1.635,0.106c1.23-0.213,2.676-0.268,4.12-0.268
			c6.346,0,13.304,1.071,20.693,3.374c0.188,0,0.348,0.053,0.508,0.133c41.919,14.803,48.664,61.701,46.28,84.561
			c-0.213,2.436,0.563,4.925,2.17,6.826c0.054,0.16,0.214,0.375,0.295,0.481c4.067,5.032,2.65,13.786,1.097,20.878
			c-1.259,5.328-2.917,9.905-4.952,13.652c-2.034,3.962-4.363,6.906-7.146,8.78c-1.819,1.365-3.106,3.238-3.642,5.406
			c-0.508,1.688-1.98,5.113-3.854,8.994c-4.016,8.138-9.689,18.551-11.243,20.935c-0.106,0.106-0.106,0.213-0.214,0.267
			c0,0,0,0,0,0.081c-1.393,2.168-4.282,6.184-6.157,8.859c-0.803,1.124-1.444,1.873-1.874,2.678
			c-4.978,4.79-9.395,8.057-13.946,10.331c-5.701,2.917-11.402,4.096-18.229,4.364c-1.979,0.16-4.016,0.241-6.103,0.241
			c-1.018-0.081-1.927-0.081-2.891-0.241c-6.719-0.724-12.849-2.65-18.094-5.087c-5.782-2.811-10.601-6.184-13.76-9.314
			c-0.348-0.456-0.721-1.045-1.123-1.527c-1.901-2.462-5.703-7.547-7.308-9.956c0,0-0.028-0.081-0.028-0.188
			c-1.498-2.328-7.656-13.251-11.669-21.628c-1.982-3.803-3.48-7.12-3.855-8.809c-0.562-2.168-1.927-4.041-3.747-5.406
			c-2.678-1.927-5.087-4.953-7.174-8.807c-1.982-3.774-3.586-8.325-4.818-13.626C397.778,511.755,396.468,502.948,400.375,497.995z
			 M247.905,469.595c-5.354-3.721-9.476-11.404-11.938-22.432c-1.66-6.986-2.972-15.74,0.909-20.691l0.162-0.294
			c1.82-1.901,2.648-4.551,2.409-7.228c-2.355-22.752,4.417-69.676,46.362-84.453l0.079-0.16c0.106,0,0.269-0.027,0.401-0.027
			c7.361-2.167,14.348-3.319,20.64-3.319c1.472,0,2.757,0.133,3.935,0.187c0.589,0.053,1.125,0.053,1.632,0
			c1.366-0.054,2.729-0.187,4.176-0.187c6.397,0,13.411,1.151,20.691,3.319c0.215,0.027,0.375,0.187,0.589,0.187
			c41.919,14.83,48.611,61.754,46.283,84.453c-0.295,2.57,0.508,5.033,2.167,6.987c0.054,0.188,0.16,0.241,0.267,0.401
			c4.016,5.086,2.678,13.839,1.018,20.933c-2.516,10.841-6.638,18.738-12.045,22.431c-1.82,1.258-3.16,3.106-3.587,5.354
			c-1.447,5.46-12.956,26.447-15.098,30.087c-0.16,0-0.16,0.026-0.16,0.107c0,0.053,0,0.053,0,0.053
			c-1.447,2.142-4.336,6.184-6.265,8.966c-0.749,1.046-1.391,1.874-1.82,2.625c-13.169,12.606-22.965,14.937-38.331,15.016
			c-15.312-0.722-28.106-8.243-34.746-14.722c-0.32-0.51-0.695-0.964-1.097-1.5c-1.848-2.435-5.702-7.548-7.255-9.957
			c-0.106-0.054-0.106-0.054-0.16-0.16c-2.14-3.534-14.134-25.056-15.472-30.516C251.117,472.808,249.779,470.933,247.905,469.595z
			 M311.988,623.055c-116.067,0-135.875-15.551-139.14-20.396c-2.036-2.891-2.464-6.29-1.259-9.557
			c11.857-31.211,30.997-38.653,48.129-41.651c16.114-2.916,36.432-8.912,44.327-13.223c1.472-0.776,2.65-1.979,3.508-3.427
			c9.958,7.844,24.867,14.99,42.293,15.688h0.375c16.863,0,30.89-2.784,46.253-15.606c0.777,1.366,1.929,2.463,3.346,3.265
			c6.719,3.695,20.531,7.844,33.033,10.923c1.66,1.954,3.399,3.828,5.326,5.379c3.32,8.861,11.753,24.172,15.581,30.677
			c0.186,4.552,0.213,7.897,0.213,10.386c-7.869,2.972-22.003,6.96-34.048,9.155c-11.618,2.062-26.125,6.263-39.188,18.041
			C331.85,622.921,322.32,623.055,311.988,623.055z M615.856,664.733c1.233,3.212,0.804,6.639-1.178,9.556
			c-3.265,4.817-23.18,20.505-139.219,20.505c-115.958,0-135.82-15.688-139.112-20.505c-2.035-2.917-2.411-6.344-1.287-9.556
			c3.962-10.146,8.567-17.827,13.652-23.609c10.575-11.992,22.915-15.98,34.531-18.069c6.8-1.203,14.347-2.97,21.361-5.006
			c9.717-2.729,18.417-5.754,22.94-8.298c1.526-0.749,2.757-1.927,3.508-3.346c1.98,1.473,4.069,3.025,6.45,4.363
			c6.291,4.042,13.84,7.469,22.405,9.423c4.31,1.018,8.727,1.739,13.438,1.846h0.429c6.262,0,12.017-0.373,17.772-1.525
			c7.577-1.525,14.938-4.336,22.485-9.476c1.929-1.392,3.855-2.943,5.89-4.496c0.883,1.284,1.979,2.462,3.479,3.211
			c4.925,2.704,13.705,5.782,23.101,8.379c7.308,2.062,14.857,3.801,21.281,4.925c11.563,2.089,23.983,6.077,34.369,18.016
			C607.345,646.906,611.949,654.588,615.856,664.733z M778.177,602.658c-3.317,4.846-23.1,20.396-139.14,20.396
			c-10.331,0-19.887-0.134-28.694-0.348c-13.116-11.778-27.677-15.979-39.268-18.041c-12.261-2.195-26.207-6.184-34.076-9.155
			c0-2.597,0.054-6.21,0.32-10.867c4.176-6.907,11.993-21.79,15.205-30.195c1.848-1.551,3.587-3.346,5.087-5.3
			c13.464-3.158,27.248-7.547,33.406-10.921c1.497-0.802,2.729-1.979,3.64-3.427c9.824,7.737,24.813,14.99,42.187,15.688h0.427
			c16.865,0,30.812-2.812,46.229-15.634c0.777,1.394,1.953,2.49,3.372,3.267c8.833,4.844,29.928,10.707,44.354,13.276
			c17.185,3.051,36.297,10.493,48.103,41.758C780.642,596.368,780.213,599.768,778.177,602.658z"/>
	</g>
	<path fill="#FFFFFF" d="M475.567,863.379c-193.262,0-350.493-157.219-350.493-350.48c0-193.263,157.231-350.494,350.493-350.494
		c193.213,0,350.432,157.231,350.432,350.494C825.999,706.16,668.78,863.379,475.567,863.379z M475.567,187.419
		c-179.473,0-325.479,146.006-325.479,325.479c0,179.436,146.006,325.466,325.479,325.466c179.436,0,325.417-146.03,325.417-325.466
		C800.984,333.425,655.003,187.419,475.567,187.419z"/>
	<g>
		<path fill="#E6EDEF" d="M475.53,930.018c-230.515,0-418.048-187.509-418.048-417.999c0-230.503,187.533-418.037,418.048-418.037
			c230.479,0,417.987,187.534,417.987,418.037C893.518,742.509,706.009,930.018,475.53,930.018z M475.53,169.025
			c-189.133,0-343.005,153.872-343.005,342.994c0,189.108,153.872,342.956,343.005,342.956
			c189.098,0,342.945-153.848,342.945-342.956C818.476,322.897,664.628,169.025,475.53,169.025z"/>
		<path fill="#EA785E" d="M475.665,913.016c-169.14,0-320.52-107.141-376.716-266.607c-3.444-9.771,1.686-20.47,11.469-23.939
			c9.734-3.42,20.482,1.711,23.927,11.482c50.908,144.467,188.071,241.543,341.32,241.543c199.418,0,361.669-162.25,361.669-361.668
			c0-75.312-22.914-147.472-66.249-208.701c-6.01-8.452-4.006-20.166,4.446-26.15c8.501-5.96,20.177-3.957,26.187,4.483
			c47.83,67.592,73.138,147.252,73.138,230.368C874.855,733.959,695.749,913.016,475.665,913.016z"/>
	</g>
</g>
</svg>
