<?xml version="1.0" encoding="UTF-8" standalone="no"?>
<svg width="12px" height="12px" viewBox="0 0 12 12" version="1.1" xmlns="http://www.w3.org/2000/svg" xmlns:xlink="http://www.w3.org/1999/xlink">
    <!-- Generator: Sketch 46.2 (44496) - http://www.bohemiancoding.com/sketch -->
    <title>Shape</title>
    <desc>Created with Sketch.</desc>
    <defs></defs>
    <g id="Assets" stroke="none" stroke-width="1" fill="none" fill-rule="evenodd">
        <path d="M6,0 C2.7027027,0 0,2.7027027 0,6 C0,9.2972973 2.7027027,12 6,12 C9.2972973,12 12,9.2972973 12,6 C12,2.7027027 9.2972973,0 6,0 Z M7.24324324,6.21621622 L9.18918919,8.16216216 C9.24324324,8.27027027 9.24324324,8.37837838 9.18918919,8.48648649 L8.48648649,9.18918919 C8.37837838,9.2972973 8.21621622,9.2972973 8.10810811,9.18918919 L6.16216216,7.24324324 C6.05405405,7.13513514 5.94594595,7.13513514 5.83783784,7.24324324 L3.89189189,9.18918919 C3.78378378,9.2972973 3.62162162,9.2972973 3.51351351,9.18918919 L2.81081081,8.48648649 C2.75675676,8.37837838 2.75675676,8.27027027 2.81081081,8.16216216 L4.75675676,6.21621622 C4.86486486,6.10810811 4.86486486,5.94594595 4.75675676,5.83783784 L2.81081081,3.89189189 C2.7027027,3.78378378 2.7027027,3.62162162 2.81081081,3.51351351 L3.51351351,2.81081081 C3.62162162,2.75675676 3.72972973,2.75675676 3.83783784,2.81081081 L5.83783784,4.81081081 C5.94594595,4.91891892 6.05405405,4.91891892 6.16216216,4.81081081 L8.10810811,2.86486486 C8.21621622,2.75675676 8.37837838,2.75675676 8.48648649,2.86486486 L9.18918919,3.56756757 C9.24324324,3.67567568 9.24324324,3.78378378 9.18918919,3.89189189 L7.24324324,5.83783784 C7.13513514,5.94594595 7.13513514,6.10810811 7.24324324,6.21621622 L7.24324324,6.21621622 Z" id="Shape" fill="#C23934"></path>
    </g>
</svg>