<?xml version="1.0" encoding="utf-8"?>
<!-- Generator: Adobe Illustrator 16.0.0, SVG Export Plug-In . SVG Version: 6.00 Build 0)  -->
<!DOCTYPE svg PUBLIC "-//W3C//DTD SVG 1.1//EN" "http://www.w3.org/Graphics/SVG/1.1/DTD/svg11.dtd">
<svg version="1.1" id="Layer_1" xmlns="http://www.w3.org/2000/svg" xmlns:xlink="http://www.w3.org/1999/xlink" x="0px" y="0px"
  width="951px" height="1024px" viewBox="0 0 951 1024" enable-background="new 0 0 951 1024" xml:space="preserve">
<path d="M475.49,176.168c-185.481,0-335.827,150.355-335.827,335.837c0,185.481,150.346,335.827,335.827,335.827
  s335.847-150.346,335.847-335.827C811.337,326.523,660.972,176.168,475.49,176.168z M411.443,746.435
  c-25.771,0-43.67-12.185-43.67-39.394c0-34.322,24.333-93.053,29.365-105.199l50.103-126.014
  c4.995-12.866-1.438-19.299-7.189-19.299c-26.451,0-60.85,62.288-73.716,62.288c-5.033,0-9.31-5.033-9.31-9.347
  c0-12.866,31.484-42.95,40.832-52.222c28.608-27.208,65.845-47.983,107.356-47.983c30.766,0,63.726,18.618,37.956,88.058
  l-51.579,139.561c-4.275,10.747-12.146,28.646-12.146,40.112c0,4.995,2.838,10.028,8.59,10.028c21.456,0,60.85-60.85,70.878-60.85
  c3.557,0,8.552,4.275,8.552,10.709C567.465,657.658,483.759,746.435,411.443,746.435z M534.58,383.532
  c-29.365,0-48.702-19.337-48.702-48.703c0-31.484,27.208-57.254,58.692-57.254c28.646,0,49.384,19.299,49.384,48.665
  C593.954,359.162,566.784,383.532,534.58,383.532z"/>
</svg>
