<?xml version="1.0" encoding="utf-8"?>
<!-- Generator: Adobe Illustrator 16.0.0, SVG Export Plug-In . SVG Version: 6.00 Build 0)  -->
<!DOCTYPE svg PUBLIC "-//W3C//DTD SVG 1.1//EN" "http://www.w3.org/Graphics/SVG/1.1/DTD/svg11.dtd">
<svg version="1.1" id="Layer_1" xmlns="http://www.w3.org/2000/svg" xmlns:xlink="http://www.w3.org/1999/xlink" x="0px" y="0px"
	 width="951px" height="1024px" viewBox="0 0 951 1024" enable-background="new 0 0 951 1024" xml:space="preserve">
<g id="icomoon-ignore">
</g>
<path d="M475.5,104.068c-228.179,0-413.789,183.001-413.789,407.938c0,224.925,185.61,407.927,413.789,407.927
	c228.155,0,413.79-183.002,413.79-407.927C889.29,287.069,703.655,104.068,475.5,104.068z M87.323,524.477h152.866
	c1.073,64.024,10.167,123.854,25.819,176.663H137.852C107.437,648.721,89.432,588.599,87.323,524.477z M487.983,322.86h170.47
	c16.481,52.443,26.234,112.566,27.355,176.663H487.983V322.86z M487.983,297.895V130.18c67.389,7.241,126.39,71.825,162.083,167.715
	H487.983z M463.018,130.18v167.715h-162.12C336.604,202.005,395.642,137.421,463.018,130.18z M463.018,322.86v176.663H265.156
	c1.133-64.097,10.897-124.22,27.379-176.663H463.018z M240.189,499.523H87.323c2.108-64.097,20.113-124.22,50.517-176.663h128.169
	C250.356,375.693,241.263,435.523,240.189,499.523z M265.156,524.477h197.861V701.14H292.535
	C276.054,648.721,266.289,588.599,265.156,524.477z M463.018,726.105v167.69c-67.376-7.217-126.414-71.776-162.12-167.69H463.018z
	 M487.983,893.796v-167.69h162.083C614.373,822.02,555.372,886.579,487.983,893.796z M487.983,701.14V524.477h197.825
	c-1.121,64.122-10.874,124.244-27.355,176.663H487.983z M710.774,524.477H863.69c-2.146,64.122-20.139,124.244-50.565,176.663
	H684.979C700.632,648.331,709.702,588.501,710.774,524.477z M710.774,499.523c-1.072-64-10.143-123.83-25.795-176.663h128.194
	c30.378,52.443,48.371,112.566,50.517,176.663H710.774z M797.716,297.895H676.788c-23.698-67.632-58.417-121.659-100.254-155.28
	C667.815,166.873,746.029,222.68,797.716,297.895z M374.442,142.614c-41.837,33.621-76.556,87.648-100.266,155.28H153.272
	C204.96,222.704,283.186,166.873,374.442,142.614z M153.285,726.105h120.892c23.71,67.632,58.429,121.66,100.266,155.257
	C283.186,857.128,204.96,801.296,153.285,726.105z M576.534,881.362c41.837-33.597,76.556-87.625,100.254-155.257h120.928
	C746.029,801.296,667.815,857.128,576.534,881.362z"/>
</svg>
